<svg width="289" height="172" viewBox="0 0 289 172" fill="none" xmlns="http://www.w3.org/2000/svg">
<g filter="url(#filter0_d_1045_188)">
<path d="M80.912 104L75.728 93.728L74.096 89.312L64.304 62.336C64.24 62.016 64.016 61.728 63.632 61.472C63.248 61.216 62.896 61.088 62.576 61.088C62.256 61.088 62 61.216 61.808 61.472C61.68 61.728 61.68 62.016 61.808 62.336L63.728 67.616H48.56L47.408 64.544C45.168 58.592 44.816 53.984 46.352 50.72C47.888 47.392 51.44 45.728 57.008 45.728C63.024 45.728 67.888 47.264 71.6 50.336C75.376 53.408 78.512 58.368 81.008 65.216L95.12 104H80.912ZM71.024 104.672C67.952 104.672 65.104 103.328 62.48 100.64C59.856 97.888 57.392 93.312 55.088 86.912C52.72 80.448 51.952 75.872 52.784 73.184C53.68 70.496 56.048 69.152 59.888 69.152C62.64 69.152 64.88 69.728 66.608 70.88C68.4 72.032 69.712 73.824 70.544 76.256L72.368 81.344H71.216L70.64 79.808H69.68C69.168 79.808 68.816 79.968 68.624 80.288C68.496 80.544 68.528 80.896 68.72 81.344L71.408 88.736C71.472 89.056 71.696 89.344 72.08 89.6C72.464 89.856 72.816 89.984 73.136 89.984C73.456 89.984 73.68 89.856 73.808 89.6C74 89.344 74.032 89.056 73.904 88.736L73.808 88.448L76.016 92.192C77.36 94.496 77.968 96.608 77.84 98.528C77.776 100.384 77.104 101.888 75.824 103.04C74.608 104.128 73.008 104.672 71.024 104.672ZM104.437 123.2L76.5005 46.4H90.7085L94.4525 53.696C94.1325 51.2 94.4525 49.248 95.4125 47.84C96.4365 46.432 98.0045 45.728 100.117 45.728C102.613 45.728 104.853 46.496 106.837 48.032C108.885 49.568 111.029 52.32 113.269 56.288C115.509 60.256 118.005 65.92 120.757 73.28L122.197 77.12C124.949 84.416 126.645 90.08 127.285 94.112C127.989 98.08 127.829 100.832 126.805 102.368C125.845 103.904 124.117 104.672 121.621 104.672C119.509 104.672 117.557 104.064 115.765 102.848C113.973 101.632 112.213 99.616 110.484 96.8L120.085 123.2H104.437ZM108.565 88.64C109.077 88.64 109.397 88.512 109.525 88.256C109.717 87.936 109.717 87.552 109.525 87.104L100.501 62.336C100.437 62.016 100.213 61.728 99.8285 61.472C99.4445 61.216 99.0925 61.088 98.7725 61.088C98.4525 61.088 98.1965 61.216 98.0045 61.472C97.8765 61.728 97.8765 62.016 98.0045 62.336L107.509 88.64H108.565ZM133.411 104L126.499 76.256L112.482 46.4H129.571L137.251 67.424C137.379 67.744 137.603 68.032 137.923 68.288C138.307 68.544 138.659 68.672 138.979 68.672C139.299 68.672 139.555 68.544 139.747 68.288C139.939 68.032 139.971 67.744 139.843 67.424L132.163 46.4H149.347L156.259 74.336L170.275 104H153.091L145.507 82.976C145.379 82.656 145.123 82.368 144.739 82.112C144.419 81.856 144.099 81.728 143.779 81.728C143.459 81.728 143.203 81.856 143.011 82.112C142.819 82.368 142.787 82.656 142.915 82.976L150.595 104H133.411ZM171.772 104L150.844 46.4H165.82L172.252 77.12C172.316 77.568 172.508 77.952 172.828 78.272C173.212 78.528 173.596 78.656 173.98 78.656C174.3 78.656 174.524 78.528 174.652 78.272C174.844 78.016 174.876 77.728 174.748 77.408L168.316 46.4H185.308L206.236 104H191.356L185.02 73.28C184.956 72.832 184.732 72.48 184.348 72.224C184.028 71.904 183.676 71.744 183.292 71.744C182.972 71.744 182.716 71.872 182.524 72.128C182.396 72.32 182.364 72.608 182.428 72.992L188.956 104H171.772ZM208.522 104L187.594 46.4H204.202C208.682 46.4 212.362 46.944 215.242 48.032C218.186 49.12 220.586 50.816 222.442 53.12C224.298 55.424 225.962 58.56 227.434 62.528C229.226 67.328 229.642 70.88 228.682 73.184C227.722 75.488 225.418 76.64 221.77 76.64L220.618 73.472C224.266 73.472 227.498 74.624 230.314 76.928C233.13 79.232 235.37 82.656 237.034 87.2C239.21 93.152 239.306 97.44 237.322 100.064C235.402 102.688 231.37 104 225.226 104H208.522ZM220.522 91.232C221.034 91.232 221.386 91.104 221.578 90.848C221.77 90.592 221.77 90.208 221.578 89.696L218.602 81.632C218.282 80.608 217.578 80.096 216.49 80.096H215.53L219.562 91.232H220.522ZM213.034 70.496C213.546 70.496 213.866 70.368 213.994 70.112C214.186 69.792 214.186 69.408 213.994 68.96L211.018 60.704C210.826 60.192 210.538 59.808 210.154 59.552C209.77 59.296 209.354 59.168 208.906 59.168H207.946L212.074 70.496H213.034Z" fill="white"/>
</g>
<defs>
<filter id="filter0_d_1045_188" x="40.0488" y="45.7285" width="204.25" height="110.471" filterUnits="userSpaceOnUse" color-interpolation-filters="sRGB">
<feFlood flood-opacity="0" result="BackgroundImageFix"/>
<feColorMatrix in="SourceAlpha" type="matrix" values="0 0 0 0 0 0 0 0 0 0 0 0 0 0 0 0 0 0 127 0" result="hardAlpha"/>
<feOffset dy="29"/>
<feGaussianBlur stdDeviation="2"/>
<feComposite in2="hardAlpha" operator="out"/>
<feColorMatrix type="matrix" values="0 0 0 0 0 0 0 0 0 0 0 0 0 0 0 0 0 0 0.25 0"/>
<feBlend mode="normal" in2="BackgroundImageFix" result="effect1_dropShadow_1045_188"/>
<feBlend mode="normal" in="SourceGraphic" in2="effect1_dropShadow_1045_188" result="shape"/>
</filter>
</defs>
</svg>
