<svg width="989" height="28" viewBox="0 0 989 28" fill="none" xmlns="http://www.w3.org/2000/svg">
<path d="M2.80078 18.0625C2.86328 18.7656 3.03906 19.3047 3.32812 19.6797C3.85938 20.3594 4.78125 20.6992 6.09375 20.6992C6.875 20.6992 7.5625 20.5312 8.15625 20.1953C8.75 19.8516 9.04688 19.3242 9.04688 18.6133C9.04688 18.0742 8.80859 17.6641 8.33203 17.3828C8.02734 17.2109 7.42578 17.0117 6.52734 16.7852L4.85156 16.3633C3.78125 16.0977 2.99219 15.8008 2.48438 15.4727C1.57812 14.9023 1.125 14.1133 1.125 13.1055C1.125 11.918 1.55078 10.957 2.40234 10.2227C3.26172 9.48828 4.41406 9.12109 5.85938 9.12109C7.75 9.12109 9.11328 9.67578 9.94922 10.7852C10.4727 11.4883 10.7266 12.2461 10.7109 13.0586H8.71875C8.67969 12.582 8.51172 12.1484 8.21484 11.7578C7.73047 11.2031 6.89062 10.9258 5.69531 10.9258C4.89844 10.9258 4.29297 11.0781 3.87891 11.3828C3.47266 11.6875 3.26953 12.0898 3.26953 12.5898C3.26953 13.1367 3.53906 13.5742 4.07812 13.9023C4.39062 14.0977 4.85156 14.2695 5.46094 14.418L6.85547 14.7578C8.37109 15.125 9.38672 15.4805 9.90234 15.8242C10.7227 16.3633 11.1328 17.2109 11.1328 18.3672C11.1328 19.4844 10.707 20.4492 9.85547 21.2617C9.01172 22.0742 7.72266 22.4805 5.98828 22.4805C4.12109 22.4805 2.79688 22.0586 2.01562 21.2148C1.24219 20.3633 0.828125 19.3125 0.773438 18.0625H2.80078ZM15.6562 9.44922V17.7812C15.6562 18.4219 15.7578 18.9453 15.9609 19.3516C16.3359 20.1016 17.0352 20.4766 18.0586 20.4766C19.5273 20.4766 20.5273 19.8203 21.0586 18.5078C21.3477 17.8047 21.4922 16.8398 21.4922 15.6133V9.44922H23.6016V22H21.6094L21.6328 20.1484C21.3594 20.625 21.0195 21.0273 20.6133 21.3555C19.8086 22.0117 18.832 22.3398 17.6836 22.3398C15.8945 22.3398 14.6758 21.7422 14.0273 20.5469C13.6758 19.9062 13.5 19.0508 13.5 17.9805V9.44922H15.6562ZM26.9062 9.44922H28.9102V11.2305C29.5039 10.4961 30.1328 9.96875 30.7969 9.64844C31.4609 9.32812 32.1992 9.16797 33.0117 9.16797C34.793 9.16797 35.9961 9.78906 36.6211 11.0312C36.9648 11.7109 37.1367 12.6836 37.1367 13.9492V22H34.9922V14.0898C34.9922 13.3242 34.8789 12.707 34.6523 12.2383C34.2773 11.457 33.5977 11.0664 32.6133 11.0664C32.1133 11.0664 31.7031 11.1172 31.3828 11.2188C30.8047 11.3906 30.2969 11.7344 29.8594 12.25C29.5078 12.6641 29.2773 13.0938 29.168 13.5391C29.0664 13.9766 29.0156 14.6055 29.0156 15.4258V22H26.9062V9.44922ZM44.6953 9.22656C45.6797 9.22656 46.5391 9.46875 47.2734 9.95312C47.6719 10.2266 48.0781 10.625 48.4922 11.1484V9.56641H50.4375V20.9805C50.4375 22.5742 50.2031 23.832 49.7344 24.7539C48.8594 26.457 47.207 27.3086 44.7773 27.3086C43.4258 27.3086 42.2891 27.0039 41.3672 26.3945C40.4453 25.793 39.9297 24.8477 39.8203 23.5586H41.9648C42.0664 24.1211 42.2695 24.5547 42.5742 24.8594C43.0508 25.3281 43.8008 25.5625 44.8242 25.5625C46.4414 25.5625 47.5 24.9922 48 23.8516C48.2969 23.1797 48.4336 21.9805 48.4102 20.2539C47.9883 20.8945 47.4805 21.3711 46.8867 21.6836C46.293 21.9961 45.5078 22.1523 44.5312 22.1523C43.1719 22.1523 41.9805 21.6719 40.957 20.7109C39.9414 19.7422 39.4336 18.1445 39.4336 15.918C39.4336 13.8164 39.9453 12.1758 40.9688 10.9961C42 9.81641 43.2422 9.22656 44.6953 9.22656ZM48.4922 15.6719C48.4922 14.1172 48.1719 12.9648 47.5312 12.2148C46.8906 11.4648 46.0742 11.0898 45.082 11.0898C43.5977 11.0898 42.582 11.7852 42.0352 13.1758C41.7461 13.918 41.6016 14.8906 41.6016 16.0938C41.6016 17.5078 41.8867 18.5859 42.457 19.3281C43.0352 20.0625 43.8086 20.4297 44.7773 20.4297C46.293 20.4297 47.3594 19.7461 47.9766 18.3789C48.3203 17.6055 48.4922 16.7031 48.4922 15.6719ZM53.6836 4.78516H55.793V22H53.6836V4.78516ZM60.5859 18.6602C60.5859 19.2695 60.8086 19.75 61.2539 20.1016C61.6992 20.4531 62.2266 20.6289 62.8359 20.6289C63.5781 20.6289 64.2969 20.457 64.9922 20.1133C66.1641 19.543 66.75 18.6094 66.75 17.3125V15.6133C66.4922 15.7773 66.1602 15.9141 65.7539 16.0234C65.3477 16.1328 64.9492 16.2109 64.5586 16.2578L63.2812 16.4219C62.5156 16.5234 61.9414 16.6836 61.5586 16.9023C60.9102 17.2695 60.5859 17.8555 60.5859 18.6602ZM65.6953 14.3945C66.1797 14.332 66.5039 14.1289 66.668 13.7852C66.7617 13.5977 66.8086 13.3281 66.8086 12.9766C66.8086 12.2578 66.5508 11.7383 66.0352 11.418C65.5273 11.0898 64.7969 10.9258 63.8438 10.9258C62.7422 10.9258 61.9609 11.2227 61.5 11.8164C61.2422 12.1445 61.0742 12.6328 60.9961 13.2812H59.0273C59.0664 11.7344 59.5664 10.6602 60.5273 10.0586C61.4961 9.44922 62.6172 9.14453 63.8906 9.14453C65.3672 9.14453 66.5664 9.42578 67.4883 9.98828C68.4023 10.5508 68.8594 11.4258 68.8594 12.6133V19.8438C68.8594 20.0625 68.9023 20.2383 68.9883 20.3711C69.082 20.5039 69.2734 20.5703 69.5625 20.5703C69.6562 20.5703 69.7617 20.5664 69.8789 20.5586C69.9961 20.543 70.1211 20.5234 70.2539 20.5V22.0586C69.9258 22.1523 69.6758 22.2109 69.5039 22.2344C69.332 22.2578 69.0977 22.2695 68.8008 22.2695C68.0742 22.2695 67.5469 22.0117 67.2188 21.4961C67.0469 21.2227 66.9258 20.8359 66.8555 20.3359C66.4258 20.8984 65.8086 21.3867 65.0039 21.8008C64.1992 22.2148 63.3125 22.4219 62.3438 22.4219C61.1797 22.4219 60.2266 22.0703 59.4844 21.3672C58.75 20.6562 58.3828 19.7695 58.3828 18.707C58.3828 17.543 58.7461 16.6406 59.4727 16C60.1992 15.3594 61.1523 14.9648 62.332 14.8164L65.6953 14.3945ZM73.582 18.0625C73.6445 18.7656 73.8203 19.3047 74.1094 19.6797C74.6406 20.3594 75.5625 20.6992 76.875 20.6992C77.6562 20.6992 78.3438 20.5312 78.9375 20.1953C79.5312 19.8516 79.8281 19.3242 79.8281 18.6133C79.8281 18.0742 79.5898 17.6641 79.1133 17.3828C78.8086 17.2109 78.207 17.0117 77.3086 16.7852L75.6328 16.3633C74.5625 16.0977 73.7734 15.8008 73.2656 15.4727C72.3594 14.9023 71.9062 14.1133 71.9062 13.1055C71.9062 11.918 72.332 10.957 73.1836 10.2227C74.043 9.48828 75.1953 9.12109 76.6406 9.12109C78.5312 9.12109 79.8945 9.67578 80.7305 10.7852C81.2539 11.4883 81.5078 12.2461 81.4922 13.0586H79.5C79.4609 12.582 79.293 12.1484 78.9961 11.7578C78.5117 11.2031 77.6719 10.9258 76.4766 10.9258C75.6797 10.9258 75.0742 11.0781 74.6602 11.3828C74.2539 11.6875 74.0508 12.0898 74.0508 12.5898C74.0508 13.1367 74.3203 13.5742 74.8594 13.9023C75.1719 14.0977 75.6328 14.2695 76.2422 14.418L77.6367 14.7578C79.1523 15.125 80.168 15.4805 80.6836 15.8242C81.5039 16.3633 81.9141 17.2109 81.9141 18.3672C81.9141 19.4844 81.4883 20.4492 80.6367 21.2617C79.793 22.0742 78.5039 22.4805 76.7695 22.4805C74.9023 22.4805 73.5781 22.0586 72.7969 21.2148C72.0234 20.3633 71.6094 19.3125 71.5547 18.0625H73.582ZM85.582 18.0625C85.6445 18.7656 85.8203 19.3047 86.1094 19.6797C86.6406 20.3594 87.5625 20.6992 88.875 20.6992C89.6562 20.6992 90.3438 20.5312 90.9375 20.1953C91.5312 19.8516 91.8281 19.3242 91.8281 18.6133C91.8281 18.0742 91.5898 17.6641 91.1133 17.3828C90.8086 17.2109 90.207 17.0117 89.3086 16.7852L87.6328 16.3633C86.5625 16.0977 85.7734 15.8008 85.2656 15.4727C84.3594 14.9023 83.9062 14.1133 83.9062 13.1055C83.9062 11.918 84.332 10.957 85.1836 10.2227C86.043 9.48828 87.1953 9.12109 88.6406 9.12109C90.5312 9.12109 91.8945 9.67578 92.7305 10.7852C93.2539 11.4883 93.5078 12.2461 93.4922 13.0586H91.5C91.4609 12.582 91.293 12.1484 90.9961 11.7578C90.5117 11.2031 89.6719 10.9258 88.4766 10.9258C87.6797 10.9258 87.0742 11.0781 86.6602 11.3828C86.2539 11.6875 86.0508 12.0898 86.0508 12.5898C86.0508 13.1367 86.3203 13.5742 86.8594 13.9023C87.1719 14.0977 87.6328 14.2695 88.2422 14.418L89.6367 14.7578C91.1523 15.125 92.168 15.4805 92.6836 15.8242C93.5039 16.3633 93.9141 17.2109 93.9141 18.3672C93.9141 19.4844 93.4883 20.4492 92.6367 21.2617C91.793 22.0742 90.5039 22.4805 88.7695 22.4805C86.9023 22.4805 85.5781 22.0586 84.7969 21.2148C84.0234 20.3633 83.6094 19.3125 83.5547 18.0625H85.582ZM101.555 9.16797C102.445 9.16797 103.309 9.37891 104.145 9.80078C104.98 10.2148 105.617 10.7539 106.055 11.418C106.477 12.0508 106.758 12.7891 106.898 13.6328C107.023 14.2109 107.086 15.1328 107.086 16.3984H97.8867C97.9258 17.6719 98.2266 18.6953 98.7891 19.4688C99.3516 20.2344 100.223 20.6172 101.402 20.6172C102.504 20.6172 103.383 20.2539 104.039 19.5273C104.414 19.1055 104.68 18.6172 104.836 18.0625H106.91C106.855 18.5234 106.672 19.0391 106.359 19.6094C106.055 20.1719 105.711 20.6328 105.328 20.9922C104.688 21.6172 103.895 22.0391 102.949 22.2578C102.441 22.3828 101.867 22.4453 101.227 22.4453C99.6641 22.4453 98.3398 21.8789 97.2539 20.7461C96.168 19.6055 95.625 18.0117 95.625 15.9648C95.625 13.9492 96.1719 12.3125 97.2656 11.0547C98.3594 9.79688 99.7891 9.16797 101.555 9.16797ZM104.918 14.7227C104.832 13.8086 104.633 13.0781 104.32 12.5312C103.742 11.5156 102.777 11.0078 101.426 11.0078C100.457 11.0078 99.6445 11.3594 98.9883 12.0625C98.332 12.7578 97.9844 13.6445 97.9453 14.7227H104.918ZM110.941 18.0625C111.004 18.7656 111.18 19.3047 111.469 19.6797C112 20.3594 112.922 20.6992 114.234 20.6992C115.016 20.6992 115.703 20.5312 116.297 20.1953C116.891 19.8516 117.188 19.3242 117.188 18.6133C117.188 18.0742 116.949 17.6641 116.473 17.3828C116.168 17.2109 115.566 17.0117 114.668 16.7852L112.992 16.3633C111.922 16.0977 111.133 15.8008 110.625 15.4727C109.719 14.9023 109.266 14.1133 109.266 13.1055C109.266 11.918 109.691 10.957 110.543 10.2227C111.402 9.48828 112.555 9.12109 114 9.12109C115.891 9.12109 117.254 9.67578 118.09 10.7852C118.613 11.4883 118.867 12.2461 118.852 13.0586H116.859C116.82 12.582 116.652 12.1484 116.355 11.7578C115.871 11.2031 115.031 10.9258 113.836 10.9258C113.039 10.9258 112.434 11.0781 112.02 11.3828C111.613 11.6875 111.41 12.0898 111.41 12.5898C111.41 13.1367 111.68 13.5742 112.219 13.9023C112.531 14.0977 112.992 14.2695 113.602 14.418L114.996 14.7578C116.512 15.125 117.527 15.4805 118.043 15.8242C118.863 16.3633 119.273 17.2109 119.273 18.3672C119.273 19.4844 118.848 20.4492 117.996 21.2617C117.152 22.0742 115.863 22.4805 114.129 22.4805C112.262 22.4805 110.938 22.0586 110.156 21.2148C109.383 20.3633 108.969 19.3125 108.914 18.0625H110.941ZM127.57 22C127.648 20.5547 127.945 19.2969 128.461 18.2266C128.984 17.1562 130 16.1836 131.508 15.3086L133.758 14.0078C134.766 13.4219 135.473 12.9219 135.879 12.5078C136.52 11.8594 136.84 11.1172 136.84 10.2812C136.84 9.30469 136.547 8.53125 135.961 7.96094C135.375 7.38281 134.594 7.09375 133.617 7.09375C132.172 7.09375 131.172 7.64063 130.617 8.73438C130.32 9.32031 130.156 10.1328 130.125 11.1719H127.98C128.004 9.71094 128.273 8.51953 128.789 7.59766C129.703 5.97266 131.316 5.16016 133.629 5.16016C135.551 5.16016 136.953 5.67969 137.836 6.71875C138.727 7.75781 139.172 8.91406 139.172 10.1875C139.172 11.5312 138.699 12.6797 137.754 13.6328C137.207 14.1875 136.227 14.8594 134.812 15.6484L133.207 16.5391C132.441 16.9609 131.84 17.3633 131.402 17.7461C130.621 18.4258 130.129 19.1797 129.926 20.0078H139.09V22H127.57ZM146.672 5.21875C148.844 5.21875 150.414 6.11328 151.383 7.90234C152.133 9.28516 152.508 11.1797 152.508 13.5859C152.508 15.8672 152.168 17.7539 151.488 19.2461C150.504 21.3867 148.895 22.457 146.66 22.457C144.645 22.457 143.145 21.582 142.16 19.832C141.34 18.3711 140.93 16.4102 140.93 13.9492C140.93 12.043 141.176 10.4062 141.668 9.03906C142.59 6.49219 144.258 5.21875 146.672 5.21875ZM146.648 20.5352C147.742 20.5352 148.613 20.0508 149.262 19.082C149.91 18.1133 150.234 16.3086 150.234 13.668C150.234 11.7617 150 10.1953 149.531 8.96875C149.062 7.73438 148.152 7.11719 146.801 7.11719C145.559 7.11719 144.648 7.70312 144.07 8.875C143.5 10.0391 143.215 11.7578 143.215 14.0312C143.215 15.7422 143.398 17.1172 143.766 18.1562C144.328 19.7422 145.289 20.5352 146.648 20.5352ZM154.289 22C154.367 20.5547 154.664 19.2969 155.18 18.2266C155.703 17.1562 156.719 16.1836 158.227 15.3086L160.477 14.0078C161.484 13.4219 162.191 12.9219 162.598 12.5078C163.238 11.8594 163.559 11.1172 163.559 10.2812C163.559 9.30469 163.266 8.53125 162.68 7.96094C162.094 7.38281 161.312 7.09375 160.336 7.09375C158.891 7.09375 157.891 7.64063 157.336 8.73438C157.039 9.32031 156.875 10.1328 156.844 11.1719H154.699C154.723 9.71094 154.992 8.51953 155.508 7.59766C156.422 5.97266 158.035 5.16016 160.348 5.16016C162.27 5.16016 163.672 5.67969 164.555 6.71875C165.445 7.75781 165.891 8.91406 165.891 10.1875C165.891 11.5312 165.418 12.6797 164.473 13.6328C163.926 14.1875 162.945 14.8594 161.531 15.6484L159.926 16.5391C159.16 16.9609 158.559 17.3633 158.121 17.7461C157.34 18.4258 156.848 19.1797 156.645 20.0078H165.809V22H154.289ZM174.832 16.0586V8.45312L169.453 16.0586H174.832ZM174.867 22V17.8984H167.508V15.8359L175.195 5.17188H176.977V16.0586H179.449V17.8984H176.977V22H174.867Z" fill="#FFFE61"/>
<path d="M346.801 18.0625C346.863 18.7656 347.039 19.3047 347.328 19.6797C347.859 20.3594 348.781 20.6992 350.094 20.6992C350.875 20.6992 351.562 20.5312 352.156 20.1953C352.75 19.8516 353.047 19.3242 353.047 18.6133C353.047 18.0742 352.809 17.6641 352.332 17.3828C352.027 17.2109 351.426 17.0117 350.527 16.7852L348.852 16.3633C347.781 16.0977 346.992 15.8008 346.484 15.4727C345.578 14.9023 345.125 14.1133 345.125 13.1055C345.125 11.918 345.551 10.957 346.402 10.2227C347.262 9.48828 348.414 9.12109 349.859 9.12109C351.75 9.12109 353.113 9.67578 353.949 10.7852C354.473 11.4883 354.727 12.2461 354.711 13.0586H352.719C352.68 12.582 352.512 12.1484 352.215 11.7578C351.73 11.2031 350.891 10.9258 349.695 10.9258C348.898 10.9258 348.293 11.0781 347.879 11.3828C347.473 11.6875 347.27 12.0898 347.27 12.5898C347.27 13.1367 347.539 13.5742 348.078 13.9023C348.391 14.0977 348.852 14.2695 349.461 14.418L350.855 14.7578C352.371 15.125 353.387 15.4805 353.902 15.8242C354.723 16.3633 355.133 17.2109 355.133 18.3672C355.133 19.4844 354.707 20.4492 353.855 21.2617C353.012 22.0742 351.723 22.4805 349.988 22.4805C348.121 22.4805 346.797 22.0586 346.016 21.2148C345.242 20.3633 344.828 19.3125 344.773 18.0625H346.801ZM357.969 5.94531H360.102V9.44922H362.105V11.1719H360.102V19.3633C360.102 19.8008 360.25 20.0938 360.547 20.2422C360.711 20.3281 360.984 20.3711 361.367 20.3711C361.469 20.3711 361.578 20.3711 361.695 20.3711C361.812 20.3633 361.949 20.3516 362.105 20.3359V22C361.863 22.0703 361.609 22.1211 361.344 22.1523C361.086 22.1836 360.805 22.1992 360.5 22.1992C359.516 22.1992 358.848 21.9492 358.496 21.4492C358.145 20.9414 357.969 20.2852 357.969 19.4805V11.1719H356.27V9.44922H357.969V5.94531ZM364.285 9.44922H366.289V11.6172C366.453 11.1953 366.855 10.6836 367.496 10.082C368.137 9.47266 368.875 9.16797 369.711 9.16797C369.75 9.16797 369.816 9.17188 369.91 9.17969C370.004 9.1875 370.164 9.20312 370.391 9.22656V11.4531C370.266 11.4297 370.148 11.4141 370.039 11.4062C369.938 11.3984 369.824 11.3945 369.699 11.3945C368.637 11.3945 367.82 11.7383 367.25 12.4258C366.68 13.1055 366.395 13.8906 366.395 14.7812V22H364.285V9.44922ZM377.445 9.16797C378.336 9.16797 379.199 9.37891 380.035 9.80078C380.871 10.2148 381.508 10.7539 381.945 11.418C382.367 12.0508 382.648 12.7891 382.789 13.6328C382.914 14.2109 382.977 15.1328 382.977 16.3984H373.777C373.816 17.6719 374.117 18.6953 374.68 19.4688C375.242 20.2344 376.113 20.6172 377.293 20.6172C378.395 20.6172 379.273 20.2539 379.93 19.5273C380.305 19.1055 380.57 18.6172 380.727 18.0625H382.801C382.746 18.5234 382.562 19.0391 382.25 19.6094C381.945 20.1719 381.602 20.6328 381.219 20.9922C380.578 21.6172 379.785 22.0391 378.84 22.2578C378.332 22.3828 377.758 22.4453 377.117 22.4453C375.555 22.4453 374.23 21.8789 373.145 20.7461C372.059 19.6055 371.516 18.0117 371.516 15.9648C371.516 13.9492 372.062 12.3125 373.156 11.0547C374.25 9.79688 375.68 9.16797 377.445 9.16797ZM380.809 14.7227C380.723 13.8086 380.523 13.0781 380.211 12.5312C379.633 11.5156 378.668 11.0078 377.316 11.0078C376.348 11.0078 375.535 11.3594 374.879 12.0625C374.223 12.7578 373.875 13.6445 373.836 14.7227H380.809ZM390.805 9.16797C391.695 9.16797 392.559 9.37891 393.395 9.80078C394.23 10.2148 394.867 10.7539 395.305 11.418C395.727 12.0508 396.008 12.7891 396.148 13.6328C396.273 14.2109 396.336 15.1328 396.336 16.3984H387.137C387.176 17.6719 387.477 18.6953 388.039 19.4688C388.602 20.2344 389.473 20.6172 390.652 20.6172C391.754 20.6172 392.633 20.2539 393.289 19.5273C393.664 19.1055 393.93 18.6172 394.086 18.0625H396.16C396.105 18.5234 395.922 19.0391 395.609 19.6094C395.305 20.1719 394.961 20.6328 394.578 20.9922C393.938 21.6172 393.145 22.0391 392.199 22.2578C391.691 22.3828 391.117 22.4453 390.477 22.4453C388.914 22.4453 387.59 21.8789 386.504 20.7461C385.418 19.6055 384.875 18.0117 384.875 15.9648C384.875 13.9492 385.422 12.3125 386.516 11.0547C387.609 9.79688 389.039 9.16797 390.805 9.16797ZM394.168 14.7227C394.082 13.8086 393.883 13.0781 393.57 12.5312C392.992 11.5156 392.027 11.0078 390.676 11.0078C389.707 11.0078 388.895 11.3594 388.238 12.0625C387.582 12.7578 387.234 13.6445 387.195 14.7227H394.168ZM399.359 5.94531H401.492V9.44922H403.496V11.1719H401.492V19.3633C401.492 19.8008 401.641 20.0938 401.938 20.2422C402.102 20.3281 402.375 20.3711 402.758 20.3711C402.859 20.3711 402.969 20.3711 403.086 20.3711C403.203 20.3633 403.34 20.3516 403.496 20.3359V22C403.254 22.0703 403 22.1211 402.734 22.1523C402.477 22.1836 402.195 22.1992 401.891 22.1992C400.906 22.1992 400.238 21.9492 399.887 21.4492C399.535 20.9414 399.359 20.2852 399.359 19.4805V11.1719H397.66V9.44922H399.359V5.94531ZM413.551 18.0625C413.613 18.7656 413.789 19.3047 414.078 19.6797C414.609 20.3594 415.531 20.6992 416.844 20.6992C417.625 20.6992 418.312 20.5312 418.906 20.1953C419.5 19.8516 419.797 19.3242 419.797 18.6133C419.797 18.0742 419.559 17.6641 419.082 17.3828C418.777 17.2109 418.176 17.0117 417.277 16.7852L415.602 16.3633C414.531 16.0977 413.742 15.8008 413.234 15.4727C412.328 14.9023 411.875 14.1133 411.875 13.1055C411.875 11.918 412.301 10.957 413.152 10.2227C414.012 9.48828 415.164 9.12109 416.609 9.12109C418.5 9.12109 419.863 9.67578 420.699 10.7852C421.223 11.4883 421.477 12.2461 421.461 13.0586H419.469C419.43 12.582 419.262 12.1484 418.965 11.7578C418.48 11.2031 417.641 10.9258 416.445 10.9258C415.648 10.9258 415.043 11.0781 414.629 11.3828C414.223 11.6875 414.02 12.0898 414.02 12.5898C414.02 13.1367 414.289 13.5742 414.828 13.9023C415.141 14.0977 415.602 14.2695 416.211 14.418L417.605 14.7578C419.121 15.125 420.137 15.4805 420.652 15.8242C421.473 16.3633 421.883 17.2109 421.883 18.3672C421.883 19.4844 421.457 20.4492 420.605 21.2617C419.762 22.0742 418.473 22.4805 416.738 22.4805C414.871 22.4805 413.547 22.0586 412.766 21.2148C411.992 20.3633 411.578 19.3125 411.523 18.0625H413.551ZM424.719 5.94531H426.852V9.44922H428.855V11.1719H426.852V19.3633C426.852 19.8008 427 20.0938 427.297 20.2422C427.461 20.3281 427.734 20.3711 428.117 20.3711C428.219 20.3711 428.328 20.3711 428.445 20.3711C428.562 20.3633 428.699 20.3516 428.855 20.3359V22C428.613 22.0703 428.359 22.1211 428.094 22.1523C427.836 22.1836 427.555 22.1992 427.25 22.1992C426.266 22.1992 425.598 21.9492 425.246 21.4492C424.895 20.9414 424.719 20.2852 424.719 19.4805V11.1719H423.02V9.44922H424.719V5.94531ZM438.816 9.44922H441.148C440.852 10.2539 440.191 12.0898 439.168 14.957C438.402 17.1133 437.762 18.8711 437.246 20.2305C436.027 23.4336 435.168 25.3867 434.668 26.0898C434.168 26.793 433.309 27.1445 432.09 27.1445C431.793 27.1445 431.562 27.1328 431.398 27.1094C431.242 27.0859 431.047 27.043 430.812 26.9805V25.0586C431.18 25.1602 431.445 25.2227 431.609 25.2461C431.773 25.2695 431.918 25.2812 432.043 25.2812C432.434 25.2812 432.719 25.2148 432.898 25.082C433.086 24.957 433.242 24.8008 433.367 24.6133C433.406 24.5508 433.547 24.2305 433.789 23.6523C434.031 23.0742 434.207 22.6445 434.316 22.3633L429.676 9.44922H432.066L435.43 19.668L438.816 9.44922ZM443.035 4.78516H445.145V22H443.035V4.78516ZM453.547 9.16797C454.438 9.16797 455.301 9.37891 456.137 9.80078C456.973 10.2148 457.609 10.7539 458.047 11.418C458.469 12.0508 458.75 12.7891 458.891 13.6328C459.016 14.2109 459.078 15.1328 459.078 16.3984H449.879C449.918 17.6719 450.219 18.6953 450.781 19.4688C451.344 20.2344 452.215 20.6172 453.395 20.6172C454.496 20.6172 455.375 20.2539 456.031 19.5273C456.406 19.1055 456.672 18.6172 456.828 18.0625H458.902C458.848 18.5234 458.664 19.0391 458.352 19.6094C458.047 20.1719 457.703 20.6328 457.32 20.9922C456.68 21.6172 455.887 22.0391 454.941 22.2578C454.434 22.3828 453.859 22.4453 453.219 22.4453C451.656 22.4453 450.332 21.8789 449.246 20.7461C448.16 19.6055 447.617 18.0117 447.617 15.9648C447.617 13.9492 448.164 12.3125 449.258 11.0547C450.352 9.79688 451.781 9.16797 453.547 9.16797ZM456.91 14.7227C456.824 13.8086 456.625 13.0781 456.312 12.5312C455.734 11.5156 454.77 11.0078 453.418 11.0078C452.449 11.0078 451.637 11.3594 450.98 12.0625C450.324 12.7578 449.977 13.6445 449.938 14.7227H456.91Z" fill="#FFFE61"/>
<path d="M625.547 9.44922H627.633V11.2305C628.133 10.6133 628.586 10.1641 628.992 9.88281C629.688 9.40625 630.477 9.16797 631.359 9.16797C632.359 9.16797 633.164 9.41406 633.773 9.90625C634.117 10.1875 634.43 10.6016 634.711 11.1484C635.18 10.4766 635.73 9.98047 636.363 9.66016C636.996 9.33203 637.707 9.16797 638.496 9.16797C640.184 9.16797 641.332 9.77734 641.941 10.9961C642.27 11.6523 642.434 12.5352 642.434 13.6445V22H640.242V13.2812C640.242 12.4453 640.031 11.8711 639.609 11.5586C639.195 11.2461 638.688 11.0898 638.086 11.0898C637.258 11.0898 636.543 11.3672 635.941 11.9219C635.348 12.4766 635.051 13.4023 635.051 14.6992V22H632.906V13.8086C632.906 12.957 632.805 12.3359 632.602 11.9453C632.281 11.3594 631.684 11.0664 630.809 11.0664C630.012 11.0664 629.285 11.375 628.629 11.9922C627.98 12.6094 627.656 13.7266 627.656 15.3438V22H625.547V9.44922ZM650.766 9.16797C651.656 9.16797 652.52 9.37891 653.355 9.80078C654.191 10.2148 654.828 10.7539 655.266 11.418C655.688 12.0508 655.969 12.7891 656.109 13.6328C656.234 14.2109 656.297 15.1328 656.297 16.3984H647.098C647.137 17.6719 647.438 18.6953 648 19.4688C648.562 20.2344 649.434 20.6172 650.613 20.6172C651.715 20.6172 652.594 20.2539 653.25 19.5273C653.625 19.1055 653.891 18.6172 654.047 18.0625H656.121C656.066 18.5234 655.883 19.0391 655.57 19.6094C655.266 20.1719 654.922 20.6328 654.539 20.9922C653.898 21.6172 653.105 22.0391 652.16 22.2578C651.652 22.3828 651.078 22.4453 650.438 22.4453C648.875 22.4453 647.551 21.8789 646.465 20.7461C645.379 19.6055 644.836 18.0117 644.836 15.9648C644.836 13.9492 645.383 12.3125 646.477 11.0547C647.57 9.79688 649 9.16797 650.766 9.16797ZM654.129 14.7227C654.043 13.8086 653.844 13.0781 653.531 12.5312C652.953 11.5156 651.988 11.0078 650.637 11.0078C649.668 11.0078 648.855 11.3594 648.199 12.0625C647.543 12.7578 647.195 13.6445 647.156 14.7227H654.129ZM659.32 5.94531H661.453V9.44922H663.457V11.1719H661.453V19.3633C661.453 19.8008 661.602 20.0938 661.898 20.2422C662.062 20.3281 662.336 20.3711 662.719 20.3711C662.82 20.3711 662.93 20.3711 663.047 20.3711C663.164 20.3633 663.301 20.3516 663.457 20.3359V22C663.215 22.0703 662.961 22.1211 662.695 22.1523C662.438 22.1836 662.156 22.1992 661.852 22.1992C660.867 22.1992 660.199 21.9492 659.848 21.4492C659.496 20.9414 659.32 20.2852 659.32 19.4805V11.1719H657.621V9.44922H659.32V5.94531ZM676.688 9.22656C677.672 9.22656 678.531 9.46875 679.266 9.95312C679.664 10.2266 680.07 10.625 680.484 11.1484V9.56641H682.43V20.9805C682.43 22.5742 682.195 23.832 681.727 24.7539C680.852 26.457 679.199 27.3086 676.77 27.3086C675.418 27.3086 674.281 27.0039 673.359 26.3945C672.438 25.793 671.922 24.8477 671.812 23.5586H673.957C674.059 24.1211 674.262 24.5547 674.566 24.8594C675.043 25.3281 675.793 25.5625 676.816 25.5625C678.434 25.5625 679.492 24.9922 679.992 23.8516C680.289 23.1797 680.426 21.9805 680.402 20.2539C679.98 20.8945 679.473 21.3711 678.879 21.6836C678.285 21.9961 677.5 22.1523 676.523 22.1523C675.164 22.1523 673.973 21.6719 672.949 20.7109C671.934 19.7422 671.426 18.1445 671.426 15.918C671.426 13.8164 671.938 12.1758 672.961 10.9961C673.992 9.81641 675.234 9.22656 676.688 9.22656ZM680.484 15.6719C680.484 14.1172 680.164 12.9648 679.523 12.2148C678.883 11.4648 678.066 11.0898 677.074 11.0898C675.59 11.0898 674.574 11.7852 674.027 13.1758C673.738 13.918 673.594 14.8906 673.594 16.0938C673.594 17.5078 673.879 18.5859 674.449 19.3281C675.027 20.0625 675.801 20.4297 676.77 20.4297C678.285 20.4297 679.352 19.7461 679.969 18.3789C680.312 17.6055 680.484 16.7031 680.484 15.6719ZM687.234 18.6602C687.234 19.2695 687.457 19.75 687.902 20.1016C688.348 20.4531 688.875 20.6289 689.484 20.6289C690.227 20.6289 690.945 20.457 691.641 20.1133C692.812 19.543 693.398 18.6094 693.398 17.3125V15.6133C693.141 15.7773 692.809 15.9141 692.402 16.0234C691.996 16.1328 691.598 16.2109 691.207 16.2578L689.93 16.4219C689.164 16.5234 688.59 16.6836 688.207 16.9023C687.559 17.2695 687.234 17.8555 687.234 18.6602ZM692.344 14.3945C692.828 14.332 693.152 14.1289 693.316 13.7852C693.41 13.5977 693.457 13.3281 693.457 12.9766C693.457 12.2578 693.199 11.7383 692.684 11.418C692.176 11.0898 691.445 10.9258 690.492 10.9258C689.391 10.9258 688.609 11.2227 688.148 11.8164C687.891 12.1445 687.723 12.6328 687.645 13.2812H685.676C685.715 11.7344 686.215 10.6602 687.176 10.0586C688.145 9.44922 689.266 9.14453 690.539 9.14453C692.016 9.14453 693.215 9.42578 694.137 9.98828C695.051 10.5508 695.508 11.4258 695.508 12.6133V19.8438C695.508 20.0625 695.551 20.2383 695.637 20.3711C695.73 20.5039 695.922 20.5703 696.211 20.5703C696.305 20.5703 696.41 20.5664 696.527 20.5586C696.645 20.543 696.77 20.5234 696.902 20.5V22.0586C696.574 22.1523 696.324 22.2109 696.152 22.2344C695.98 22.2578 695.746 22.2695 695.449 22.2695C694.723 22.2695 694.195 22.0117 693.867 21.4961C693.695 21.2227 693.574 20.8359 693.504 20.3359C693.074 20.8984 692.457 21.3867 691.652 21.8008C690.848 22.2148 689.961 22.4219 688.992 22.4219C687.828 22.4219 686.875 22.0703 686.133 21.3672C685.398 20.6562 685.031 19.7695 685.031 18.707C685.031 17.543 685.395 16.6406 686.121 16C686.848 15.3594 687.801 14.9648 688.98 14.8164L692.344 14.3945ZM699.035 4.78516H701.145V22H699.035V4.78516ZM705.938 18.6602C705.938 19.2695 706.16 19.75 706.605 20.1016C707.051 20.4531 707.578 20.6289 708.188 20.6289C708.93 20.6289 709.648 20.457 710.344 20.1133C711.516 19.543 712.102 18.6094 712.102 17.3125V15.6133C711.844 15.7773 711.512 15.9141 711.105 16.0234C710.699 16.1328 710.301 16.2109 709.91 16.2578L708.633 16.4219C707.867 16.5234 707.293 16.6836 706.91 16.9023C706.262 17.2695 705.938 17.8555 705.938 18.6602ZM711.047 14.3945C711.531 14.332 711.855 14.1289 712.02 13.7852C712.113 13.5977 712.16 13.3281 712.16 12.9766C712.16 12.2578 711.902 11.7383 711.387 11.418C710.879 11.0898 710.148 10.9258 709.195 10.9258C708.094 10.9258 707.312 11.2227 706.852 11.8164C706.594 12.1445 706.426 12.6328 706.348 13.2812H704.379C704.418 11.7344 704.918 10.6602 705.879 10.0586C706.848 9.44922 707.969 9.14453 709.242 9.14453C710.719 9.14453 711.918 9.42578 712.84 9.98828C713.754 10.5508 714.211 11.4258 714.211 12.6133V19.8438C714.211 20.0625 714.254 20.2383 714.34 20.3711C714.434 20.5039 714.625 20.5703 714.914 20.5703C715.008 20.5703 715.113 20.5664 715.23 20.5586C715.348 20.543 715.473 20.5234 715.605 20.5V22.0586C715.277 22.1523 715.027 22.2109 714.855 22.2344C714.684 22.2578 714.449 22.2695 714.152 22.2695C713.426 22.2695 712.898 22.0117 712.57 21.4961C712.398 21.2227 712.277 20.8359 712.207 20.3359C711.777 20.8984 711.16 21.3867 710.355 21.8008C709.551 22.2148 708.664 22.4219 707.695 22.4219C706.531 22.4219 705.578 22.0703 704.836 21.3672C704.102 20.6562 703.734 19.7695 703.734 18.707C703.734 17.543 704.098 16.6406 704.824 16C705.551 15.3594 706.504 14.9648 707.684 14.8164L711.047 14.3945Z" fill="#FFFE61"/>
<path d="M886.387 9.08594C887.801 9.08594 888.949 9.42969 889.832 10.1172C890.723 10.8047 891.258 11.9883 891.438 13.668H889.387C889.262 12.8945 888.977 12.2539 888.531 11.7461C888.086 11.2305 887.371 10.9727 886.387 10.9727C885.043 10.9727 884.082 11.6289 883.504 12.9414C883.129 13.793 882.941 14.8438 882.941 16.0938C882.941 17.3516 883.207 18.4102 883.738 19.2695C884.27 20.1289 885.105 20.5586 886.246 20.5586C887.121 20.5586 887.812 20.293 888.32 19.7617C888.836 19.2227 889.191 18.4883 889.387 17.5586H891.438C891.203 19.2227 890.617 20.4414 889.68 21.2148C888.742 21.9805 887.543 22.3633 886.082 22.3633C884.441 22.3633 883.133 21.7656 882.156 20.5703C881.18 19.3672 880.691 17.8672 880.691 16.0703C880.691 13.8672 881.227 12.1523 882.297 10.9258C883.367 9.69922 884.73 9.08594 886.387 9.08594ZM898.773 9.16797C899.664 9.16797 900.527 9.37891 901.363 9.80078C902.199 10.2148 902.836 10.7539 903.273 11.418C903.695 12.0508 903.977 12.7891 904.117 13.6328C904.242 14.2109 904.305 15.1328 904.305 16.3984H895.105C895.145 17.6719 895.445 18.6953 896.008 19.4688C896.57 20.2344 897.441 20.6172 898.621 20.6172C899.723 20.6172 900.602 20.2539 901.258 19.5273C901.633 19.1055 901.898 18.6172 902.055 18.0625H904.129C904.074 18.5234 903.891 19.0391 903.578 19.6094C903.273 20.1719 902.93 20.6328 902.547 20.9922C901.906 21.6172 901.113 22.0391 900.168 22.2578C899.66 22.3828 899.086 22.4453 898.445 22.4453C896.883 22.4453 895.559 21.8789 894.473 20.7461C893.387 19.6055 892.844 18.0117 892.844 15.9648C892.844 13.9492 893.391 12.3125 894.484 11.0547C895.578 9.79688 897.008 9.16797 898.773 9.16797ZM902.137 14.7227C902.051 13.8086 901.852 13.0781 901.539 12.5312C900.961 11.5156 899.996 11.0078 898.645 11.0078C897.676 11.0078 896.863 11.3594 896.207 12.0625C895.551 12.7578 895.203 13.6445 895.164 14.7227H902.137ZM906.965 4.78516H909.074V22H906.965V4.78516ZM917.477 9.16797C918.367 9.16797 919.23 9.37891 920.066 9.80078C920.902 10.2148 921.539 10.7539 921.977 11.418C922.398 12.0508 922.68 12.7891 922.82 13.6328C922.945 14.2109 923.008 15.1328 923.008 16.3984H913.809C913.848 17.6719 914.148 18.6953 914.711 19.4688C915.273 20.2344 916.145 20.6172 917.324 20.6172C918.426 20.6172 919.305 20.2539 919.961 19.5273C920.336 19.1055 920.602 18.6172 920.758 18.0625H922.832C922.777 18.5234 922.594 19.0391 922.281 19.6094C921.977 20.1719 921.633 20.6328 921.25 20.9922C920.609 21.6172 919.816 22.0391 918.871 22.2578C918.363 22.3828 917.789 22.4453 917.148 22.4453C915.586 22.4453 914.262 21.8789 913.176 20.7461C912.09 19.6055 911.547 18.0117 911.547 15.9648C911.547 13.9492 912.094 12.3125 913.188 11.0547C914.281 9.79688 915.711 9.16797 917.477 9.16797ZM920.84 14.7227C920.754 13.8086 920.555 13.0781 920.242 12.5312C919.664 11.5156 918.699 11.0078 917.348 11.0078C916.379 11.0078 915.566 11.3594 914.91 12.0625C914.254 12.7578 913.906 13.6445 913.867 14.7227H920.84ZM925.445 4.72656H927.496V10.9727C927.957 10.3711 928.508 9.91406 929.148 9.60156C929.789 9.28125 930.484 9.12109 931.234 9.12109C932.797 9.12109 934.062 9.66016 935.031 10.7383C936.008 11.8086 936.496 13.3906 936.496 15.4844C936.496 17.4688 936.016 19.1172 935.055 20.4297C934.094 21.7422 932.762 22.3984 931.059 22.3984C930.105 22.3984 929.301 22.168 928.645 21.707C928.254 21.4336 927.836 20.9961 927.391 20.3945V22H925.445V4.72656ZM930.93 20.5352C932.07 20.5352 932.922 20.082 933.484 19.1758C934.055 18.2695 934.34 17.0742 934.34 15.5898C934.34 14.2695 934.055 13.1758 933.484 12.3086C932.922 11.4414 932.09 11.0078 930.988 11.0078C930.027 11.0078 929.184 11.3633 928.457 12.0742C927.738 12.7852 927.379 13.957 927.379 15.5898C927.379 16.7695 927.527 17.7266 927.824 18.4609C928.379 19.8438 929.414 20.5352 930.93 20.5352ZM939.027 9.44922H941.031V11.6172C941.195 11.1953 941.598 10.6836 942.238 10.082C942.879 9.47266 943.617 9.16797 944.453 9.16797C944.492 9.16797 944.559 9.17188 944.652 9.17969C944.746 9.1875 944.906 9.20312 945.133 9.22656V11.4531C945.008 11.4297 944.891 11.4141 944.781 11.4062C944.68 11.3984 944.566 11.3945 944.441 11.3945C943.379 11.3945 942.562 11.7383 941.992 12.4258C941.422 13.1055 941.137 13.8906 941.137 14.7812V22H939.027V9.44922ZM946.961 9.50781H949.105V22H946.961V9.50781ZM946.961 4.78516H949.105V7.17578H946.961V4.78516ZM952.727 5.94531H954.859V9.44922H956.863V11.1719H954.859V19.3633C954.859 19.8008 955.008 20.0938 955.305 20.2422C955.469 20.3281 955.742 20.3711 956.125 20.3711C956.227 20.3711 956.336 20.3711 956.453 20.3711C956.57 20.3633 956.707 20.3516 956.863 20.3359V22C956.621 22.0703 956.367 22.1211 956.102 22.1523C955.844 22.1836 955.562 22.1992 955.258 22.1992C954.273 22.1992 953.605 21.9492 953.254 21.4492C952.902 20.9414 952.727 20.2852 952.727 19.4805V11.1719H951.027V9.44922H952.727V5.94531ZM958.984 9.50781H961.129V22H958.984V9.50781ZM958.984 4.78516H961.129V7.17578H958.984V4.78516ZM969.555 9.16797C970.445 9.16797 971.309 9.37891 972.145 9.80078C972.98 10.2148 973.617 10.7539 974.055 11.418C974.477 12.0508 974.758 12.7891 974.898 13.6328C975.023 14.2109 975.086 15.1328 975.086 16.3984H965.887C965.926 17.6719 966.227 18.6953 966.789 19.4688C967.352 20.2344 968.223 20.6172 969.402 20.6172C970.504 20.6172 971.383 20.2539 972.039 19.5273C972.414 19.1055 972.68 18.6172 972.836 18.0625H974.91C974.855 18.5234 974.672 19.0391 974.359 19.6094C974.055 20.1719 973.711 20.6328 973.328 20.9922C972.688 21.6172 971.895 22.0391 970.949 22.2578C970.441 22.3828 969.867 22.4453 969.227 22.4453C967.664 22.4453 966.34 21.8789 965.254 20.7461C964.168 19.6055 963.625 18.0117 963.625 15.9648C963.625 13.9492 964.172 12.3125 965.266 11.0547C966.359 9.79688 967.789 9.16797 969.555 9.16797ZM972.918 14.7227C972.832 13.8086 972.633 13.0781 972.32 12.5312C971.742 11.5156 970.777 11.0078 969.426 11.0078C968.457 11.0078 967.645 11.3594 966.988 12.0625C966.332 12.7578 965.984 13.6445 965.945 14.7227H972.918ZM978.941 18.0625C979.004 18.7656 979.18 19.3047 979.469 19.6797C980 20.3594 980.922 20.6992 982.234 20.6992C983.016 20.6992 983.703 20.5312 984.297 20.1953C984.891 19.8516 985.188 19.3242 985.188 18.6133C985.188 18.0742 984.949 17.6641 984.473 17.3828C984.168 17.2109 983.566 17.0117 982.668 16.7852L980.992 16.3633C979.922 16.0977 979.133 15.8008 978.625 15.4727C977.719 14.9023 977.266 14.1133 977.266 13.1055C977.266 11.918 977.691 10.957 978.543 10.2227C979.402 9.48828 980.555 9.12109 982 9.12109C983.891 9.12109 985.254 9.67578 986.09 10.7852C986.613 11.4883 986.867 12.2461 986.852 13.0586H984.859C984.82 12.582 984.652 12.1484 984.355 11.7578C983.871 11.2031 983.031 10.9258 981.836 10.9258C981.039 10.9258 980.434 11.0781 980.02 11.3828C979.613 11.6875 979.41 12.0898 979.41 12.5898C979.41 13.1367 979.68 13.5742 980.219 13.9023C980.531 14.0977 980.992 14.2695 981.602 14.418L982.996 14.7578C984.512 15.125 985.527 15.4805 986.043 15.8242C986.863 16.3633 987.273 17.2109 987.273 18.3672C987.273 19.4844 986.848 20.4492 985.996 21.2617C985.152 22.0742 983.863 22.4805 982.129 22.4805C980.262 22.4805 978.938 22.0586 978.156 21.2148C977.383 20.3633 976.969 19.3125 976.914 18.0625H978.941Z" fill="#FFFE61"/>
</svg>
