<svg width="168" height="155" viewBox="0 0 168 155" fill="none" xmlns="http://www.w3.org/2000/svg">
<path d="M10.2001 139.864C10.0462 143.558 12.8294 147.56 14.2402 149.099C78.1139 158.949 133.712 153.203 153.526 149.099C156.912 145.713 157.502 141.532 157.374 139.864C159.375 136.632 159.49 133.259 159.298 131.976C160.837 130.129 160.965 126.205 160.837 124.473C162.222 122.78 161.414 118.509 160.837 116.585C162.838 113.815 161.671 110.173 160.837 108.698C162.53 107.312 162.312 103.118 161.991 101.195C163.53 98.5781 162.633 94.0762 161.991 92.1523C90.4235 102.618 28.5403 96.5131 6.54465 92.1523C5.00642 93.9993 5.90372 98.95 6.54465 101.195C5.62119 103.965 6.15987 107.351 6.54465 108.698C5.62119 111.006 6.15987 114.918 6.54465 116.585C5.15985 118.278 5.96765 122.549 6.54465 124.473C5.62119 127.859 6.92942 130.886 7.69896 131.976C8.00678 135.824 9.49465 138.838 10.2001 139.864Z" fill="#DA9756"/>
<path d="M14.3123 91.9742L5.84734 90.0503C4.62889 59.5894 18.0062 -1.0632 81.2629 0.014164C144.52 1.09153 161.616 60.4872 162.258 90.0503L153.023 91.9742C153.023 60.9999 137.44 7.90209 81.2629 7.90126C23.4198 7.9004 12.7091 66.8998 14.3123 91.9742Z" fill="#B1662E"/>
<path d="M0.0865374 88.4323C-0.836918 92.5878 5.85813 94.268 9.32109 94.5886C66.2669 104.785 157.075 95.7431 162.269 93.8192C167.463 91.8953 167.463 91.5106 167.463 87.6628C167.463 84.5846 163.487 84.1998 161.499 84.3922C102.552 95.0118 33.9472 90.2455 6.62832 84.3922C4.8325 84.0074 1.00999 84.2767 0.0865374 88.4323Z" fill="#85480F"/>
<path d="M29.2097 99.9203C27.6706 104.691 34.9813 113.708 38.829 117.62C56.0663 120.698 72.1763 112.746 78.0766 108.385C77.9483 105.564 76.9223 99.5355 73.8441 97.9964C69.9964 96.0726 31.1336 93.9563 29.2097 99.9203Z" fill="white" stroke="white" stroke-width="1.53909"/>
<path d="M139.064 99.9203C140.603 104.691 133.292 113.708 129.444 117.62C112.207 120.698 96.0972 112.746 90.1968 108.385C90.3251 105.564 91.3512 99.5355 94.4293 97.9964C98.2771 96.0726 137.14 93.9563 139.064 99.9203Z" fill="white" stroke="white" stroke-width="1.53909"/>
<path d="M53.7165 137.541C54.6116 128.881 73.1873 114.115 82.3633 107.815C79.8285 113.726 73.2939 126.807 67.4338 131.847C61.5737 136.887 62.9713 145.737 64.4026 149.532L58.7093 142.16L53.8107 150.652C53.4064 149.89 52.8214 146.201 53.7165 137.541Z" fill="#FFFAFA" stroke="white" stroke-width="1.53909"/>
<path d="M113.842 137.541C112.947 128.881 94.3713 114.115 85.1953 107.815C87.7301 113.726 94.2647 126.807 100.125 131.847C105.985 136.887 104.587 145.737 103.156 149.532L108.849 142.16L113.748 150.652C114.152 149.89 114.737 146.201 113.842 137.541Z" fill="white" stroke="white" stroke-width="1.53909"/>
<path d="M90.1995 108.385H78.4639L75.5781 98.5735C81.7345 96.5727 89.5582 97.7398 92.7005 98.5735L90.1995 108.385Z" fill="white" stroke="white" stroke-width="1.53909"/>
</svg>
