<svg width="655" height="215" viewBox="0 0 655 215" fill="none" xmlns="http://www.w3.org/2000/svg">
<rect width="655" height="215" fill="url(#paint0_radial_1142_98)"/>
<g filter="url(#filter0_d_1142_98)">
<path d="M156.904 130L142.936 91.6H150.76L164.776 130H156.904ZM157.528 130L154.552 121.84H163.768L166.696 130H157.528ZM146.488 99.76L143.56 91.6H152.728L155.704 99.76H146.488ZM176.939 130.336C174.667 130.336 172.747 129.872 171.179 128.944C169.611 127.984 168.123 126.336 166.715 124C165.339 121.664 163.835 118.304 162.203 113.92L159.899 107.68C158.331 103.392 157.419 100.064 157.163 97.696C156.907 95.296 157.243 93.632 158.171 92.704C159.067 91.744 160.571 91.264 162.683 91.264H163.163C165.435 91.264 167.371 91.744 168.971 92.704C170.571 93.632 172.075 95.264 173.483 97.6C174.891 99.936 176.379 103.296 177.947 107.68L180.203 113.92C181.771 118.24 182.667 121.584 182.891 123.952C183.147 126.32 182.827 127.984 181.931 128.944C181.035 129.872 179.531 130.336 177.419 130.336H176.939ZM174.347 122.656C174.571 122.656 174.715 122.592 174.779 122.464C174.875 122.336 174.891 122.176 174.827 121.984L166.667 99.616C166.603 99.424 166.475 99.264 166.283 99.136C166.123 99.008 165.947 98.944 165.755 98.944C165.531 98.944 165.371 99.008 165.275 99.136C165.211 99.264 165.211 99.424 165.275 99.616L173.435 121.984C173.499 122.176 173.611 122.336 173.771 122.464C173.963 122.592 174.155 122.656 174.347 122.656ZM196.878 130.336L182.67 91.264H190.734L204.942 130.336H196.878ZM195.678 126.736C193.054 126.736 190.926 126.4 189.294 125.728C187.694 125.056 186.254 123.792 184.974 121.936C183.694 120.048 182.366 117.216 180.99 113.44L179.262 108.64C177.918 104.928 177.23 102.096 177.198 100.144C177.134 98.16 177.662 96.784 178.782 96.016C179.902 95.248 181.678 94.864 184.11 94.864L186.846 102.544H186.462C185.79 102.544 185.566 102.896 185.79 103.6L191.022 118.096C191.278 118.736 191.678 119.056 192.222 119.056H192.846L195.678 126.736ZM203.454 126.736L200.67 119.056H201.246C201.566 119.056 201.774 118.96 201.87 118.768C201.966 118.544 201.95 118.272 201.822 117.952L196.542 103.504C196.414 103.184 196.254 102.944 196.062 102.784C195.902 102.624 195.678 102.544 195.39 102.544H194.814L192.03 94.864C194.75 94.864 196.926 95.248 198.558 96.016C200.222 96.752 201.662 98.08 202.878 100C204.094 101.92 205.39 104.8 206.766 108.64L208.302 112.96C209.646 116.736 210.334 119.616 210.366 121.6C210.43 123.552 209.902 124.896 208.782 125.632C207.694 126.368 205.918 126.736 203.454 126.736ZM224.424 130.336C222.152 130.336 220.232 129.872 218.664 128.944C217.096 127.984 215.608 126.336 214.2 124C212.824 121.664 211.32 118.304 209.688 113.92L207.383 107.68C205.815 103.392 204.903 100.064 204.647 97.696C204.391 95.296 204.727 93.632 205.655 92.704C206.551 91.744 208.055 91.264 210.168 91.264H210.648C212.92 91.264 214.856 91.744 216.456 92.704C218.056 93.632 219.56 95.264 220.968 97.6C222.376 99.936 223.864 103.296 225.432 107.68L227.688 113.92C229.256 118.24 230.152 121.584 230.376 123.952C230.632 126.32 230.312 127.984 229.416 128.944C228.52 129.872 227.016 130.336 224.904 130.336H224.424ZM221.832 122.656C222.056 122.656 222.2 122.592 222.264 122.464C222.36 122.336 222.376 122.176 222.312 121.984L214.152 99.616C214.088 99.424 213.96 99.264 213.768 99.136C213.608 99.008 213.432 98.944 213.24 98.944C213.016 98.944 212.856 99.008 212.76 99.136C212.696 99.264 212.696 99.424 212.76 99.616L220.92 121.984C220.984 122.176 221.096 122.336 221.256 122.464C221.448 122.592 221.64 122.656 221.832 122.656ZM234.474 117.424L225.066 91.6H228.954C231.642 91.6 233.77 91.936 235.338 92.608C236.938 93.28 238.33 94.512 239.514 96.304C240.698 98.064 241.946 100.736 243.258 104.32C244.57 107.936 245.242 110.688 245.274 112.576C245.338 114.432 244.81 115.712 243.69 116.416C242.602 117.088 240.81 117.424 238.314 117.424H234.474ZM234.81 130L220.842 91.6H228.954L242.922 130H234.81ZM235.914 109.744C236.586 109.744 236.81 109.44 236.586 108.832L233.418 100.144C233.29 99.792 233.114 99.552 232.89 99.424C232.698 99.264 232.426 99.184 232.074 99.184H231.69L235.53 109.744H235.914ZM253.56 130L239.592 91.6H252.072L257.208 105.712C257.272 105.904 257.4 106.064 257.592 106.192C257.784 106.32 257.976 106.384 258.168 106.384C258.36 106.384 258.488 106.32 258.552 106.192C258.648 106.064 258.664 105.904 258.6 105.712L253.464 91.6H265.944L279.912 130H271.08L262.008 101.056C261.944 100.864 261.816 100.704 261.624 100.576C261.464 100.416 261.272 100.336 261.048 100.336C260.824 100.336 260.68 100.416 260.616 100.576C260.552 100.704 260.552 100.864 260.616 101.056L269.688 130H263.832L251.832 101.056C251.768 100.864 251.64 100.704 251.448 100.576C251.288 100.416 251.096 100.336 250.872 100.336C250.648 100.336 250.504 100.416 250.44 100.576C250.376 100.704 250.376 100.864 250.44 101.056L262.44 130H253.56ZM281.263 130L267.295 91.6H275.647L281.983 116.224C282.047 116.448 282.159 116.624 282.319 116.752C282.511 116.88 282.703 116.944 282.895 116.944C283.247 116.944 283.375 116.704 283.279 116.224L276.895 91.6H285.823L299.791 130H291.487L286.207 110.368C286.143 110.144 286.015 109.968 285.823 109.84C285.663 109.712 285.487 109.648 285.295 109.648C285.135 109.648 285.007 109.712 284.911 109.84C284.847 109.968 284.847 110.144 284.911 110.368L290.191 130H281.263ZM304.642 130L290.674 91.6H298.738L312.706 130H304.642ZM289.618 99.472L286.738 91.6H302.962L305.842 99.472H289.618ZM317.826 130L308.418 104.08H316.482C319.202 104.08 321.362 104.464 322.962 105.232C324.594 105.968 325.986 107.232 327.138 109.024C328.29 110.816 329.538 113.488 330.882 117.04C332.098 120.304 332.738 122.88 332.802 124.768C332.866 126.624 332.338 127.968 331.218 128.8C330.13 129.6 328.37 130 325.938 130H317.826ZM323.538 122.32C324.21 122.32 324.418 122 324.162 121.36L320.994 112.72C320.738 112.08 320.306 111.76 319.698 111.76H319.266L323.154 122.32H323.538ZM317.826 130L303.858 91.6H311.97L325.938 130H317.826ZM350.86 130L336.892 91.6H344.956L358.972 130H350.86ZM341.404 130L327.436 91.6H335.548L349.516 130H341.404ZM333.196 99.76L330.22 91.6H343.756L346.732 99.76H333.196ZM369.127 130.336C366.855 130.336 364.935 129.872 363.367 128.944C361.799 127.984 360.311 126.336 358.903 124C357.527 121.664 356.023 118.304 354.391 113.92L352.087 107.68C350.519 103.392 349.607 100.064 349.351 97.696C349.095 95.296 349.431 93.632 350.359 92.704C351.255 91.744 352.759 91.264 354.871 91.264H355.351C357.623 91.264 359.559 91.744 361.159 92.704C362.759 93.632 364.263 95.264 365.671 97.6C367.079 99.936 368.567 103.296 370.135 107.68L372.391 113.92C373.959 118.24 374.855 121.584 375.079 123.952C375.335 126.32 375.015 127.984 374.119 128.944C373.223 129.872 371.719 130.336 369.607 130.336H369.127ZM366.535 122.656C366.759 122.656 366.903 122.592 366.967 122.464C367.063 122.336 367.079 122.176 367.015 121.984L358.855 99.616C358.791 99.424 358.663 99.264 358.471 99.136C358.311 99.008 358.135 98.944 357.943 98.944C357.719 98.944 357.559 99.008 357.463 99.136C357.399 99.264 357.399 99.424 357.463 99.616L365.623 121.984C365.687 122.176 365.799 122.336 365.959 122.464C366.151 122.592 366.343 122.656 366.535 122.656ZM391.897 130L377.881 91.6H385.993L399.961 130H391.897ZM380.617 134.416L376.105 122.08H384.169L388.681 134.416H380.617ZM385.225 130L382.345 122.08H395.833L398.713 130H385.225ZM395.449 134.416L390.937 122.08H399.049L403.513 134.416H395.449ZM377.305 122.32C377.817 120.976 377.865 119.296 377.449 117.28C377.065 115.232 376.329 112.704 375.241 109.696C374.537 107.744 373.673 105.36 372.649 102.544C371.593 99.696 370.265 96.048 368.665 91.6H376.537C378.233 96.208 379.657 100.112 380.809 103.312C381.961 106.48 382.873 109.024 383.545 110.944C384.537 113.6 385.225 115.808 385.609 117.568C386.025 119.328 386.201 120.912 386.137 122.32H377.305ZM373.225 99.76L370.249 91.6H383.785L386.761 99.76H373.225ZM412.313 130L398.345 91.6H406.409L420.425 130H412.313ZM402.857 130L388.889 91.6H397.001L410.969 130H402.857ZM394.649 99.76L391.673 91.6H405.209L408.185 99.76H394.649ZM421.748 130L407.78 91.6H416.132L422.468 116.224C422.532 116.448 422.644 116.624 422.804 116.752C422.996 116.88 423.188 116.944 423.38 116.944C423.732 116.944 423.86 116.704 423.764 116.224L417.38 91.6H426.308L440.276 130H431.972L426.692 110.368C426.628 110.144 426.5 109.968 426.308 109.84C426.148 109.712 425.972 109.648 425.78 109.648C425.62 109.648 425.492 109.712 425.396 109.84C425.332 109.968 425.332 110.144 425.396 110.368L430.676 130H421.748ZM450.263 130.336C447.991 130.336 446.087 129.872 444.551 128.944C443.015 128.016 441.559 126.384 440.183 124.048C438.839 121.712 437.351 118.336 435.719 113.92L433.415 107.68C431.815 103.328 430.871 99.984 430.583 97.648C430.295 95.28 430.615 93.632 431.543 92.704C432.439 91.744 434.023 91.264 436.295 91.264H436.775C438.951 91.264 440.807 91.712 442.343 92.608C443.911 93.472 445.351 94.992 446.663 97.168C448.007 99.312 449.399 102.4 450.839 106.432L452.183 110.176H444.023L440.183 99.616C440.119 99.424 439.991 99.264 439.799 99.136C439.639 99.008 439.463 98.944 439.271 98.944C439.047 98.944 438.887 99.008 438.791 99.136C438.727 99.264 438.727 99.424 438.791 99.616L446.951 121.984C447.015 122.176 447.127 122.336 447.287 122.464C447.479 122.592 447.671 122.656 447.863 122.656C448.087 122.656 448.231 122.592 448.295 122.464C448.391 122.336 448.407 122.176 448.343 121.984L444.503 111.424H452.663L453.575 113.92C455.175 118.272 456.119 121.632 456.407 124C456.695 126.336 456.375 127.984 455.447 128.944C454.551 129.872 452.983 130.336 450.743 130.336H450.263ZM460.56 130L446.592 91.6H454.704L460.272 106.96H460.704C461.024 106.96 461.232 106.896 461.328 106.768C461.424 106.608 461.424 106.368 461.328 106.048L456.048 91.6H466.56L469.92 110.848L480.576 130H470.016L464.88 115.792C464.656 115.184 464.224 114.88 463.584 114.88H463.152L468.672 130H460.56ZM483.579 130L480.795 121.84H487.707C487.931 121.84 488.075 121.776 488.139 121.648C488.235 121.52 488.251 121.36 488.187 121.168C488.123 120.976 487.995 120.816 487.803 120.688C487.611 120.56 487.419 120.496 487.227 120.496H480.267L467.066 91.6H476.667L484.395 112.816C484.459 113.008 484.571 113.168 484.731 113.296C484.923 113.424 485.115 113.488 485.307 113.488C485.499 113.488 485.627 113.424 485.691 113.296C485.787 113.168 485.803 113.008 485.739 112.816L478.059 91.6H487.659L498.171 130H483.579ZM504.528 130L490.56 91.6H498.384L512.352 130H504.528ZM502.56 130L499.632 121.84H508.8L511.776 130H502.56ZM491.568 99.76L488.592 91.6H497.808L500.784 99.76H491.568Z" fill="white"/>
</g>
<defs>
<filter id="filter0_d_1142_98" x="138.936" y="91.2637" width="377.416" height="64.1523" filterUnits="userSpaceOnUse" color-interpolation-filters="sRGB">
<feFlood flood-opacity="0" result="BackgroundImageFix"/>
<feColorMatrix in="SourceAlpha" type="matrix" values="0 0 0 0 0 0 0 0 0 0 0 0 0 0 0 0 0 0 127 0" result="hardAlpha"/>
<feOffset dy="17"/>
<feGaussianBlur stdDeviation="2"/>
<feComposite in2="hardAlpha" operator="out"/>
<feColorMatrix type="matrix" values="0 0 0 0 0 0 0 0 0 0 0 0 0 0 0 0 0 0 0.25 0"/>
<feBlend mode="normal" in2="BackgroundImageFix" result="effect1_dropShadow_1142_98"/>
<feBlend mode="normal" in="SourceGraphic" in2="effect1_dropShadow_1142_98" result="shape"/>
</filter>
<radialGradient id="paint0_radial_1142_98" cx="0" cy="0" r="1" gradientUnits="userSpaceOnUse" gradientTransform="translate(327.5 107.5) rotate(90) scale(107.5 327.5)">
<stop stop-color="#DA1500"/>
<stop offset="1" stop-color="#B71D0C" stop-opacity="0"/>
</radialGradient>
</defs>
</svg>
