<svg width="783" height="764" viewBox="0 0 783 764" fill="none" xmlns="http://www.w3.org/2000/svg">
<rect width="782.504" height="763.947" fill="url(#paint0_radial_1125_71)"/>
<mask id="path-2-outside-1_1125_71" maskUnits="userSpaceOnUse" x="95.1602" y="679.098" width="336" height="57" fill="black">
<rect fill="white" x="95.1602" y="679.098" width="336" height="57"/>
<path d="M114.761 732.995L100.36 693.406H107.684L109.614 697.167C109.449 695.88 109.614 694.874 110.109 694.148C110.637 693.422 111.445 693.059 112.534 693.059C113.82 693.059 114.975 693.455 115.998 694.247C117.053 695.039 118.159 696.457 119.313 698.503C120.468 700.548 121.755 703.468 123.173 707.262L123.916 709.241C125.334 713.002 126.208 715.922 126.538 718.001C126.901 720.046 126.819 721.465 126.291 722.256C125.796 723.048 124.905 723.444 123.619 723.444C122.53 723.444 121.524 723.131 120.6 722.504C119.676 721.877 118.769 720.838 117.878 719.386L122.827 732.995H114.761ZM116.888 715.18C117.152 715.18 117.317 715.114 117.383 714.982C117.482 714.817 117.482 714.619 117.383 714.388L112.732 701.621C112.699 701.456 112.583 701.307 112.385 701.175C112.187 701.043 112.006 700.977 111.841 700.977C111.676 700.977 111.544 701.043 111.445 701.175C111.379 701.307 111.379 701.456 111.445 701.621L116.344 715.18H116.888ZM140.039 723.098L137.367 717.803L136.525 715.526L131.478 701.621C131.445 701.456 131.329 701.307 131.131 701.175C130.933 701.043 130.752 700.977 130.587 700.977C130.422 700.977 130.29 701.043 130.191 701.175C130.125 701.307 130.125 701.456 130.191 701.621L131.181 704.342H123.362L122.768 702.759C121.613 699.691 121.432 697.315 122.224 695.633C123.015 693.917 124.846 693.059 127.717 693.059C130.818 693.059 133.325 693.851 135.239 695.435C137.185 697.018 138.802 699.575 140.088 703.105L147.363 723.098H140.039ZM134.942 723.444C133.358 723.444 131.89 722.751 130.537 721.366C129.185 719.947 127.915 717.588 126.727 714.289C125.506 710.957 125.11 708.598 125.539 707.213C126.001 705.827 127.222 705.134 129.201 705.134C130.62 705.134 131.775 705.431 132.665 706.025C133.589 706.619 134.265 707.542 134.694 708.796L135.635 711.419H135.041L134.744 710.627H134.249C133.985 710.627 133.804 710.71 133.705 710.875C133.639 711.006 133.655 711.188 133.754 711.419L135.14 715.229C135.173 715.394 135.288 715.543 135.486 715.675C135.684 715.807 135.865 715.873 136.03 715.873C136.195 715.873 136.311 715.807 136.377 715.675C136.476 715.543 136.492 715.394 136.426 715.229L136.377 715.081L137.515 717.011C138.208 718.199 138.521 719.287 138.455 720.277C138.422 721.234 138.076 722.009 137.416 722.603C136.789 723.164 135.964 723.444 134.942 723.444ZM156.718 723.444C153.914 723.444 151.604 722.817 149.79 721.564C148.008 720.31 146.573 718.182 145.485 715.18L144.594 712.706H152.165L153.155 715.378C153.221 715.576 153.336 715.741 153.501 715.873C153.666 715.972 153.848 716.021 154.046 716.021C154.211 716.021 154.326 715.955 154.392 715.823C154.491 715.691 154.508 715.543 154.442 715.378L153.353 712.31C153.155 711.782 152.776 711.518 152.215 711.518H145.188L142.812 705.085H149.889C150.153 705.085 150.334 705.019 150.433 704.887C150.532 704.722 150.532 704.524 150.433 704.293L149.246 701.126C149.18 700.961 149.048 700.812 148.85 700.68C148.685 700.548 148.52 700.482 148.355 700.482C148.19 700.482 148.058 700.548 147.959 700.68C147.893 700.812 147.893 700.961 147.959 701.126L148.949 703.897H141.377L140.882 702.462C139.728 699.097 139.563 696.688 140.388 695.237C141.212 693.785 142.977 693.059 145.683 693.059C148.52 693.059 150.895 693.752 152.809 695.138C154.722 696.49 156.256 698.75 157.411 701.917C159.159 706.668 158.252 709.044 154.689 709.044L154.095 707.509C155.91 707.509 157.46 708.136 158.747 709.39C160.067 710.611 161.172 712.442 162.063 714.883C163.118 717.786 163.135 719.947 162.112 721.366C161.089 722.751 159.291 723.444 156.718 723.444ZM166.337 723.098L155.549 693.406H168.316L173.463 707.559C173.529 707.724 173.644 707.872 173.809 708.004C174.007 708.136 174.189 708.202 174.354 708.202C174.519 708.202 174.651 708.136 174.75 708.004C174.849 707.872 174.865 707.724 174.799 707.559L169.653 693.406H182.42L193.208 723.098H184.944L178.808 701.769C178.742 701.538 178.61 701.357 178.412 701.225C178.247 701.06 178.065 700.977 177.867 700.977C177.504 700.977 177.372 701.192 177.471 701.621L183.657 723.098H175.888L166.485 701.621C166.287 701.192 165.991 700.977 165.595 700.977C165.397 700.977 165.265 701.06 165.199 701.225C165.133 701.357 165.149 701.538 165.248 701.769L174.651 723.098H166.337ZM203.174 723.444C200.798 723.444 198.836 723.015 197.285 722.157C195.767 721.3 194.398 719.865 193.178 717.852C191.957 715.84 190.637 712.887 189.219 708.994L188.674 707.509C187.322 703.847 186.546 700.977 186.348 698.899C186.15 696.82 186.513 695.336 187.437 694.445C188.361 693.521 189.928 693.059 192.138 693.059C194.184 693.059 195.949 693.439 197.433 694.198C198.951 694.923 200.32 696.177 201.541 697.959C202.794 699.74 203.982 702.198 205.104 705.332L205.797 707.311H197.978L195.899 701.621C195.866 701.456 195.751 701.307 195.553 701.175C195.355 701.043 195.174 700.977 195.009 700.977C194.844 700.977 194.712 701.043 194.613 701.175C194.547 701.307 194.547 701.456 194.613 701.621L199.413 714.883C199.479 715.048 199.594 715.196 199.759 715.328C199.957 715.46 200.139 715.526 200.304 715.526C200.469 715.526 200.601 715.46 200.699 715.328C200.798 715.196 200.815 715.048 200.749 714.883L199.512 711.468H207.331L207.529 712.013C208.485 714.652 208.947 716.829 208.914 718.545C208.881 720.227 208.37 721.465 207.38 722.256C206.423 723.048 205.021 723.444 203.174 723.444ZM195.058 710.281L193.474 705.827H205.252L206.885 710.281H195.058ZM216.295 732.995L201.894 693.406H209.218L211.148 697.167C210.983 695.88 211.148 694.874 211.643 694.148C212.171 693.422 212.979 693.059 214.068 693.059C215.354 693.059 216.509 693.455 217.532 694.247C218.588 695.039 219.693 696.457 220.847 698.503C222.002 700.548 223.289 703.468 224.707 707.262L225.45 709.241C226.868 713.002 227.743 715.922 228.072 718.001C228.435 720.046 228.353 721.465 227.825 722.256C227.33 723.048 226.439 723.444 225.153 723.444C224.064 723.444 223.058 723.131 222.134 722.504C221.21 721.877 220.303 720.838 219.412 719.386L224.361 732.995H216.295ZM218.423 715.18C218.687 715.18 218.851 715.114 218.917 714.982C219.016 714.817 219.016 714.619 218.917 714.388L214.266 701.621C214.233 701.456 214.117 701.307 213.919 701.175C213.721 701.043 213.54 700.977 213.375 700.977C213.21 700.977 213.078 701.043 212.979 701.175C212.913 701.307 212.913 701.456 212.979 701.621L217.878 715.18H218.423ZM232.105 711.27L228.295 700.73H236.361L240.221 711.27H232.105ZM236.411 723.098L232.6 712.557H240.666L244.526 723.098H236.411ZM283.45 723.444C280.976 723.444 278.963 723.114 277.413 722.454C275.895 721.762 274.526 720.524 273.305 718.743C272.085 716.928 270.831 714.24 269.544 710.677L268.852 708.747H277.264L279.491 714.833C279.557 715.031 279.673 715.196 279.838 715.328C280.036 715.46 280.233 715.526 280.431 715.526C280.629 715.526 280.761 715.46 280.827 715.328C280.926 715.196 280.943 715.031 280.877 714.833L279.343 710.528C279.112 709.901 278.782 709.39 278.353 708.994C277.957 708.598 277.083 707.988 275.73 707.163L272.712 705.332C270.435 703.946 268.571 702.412 267.12 700.73C265.668 699.047 264.48 696.886 263.557 694.247L263.21 693.257C262.121 690.09 262.039 687.616 262.963 685.834C263.853 684.053 265.8 683.162 268.802 683.162C272.035 683.162 274.674 684.053 276.72 685.834C278.798 687.616 280.547 690.42 281.965 694.247L282.906 696.771H274.493L272.662 691.773C272.596 691.575 272.464 691.41 272.266 691.278C272.101 691.146 271.903 691.08 271.672 691.08C271.474 691.08 271.326 691.146 271.227 691.278C271.161 691.41 271.161 691.575 271.227 691.773L272.316 694.791C272.514 695.319 272.745 695.765 273.008 696.128C273.272 696.457 273.668 696.804 274.196 697.167C274.724 697.53 275.631 698.107 276.918 698.899L278.6 699.938C280.514 701.126 282.015 702.181 283.104 703.105C284.192 703.996 285.083 705.002 285.776 706.124C286.502 707.246 287.195 708.681 287.854 710.429L288.349 711.765C289.339 714.438 289.784 716.648 289.685 718.396C289.619 720.112 289.042 721.382 287.953 722.207C286.898 723.032 285.397 723.444 283.45 723.444ZM336.546 723.098L322.145 683.509H335.011L340.306 698.058C340.372 698.255 340.504 698.42 340.702 698.552C340.9 698.684 341.098 698.75 341.296 698.75C341.494 698.75 341.626 698.684 341.692 698.552C341.791 698.42 341.808 698.255 341.742 698.058L336.447 683.509H349.313L363.714 723.098H354.608L345.255 693.257C345.189 693.059 345.057 692.894 344.859 692.762C344.694 692.598 344.496 692.515 344.265 692.515C344.034 692.515 343.886 692.598 343.82 692.762C343.754 692.894 343.754 693.059 343.82 693.257L353.173 723.098H347.136L334.764 693.257C334.698 693.059 334.566 692.894 334.368 692.762C334.203 692.598 334.005 692.515 333.774 692.515C333.543 692.515 333.395 692.598 333.329 692.762C333.263 692.894 333.263 693.059 333.329 693.257L345.701 723.098H336.546ZM412.95 723.098L398.549 683.509H406.913L421.313 723.098H412.95ZM414.781 723.098L411.812 714.982H422.996L425.965 723.098H414.781Z"/>
</mask>
<path d="M114.761 732.995L100.36 693.406H107.684L109.614 697.167C109.449 695.88 109.614 694.874 110.109 694.148C110.637 693.422 111.445 693.059 112.534 693.059C113.82 693.059 114.975 693.455 115.998 694.247C117.053 695.039 118.159 696.457 119.313 698.503C120.468 700.548 121.755 703.468 123.173 707.262L123.916 709.241C125.334 713.002 126.208 715.922 126.538 718.001C126.901 720.046 126.819 721.465 126.291 722.256C125.796 723.048 124.905 723.444 123.619 723.444C122.53 723.444 121.524 723.131 120.6 722.504C119.676 721.877 118.769 720.838 117.878 719.386L122.827 732.995H114.761ZM116.888 715.18C117.152 715.18 117.317 715.114 117.383 714.982C117.482 714.817 117.482 714.619 117.383 714.388L112.732 701.621C112.699 701.456 112.583 701.307 112.385 701.175C112.187 701.043 112.006 700.977 111.841 700.977C111.676 700.977 111.544 701.043 111.445 701.175C111.379 701.307 111.379 701.456 111.445 701.621L116.344 715.18H116.888ZM140.039 723.098L137.367 717.803L136.525 715.526L131.478 701.621C131.445 701.456 131.329 701.307 131.131 701.175C130.933 701.043 130.752 700.977 130.587 700.977C130.422 700.977 130.29 701.043 130.191 701.175C130.125 701.307 130.125 701.456 130.191 701.621L131.181 704.342H123.362L122.768 702.759C121.613 699.691 121.432 697.315 122.224 695.633C123.015 693.917 124.846 693.059 127.717 693.059C130.818 693.059 133.325 693.851 135.239 695.435C137.185 697.018 138.802 699.575 140.088 703.105L147.363 723.098H140.039ZM134.942 723.444C133.358 723.444 131.89 722.751 130.537 721.366C129.185 719.947 127.915 717.588 126.727 714.289C125.506 710.957 125.11 708.598 125.539 707.213C126.001 705.827 127.222 705.134 129.201 705.134C130.62 705.134 131.775 705.431 132.665 706.025C133.589 706.619 134.265 707.542 134.694 708.796L135.635 711.419H135.041L134.744 710.627H134.249C133.985 710.627 133.804 710.71 133.705 710.875C133.639 711.006 133.655 711.188 133.754 711.419L135.14 715.229C135.173 715.394 135.288 715.543 135.486 715.675C135.684 715.807 135.865 715.873 136.03 715.873C136.195 715.873 136.311 715.807 136.377 715.675C136.476 715.543 136.492 715.394 136.426 715.229L136.377 715.081L137.515 717.011C138.208 718.199 138.521 719.287 138.455 720.277C138.422 721.234 138.076 722.009 137.416 722.603C136.789 723.164 135.964 723.444 134.942 723.444ZM156.718 723.444C153.914 723.444 151.604 722.817 149.79 721.564C148.008 720.31 146.573 718.182 145.485 715.18L144.594 712.706H152.165L153.155 715.378C153.221 715.576 153.336 715.741 153.501 715.873C153.666 715.972 153.848 716.021 154.046 716.021C154.211 716.021 154.326 715.955 154.392 715.823C154.491 715.691 154.508 715.543 154.442 715.378L153.353 712.31C153.155 711.782 152.776 711.518 152.215 711.518H145.188L142.812 705.085H149.889C150.153 705.085 150.334 705.019 150.433 704.887C150.532 704.722 150.532 704.524 150.433 704.293L149.246 701.126C149.18 700.961 149.048 700.812 148.85 700.68C148.685 700.548 148.52 700.482 148.355 700.482C148.19 700.482 148.058 700.548 147.959 700.68C147.893 700.812 147.893 700.961 147.959 701.126L148.949 703.897H141.377L140.882 702.462C139.728 699.097 139.563 696.688 140.388 695.237C141.212 693.785 142.977 693.059 145.683 693.059C148.52 693.059 150.895 693.752 152.809 695.138C154.722 696.49 156.256 698.75 157.411 701.917C159.159 706.668 158.252 709.044 154.689 709.044L154.095 707.509C155.91 707.509 157.46 708.136 158.747 709.39C160.067 710.611 161.172 712.442 162.063 714.883C163.118 717.786 163.135 719.947 162.112 721.366C161.089 722.751 159.291 723.444 156.718 723.444ZM166.337 723.098L155.549 693.406H168.316L173.463 707.559C173.529 707.724 173.644 707.872 173.809 708.004C174.007 708.136 174.189 708.202 174.354 708.202C174.519 708.202 174.651 708.136 174.75 708.004C174.849 707.872 174.865 707.724 174.799 707.559L169.653 693.406H182.42L193.208 723.098H184.944L178.808 701.769C178.742 701.538 178.61 701.357 178.412 701.225C178.247 701.06 178.065 700.977 177.867 700.977C177.504 700.977 177.372 701.192 177.471 701.621L183.657 723.098H175.888L166.485 701.621C166.287 701.192 165.991 700.977 165.595 700.977C165.397 700.977 165.265 701.06 165.199 701.225C165.133 701.357 165.149 701.538 165.248 701.769L174.651 723.098H166.337ZM203.174 723.444C200.798 723.444 198.836 723.015 197.285 722.157C195.767 721.3 194.398 719.865 193.178 717.852C191.957 715.84 190.637 712.887 189.219 708.994L188.674 707.509C187.322 703.847 186.546 700.977 186.348 698.899C186.15 696.82 186.513 695.336 187.437 694.445C188.361 693.521 189.928 693.059 192.138 693.059C194.184 693.059 195.949 693.439 197.433 694.198C198.951 694.923 200.32 696.177 201.541 697.959C202.794 699.74 203.982 702.198 205.104 705.332L205.797 707.311H197.978L195.899 701.621C195.866 701.456 195.751 701.307 195.553 701.175C195.355 701.043 195.174 700.977 195.009 700.977C194.844 700.977 194.712 701.043 194.613 701.175C194.547 701.307 194.547 701.456 194.613 701.621L199.413 714.883C199.479 715.048 199.594 715.196 199.759 715.328C199.957 715.46 200.139 715.526 200.304 715.526C200.469 715.526 200.601 715.46 200.699 715.328C200.798 715.196 200.815 715.048 200.749 714.883L199.512 711.468H207.331L207.529 712.013C208.485 714.652 208.947 716.829 208.914 718.545C208.881 720.227 208.37 721.465 207.38 722.256C206.423 723.048 205.021 723.444 203.174 723.444ZM195.058 710.281L193.474 705.827H205.252L206.885 710.281H195.058ZM216.295 732.995L201.894 693.406H209.218L211.148 697.167C210.983 695.88 211.148 694.874 211.643 694.148C212.171 693.422 212.979 693.059 214.068 693.059C215.354 693.059 216.509 693.455 217.532 694.247C218.588 695.039 219.693 696.457 220.847 698.503C222.002 700.548 223.289 703.468 224.707 707.262L225.45 709.241C226.868 713.002 227.743 715.922 228.072 718.001C228.435 720.046 228.353 721.465 227.825 722.256C227.33 723.048 226.439 723.444 225.153 723.444C224.064 723.444 223.058 723.131 222.134 722.504C221.21 721.877 220.303 720.838 219.412 719.386L224.361 732.995H216.295ZM218.423 715.18C218.687 715.18 218.851 715.114 218.917 714.982C219.016 714.817 219.016 714.619 218.917 714.388L214.266 701.621C214.233 701.456 214.117 701.307 213.919 701.175C213.721 701.043 213.54 700.977 213.375 700.977C213.21 700.977 213.078 701.043 212.979 701.175C212.913 701.307 212.913 701.456 212.979 701.621L217.878 715.18H218.423ZM232.105 711.27L228.295 700.73H236.361L240.221 711.27H232.105ZM236.411 723.098L232.6 712.557H240.666L244.526 723.098H236.411ZM283.45 723.444C280.976 723.444 278.963 723.114 277.413 722.454C275.895 721.762 274.526 720.524 273.305 718.743C272.085 716.928 270.831 714.24 269.544 710.677L268.852 708.747H277.264L279.491 714.833C279.557 715.031 279.673 715.196 279.838 715.328C280.036 715.46 280.233 715.526 280.431 715.526C280.629 715.526 280.761 715.46 280.827 715.328C280.926 715.196 280.943 715.031 280.877 714.833L279.343 710.528C279.112 709.901 278.782 709.39 278.353 708.994C277.957 708.598 277.083 707.988 275.73 707.163L272.712 705.332C270.435 703.946 268.571 702.412 267.12 700.73C265.668 699.047 264.48 696.886 263.557 694.247L263.21 693.257C262.121 690.09 262.039 687.616 262.963 685.834C263.853 684.053 265.8 683.162 268.802 683.162C272.035 683.162 274.674 684.053 276.72 685.834C278.798 687.616 280.547 690.42 281.965 694.247L282.906 696.771H274.493L272.662 691.773C272.596 691.575 272.464 691.41 272.266 691.278C272.101 691.146 271.903 691.08 271.672 691.08C271.474 691.08 271.326 691.146 271.227 691.278C271.161 691.41 271.161 691.575 271.227 691.773L272.316 694.791C272.514 695.319 272.745 695.765 273.008 696.128C273.272 696.457 273.668 696.804 274.196 697.167C274.724 697.53 275.631 698.107 276.918 698.899L278.6 699.938C280.514 701.126 282.015 702.181 283.104 703.105C284.192 703.996 285.083 705.002 285.776 706.124C286.502 707.246 287.195 708.681 287.854 710.429L288.349 711.765C289.339 714.438 289.784 716.648 289.685 718.396C289.619 720.112 289.042 721.382 287.953 722.207C286.898 723.032 285.397 723.444 283.45 723.444ZM336.546 723.098L322.145 683.509H335.011L340.306 698.058C340.372 698.255 340.504 698.42 340.702 698.552C340.9 698.684 341.098 698.75 341.296 698.75C341.494 698.75 341.626 698.684 341.692 698.552C341.791 698.42 341.808 698.255 341.742 698.058L336.447 683.509H349.313L363.714 723.098H354.608L345.255 693.257C345.189 693.059 345.057 692.894 344.859 692.762C344.694 692.598 344.496 692.515 344.265 692.515C344.034 692.515 343.886 692.598 343.82 692.762C343.754 692.894 343.754 693.059 343.82 693.257L353.173 723.098H347.136L334.764 693.257C334.698 693.059 334.566 692.894 334.368 692.762C334.203 692.598 334.005 692.515 333.774 692.515C333.543 692.515 333.395 692.598 333.329 692.762C333.263 692.894 333.263 693.059 333.329 693.257L345.701 723.098H336.546ZM412.95 723.098L398.549 683.509H406.913L421.313 723.098H412.95ZM414.781 723.098L411.812 714.982H422.996L425.965 723.098H414.781Z" fill="#FFFD00"/>
<path d="M114.761 732.995L111.854 734.052L112.594 736.088H114.761V732.995ZM100.36 693.406V690.313H95.9438L97.4534 694.463L100.36 693.406ZM107.684 693.406L110.436 691.994L109.573 690.313H107.684V693.406ZM109.614 697.167L106.862 698.579L112.682 696.773L109.614 697.167ZM110.109 694.148L107.607 692.329L107.58 692.367L107.553 692.406L110.109 694.148ZM115.998 694.247L114.104 696.693L114.123 696.707L114.142 696.721L115.998 694.247ZM119.313 698.503L116.62 700.023L116.62 700.023L119.313 698.503ZM123.173 707.262L120.276 708.345L120.277 708.348L123.173 707.262ZM123.916 709.241L121.02 710.327L121.022 710.333L123.916 709.241ZM126.538 718.001L123.484 718.485L123.488 718.513L123.493 718.541L126.538 718.001ZM126.291 722.256L123.717 720.541L123.692 720.579L123.668 720.617L126.291 722.256ZM120.6 722.504L118.863 725.063L120.6 722.504ZM117.878 719.386L120.514 717.769L114.971 720.443L117.878 719.386ZM122.827 732.995V736.088H127.243L125.733 731.938L122.827 732.995ZM117.383 714.982L114.731 713.391L114.67 713.492L114.617 713.599L117.383 714.982ZM117.383 714.388L114.477 715.447L114.507 715.527L114.54 715.606L117.383 714.388ZM112.732 701.621L109.699 702.227L109.745 702.458L109.826 702.679L112.732 701.621ZM112.385 701.175L114.101 698.602L114.101 698.602L112.385 701.175ZM111.445 701.175L108.971 699.319L108.803 699.543L108.679 699.792L111.445 701.175ZM111.445 701.621L114.354 700.57L114.336 700.52L114.317 700.472L111.445 701.621ZM116.344 715.18L113.435 716.231L114.173 718.273H116.344V715.18ZM117.667 731.938L103.267 692.349L97.4534 694.463L111.854 734.052L117.667 731.938ZM100.36 696.499H107.684V690.313H100.36V696.499ZM104.932 694.818L106.862 698.579L112.366 695.755L110.436 691.994L104.932 694.818ZM112.682 696.773C112.568 695.888 112.759 695.751 112.664 695.89L107.553 692.406C106.468 693.997 106.33 695.872 106.546 697.56L112.682 696.773ZM112.61 695.967C112.592 695.993 112.559 696.03 112.511 696.07C112.463 696.109 112.415 696.136 112.378 696.153C112.303 696.187 112.329 696.152 112.534 696.152V689.966C110.693 689.966 108.844 690.628 107.607 692.329L112.61 695.967ZM112.534 696.152C113.131 696.152 113.62 696.318 114.104 696.693L117.891 691.801C116.329 690.592 114.51 689.966 112.534 689.966V696.152ZM114.142 696.721C114.685 697.129 115.537 698.105 116.62 700.023L122.007 696.982C120.78 694.81 119.422 692.949 117.853 691.773L114.142 696.721ZM116.62 700.023C117.659 701.864 118.88 704.611 120.276 708.345L126.07 706.179C124.629 702.325 123.277 699.233 122.007 696.982L116.62 700.023ZM120.277 708.348L121.02 710.327L126.811 708.155L126.069 706.176L120.277 708.348ZM121.022 710.333C122.42 714.041 123.204 716.724 123.484 718.485L129.593 717.516C129.213 715.12 128.248 711.964 126.809 708.15L121.022 710.333ZM123.493 718.541C123.65 719.425 123.683 720.033 123.661 720.419C123.637 720.831 123.562 720.774 123.717 720.541L128.864 723.972C129.548 722.947 129.778 721.785 129.836 720.778C129.896 719.745 129.79 718.622 129.584 717.46L123.493 718.541ZM123.668 720.617C123.707 720.555 123.762 720.488 123.833 720.428C123.902 720.368 123.963 720.335 123.995 720.321C124.026 720.307 124.018 720.316 123.956 720.327C123.893 720.338 123.784 720.351 123.619 720.351V726.537C125.525 726.537 127.652 725.915 128.914 723.896L123.668 720.617ZM123.619 720.351C123.166 720.351 122.762 720.233 122.337 719.945L118.863 725.063C120.286 726.028 121.894 726.537 123.619 726.537V720.351ZM122.337 719.945C121.916 719.659 121.285 719.024 120.514 717.769L115.242 721.004C116.253 722.652 117.436 724.095 118.863 725.063L122.337 719.945ZM114.971 720.443L119.92 734.052L125.733 731.938L120.785 718.329L114.971 720.443ZM122.827 729.902H114.761V736.088H122.827V729.902ZM116.888 718.273C117.372 718.273 119.239 718.187 120.15 716.365L114.617 713.599C114.989 712.855 115.591 712.447 116.061 712.259C116.477 712.093 116.8 712.087 116.888 712.087V718.273ZM120.035 716.573C120.796 715.305 120.585 714.006 120.226 713.17L114.54 715.606C114.468 715.437 114.365 715.126 114.365 714.71C114.365 714.265 114.484 713.803 114.731 713.391L120.035 716.573ZM120.289 713.329L115.638 700.562L109.826 702.679L114.477 715.447L120.289 713.329ZM115.764 701.014C115.514 699.761 114.695 698.998 114.101 698.602L110.67 703.749C110.471 703.616 109.883 703.15 109.699 702.227L115.764 701.014ZM114.101 698.602C113.609 698.274 112.831 697.884 111.841 697.884V704.07C111.181 704.07 110.766 703.813 110.67 703.749L114.101 698.602ZM111.841 697.884C110.702 697.884 109.654 698.409 108.971 699.319L113.919 703.031C113.715 703.303 113.413 703.587 113.001 703.793C112.589 703.999 112.181 704.07 111.841 704.07V697.884ZM108.679 699.792C108.137 700.874 108.252 701.967 108.573 702.769L114.317 700.472C114.402 700.684 114.488 700.997 114.488 701.385C114.488 701.788 114.394 702.192 114.211 702.558L108.679 699.792ZM108.536 702.672L113.435 716.231L119.253 714.129L114.354 700.57L108.536 702.672ZM116.344 718.273H116.888V712.087H116.344V718.273ZM140.039 723.098L137.278 724.491L138.135 726.191H140.039V723.098ZM137.367 717.803L134.465 718.875L134.526 719.039L134.605 719.196L137.367 717.803ZM136.525 715.526L133.618 716.582L133.621 716.59L133.624 716.598L136.525 715.526ZM131.478 701.621L128.445 702.227L128.491 702.456L128.57 702.676L131.478 701.621ZM130.191 701.175L127.717 699.319L127.549 699.543L127.425 699.792L130.191 701.175ZM130.191 701.621L133.098 700.564L133.081 700.517L133.063 700.472L130.191 701.621ZM131.181 704.342V707.435H135.596L134.087 703.285L131.181 704.342ZM123.362 704.342L120.466 705.428L121.218 707.435H123.362V704.342ZM122.768 702.759L125.664 701.673L125.663 701.669L122.768 702.759ZM122.224 695.633L125.022 696.95L125.027 696.939L125.032 696.929L122.224 695.633ZM135.239 695.435L133.267 697.817L133.277 697.826L133.287 697.834L135.239 695.435ZM140.088 703.105L142.995 702.048L142.994 702.046L140.088 703.105ZM147.363 723.098V726.191H151.779L150.269 722.04L147.363 723.098ZM130.537 721.366L128.299 723.5L128.312 723.513L128.324 723.526L130.537 721.366ZM126.727 714.289L129.637 713.241L129.634 713.233L129.631 713.225L126.727 714.289ZM125.539 707.213L122.605 706.234L122.595 706.266L122.585 706.298L125.539 707.213ZM132.665 706.025L130.95 708.598L130.971 708.613L130.993 708.627L132.665 706.025ZM134.694 708.796L131.768 709.797L131.775 709.819L131.783 709.84L134.694 708.796ZM135.635 711.419V714.512H140.029L138.546 710.375L135.635 711.419ZM135.041 711.419L132.145 712.505L132.897 714.512H135.041V711.419ZM134.744 710.627L137.64 709.541L136.887 707.534H134.744V710.627ZM133.705 710.875L131.052 709.283L130.991 709.385L130.938 709.491L133.705 710.875ZM133.754 711.419L136.661 710.362L136.631 710.28L136.597 710.201L133.754 711.419ZM135.14 715.229L138.172 714.623L138.126 714.393L138.046 714.172L135.14 715.229ZM135.486 715.675L133.77 718.248L133.77 718.248L135.486 715.675ZM136.377 715.675L133.902 713.819L133.735 714.042L133.61 714.292L136.377 715.675ZM136.426 715.229L133.492 716.207L133.521 716.294L133.555 716.378L136.426 715.229ZM136.377 715.081L139.041 713.51L133.443 716.059L136.377 715.081ZM137.515 717.011L140.187 715.452L140.183 715.446L140.179 715.44L137.515 717.011ZM138.455 720.277L135.369 720.071L135.366 720.121L135.364 720.17L138.455 720.277ZM137.416 722.603L139.478 724.908L139.485 724.902L137.416 722.603ZM142.8 721.704L140.128 716.409L134.605 719.196L137.278 724.491L142.8 721.704ZM140.268 716.73L139.426 714.454L133.624 716.598L134.465 718.875L140.268 716.73ZM139.433 714.471L134.385 700.565L128.57 702.676L133.618 716.582L139.433 714.471ZM134.51 701.014C134.26 699.761 133.442 698.998 132.847 698.602L129.416 703.749C129.217 703.616 128.629 703.15 128.445 702.227L134.51 701.014ZM132.847 698.602C132.355 698.274 131.577 697.884 130.587 697.884V704.07C129.927 704.07 129.512 703.813 129.416 703.749L132.847 698.602ZM130.587 697.884C129.448 697.884 128.4 698.409 127.717 699.319L132.665 703.031C132.461 703.303 132.159 703.587 131.747 703.793C131.335 703.999 130.927 704.07 130.587 704.07V697.884ZM127.425 699.792C126.883 700.874 126.998 701.967 127.319 702.769L133.063 700.472C133.148 700.684 133.234 700.997 133.234 701.385C133.234 701.788 133.141 702.192 132.957 702.558L127.425 699.792ZM127.284 702.678L128.274 705.399L134.087 703.285L133.098 700.564L127.284 702.678ZM131.181 701.249H123.362V707.435H131.181V701.249ZM126.258 703.256L125.664 701.673L119.872 703.845L120.466 705.428L126.258 703.256ZM125.663 701.669C124.594 698.831 124.777 697.471 125.022 696.95L119.425 694.316C118.087 697.159 118.632 700.55 119.873 703.848L125.663 701.669ZM125.032 696.929C125.1 696.782 125.198 696.646 125.503 696.504C125.873 696.33 126.558 696.152 127.717 696.152V689.966C124.346 689.966 120.953 691.004 119.415 694.337L125.032 696.929ZM127.717 696.152C130.282 696.152 132.035 696.798 133.267 697.817L137.211 693.052C134.616 690.904 131.354 689.966 127.717 689.966V696.152ZM133.287 697.834C134.636 698.932 135.999 700.916 137.182 704.164L142.994 702.046C141.605 698.234 139.734 695.105 137.191 693.036L133.287 697.834ZM137.182 704.163L144.456 724.155L150.269 722.04L142.995 702.048L137.182 704.163ZM147.363 720.005H140.039V726.191H147.363V720.005ZM134.942 720.351C134.371 720.351 133.66 720.136 132.751 719.205L128.324 723.526C130.12 725.366 132.346 726.537 134.942 726.537V720.351ZM132.776 719.231C131.869 718.28 130.776 716.405 129.637 713.241L123.817 715.337C125.053 718.771 126.5 721.614 128.299 723.5L132.776 719.231ZM129.631 713.225C129.058 711.661 128.72 710.434 128.565 709.509C128.488 709.051 128.463 708.707 128.465 708.461C128.467 708.212 128.497 708.117 128.494 708.127L122.585 706.298C122.163 707.659 122.232 709.15 122.464 710.533C122.705 711.967 123.175 713.585 123.823 715.353L129.631 713.225ZM128.473 708.191C128.483 708.163 128.476 708.195 128.432 708.249C128.387 708.305 128.342 708.335 128.328 708.344C128.32 708.348 128.539 708.227 129.201 708.227V702.041C127.884 702.041 126.503 702.267 125.275 702.964C123.971 703.704 123.067 704.849 122.605 706.234L128.473 708.191ZM129.201 708.227C130.204 708.227 130.708 708.437 130.95 708.598L134.381 703.451C132.841 702.425 131.036 702.041 129.201 702.041V708.227ZM130.993 708.627C131.216 708.77 131.516 709.062 131.768 709.797L137.621 707.795C137.014 706.023 135.962 704.467 134.338 703.423L130.993 708.627ZM131.783 709.84L132.723 712.463L138.546 710.375L137.606 707.752L131.783 709.84ZM135.635 708.326H135.041V714.512H135.635V708.326ZM137.937 710.333L137.64 709.541L131.848 711.713L132.145 712.505L137.937 710.333ZM134.744 707.534H134.249V713.72H134.744V707.534ZM134.249 707.534C133.35 707.534 131.909 707.855 131.052 709.283L136.357 712.466C136.071 712.941 135.653 713.296 135.195 713.505C134.776 713.695 134.422 713.72 134.249 713.72V707.534ZM130.938 709.491C130.253 710.861 130.696 712.135 130.911 712.637L136.597 710.201C136.63 710.279 136.718 710.5 136.748 710.83C136.779 711.177 136.749 711.701 136.471 712.258L130.938 709.491ZM130.847 712.476L132.233 716.286L138.046 714.172L136.661 710.362L130.847 712.476ZM132.107 715.836C132.357 717.089 133.176 717.852 133.77 718.248L137.202 713.101C137.4 713.234 137.988 713.7 138.172 714.623L132.107 715.836ZM133.77 718.248C134.262 718.576 135.04 718.966 136.03 718.966V712.78C136.691 712.78 137.106 713.037 137.202 713.101L133.77 718.248ZM136.03 718.966C136.523 718.966 137.15 718.866 137.775 718.509C138.42 718.14 138.868 717.608 139.143 717.058L133.61 714.292C133.819 713.873 134.177 713.44 134.706 713.138C135.216 712.847 135.703 712.78 136.03 712.78V718.966ZM138.851 717.53C139.656 716.458 139.728 715.155 139.298 714.081L133.555 716.378C133.434 716.077 133.332 715.642 133.389 715.123C133.448 714.592 133.656 714.148 133.902 713.819L138.851 717.53ZM139.36 714.251L139.311 714.103L133.443 716.059L133.492 716.207L139.36 714.251ZM133.713 716.652L134.851 718.582L140.179 715.44L139.041 713.51L133.713 716.652ZM134.843 718.569C135.341 719.423 135.381 719.894 135.369 720.071L141.541 720.483C141.661 718.681 141.074 716.974 140.187 715.452L134.843 718.569ZM135.364 720.17C135.362 720.237 135.355 720.279 135.35 720.299C135.346 720.318 135.344 720.321 135.347 720.314C135.35 720.307 135.355 720.298 135.36 720.292C135.364 720.286 135.362 720.29 135.347 720.304L139.485 724.902C140.821 723.699 141.487 722.106 141.546 720.384L135.364 720.17ZM135.354 720.298C135.353 720.298 135.354 720.298 135.355 720.297C135.357 720.296 135.358 720.295 135.358 720.295C135.359 720.294 135.352 720.298 135.332 720.305C135.29 720.32 135.172 720.351 134.942 720.351V726.537C136.553 726.537 138.168 726.08 139.478 724.908L135.354 720.298ZM149.79 721.564L148.01 724.093L148.021 724.101L148.032 724.108L149.79 721.564ZM145.485 715.18L142.575 716.227L142.577 716.234L145.485 715.18ZM144.594 712.706V709.613H140.193L141.684 713.753L144.594 712.706ZM152.165 712.706L155.066 711.631L154.318 709.613H152.165V712.706ZM153.155 715.378L156.089 714.4L156.073 714.351L156.055 714.304L153.155 715.378ZM153.501 715.873L151.569 718.288L151.732 718.418L151.91 718.525L153.501 715.873ZM154.392 715.823L151.918 713.967L151.751 714.191L151.626 714.44L154.392 715.823ZM154.442 715.378L151.527 716.412L151.547 716.47L151.57 716.526L154.442 715.378ZM153.353 712.31L156.268 711.275L156.259 711.249L156.249 711.224L153.353 712.31ZM145.188 711.518L142.286 712.589L143.033 714.611H145.188V711.518ZM142.812 705.085V701.992H138.373L139.911 706.156L142.812 705.085ZM150.433 704.887L152.908 706.742L153.003 706.615L153.085 706.478L150.433 704.887ZM150.433 704.293L147.537 705.379L147.562 705.446L147.59 705.511L150.433 704.293ZM149.246 701.126L152.142 700.04L152.13 700.008L152.117 699.977L149.246 701.126ZM148.85 700.68L146.918 703.095L147.022 703.179L147.134 703.254L148.85 700.68ZM147.959 700.68L145.485 698.825L145.317 699.048L145.193 699.297L147.959 700.68ZM147.959 701.126L150.872 700.085L150.852 700.031L150.831 699.977L147.959 701.126ZM148.949 703.897V706.99H153.338L151.861 702.857L148.949 703.897ZM141.377 703.897L138.453 704.905L139.172 706.99H141.377V703.897ZM140.882 702.462L137.957 703.466L137.958 703.47L140.882 702.462ZM140.388 695.237L143.077 696.765V696.765L140.388 695.237ZM152.809 695.138L150.995 697.643L151.009 697.653L151.023 697.663L152.809 695.138ZM157.411 701.917L154.505 702.977L154.508 702.986L157.411 701.917ZM154.689 709.044L151.805 710.16L152.57 712.136H154.689V709.044ZM154.095 707.509V704.417H149.581L151.211 708.626L154.095 707.509ZM158.747 709.39L156.589 711.605L156.617 711.633L156.647 711.66L158.747 709.39ZM162.063 714.883L164.969 713.826L164.968 713.823L162.063 714.883ZM162.112 721.366L164.601 723.202L164.611 723.188L164.621 723.174L162.112 721.366ZM156.718 720.351C154.371 720.351 152.721 719.83 151.548 719.019L148.032 724.108C150.488 725.805 153.456 726.537 156.718 726.537V720.351ZM151.57 719.034C150.496 718.279 149.361 716.796 148.392 714.125L142.577 716.234C143.786 719.568 145.52 722.341 148.01 724.093L151.57 719.034ZM148.395 714.132L147.504 711.658L141.684 713.753L142.575 716.227L148.395 714.132ZM144.594 715.798H152.165V709.613H144.594V715.798ZM149.265 713.78L150.255 716.452L156.055 714.304L155.066 711.631L149.265 713.78ZM150.221 716.356C150.478 717.127 150.945 717.788 151.569 718.288L155.434 713.457C155.728 713.693 155.964 714.025 156.089 714.4L150.221 716.356ZM151.91 718.525C152.57 718.921 153.304 719.114 154.046 719.114V712.928C154.391 712.928 154.763 713.022 155.093 713.22L151.91 718.525ZM154.046 719.114C154.538 719.114 155.166 719.014 155.791 718.657C156.436 718.288 156.884 717.756 157.159 717.206L151.626 714.44C151.835 714.022 152.192 713.589 152.722 713.286C153.231 712.995 153.718 712.928 154.046 712.928V719.114ZM156.867 717.679C157.671 716.606 157.743 715.303 157.313 714.229L151.57 716.526C151.45 716.226 151.347 715.791 151.405 715.271C151.464 714.74 151.671 714.296 151.918 713.967L156.867 717.679ZM157.357 714.343L156.268 711.275L150.438 713.344L151.527 716.412L157.357 714.343ZM156.249 711.224C155.979 710.503 155.495 709.74 154.686 709.177C153.876 708.613 152.99 708.425 152.215 708.425V714.611C152.001 714.611 151.585 714.554 151.154 714.255C150.724 713.956 150.529 713.589 150.457 713.396L156.249 711.224ZM152.215 708.425H145.188V714.611H152.215V708.425ZM148.089 710.447L145.714 704.013L139.911 706.156L142.286 712.589L148.089 710.447ZM142.812 708.177H149.889V701.992H142.812V708.177ZM149.889 708.177C150.537 708.177 151.944 708.027 152.908 706.742L147.959 703.031C148.725 702.01 149.769 701.992 149.889 701.992V708.177ZM153.085 706.478C153.846 705.21 153.635 703.911 153.276 703.074L147.59 705.511C147.518 705.341 147.415 705.031 147.415 704.614C147.415 704.17 147.534 703.708 147.781 703.295L153.085 706.478ZM153.329 703.207L152.142 700.04L146.35 702.212L147.537 705.379L153.329 703.207ZM152.117 699.977C151.752 699.064 151.111 698.47 150.565 698.107L147.134 703.254C146.985 703.154 146.607 702.858 146.374 702.274L152.117 699.977ZM150.782 698.265C150.225 697.819 149.399 697.389 148.355 697.389V703.575C147.641 703.575 147.145 703.277 146.918 703.095L150.782 698.265ZM148.355 697.389C147.216 697.389 146.168 697.914 145.485 698.825L150.433 702.536C150.229 702.808 149.927 703.092 149.515 703.298C149.103 703.504 148.695 703.575 148.355 703.575V697.389ZM145.193 699.297C144.651 700.38 144.766 701.472 145.087 702.274L150.831 699.977C150.916 700.19 151.002 700.502 151.002 700.891C151.002 701.293 150.908 701.697 150.725 702.063L145.193 699.297ZM145.046 702.166L146.036 704.937L151.861 702.857L150.872 700.085L145.046 702.166ZM148.949 700.804H141.377V706.99H148.949V700.804ZM144.301 702.889L143.806 701.454L137.958 703.47L138.453 704.905L144.301 702.889ZM143.808 701.458C143.281 699.923 143.036 698.76 142.978 697.92C142.92 697.065 143.07 696.776 143.077 696.765L137.698 693.709C136.88 695.149 136.701 696.79 136.807 698.343C136.914 699.912 137.329 701.636 137.957 703.466L143.808 701.458ZM143.077 696.765C143.1 696.724 143.167 696.604 143.506 696.464C143.894 696.305 144.578 696.152 145.683 696.152V689.966C142.593 689.966 139.357 690.79 137.698 693.709L143.077 696.765ZM145.683 696.152C148.002 696.152 149.708 696.711 150.995 697.643L154.623 692.633C152.082 690.793 149.037 689.966 145.683 689.966V696.152ZM151.023 697.663C152.243 698.525 153.475 700.153 154.505 702.977L160.317 700.858C159.037 697.348 157.202 694.456 154.594 692.612L151.023 697.663ZM154.508 702.986C154.893 704.031 155.085 704.824 155.153 705.398C155.222 705.984 155.143 706.183 155.152 706.158C155.191 706.057 155.307 705.923 155.412 705.867C155.445 705.849 155.268 705.951 154.689 705.951V712.136C155.892 712.136 157.164 711.941 158.315 711.329C159.537 710.68 160.439 709.654 160.931 708.366C161.813 706.056 161.227 703.333 160.313 700.849L154.508 702.986ZM157.573 707.927L156.98 706.393L151.211 708.626L151.805 710.16L157.573 707.927ZM154.095 710.602C155.112 710.602 155.886 710.921 156.589 711.605L160.905 707.175C159.035 705.352 156.707 704.417 154.095 704.417V710.602ZM156.647 711.66C157.481 712.432 158.365 713.772 159.157 715.943L164.968 713.823C163.979 711.111 162.652 708.789 160.847 707.119L156.647 711.66ZM159.156 715.94C160.125 718.605 159.686 719.442 159.603 719.557L164.621 723.174C166.584 720.452 166.112 716.968 164.969 713.826L159.156 715.94ZM159.624 719.529C159.43 719.791 158.815 720.351 156.718 720.351V726.537C159.768 726.537 162.749 725.711 164.601 723.202L159.624 719.529ZM166.337 723.098L163.43 724.154L164.17 726.191H166.337V723.098ZM155.549 693.406V690.313H151.134L152.642 694.462L155.549 693.406ZM168.316 693.406L171.223 692.349L170.483 690.313H168.316V693.406ZM173.463 707.559L170.556 708.616L170.573 708.662L170.591 708.708L173.463 707.559ZM173.809 708.004L171.877 710.419L171.982 710.503L172.094 710.578L173.809 708.004ZM174.75 708.004L177.224 709.86L177.224 709.86L174.75 708.004ZM174.799 707.559L171.892 708.616L171.909 708.662L171.927 708.708L174.799 707.559ZM169.653 693.406V690.313H165.237L166.746 694.463L169.653 693.406ZM182.42 693.406L185.327 692.35L184.587 690.313H182.42V693.406ZM193.208 723.098V726.191H197.623L196.115 722.041L193.208 723.098ZM184.944 723.098L181.972 723.953L182.615 726.191H184.944V723.098ZM178.808 701.769L175.834 702.619L175.835 702.624L178.808 701.769ZM178.412 701.225L176.225 703.412L176.441 703.628L176.696 703.798L178.412 701.225ZM177.471 701.621L174.458 702.316L174.476 702.397L174.499 702.477L177.471 701.621ZM183.657 723.098V726.191H187.767L186.629 722.242L183.657 723.098ZM175.888 723.098L173.055 724.338L173.866 726.191H175.888V723.098ZM166.485 701.621L169.319 700.38L169.306 700.352L169.294 700.324L166.485 701.621ZM165.199 701.225L167.965 702.608L168.023 702.493L168.07 702.373L165.199 701.225ZM165.248 701.769L162.405 702.987L162.412 703.002L162.418 703.017L165.248 701.769ZM174.651 723.098V726.191H179.394L177.481 721.85L174.651 723.098ZM169.244 722.041L158.456 692.35L152.642 694.462L163.43 724.154L169.244 722.041ZM155.549 696.499H168.316V690.313H155.549V696.499ZM165.41 694.463L170.556 708.616L176.37 706.502L171.223 692.349L165.41 694.463ZM170.591 708.708C170.89 709.455 171.374 710.017 171.877 710.419L175.742 705.589C175.915 705.728 176.168 705.993 176.335 706.41L170.591 708.708ZM172.094 710.578C172.586 710.906 173.364 711.295 174.354 711.295V705.109C175.014 705.109 175.429 705.367 175.525 705.431L172.094 710.578ZM174.354 711.295C175.492 711.295 176.541 710.771 177.224 709.86L172.275 706.149C172.48 705.876 172.781 705.592 173.193 705.386C173.605 705.18 174.013 705.109 174.354 705.109V711.295ZM177.224 709.86C178.029 708.787 178.1 707.484 177.671 706.41L171.927 708.708C171.807 708.407 171.705 707.972 171.762 707.452C171.821 706.921 172.029 706.477 172.275 706.149L177.224 709.86ZM177.706 706.502L172.559 692.349L166.746 694.463L171.892 708.616L177.706 706.502ZM169.653 696.499H182.42V690.313H169.653V696.499ZM179.513 694.462L190.301 724.154L196.115 722.041L185.327 692.35L179.513 694.462ZM193.208 720.005H184.944V726.191H193.208V720.005ZM187.916 722.243L181.78 700.914L175.835 702.624L181.972 723.953L187.916 722.243ZM181.781 700.919C181.516 699.99 180.942 699.195 180.127 698.651L176.696 703.798C176.509 703.673 176.32 703.502 176.158 703.279C175.996 703.057 175.893 702.827 175.834 702.619L181.781 700.919ZM180.599 699.038C179.965 698.404 179.031 697.884 177.867 697.884V704.07C177.522 704.07 177.18 703.995 176.872 703.855C176.573 703.719 176.361 703.548 176.225 703.412L180.599 699.038ZM177.867 697.884C177.129 697.884 175.717 698.127 174.862 699.517C174.146 700.681 174.352 701.857 174.458 702.316L180.485 700.925C180.492 700.955 180.714 701.81 180.13 702.759C179.407 703.934 178.242 704.07 177.867 704.07V697.884ZM174.499 702.477L180.685 723.954L186.629 722.242L180.444 700.765L174.499 702.477ZM183.657 720.005H175.888V726.191H183.657V720.005ZM178.721 721.857L169.319 700.38L163.652 702.861L173.055 724.338L178.721 721.857ZM169.294 700.324C169.035 699.764 168.612 699.127 167.925 698.631C167.206 698.112 166.387 697.884 165.595 697.884V704.07C165.198 704.07 164.725 703.95 164.303 703.645C163.913 703.364 163.738 703.049 163.677 702.917L169.294 700.324ZM165.595 697.884C165.072 697.884 164.383 697.994 163.708 698.416C163.008 698.854 162.568 699.474 162.327 700.076L168.07 702.373C167.896 702.811 167.554 703.307 166.986 703.662C166.444 704.001 165.919 704.07 165.595 704.07V697.884ZM162.432 699.841C161.748 701.211 162.19 702.485 162.405 702.987L168.091 700.551C168.125 700.629 168.212 700.851 168.242 701.18C168.273 701.527 168.244 702.051 167.965 702.608L162.432 699.841ZM162.418 703.017L171.821 724.345L177.481 721.85L168.078 700.521L162.418 703.017ZM174.651 720.005H166.337V726.191H174.651V720.005ZM197.285 722.157L195.763 724.85L195.775 724.857L195.788 724.864L197.285 722.157ZM193.178 717.852L190.533 719.456L193.178 717.852ZM189.219 708.994L192.125 707.935L192.122 707.929L189.219 708.994ZM188.674 707.509L191.578 706.445L191.576 706.438L188.674 707.509ZM186.348 698.899L183.269 699.192L186.348 698.899ZM187.437 694.445L189.584 696.671L189.604 696.652L189.624 696.632L187.437 694.445ZM197.433 694.198L196.026 696.952L196.062 696.97L196.099 696.988L197.433 694.198ZM201.541 697.959L198.989 699.707L199 699.723L199.011 699.738L201.541 697.959ZM205.104 705.332L208.023 704.31L208.019 704.3L208.016 704.29L205.104 705.332ZM205.797 707.311V710.404H210.156L208.716 706.29L205.797 707.311ZM197.978 707.311L195.073 708.373L195.815 710.404H197.978V707.311ZM195.899 701.621L192.866 702.227L192.913 702.459L192.994 702.682L195.899 701.621ZM194.613 701.175L192.138 699.319L191.971 699.543L191.846 699.792L194.613 701.175ZM194.613 701.621L197.521 700.568L197.503 700.52L197.484 700.472L194.613 701.621ZM199.413 714.883L196.505 715.936L196.522 715.984L196.541 716.032L199.413 714.883ZM199.759 715.328L197.827 717.743L197.932 717.827L198.044 717.902L199.759 715.328ZM200.7 715.328L203.174 717.184L203.174 717.184L200.7 715.328ZM200.749 714.883L197.841 715.937L197.858 715.984L197.877 716.032L200.749 714.883ZM199.512 711.468V708.375H195.102L196.604 712.522L199.512 711.468ZM207.331 711.468L210.237 710.411L209.497 708.375H207.331V711.468ZM207.529 712.013L210.436 710.959L210.435 710.956L207.529 712.013ZM208.914 718.545L212.007 718.606L212.007 718.604L208.914 718.545ZM207.38 722.256L205.448 719.841L205.428 719.857L205.408 719.874L207.38 722.256ZM195.058 710.281L192.144 711.317L192.875 713.374H195.058V710.281ZM193.474 705.827V702.734H189.092L190.56 706.863L193.474 705.827ZM205.252 705.827L208.156 704.762L207.412 702.734H205.252V705.827ZM206.885 710.281V713.374H211.314L209.789 709.216L206.885 710.281ZM203.174 720.351C201.151 720.351 199.745 719.984 198.782 719.451L195.788 724.864C197.926 726.047 200.446 726.537 203.174 726.537V720.351ZM198.807 719.465C197.884 718.943 196.86 717.96 195.822 716.248L190.533 719.456C191.936 721.769 193.651 723.656 195.763 724.85L198.807 719.465ZM195.822 716.248C194.756 714.491 193.518 711.758 192.125 707.935L186.313 710.053C187.757 714.016 189.158 717.188 190.533 719.456L195.822 716.248ZM192.122 707.929L191.578 706.445L185.77 708.574L186.315 710.059L192.122 707.929ZM191.576 706.438C190.25 702.849 189.587 700.279 189.427 698.606L183.269 699.192C183.506 701.675 184.393 704.845 185.773 708.581L191.576 706.438ZM189.427 698.606C189.263 696.882 189.671 696.588 189.584 696.671L185.29 692.219C183.356 694.083 183.038 696.759 183.269 699.192L189.427 698.606ZM189.624 696.632C189.677 696.58 190.215 696.152 192.138 696.152V689.966C189.641 689.966 187.045 690.463 185.25 692.258L189.624 696.632ZM192.138 696.152C193.804 696.152 195.065 696.46 196.026 696.952L198.841 691.444C196.833 690.417 194.564 689.966 192.138 689.966V696.152ZM196.099 696.988C197.006 697.422 197.99 698.249 198.989 699.707L204.092 696.21C202.65 694.105 200.896 692.425 198.768 691.407L196.099 696.988ZM199.011 699.738C200.044 701.206 201.12 703.38 202.192 706.374L208.016 704.29C206.844 701.016 205.545 698.274 204.07 696.179L199.011 699.738ZM202.185 706.354L202.877 708.333L208.716 706.29L208.023 704.31L202.185 706.354ZM205.797 704.219H197.978V710.404H205.797V704.219ZM200.883 706.25L198.805 700.56L192.994 702.682L195.073 708.373L200.883 706.25ZM198.932 701.014C198.682 699.761 197.863 698.998 197.269 698.602L193.837 703.749C193.639 703.616 193.051 703.15 192.866 702.227L198.932 701.014ZM197.269 698.602C196.777 698.274 195.999 697.884 195.009 697.884V704.07C194.348 704.07 193.933 703.813 193.837 703.749L197.269 698.602ZM195.009 697.884C193.87 697.884 192.821 698.409 192.138 699.319L197.087 703.031C196.883 703.303 196.581 703.587 196.169 703.793C195.757 703.999 195.349 704.07 195.009 704.07V697.884ZM191.846 699.792C191.305 700.874 191.42 701.967 191.741 702.769L197.484 700.472C197.569 700.684 197.656 700.997 197.656 701.385C197.656 701.788 197.562 702.192 197.379 702.558L191.846 699.792ZM191.704 702.673L196.505 715.936L202.321 713.83L197.521 700.568L191.704 702.673ZM196.541 716.032C196.84 716.779 197.324 717.341 197.827 717.743L201.691 712.913C201.865 713.052 202.118 713.317 202.285 713.734L196.541 716.032ZM198.044 717.902C198.536 718.23 199.314 718.619 200.304 718.619V712.433C200.964 712.433 201.379 712.691 201.475 712.755L198.044 717.902ZM200.304 718.619C201.442 718.619 202.491 718.095 203.174 717.184L198.225 713.473C198.429 713.2 198.731 712.916 199.143 712.71C199.555 712.504 199.963 712.433 200.304 712.433V718.619ZM203.174 717.184C203.978 716.111 204.05 714.808 203.621 713.734L197.877 716.032C197.757 715.731 197.654 715.296 197.712 714.776C197.771 714.245 197.979 713.801 198.225 713.473L203.174 717.184ZM203.657 713.829L202.42 710.415L196.604 712.522L197.841 715.937L203.657 713.829ZM199.512 714.561H207.331V708.375H199.512V714.561ZM204.424 712.525L204.622 713.07L210.435 710.956L210.237 710.411L204.424 712.525ZM204.621 713.067C205.52 715.547 205.844 717.314 205.822 718.485L212.007 718.604C212.05 716.345 211.451 713.757 210.436 710.959L204.621 713.067ZM205.822 718.484C205.801 719.569 205.503 719.797 205.448 719.841L209.312 724.672C211.237 723.132 211.962 720.885 212.007 718.606L205.822 718.484ZM205.408 719.874C205.221 720.029 204.64 720.351 203.174 720.351V726.537C205.402 726.537 207.626 726.067 209.352 724.639L205.408 719.874ZM197.972 709.245L196.389 704.791L190.56 706.863L192.144 711.317L197.972 709.245ZM193.474 708.92H205.252V702.734H193.474V708.92ZM202.348 706.892L203.981 711.345L209.789 709.216L208.156 704.762L202.348 706.892ZM206.885 707.188H195.058V713.374H206.885V707.188ZM216.295 732.995L213.388 734.052L214.129 736.088H216.295V732.995ZM201.894 693.406V690.313H197.478L198.988 694.463L201.894 693.406ZM209.218 693.406L211.97 691.994L211.107 690.313H209.218V693.406ZM211.148 697.167L208.396 698.579L214.216 696.773L211.148 697.167ZM211.643 694.148L209.142 692.329L209.114 692.367L209.088 692.406L211.643 694.148ZM217.532 694.247L215.638 696.693L215.657 696.707L215.676 696.721L217.532 694.247ZM220.847 698.503L218.154 700.023V700.023L220.847 698.503ZM224.707 707.262L221.81 708.345L221.811 708.348L224.707 707.262ZM225.45 709.241L222.554 710.327L222.556 710.333L225.45 709.241ZM228.072 718.001L225.018 718.485L225.022 718.513L225.027 718.541L228.072 718.001ZM227.825 722.256L225.252 720.541L225.226 720.579L225.202 720.617L227.825 722.256ZM222.134 722.504L220.397 725.063L222.134 722.504ZM219.412 719.386L222.048 717.769L216.506 720.443L219.412 719.386ZM224.361 732.995V736.088H228.777L227.268 731.938L224.361 732.995ZM218.917 714.982L216.265 713.391L216.204 713.492L216.151 713.599L218.917 714.982ZM218.917 714.388L216.011 715.447L216.041 715.527L216.075 715.606L218.917 714.388ZM214.266 701.621L211.233 702.227L211.279 702.458L211.36 702.679L214.266 701.621ZM213.919 701.175L215.635 698.602V698.602L213.919 701.175ZM212.979 701.175L210.505 699.319L210.337 699.543L210.213 699.792L212.979 701.175ZM212.979 701.621L215.888 700.57L215.87 700.52L215.851 700.472L212.979 701.621ZM217.878 715.18L214.969 716.231L215.707 718.273H217.878V715.18ZM219.201 731.938L204.801 692.349L198.988 694.463L213.388 734.052L219.201 731.938ZM201.894 696.499H209.218V690.313H201.894V696.499ZM206.466 694.818L208.396 698.579L213.9 695.755L211.97 691.994L206.466 694.818ZM214.216 696.773C214.102 695.888 214.294 695.751 214.198 695.89L209.088 692.406C208.003 693.997 207.864 695.872 208.08 697.56L214.216 696.773ZM214.144 695.967C214.126 695.993 214.093 696.03 214.045 696.07C213.997 696.109 213.949 696.136 213.912 696.153C213.837 696.187 213.863 696.152 214.068 696.152V689.966C212.227 689.966 210.378 690.628 209.142 692.329L214.144 695.967ZM214.068 696.152C214.665 696.152 215.155 696.318 215.638 696.693L219.425 691.801C217.864 690.592 216.044 689.966 214.068 689.966V696.152ZM215.676 696.721C216.219 697.129 217.071 698.105 218.154 700.023L223.541 696.982C222.315 694.81 220.956 692.949 219.388 691.773L215.676 696.721ZM218.154 700.023C219.193 701.864 220.414 704.611 221.81 708.345L227.604 706.179C226.164 702.325 224.811 699.233 223.541 696.982L218.154 700.023ZM221.811 708.348L222.554 710.327L228.346 708.155L227.603 706.176L221.811 708.348ZM222.556 710.333C223.954 714.041 224.738 716.724 225.018 718.485L231.127 717.516C230.747 715.12 229.782 711.964 228.344 708.15L222.556 710.333ZM225.027 718.541C225.184 719.425 225.218 720.033 225.195 720.419C225.171 720.831 225.096 720.774 225.252 720.541L230.398 723.972C231.082 722.947 231.312 721.785 231.37 720.778C231.43 719.745 231.324 718.622 231.118 717.46L225.027 718.541ZM225.202 720.617C225.241 720.555 225.296 720.488 225.367 720.428C225.436 720.368 225.497 720.335 225.53 720.321C225.56 720.307 225.552 720.316 225.49 720.327C225.427 720.338 225.318 720.351 225.153 720.351V726.537C227.059 726.537 229.186 725.915 230.448 723.896L225.202 720.617ZM225.153 720.351C224.7 720.351 224.296 720.233 223.871 719.945L220.397 725.063C221.82 726.028 223.428 726.537 225.153 726.537V720.351ZM223.871 719.945C223.45 719.659 222.819 719.024 222.048 717.769L216.776 721.004C217.787 722.652 218.97 724.095 220.397 725.063L223.871 719.945ZM216.506 720.443L221.454 734.052L227.268 731.938L222.319 718.329L216.506 720.443ZM224.361 729.902H216.295V736.088H224.361V729.902ZM218.423 718.273C218.906 718.273 220.773 718.187 221.684 716.365L216.151 713.599C216.523 712.855 217.126 712.447 217.596 712.259C218.011 712.093 218.334 712.087 218.423 712.087V718.273ZM221.57 716.573C222.33 715.305 222.119 714.006 221.76 713.17L216.075 715.606C216.002 715.437 215.899 715.126 215.899 714.71C215.899 714.265 216.018 713.803 216.265 713.391L221.57 716.573ZM221.823 713.329L217.172 700.562L211.36 702.679L216.011 715.447L221.823 713.329ZM217.299 701.014C217.048 699.761 216.23 698.998 215.635 698.602L212.204 703.749C212.005 703.616 211.418 703.15 211.233 702.227L217.299 701.014ZM215.635 698.602C215.143 698.274 214.365 697.884 213.375 697.884V704.07C212.715 704.07 212.3 703.813 212.204 703.749L215.635 698.602ZM213.375 697.884C212.237 697.884 211.188 698.409 210.505 699.319L215.453 703.031C215.249 703.303 214.947 703.587 214.535 703.793C214.124 703.999 213.715 704.07 213.375 704.07V697.884ZM210.213 699.792C209.672 700.874 209.786 701.967 210.107 702.769L215.851 700.472C215.936 700.684 216.023 700.997 216.023 701.385C216.023 701.788 215.929 702.192 215.745 702.558L210.213 699.792ZM210.07 702.672L214.969 716.231L220.787 714.129L215.888 700.57L210.07 702.672ZM217.878 718.273H218.423V712.087H217.878V718.273ZM232.105 711.27L229.197 712.322L229.934 714.363H232.105V711.27ZM228.295 700.73V697.637H223.888L225.386 701.781L228.295 700.73ZM236.361 700.73L239.265 699.666L238.522 697.637H236.361V700.73ZM240.221 711.27V714.363H244.647L243.125 710.207L240.221 711.27ZM236.411 723.098L233.502 724.149L234.24 726.191H236.411V723.098ZM232.6 712.557V709.464H228.193L229.691 713.609L232.6 712.557ZM240.666 712.557L243.571 711.494L242.827 709.464H240.666V712.557ZM244.526 723.098V726.191H248.953L247.431 722.034L244.526 723.098ZM235.014 710.219L231.203 699.678L225.386 701.781L229.197 712.322L235.014 710.219ZM228.295 703.823H236.361V697.637H228.295V703.823ZM233.457 701.793L237.317 712.334L243.125 710.207L239.265 699.666L233.457 701.793ZM240.221 708.177H232.105V714.363H240.221V708.177ZM239.319 722.046L235.509 711.506L229.691 713.609L233.502 724.149L239.319 722.046ZM232.6 715.65H240.666V709.464H232.6V715.65ZM237.762 713.621L241.622 724.161L247.431 722.034L243.571 711.494L237.762 713.621ZM244.526 720.005H236.411V726.191H244.526V720.005ZM277.413 722.454L276.128 725.268L276.165 725.285L276.202 725.3L277.413 722.454ZM273.305 718.743L270.739 720.469L270.746 720.48L270.754 720.491L273.305 718.743ZM269.544 710.677L266.633 711.722L266.635 711.727L269.544 710.677ZM268.852 708.747V705.654H264.455L265.941 709.792L268.852 708.747ZM277.264 708.747L280.169 707.684L279.426 705.654H277.264V708.747ZM279.491 714.833L282.425 713.855L282.411 713.813L282.396 713.771L279.491 714.833ZM279.838 715.328L277.905 717.743L278.01 717.827L278.122 717.902L279.838 715.328ZM280.827 715.328L278.353 713.473L278.186 713.696L278.061 713.945L280.827 715.328ZM280.877 714.833L283.811 713.855L283.801 713.825L283.79 713.795L280.877 714.833ZM279.343 710.528L282.256 709.49L282.251 709.474L282.245 709.459L279.343 710.528ZM278.353 708.994L276.166 711.181L276.21 711.225L276.255 711.267L278.353 708.994ZM275.73 707.163L277.34 704.522L277.334 704.519L275.73 707.163ZM272.712 705.332L271.103 707.974L271.107 707.976L272.712 705.332ZM263.557 694.247L260.637 695.269V695.269L263.557 694.247ZM263.21 693.257L260.285 694.263L260.288 694.271L260.291 694.279L263.21 693.257ZM262.963 685.834L265.708 687.258L265.719 687.238L265.729 687.218L262.963 685.834ZM276.72 685.834L274.689 688.167L274.698 688.175L274.707 688.183L276.72 685.834ZM281.965 694.247L279.065 695.322L279.067 695.327L281.965 694.247ZM282.906 696.771V699.864H287.359L285.804 695.691L282.906 696.771ZM274.493 696.771L271.589 697.835L272.332 699.864H274.493V696.771ZM272.662 691.773L269.728 692.751L269.742 692.794L269.758 692.837L272.662 691.773ZM272.266 691.278L270.334 693.693L270.439 693.777L270.551 693.851L272.266 691.278ZM271.227 691.278L268.753 689.422L268.585 689.645L268.461 689.895L271.227 691.278ZM271.227 691.773L268.293 692.751L268.305 692.787L268.317 692.822L271.227 691.773ZM272.316 694.791L269.406 695.841L269.413 695.859L269.42 695.877L272.316 694.791ZM273.008 696.128L270.507 697.947L270.549 698.004L270.593 698.06L273.008 696.128ZM274.196 697.167L275.948 694.618V694.618L274.196 697.167ZM276.918 698.899L278.543 696.267L278.539 696.265L276.918 698.899ZM278.6 699.938L280.231 697.31L280.226 697.307L278.6 699.938ZM283.104 703.105L281.103 705.464L281.124 705.481L281.145 705.499L283.104 703.105ZM285.776 706.124L283.145 707.749L283.162 707.777L283.179 707.804L285.776 706.124ZM287.854 710.429L290.755 709.355L290.751 709.346L290.748 709.337L287.854 710.429ZM288.349 711.765L285.449 712.839L288.349 711.765ZM289.685 718.396L286.597 718.222L286.596 718.25L286.595 718.278L289.685 718.396ZM287.953 722.207L286.086 719.742L286.067 719.755L286.049 719.77L287.953 722.207ZM283.45 720.351C281.214 720.351 279.656 720.048 278.624 719.608L276.202 725.3C278.271 726.181 280.738 726.537 283.45 726.537V720.351ZM278.697 719.641C277.821 719.241 276.852 718.446 275.857 716.995L270.754 720.491C272.201 722.602 273.97 724.282 276.128 725.268L278.697 719.641ZM275.872 717.016C274.859 715.511 273.707 713.097 272.453 709.626L266.635 711.727C267.955 715.382 269.31 718.346 270.739 720.469L275.872 717.016ZM272.455 709.632L271.763 707.702L265.941 709.792L266.633 711.722L272.455 709.632ZM268.852 711.839H277.264V705.654H268.852V711.839ZM274.36 709.809L276.587 715.896L282.396 713.771L280.169 707.684L274.36 709.809ZM276.557 715.811C276.814 716.582 277.281 717.244 277.905 717.743L281.77 712.913C282.064 713.149 282.3 713.48 282.425 713.855L276.557 715.811ZM278.122 717.902C278.724 718.303 279.509 718.619 280.431 718.619V712.433C280.958 712.433 281.347 712.617 281.553 712.755L278.122 717.902ZM280.431 718.619C281.334 718.619 282.823 718.252 283.594 716.711L278.061 713.945C278.327 713.413 278.763 712.977 279.296 712.71C279.78 712.468 280.207 712.433 280.431 712.433V718.619ZM283.302 717.184C284.17 716.026 284.103 714.73 283.811 713.855L277.943 715.811C277.872 715.6 277.792 715.246 277.836 714.798C277.884 714.322 278.062 713.86 278.353 713.473L283.302 717.184ZM283.79 713.795L282.256 709.49L276.429 711.566L277.963 715.872L283.79 713.795ZM282.245 709.459C281.869 708.44 281.288 707.494 280.451 706.721L276.255 711.267C276.276 711.286 276.354 711.363 276.441 711.597L282.245 709.459ZM280.54 706.807C279.843 706.11 278.652 705.322 277.34 704.522L274.12 709.804C274.765 710.197 275.264 710.52 275.63 710.775C275.812 710.903 275.948 711.004 276.046 711.081C276.149 711.163 276.179 711.194 276.166 711.181L280.54 706.807ZM277.334 704.519L274.316 702.688L271.107 707.976L274.126 709.807L277.334 704.519ZM274.32 702.69C272.266 701.44 270.665 700.105 269.461 698.709L264.778 702.75C266.477 704.72 268.605 706.453 271.103 707.974L274.32 702.69ZM269.461 698.709C268.319 697.386 267.303 695.589 266.476 693.225L260.637 695.269C261.657 698.183 263.017 700.709 264.778 702.75L269.461 698.709ZM266.476 693.225L266.129 692.236L260.291 694.279L260.637 695.269L266.476 693.225ZM266.135 692.252C265.146 689.375 265.367 687.916 265.708 687.258L260.217 684.411C258.711 687.315 259.097 690.805 260.285 694.263L266.135 692.252ZM265.729 687.218C265.854 686.968 266.309 686.255 268.802 686.255V680.069C265.291 680.069 261.853 681.138 260.196 684.451L265.729 687.218ZM268.802 686.255C271.439 686.255 273.31 686.966 274.689 688.167L278.751 683.502C276.039 681.14 272.631 680.069 268.802 680.069V686.255ZM274.707 688.183C276.238 689.495 277.747 691.764 279.065 695.322L284.866 693.172C283.347 689.076 281.359 685.737 278.733 683.486L274.707 688.183ZM279.067 695.327L280.007 697.851L285.804 695.691L284.864 693.167L279.067 695.327ZM282.906 693.678H274.493V699.864H282.906V693.678ZM277.397 695.707L275.566 690.709L269.758 692.837L271.589 697.835L277.397 695.707ZM275.596 690.795C275.283 689.854 274.668 689.162 273.982 688.704L270.551 693.851C270.26 693.658 269.909 693.295 269.728 692.751L275.596 690.795ZM274.198 688.863C273.433 688.25 272.536 687.987 271.672 687.987V694.173C271.491 694.173 271.264 694.146 271.016 694.064C270.764 693.98 270.533 693.852 270.334 693.693L274.198 688.863ZM271.672 687.987C270.72 687.987 269.556 688.351 268.753 689.422L273.701 693.134C273.439 693.483 273.084 693.771 272.669 693.956C272.271 694.133 271.914 694.173 271.672 694.173V687.987ZM268.461 689.895C267.898 691.019 268.076 692.101 268.293 692.751L274.161 690.795C274.246 691.049 274.424 691.801 273.993 692.661L268.461 689.895ZM268.317 692.822L269.406 695.841L275.225 693.742L274.136 690.723L268.317 692.822ZM269.42 695.877C269.692 696.603 270.044 697.309 270.507 697.947L275.51 694.308C275.445 694.22 275.335 694.036 275.212 693.705L269.42 695.877ZM270.593 698.06C271.118 698.715 271.781 699.26 272.444 699.715L275.948 694.618C275.763 694.491 275.631 694.386 275.54 694.307C275.448 694.226 275.418 694.188 275.424 694.195L270.593 698.06ZM272.444 699.715C273.043 700.127 274.009 700.74 275.297 701.533L278.539 696.265C277.253 695.474 276.405 694.932 275.948 694.618L272.444 699.715ZM275.293 701.53L276.975 702.569L280.226 697.307L278.543 696.267L275.293 701.53ZM276.969 702.566C278.818 703.713 280.177 704.678 281.103 705.464L285.105 700.747C283.853 699.685 282.21 698.538 280.231 697.31L276.969 702.566ZM281.145 705.499C281.986 706.187 282.644 706.938 283.145 707.749L288.407 704.499C287.523 703.066 286.398 701.805 285.062 700.711L281.145 705.499ZM283.179 707.804C283.749 708.684 284.35 709.904 284.961 711.521L290.748 709.337C290.039 707.457 289.255 705.807 288.373 704.444L283.179 707.804ZM284.954 711.503L285.449 712.839L291.25 710.691L290.755 709.355L284.954 711.503ZM285.449 712.839C286.372 715.333 286.662 717.082 286.597 718.222L292.773 718.571C292.907 716.214 292.306 713.542 291.25 710.691L285.449 712.839ZM286.595 718.278C286.554 719.326 286.251 719.616 286.086 719.742L289.821 724.672C291.833 723.148 292.684 720.897 292.776 718.515L286.595 718.278ZM286.049 719.77C285.735 720.015 285.009 720.351 283.45 720.351V726.537C285.784 726.537 288.06 726.048 289.857 724.644L286.049 719.77ZM336.546 723.098L333.639 724.155L334.379 726.191H336.546V723.098ZM322.145 683.509V680.416H317.729L319.238 684.566L322.145 683.509ZM335.011 683.509L337.918 682.451L337.177 680.416H335.011V683.509ZM340.306 698.058L343.241 697.079L343.227 697.039L343.213 697L340.306 698.058ZM340.702 698.552L342.418 695.979V695.979L340.702 698.552ZM341.692 698.552L339.218 696.697L339.05 696.92L338.926 697.169L341.692 698.552ZM341.742 698.058L344.676 697.079L344.662 697.039L344.648 697L341.742 698.058ZM336.447 683.509V680.416H332.03L333.54 684.566L336.447 683.509ZM349.313 683.509L352.22 682.451L351.479 680.416H349.313V683.509ZM363.714 723.098V726.191H368.13L366.62 722.04L363.714 723.098ZM354.608 723.098L351.657 724.023L352.336 726.191H354.608V723.098ZM345.255 693.257L348.206 692.332L348.198 692.306L348.189 692.279L345.255 693.257ZM344.859 692.762L342.672 694.949L342.889 695.166L343.144 695.336L344.859 692.762ZM343.82 692.762L346.586 694.146L346.644 694.031L346.692 693.911L343.82 692.762ZM343.82 693.257L346.771 692.332L346.763 692.306L346.754 692.279L343.82 693.257ZM353.173 723.098V726.191H357.384L356.124 722.173L353.173 723.098ZM347.136 723.098L344.279 724.282L345.07 726.191H347.136V723.098ZM334.764 693.257L331.83 694.235L331.865 694.34L331.907 694.442L334.764 693.257ZM334.368 692.762L332.181 694.949L332.398 695.166L332.652 695.336L334.368 692.762ZM333.329 692.762L336.095 694.146L336.153 694.031L336.201 693.911L333.329 692.762ZM333.329 693.257L330.395 694.235L330.43 694.34L330.472 694.442L333.329 693.257ZM345.701 723.098V726.191H350.331L348.558 721.913L345.701 723.098ZM339.452 722.04L325.052 682.451L319.238 684.566L333.639 724.155L339.452 722.04ZM322.145 686.601H335.011V680.416H322.145V686.601ZM332.105 684.566L337.4 699.115L343.213 697L337.918 682.451L332.105 684.566ZM337.372 699.036C337.686 699.976 338.301 700.668 338.987 701.126L342.418 695.979C342.708 696.172 343.059 696.535 343.241 697.079L337.372 699.036ZM338.987 701.126C339.589 701.527 340.374 701.843 341.296 701.843V695.657C341.823 695.657 342.212 695.842 342.418 695.979L338.987 701.126ZM341.296 701.843C342.199 701.843 343.688 701.476 344.458 699.936L338.926 697.169C339.192 696.637 339.628 696.201 340.16 695.934C340.645 695.692 341.072 695.657 341.296 695.657V701.843ZM344.166 700.408C345.035 699.25 344.967 697.954 344.676 697.079L338.807 699.036C338.737 698.824 338.656 698.47 338.701 698.022C338.749 697.546 338.927 697.084 339.218 696.697L344.166 700.408ZM344.648 697L339.353 682.451L333.54 684.566L338.835 699.115L344.648 697ZM336.447 686.601H349.313V680.416H336.447V686.601ZM346.406 684.566L360.807 724.155L366.62 722.04L352.22 682.451L346.406 684.566ZM363.714 720.005H354.608V726.191H363.714V720.005ZM357.559 722.173L348.206 692.332L342.304 694.182L351.657 724.023L357.559 722.173ZM348.189 692.279C347.876 691.339 347.261 690.646 346.575 690.189L343.144 695.336C342.853 695.142 342.502 694.78 342.321 694.235L348.189 692.279ZM347.046 690.575C346.308 689.837 345.326 689.422 344.265 689.422V695.608C344.004 695.608 343.704 695.559 343.397 695.432C343.092 695.305 342.85 695.127 342.672 694.949L347.046 690.575ZM344.265 689.422C343.805 689.422 343.148 689.501 342.479 689.873C341.753 690.277 341.232 690.904 340.948 691.614L346.692 693.911C346.474 694.456 346.061 694.96 345.483 695.281C344.962 695.57 344.495 695.608 344.265 695.608V689.422ZM341.054 691.379C340.491 692.504 340.669 693.585 340.886 694.235L346.754 692.279C346.839 692.534 347.017 693.285 346.586 694.146L341.054 691.379ZM340.869 694.182L350.222 724.023L356.124 722.173L346.771 692.332L340.869 694.182ZM353.173 720.005H347.136V726.191H353.173V720.005ZM349.993 721.913L337.621 692.073L331.907 694.442L344.279 724.282L349.993 721.913ZM337.698 692.279C337.385 691.339 336.77 690.646 336.084 690.189L332.652 695.336C332.362 695.142 332.011 694.78 331.83 694.235L337.698 692.279ZM336.555 690.575C335.817 689.837 334.835 689.422 333.774 689.422V695.608C333.513 695.608 333.213 695.559 332.906 695.432C332.601 695.305 332.359 695.127 332.181 694.949L336.555 690.575ZM333.774 689.422C333.314 689.422 332.657 689.501 331.988 689.873C331.261 690.277 330.741 690.904 330.457 691.614L336.201 693.911C335.983 694.456 335.57 694.96 334.992 695.281C334.471 695.57 334.003 695.608 333.774 695.608V689.422ZM330.563 691.379C330 692.504 330.178 693.585 330.395 694.235L336.263 692.279C336.348 692.534 336.526 693.285 336.095 694.146L330.563 691.379ZM330.472 694.442L342.843 724.282L348.558 721.913L336.186 692.073L330.472 694.442ZM345.701 720.005H336.546V726.191H345.701V720.005ZM412.95 723.098L410.043 724.155L410.784 726.191H412.95V723.098ZM398.549 683.509V680.416H394.133L395.643 684.566L398.549 683.509ZM406.913 683.509L409.819 682.451L409.079 680.416H406.913V683.509ZM421.313 723.098V726.191H425.729L424.22 722.04L421.313 723.098ZM414.781 723.098L411.876 724.16L412.619 726.191H414.781V723.098ZM411.812 714.982V711.889H407.387L408.907 716.045L411.812 714.982ZM422.996 714.982L425.9 713.919L425.157 711.889H422.996V714.982ZM425.965 723.098V726.191H430.39L428.869 722.035L425.965 723.098ZM415.856 722.04L401.456 682.451L395.643 684.566L410.043 724.155L415.856 722.04ZM398.549 686.601H406.913V680.416H398.549V686.601ZM404.006 684.566L418.406 724.155L424.22 722.04L409.819 682.451L404.006 684.566ZM421.313 720.005H412.95V726.191H421.313V720.005ZM417.685 722.035L414.716 713.919L408.907 716.045L411.876 724.16L417.685 722.035ZM411.812 718.075H422.996V711.889H411.812V718.075ZM420.091 716.045L423.06 724.16L428.869 722.035L425.9 713.919L420.091 716.045ZM425.965 720.005H414.781V726.191H425.965V720.005Z" fill="#FF00E6" mask="url(#path-2-outside-1_1125_71)"/>
<path d="M303.625 702.089C303.625 719.628 290.999 733.533 275.789 733.533C260.579 733.533 247.953 719.628 247.953 702.089C247.953 684.549 260.579 670.644 275.789 670.644C290.999 670.644 303.625 684.549 303.625 702.089Z" stroke="#FF00E6" stroke-width="3.0929"/>
<path d="M303.625 702.089C303.625 719.628 290.999 733.533 275.789 733.533C260.579 733.533 247.953 719.628 247.953 702.089C247.953 684.549 260.579 670.644 275.789 670.644C290.999 670.644 303.625 684.549 303.625 702.089Z" stroke="#FF00E6" stroke-width="3.0929"/>
<path d="M371.668 702.089C371.668 719.628 359.042 733.533 343.832 733.533C328.622 733.533 315.996 719.628 315.996 702.089C315.996 684.549 328.622 670.644 343.832 670.644C359.042 670.644 371.668 684.549 371.668 702.089Z" stroke="#FF00E6" stroke-width="3.0929"/>
<path d="M439.711 702.089C439.711 719.628 427.085 733.533 411.875 733.533C396.665 733.533 384.039 719.628 384.039 702.089C384.039 684.549 396.665 670.644 411.875 670.644C427.085 670.644 439.711 684.549 439.711 702.089Z" stroke="#FF00E6" stroke-width="3.0929"/>
<path d="M509.335 726.505C509.242 728.757 510.938 731.195 511.798 732.134C550.728 738.137 584.613 734.635 596.69 732.134C598.754 730.07 599.113 727.521 599.035 726.505C600.255 724.535 600.325 722.479 600.208 721.698C601.146 720.572 601.224 718.18 601.146 717.125C601.99 716.093 601.497 713.49 601.146 712.317C602.365 710.629 601.654 708.409 601.146 707.51C602.178 706.666 602.045 704.109 601.849 702.937C602.787 701.342 602.24 698.598 601.849 697.426C558.23 703.805 520.513 700.084 507.107 697.426C506.17 698.551 506.717 701.569 507.107 702.937C506.545 704.625 506.873 706.689 507.107 707.51C506.545 708.917 506.873 711.301 507.107 712.317C506.263 713.349 506.756 715.952 507.107 717.125C506.545 719.188 507.342 721.033 507.811 721.698C507.999 724.043 508.905 725.88 509.335 726.505Z" fill="#DA9756"/>
<path d="M511.841 697.314L506.682 696.142C505.939 677.576 514.092 640.61 552.646 641.266C591.2 641.923 601.62 678.124 602.011 696.142L596.383 697.314C596.383 678.436 586.885 646.074 552.646 646.073C517.392 646.073 510.864 682.032 511.841 697.314Z" fill="#B1662E"/>
<path d="M503.17 695.153C502.607 697.686 506.688 698.71 508.798 698.905C543.506 705.12 598.851 699.609 602.017 698.436C605.183 697.263 605.183 697.029 605.183 694.684C605.183 692.808 602.76 692.573 601.548 692.69C565.621 699.163 523.807 696.258 507.157 692.69C506.063 692.456 503.733 692.62 503.17 695.153Z" fill="#85480F"/>
<defs>
<radialGradient id="paint0_radial_1125_71" cx="0" cy="0" r="1" gradientUnits="userSpaceOnUse" gradientTransform="translate(391.252 381.973) rotate(90) scale(381.973 391.252)">
<stop stop-color="#0074FC" stop-opacity="0.94"/>
<stop offset="1" stop-color="#1D26FF" stop-opacity="0"/>
</radialGradient>
</defs>
</svg>
