<svg width="342" height="161" viewBox="0 0 342 161" fill="none" xmlns="http://www.w3.org/2000/svg">
<g filter="url(#filter0_d_1045_178)">
<path d="M65.936 104.672C64.464 104.672 62.864 104.512 61.136 104.192L55.568 88.832H57.68C58.704 88.832 59.056 88.32 58.736 87.296L43.856 46.4H77.744L98.672 104H83.024L67.664 61.76H65.072L74.96 88.832C76.496 93.056 77.2 96.288 77.072 98.528C77.008 100.768 76.08 102.368 74.288 103.328C72.56 104.224 69.776 104.672 65.936 104.672ZM117.983 104.672C113.375 104.672 109.567 103.84 106.559 102.176C103.615 100.512 100.959 97.728 98.591 93.824C96.223 89.92 93.663 84.192 90.911 76.64L89.855 73.76C87.231 66.656 85.727 61.088 85.343 57.056C84.959 53.024 85.663 50.144 87.455 48.416C89.247 46.624 92.287 45.728 96.575 45.728C100.543 45.728 103.967 46.464 106.847 47.936C109.791 49.344 112.447 51.776 114.815 55.232C117.247 58.688 119.551 63.456 121.727 69.536L123.071 73.376H107.903L103.871 62.336C103.807 62.016 103.583 61.728 103.199 61.472C102.815 61.216 102.463 61.088 102.143 61.088C101.823 61.088 101.567 61.216 101.375 61.472C101.247 61.728 101.247 62.016 101.375 62.336L110.687 88.064C110.815 88.384 111.039 88.672 111.359 88.928C111.743 89.184 112.095 89.312 112.415 89.312C112.735 89.312 112.991 89.184 113.183 88.928C113.375 88.672 113.407 88.384 113.279 88.064L110.879 81.44H126.047L126.431 82.496C128.287 87.616 129.183 91.84 129.119 95.168C129.055 98.432 128.063 100.832 126.143 102.368C124.287 103.904 121.567 104.672 117.983 104.672ZM102.239 79.136L99.167 70.496H122.015L125.183 79.136H102.239ZM136.429 104L115.5 46.4H131.148L139.117 68.192H140.077C140.525 68.192 140.845 68.064 141.037 67.808C141.229 67.552 141.261 67.168 141.133 66.656L133.741 46.4H152.365L158.317 74.624L173.292 104H154.669L147.277 83.552C147.085 83.04 146.797 82.656 146.413 82.4C146.029 82.144 145.581 82.016 145.069 82.016H144.109L152.173 104H136.429ZM174.866 104L153.938 46.4H169.586L184.946 88.64H187.538L172.178 46.4H187.826L208.754 104H174.866ZM198.866 110.72L190.898 88.64H206.546L214.61 110.72H198.866ZM213.96 104L193.032 46.4H208.008L214.44 77.12C214.504 77.568 214.696 77.952 215.016 78.272C215.4 78.528 215.784 78.656 216.168 78.656C216.488 78.656 216.712 78.528 216.84 78.272C217.032 78.016 217.064 77.728 216.936 77.408L210.504 46.4H227.496L248.424 104H233.544L227.208 73.28C227.144 72.832 226.92 72.48 226.536 72.224C226.216 71.904 225.864 71.744 225.48 71.744C225.16 71.744 224.904 71.872 224.712 72.128C224.584 72.32 224.552 72.608 224.616 72.992L231.144 104H213.96ZM244.95 88.544C243.286 84 243.062 80.608 244.278 78.368C245.494 76.064 248.342 74.912 252.822 74.912L254.358 79.232C249.75 79.232 246.038 78.08 243.222 75.776C240.406 73.408 237.974 69.44 235.926 63.872C234.39 59.584 233.718 56.192 233.91 53.696C234.102 51.136 235.222 49.28 237.27 48.128C239.254 46.976 242.358 46.4 246.582 46.4H263.478L284.406 104H268.758L261.654 84.416H260.694C260.182 84.416 259.83 84.544 259.638 84.8C259.51 85.056 259.51 85.44 259.638 85.952L266.262 104H250.518L244.95 88.544ZM256.086 71.744H257.046L252.438 59.168H251.478C250.454 59.168 250.102 59.68 250.422 60.704L253.878 70.208C254.262 71.232 254.998 71.744 256.086 71.744Z" fill="white"/>
</g>
<defs>
<filter id="filter0_d_1045_178" x="39.8555" y="45.7285" width="248.551" height="97.9922" filterUnits="userSpaceOnUse" color-interpolation-filters="sRGB">
<feFlood flood-opacity="0" result="BackgroundImageFix"/>
<feColorMatrix in="SourceAlpha" type="matrix" values="0 0 0 0 0 0 0 0 0 0 0 0 0 0 0 0 0 0 127 0" result="hardAlpha"/>
<feOffset dy="29"/>
<feGaussianBlur stdDeviation="2"/>
<feComposite in2="hardAlpha" operator="out"/>
<feColorMatrix type="matrix" values="0 0 0 0 0 0 0 0 0 0 0 0 0 0 0 0 0 0 0.25 0"/>
<feBlend mode="normal" in2="BackgroundImageFix" result="effect1_dropShadow_1045_178"/>
<feBlend mode="normal" in="SourceGraphic" in2="effect1_dropShadow_1045_178" result="shape"/>
</filter>
</defs>
</svg>
