<svg width="558" height="168" viewBox="0 0 558 168" fill="none" xmlns="http://www.w3.org/2000/svg">
<g filter="url(#filter0_d_1045_173)">
<path d="M51.616 104L30.688 46.4H55.456L65.44 73.856C65.568 74.176 65.792 74.464 66.112 74.72C66.496 74.976 66.848 75.104 67.168 75.104C67.488 75.104 67.744 74.976 67.936 74.72C68.128 74.464 68.16 74.176 68.032 73.856L58.048 46.4H82.816L103.744 104H87.712L75.808 62.624C75.68 62.176 75.424 61.824 75.04 61.568C74.72 61.248 74.368 61.088 73.984 61.088C73.28 61.088 73.024 61.504 73.216 62.336L85.216 104H70.144L51.904 62.336C51.52 61.504 50.944 61.088 50.176 61.088C49.792 61.088 49.536 61.248 49.408 61.568C49.28 61.824 49.312 62.176 49.504 62.624L67.744 104H51.616ZM125.381 104L120.197 93.728L118.565 89.312L108.773 62.336C108.709 62.016 108.485 61.728 108.101 61.472C107.717 61.216 107.365 61.088 107.045 61.088C106.725 61.088 106.469 61.216 106.277 61.472C106.149 61.728 106.149 62.016 106.277 62.336L108.197 67.616H93.0287L91.8767 64.544C89.6367 58.592 89.2847 53.984 90.8207 50.72C92.3567 47.392 95.9088 45.728 101.477 45.728C107.493 45.728 112.357 47.264 116.069 50.336C119.845 53.408 122.981 58.368 125.477 65.216L139.589 104H125.381ZM115.493 104.672C112.421 104.672 109.573 103.328 106.949 100.64C104.325 97.888 101.861 93.312 99.5568 86.912C97.1888 80.448 96.4208 75.872 97.2528 73.184C98.1488 70.496 100.517 69.152 104.357 69.152C107.109 69.152 109.349 69.728 111.077 70.88C112.869 72.032 114.181 73.824 115.013 76.256L116.837 81.344H115.685L115.109 79.808H114.149C113.637 79.808 113.285 79.968 113.093 80.288C112.965 80.544 112.997 80.896 113.189 81.344L115.877 88.736C115.941 89.056 116.165 89.344 116.549 89.6C116.933 89.856 117.285 89.984 117.605 89.984C117.925 89.984 118.149 89.856 118.277 89.6C118.469 89.344 118.501 89.056 118.373 88.736L118.277 88.448L120.485 92.192C121.829 94.496 122.437 96.608 122.309 98.528C122.245 100.384 121.573 101.888 120.293 103.04C119.077 104.128 117.477 104.672 115.493 104.672ZM158.889 104.672C154.281 104.672 150.473 103.84 147.465 102.176C144.521 100.512 141.865 97.728 139.497 93.824C137.129 89.92 134.569 84.192 131.817 76.64L130.761 73.76C128.137 66.528 126.665 60.896 126.345 56.864C126.025 52.832 126.793 49.984 128.649 48.32C130.441 46.592 133.385 45.728 137.481 45.728C141.513 45.728 144.969 46.496 147.849 48.032C150.729 49.568 153.353 52.096 155.721 55.616C158.153 59.136 160.521 64 162.825 70.208L164.265 74.048H149.097L144.777 62.336C144.649 62.016 144.393 61.728 144.009 61.472C143.689 61.216 143.369 61.088 143.049 61.088C142.729 61.088 142.473 61.216 142.281 61.472C142.153 61.728 142.153 62.016 142.281 62.336L151.593 88.064C151.721 88.384 151.945 88.672 152.265 88.928C152.649 89.184 153.001 89.312 153.321 89.312C153.641 89.312 153.897 89.184 154.089 88.928C154.281 88.672 154.313 88.384 154.185 88.064L149.865 76.352H165.033L166.473 80.192C168.649 86.016 169.769 90.72 169.833 94.304C169.961 97.888 169.097 100.512 167.241 102.176C165.385 103.84 162.601 104.672 158.889 104.672ZM184.535 104L163.607 46.4H179.255L200.183 104H184.535ZM161.399 61.76L155.831 46.4H187.031L192.695 61.76H161.399ZM226.764 104.672C222.156 104.672 218.348 103.84 215.34 102.176C212.396 100.512 209.74 97.728 207.372 93.824C205.004 89.92 202.444 84.192 199.692 76.64L198.636 73.76C196.012 66.656 194.508 61.088 194.124 57.056C193.74 53.024 194.444 50.144 196.236 48.416C198.028 46.624 201.068 45.728 205.356 45.728C209.324 45.728 212.748 46.464 215.628 47.936C218.572 49.344 221.228 51.776 223.596 55.232C226.028 58.688 228.332 63.456 230.508 69.536L231.852 73.376H216.684L212.652 62.336C212.588 62.016 212.364 61.728 211.98 61.472C211.596 61.216 211.244 61.088 210.924 61.088C210.604 61.088 210.348 61.216 210.156 61.472C210.028 61.728 210.028 62.016 210.156 62.336L219.468 88.064C219.596 88.384 219.82 88.672 220.14 88.928C220.524 89.184 220.876 89.312 221.196 89.312C221.516 89.312 221.772 89.184 221.964 88.928C222.156 88.672 222.188 88.384 222.06 88.064L219.66 81.44H234.828L235.212 82.496C237.068 87.616 237.964 91.84 237.9 95.168C237.836 98.432 236.844 100.832 234.924 102.368C233.068 103.904 230.348 104.672 226.764 104.672ZM211.02 79.136L207.948 70.496H230.796L233.964 79.136H211.02ZM252.218 123.2L224.282 46.4H238.49L242.234 53.696C241.914 51.2 242.234 49.248 243.194 47.84C244.218 46.432 245.786 45.728 247.898 45.728C250.394 45.728 252.634 46.496 254.618 48.032C256.666 49.568 258.81 52.32 261.05 56.288C263.29 60.256 265.786 65.92 268.538 73.28L269.978 77.12C272.73 84.416 274.426 90.08 275.066 94.112C275.77 98.08 275.61 100.832 274.586 102.368C273.626 103.904 271.898 104.672 269.402 104.672C267.29 104.672 265.338 104.064 263.546 102.848C261.754 101.632 259.994 99.616 258.266 96.8L267.866 123.2H252.218ZM256.346 88.64C256.858 88.64 257.178 88.512 257.306 88.256C257.498 87.936 257.498 87.552 257.306 87.104L248.282 62.336C248.218 62.016 247.994 61.728 247.61 61.472C247.226 61.216 246.874 61.088 246.554 61.088C246.234 61.088 245.978 61.216 245.786 61.472C245.658 61.728 245.658 62.016 245.786 62.336L255.29 88.64H256.346ZM273.704 81.632L267.944 65.792H329.768L335.528 81.632H273.704ZM345.804 104L324.875 46.4H340.523L348.492 68.192H349.452C349.9 68.192 350.22 68.064 350.412 67.808C350.604 67.552 350.636 67.168 350.508 66.656L343.116 46.4H361.74L367.692 74.624L382.667 104H364.044L356.652 83.552C356.46 83.04 356.172 82.656 355.788 82.4C355.404 82.144 354.956 82.016 354.444 82.016H353.484L361.548 104H345.804ZM388.561 104.672C387.089 104.672 385.489 104.512 383.761 104.192L378.193 88.832H380.305C381.329 88.832 381.681 88.32 381.361 87.296L366.481 46.4H400.369L421.297 104H405.649L390.289 61.76H387.697L397.585 88.832C399.121 93.056 399.825 96.288 399.697 98.528C399.633 100.768 398.705 102.368 396.913 103.328C395.185 104.224 392.401 104.672 388.561 104.672ZM442.912 104L437.728 93.728L436.096 89.312L426.304 62.336C426.24 62.016 426.016 61.728 425.632 61.472C425.248 61.216 424.896 61.088 424.576 61.088C424.256 61.088 424 61.216 423.808 61.472C423.68 61.728 423.68 62.016 423.808 62.336L425.728 67.616H410.56L409.408 64.544C407.168 58.592 406.816 53.984 408.352 50.72C409.888 47.392 413.44 45.728 419.008 45.728C425.024 45.728 429.888 47.264 433.6 50.336C437.376 53.408 440.512 58.368 443.008 65.216L457.12 104H442.912ZM433.024 104.672C429.952 104.672 427.104 103.328 424.48 100.64C421.856 97.888 419.392 93.312 417.088 86.912C414.72 80.448 413.952 75.872 414.784 73.184C415.68 70.496 418.048 69.152 421.888 69.152C424.64 69.152 426.88 69.728 428.608 70.88C430.4 72.032 431.712 73.824 432.544 76.256L434.368 81.344H433.216L432.64 79.808H431.68C431.168 79.808 430.816 79.968 430.624 80.288C430.496 80.544 430.528 80.896 430.72 81.344L433.408 88.736C433.472 89.056 433.696 89.344 434.08 89.6C434.464 89.856 434.816 89.984 435.136 89.984C435.456 89.984 435.68 89.856 435.808 89.6C436 89.344 436.032 89.056 435.904 88.736L435.808 88.448L438.016 92.192C439.36 94.496 439.968 96.608 439.84 98.528C439.776 100.384 439.104 101.888 437.824 103.04C436.608 104.128 435.008 104.672 433.024 104.672ZM476.421 104.672C471.813 104.672 468.005 103.84 464.997 102.176C462.053 100.512 459.397 97.728 457.029 93.824C454.661 89.92 452.101 84.192 449.349 76.64L448.293 73.76C445.668 66.528 444.196 60.896 443.876 56.864C443.556 52.832 444.324 49.984 446.18 48.32C447.973 46.592 450.917 45.728 455.013 45.728C459.045 45.728 462.501 46.496 465.381 48.032C468.261 49.568 470.885 52.096 473.253 55.616C475.685 59.136 478.053 64 480.357 70.208L481.797 74.048H466.629L462.309 62.336C462.181 62.016 461.925 61.728 461.541 61.472C461.221 61.216 460.901 61.088 460.581 61.088C460.261 61.088 460.005 61.216 459.812 61.472C459.685 61.728 459.685 62.016 459.812 62.336L469.125 88.064C469.253 88.384 469.477 88.672 469.797 88.928C470.181 89.184 470.533 89.312 470.853 89.312C471.173 89.312 471.429 89.184 471.621 88.928C471.813 88.672 471.845 88.384 471.717 88.064L467.397 76.352H482.565L484.005 80.192C486.181 86.016 487.301 90.72 487.365 94.304C487.493 97.888 486.629 100.512 484.773 102.176C482.917 103.84 480.133 104.672 476.421 104.672ZM511.858 104.672C507.25 104.672 503.442 103.84 500.434 102.176C497.49 100.512 494.834 97.728 492.466 93.824C490.098 89.92 487.538 84.192 484.786 76.64L483.73 73.76C481.106 66.528 479.634 60.896 479.314 56.864C478.994 52.832 479.762 49.984 481.618 48.32C483.41 46.592 486.354 45.728 490.45 45.728C494.482 45.728 497.938 46.496 500.818 48.032C503.698 49.568 506.322 52.096 508.69 55.616C511.122 59.136 513.49 64 515.794 70.208L517.234 74.048H502.066L497.746 62.336C497.618 62.016 497.362 61.728 496.978 61.472C496.658 61.216 496.338 61.088 496.018 61.088C495.698 61.088 495.442 61.216 495.25 61.472C495.122 61.728 495.122 62.016 495.25 62.336L504.562 88.064C504.69 88.384 504.914 88.672 505.234 88.928C505.618 89.184 505.97 89.312 506.29 89.312C506.61 89.312 506.866 89.184 507.058 88.928C507.25 88.672 507.282 88.384 507.154 88.064L502.834 76.352H518.002L519.442 80.192C521.618 86.016 522.738 90.72 522.802 94.304C522.93 97.888 522.066 100.512 520.21 102.176C518.354 103.84 515.57 104.672 511.858 104.672Z" fill="white"/>
</g>
<defs>
<filter id="filter0_d_1045_173" x="26.6875" y="45.7285" width="500.307" height="110.471" filterUnits="userSpaceOnUse" color-interpolation-filters="sRGB">
<feFlood flood-opacity="0" result="BackgroundImageFix"/>
<feColorMatrix in="SourceAlpha" type="matrix" values="0 0 0 0 0 0 0 0 0 0 0 0 0 0 0 0 0 0 127 0" result="hardAlpha"/>
<feOffset dy="29"/>
<feGaussianBlur stdDeviation="2"/>
<feComposite in2="hardAlpha" operator="out"/>
<feColorMatrix type="matrix" values="0 0 0 0 0 0 0 0 0 0 0 0 0 0 0 0 0 0 0.25 0"/>
<feBlend mode="normal" in2="BackgroundImageFix" result="effect1_dropShadow_1045_173"/>
<feBlend mode="normal" in="SourceGraphic" in2="effect1_dropShadow_1045_173" result="shape"/>
</filter>
</defs>
</svg>
