<svg width="543" height="767" viewBox="0 0 543 767" fill="none" xmlns="http://www.w3.org/2000/svg">
<g clip-path="url(#clip0_879_55)">
<rect width="541.535" height="766.142" transform="translate(0.589844)" fill="black"/>
<path d="M369.838 -451.566C245.678 -430.406 -6.71129 -326.552 -22.9925 -80.4154C-43.3441 227.255 309.211 96.1961 396.908 262.637C484.605 429.077 336.183 628.374 -160.569 884.53" stroke="#DF00C9" stroke-width="92.3228"/>
<path d="M437.747 363.944L394.388 339.202C384.741 333.711 380.333 328.038 382.042 318.937C382.855 314.603 384.807 311.38 384.807 311.38L394.774 313.252C394.774 313.252 393.419 315.69 392.849 318.723C392.036 323.057 394.05 325.23 397.885 327.745L446.374 318.007L443.932 331.008L412.136 336.433L440.189 350.943L437.747 363.944Z" fill="white"/>
<path d="M969.746 412.842C990.031 417.041 1010.4 420.834 1030.59 425.497C1087.1 438.645 1133.04 404.457 1150.15 352.153C1160.25 321.182 1159.45 290.011 1145.62 259.89C1135.78 238.512 1119.02 224.888 1096.91 217.531C1044.08 200.009 991.32 182.196 938.225 165.403C929.434 162.616 918.861 165.806 909.624 163.713C735.533 124.411 561.802 83.3713 387.363 45.7505C319.094 31.0141 249.282 23.1506 180.017 13.2246C141.866 7.74461 114.002 25.8505 95.0086 57.4575C75.5454 89.8739 74.6866 122.636 98.5259 154.043C111.643 171.264 129.738 181.659 149.629 187.468C258.457 219.123 367.128 251.53 476.669 280.613C606.267 314.995 736.711 346.168 866.667 379.114C871.951 380.449 876.045 386.071 881.003 389.274C885.314 392.1 889.76 395.438 894.547 396.55C919.558 402.15 944.701 407.113 969.854 412.32C969.818 412.494 969.794 412.61 969.758 412.784L969.746 412.842ZM250.558 54.36C257.53 54.8364 261.362 54.7228 265.037 55.3627C318.475 64.3697 372.415 71.2444 425.289 82.9753C587.887 119.112 750.125 156.987 912.353 194.619C917.719 195.85 923.874 200.57 926.499 205.404C940.76 231.988 962.641 247.458 991.805 253.434C1013.02 257.825 1034.38 261.765 1055.43 266.967C1079.07 272.767 1093.14 293.268 1089.22 315.121C1085.71 334.703 1074.82 349.615 1057.65 359.296C1032.19 373.669 1007.23 362.276 1002.21 333.979C999.972 321.427 999.733 308.565 998.379 295.834C995.958 272.789 979.91 265.054 962.018 279.664C940.286 297.347 917.303 314.65 900.071 336.286C888.06 351.388 878.116 349.209 864.198 345.784C770.83 322.95 677.223 301.277 584.105 277.528C473.305 249.273 362.968 219.361 252.548 189.855C234.797 185.093 217.489 178.488 196.259 171.555C251.457 148.41 274.772 112.862 250.558 54.36ZM155.657 143.749C121.467 134.314 107.226 108.218 121.004 77.2838C128.24 61.0124 141.783 51.063 158.198 45.6367C185.897 36.5022 215.467 52.7775 224.861 81.5575C232.903 106.068 220.332 128.549 191.388 138.151C180.092 141.917 167.567 141.983 155.657 143.749Z" fill="#00FF0A"/>
<path d="M306.597 584.968C325.285 581.178 343.897 577.015 362.671 573.653C415.257 564.325 441.762 518.759 437.311 468.297C434.646 438.43 422.685 412.339 400.075 391.852C384.01 377.321 364.891 371.859 343.516 373.636C292.466 377.928 241.362 381.953 190.346 386.961C181.897 387.785 174.104 394.312 165.528 395.885C3.96095 425.643 -157.931 453.8 -319.184 485.108C-382.298 497.349 -444.229 515.966 -506.444 532.639C-540.717 541.812 -557.744 567.222 -562.377 600.848C-567.115 635.329 -555.982 663.368 -524.436 681.32C-507.101 691.146 -488.023 693.392 -469.086 691.109C-365.522 678.504 -261.817 666.592 -158.58 651.552C-36.4501 633.736 85.2341 612.898 207.147 593.737C212.103 592.955 217.603 596.231 222.959 597.146C227.63 597.978 232.602 599.193 237.055 598.401C260.25 594.087 283.327 589.186 306.5 584.487C306.532 584.647 306.554 584.754 306.586 584.914L306.597 584.968ZM-431.851 541.918C-425.778 539.797 -422.576 538.314 -419.234 537.525C-370.747 525.803 -322.607 512.095 -273.61 502.883C-122.916 474.606 28.1031 447.931 179.026 421.053C184.013 420.153 190.931 421.919 194.903 425.061C216.596 442.397 240.714 447.569 267.56 442.07C287.102 438.107 306.611 433.707 326.305 430.492C348.412 426.843 367.741 439.1 372.335 459.014C376.453 476.857 372.64 493.418 361.61 507.829C345.266 529.209 320.016 528.603 305.523 506.471C299.086 496.659 294.228 485.859 288.473 475.574C278.081 456.947 261.7 456.21 251.845 475.052C239.854 497.885 226.666 520.849 219.915 545.398C215.216 562.527 206.011 564.283 192.992 566.422C105.706 580.897 18.6363 596.44 -68.7698 610.049C-172.773 626.246 -276.983 640.872 -381.117 655.872C-397.864 658.268 -414.904 658.943 -435.382 660.761C-397.044 621.19 -390.18 582.665 -431.851 541.918ZM-479.81 651.925C-512.162 656.317 -533.662 639.386 -533.2 608.218C-532.965 591.827 -525.105 578.504 -513.177 567.969C-493.041 550.212 -462.123 553.281 -443.754 574.238C-428.075 592.072 -430.576 615.648 -451.597 634.253C-459.794 641.529 -470.37 646.12 -479.81 651.925Z" fill="#00FF0A"/>
<path d="M119.784 87.1546C106.004 83.2963 90.3874 74.5233 84.3015 70.6191L76.0337 80.9538L58.4648 111.958L79.1341 160.531L145.276 188.09L243.455 215.649C279.282 223.916 300.64 234.481 306.841 238.729L452.215 273.867C447.805 262.292 440.043 245.849 436.713 239.074L119.784 87.1546Z" fill="#DF00C9"/>
<path d="M254.823 122.982L221.752 115.059L204.527 130.561C216.355 138.369 240.01 154.055 240.01 154.33C240.01 154.606 248.277 143.192 252.411 137.45L254.823 122.982Z" fill="#DF00C9"/>
<path d="M433.004 268.881L436.332 310.196L426.663 310.975L425.459 296.031L403.922 297.766C399.967 298.085 398.754 299.509 399.073 303.465C399.285 306.102 399.831 307.385 399.831 307.385L390.601 308.129C390.601 308.129 389.545 306.002 389.12 300.728C388.448 292.377 390.185 286.486 400.733 285.636L424.468 283.725L423.335 269.66L433.004 268.881Z" fill="white"/>
<path d="M82.5785 497.343V502.193H61.4131V500.209C61.4131 489.626 76.4053 491.39 76.4053 486.54C76.4053 484.335 74.6415 483.233 71.9958 483.233C69.3501 483.233 67.5864 484.776 67.5864 487.642V488.304H61.4131V487.642C61.4131 481.91 65.8226 478.603 72.2163 478.603C78.169 478.603 82.5785 481.469 82.5785 486.54C82.5785 494.477 71.1139 493.815 68.4683 497.343H82.5785ZM97.109 502.193H84.1011V497.343L97.109 479.264H103.282V497.343H108.574V502.193H103.282V510.13H97.109V502.193ZM89.3925 497.343H97.109V486.319L89.3925 497.343ZM110.341 499.107C110.341 497.167 111.928 495.579 113.868 495.579C115.809 495.579 117.396 497.167 117.396 499.107C117.396 501.047 115.809 502.634 113.868 502.634C111.928 502.634 110.341 501.047 110.341 499.107ZM124.901 490.729C124.901 494.874 126.488 498.225 130.412 498.225C134.337 498.225 135.924 494.874 135.924 490.729C135.924 486.584 134.337 483.233 130.412 483.233C126.488 483.233 124.901 486.584 124.901 490.729ZM118.727 490.729C118.727 484.026 122.872 478.603 130.412 478.603C137.953 478.603 142.097 484.026 142.097 490.729C142.097 497.431 137.953 502.855 130.412 502.855C122.872 502.855 118.727 497.431 118.727 490.729ZM166.363 479.264H160.631C160.19 477.324 159.308 475.296 156.221 475.296C151.239 475.296 150.048 480.587 149.828 484.997H150.048C150.048 484.997 152.032 481.91 157.103 481.91C162.615 481.91 167.025 485.658 167.025 491.831C167.025 498.225 162.836 502.855 156.001 502.855C148.064 502.855 143.875 497.563 143.875 487.863C143.875 476.619 148.505 470.666 156.221 470.666C161.954 470.666 165.702 473.752 166.363 479.264ZM150.269 492.272C150.269 495.888 152.65 498.225 155.56 498.225C158.47 498.225 160.851 496.241 160.851 492.272C160.851 488.304 158.47 486.319 155.56 486.319C152.65 486.319 150.269 488.304 150.269 492.272Z" fill="white"/>
<path d="M85.4224 144.981L99.0281 101.188L110.398 104.72L108.174 111.879L108.595 112.009C108.595 112.009 115.001 104.765 124.686 107.774C136.898 111.568 137.781 120.615 134.641 130.721L126.268 157.671L114.478 154.008L122.065 129.585C124.42 122.005 123.361 117.982 117.887 116.282C111.571 114.319 107.025 117.062 104.277 125.905L97.213 148.644L85.4224 144.981Z" fill="white"/>
<path d="M292.436 222.744L316.996 166.108L327.918 170.845L325.462 176.508L325.867 176.684C325.867 176.684 332.49 171.385 341.795 175.42C353.931 180.683 355.438 193.833 350.351 205.565C345.263 217.296 334.634 225.183 322.497 219.92C313.597 216.061 312.413 208.818 312.413 208.818L312.008 208.643L303.763 227.657L292.436 222.744ZM318.796 191.881C315.498 199.487 316.068 207.039 322.945 210.021C329.822 213.004 335.725 208.258 339.023 200.653C342.321 193.047 341.752 185.495 334.874 182.512C327.997 179.53 322.094 184.276 318.796 191.881Z" fill="white"/>
<path d="M137.917 136.934C141.653 124.06 152.215 115.831 166.697 120.034C181.18 124.237 184.847 136.597 181.111 149.47C180.816 150.486 180.289 151.986 180.289 151.986L149.121 142.94C147.663 149.863 149.068 155.781 156.182 157.846C163.381 159.935 166.618 153.528 166.618 153.528L178.475 156.97C178.475 156.97 171.387 171.901 153.178 166.616C138.356 162.314 134.181 149.807 137.917 136.934ZM164.116 128.927C158.272 127.231 154.262 130.291 151.673 135.416L170.39 140.849C171.201 135.207 169.96 130.623 164.116 128.927Z" fill="white"/>
<path d="M196.417 152.796C193.691 160.625 194.486 167.999 201.898 170.579C209.311 173.16 214.513 167.874 217.238 160.045C219.964 152.216 219.169 144.842 211.757 142.262C204.344 139.681 199.142 144.967 196.417 152.796ZM184.757 148.737C189.164 136.077 200.559 128.559 214.801 133.517C229.043 138.475 233.306 151.445 228.898 164.104C224.491 176.764 213.096 184.282 198.854 179.324C184.612 174.366 180.349 161.396 184.757 148.737Z" fill="white"/>
<path d="M224.589 186.949L239.934 143.734L251.153 147.718L248.645 154.782L249.06 154.929C249.06 154.929 255.751 147.947 265.308 151.34C277.358 155.619 277.879 164.694 274.338 174.667L264.895 201.261L253.261 197.129L261.818 173.029C264.474 165.549 263.577 161.487 258.175 159.569C251.942 157.356 247.29 159.916 244.191 168.642L236.224 191.08L224.589 186.949Z" fill="white"/>
<path d="M367.572 213.066L357.427 206.03C364.691 196.794 374.556 199.128 383.251 205.159C392.31 211.442 397.294 219.729 390.509 229.512L372.667 255.237L362.522 248.2L367.548 240.954L367.185 240.703C367.185 240.703 359.087 247.428 349.449 240.743C342.564 235.968 339.703 229.262 344.528 222.305C349.404 215.276 357.412 216.108 364.75 218.836C372.16 221.615 378.454 225.229 381.369 221.026C383.43 218.055 382.462 214.808 378.477 212.044C374.129 209.028 370.531 209.109 367.572 213.066ZM375.69 229.215C372.968 229.58 369.009 228.015 365.608 226.729C361.794 225.265 357.884 225.022 355.572 228.355C353.562 231.254 354.334 234.473 357.595 236.734C364.48 241.509 371.82 234.794 375.69 229.215Z" fill="white"/>
<path d="M371.208 260.357L406.394 230.947L414.312 240.42L406.869 246.641L410.828 251.378C414.221 255.438 415.352 256.791 419.751 253.115L422.795 250.57L430.714 260.043L426.654 263.436C418.872 269.94 414.242 269.213 406.041 259.402L400.102 252.297L379.126 269.83L371.208 260.357Z" fill="white"/>
<path d="M373.741 745.402V722.473H379.914V727.324H383.001C385.647 727.324 386.528 727.324 386.528 724.457V722.473H392.702V725.119C392.702 730.19 390.938 731.733 384.544 731.733H379.914V745.402H373.741ZM393.113 733.938C393.113 727.235 397.038 721.812 404.578 721.812C412.118 721.812 415.602 727.235 415.602 733.938C415.602 734.467 415.557 735.261 415.557 735.261H399.331C399.595 738.788 401.094 741.434 404.798 741.434C408.546 741.434 409.208 737.906 409.208 737.906H415.381C415.381 737.906 414.058 746.064 404.578 746.064C396.861 746.064 393.113 740.64 393.113 733.938ZM404.578 726.442C401.535 726.442 400.036 728.47 399.507 731.292H409.252C408.855 728.47 407.62 726.442 404.578 726.442ZM417.141 737.906H423.094C423.094 737.906 423.094 741.875 427.945 741.875C431.252 741.875 432.134 740.331 432.134 739.009C432.134 734.158 417.582 737.906 417.582 729.087C417.582 725.119 421.33 721.812 427.504 721.812C436.322 721.812 437.645 726.883 437.645 729.087H431.693C431.693 729.087 431.693 726.001 427.504 726.001C425.078 726.001 423.756 727.235 423.756 728.646C423.756 732.615 438.307 729.749 438.307 738.347C438.307 742.757 434.559 746.064 427.945 746.064C418.905 746.064 417.141 740.552 417.141 737.906ZM438.71 722.473H459.434V727.324H451.938V738.127C451.938 740.111 452.6 740.772 454.584 740.772C455.907 740.772 456.568 740.552 456.568 740.552V745.182C456.568 745.182 455.466 745.623 452.82 745.623C448.631 745.623 445.765 744.52 445.765 739.229V727.324H438.71V722.473ZM483.907 722.473L475.749 746.064C473.941 751.311 471.56 754.001 466.93 754.001C464.726 754.001 462.962 753.339 462.962 753.339V748.268C462.962 748.268 464.285 748.709 465.828 748.709C468.033 748.709 468.915 747.519 469.796 745.402L460.537 722.473H467.151L472.751 737.598L477.292 722.473H483.907ZM502.859 740.552V745.402H485.441V722.473H491.615V740.552H502.859ZM503.048 733.938C503.048 727.235 506.973 721.812 514.513 721.812C522.053 721.812 525.536 727.235 525.536 733.938C525.536 734.467 525.492 735.261 525.492 735.261H509.265C509.53 738.788 511.029 741.434 514.733 741.434C518.481 741.434 519.143 737.906 519.143 737.906H525.316C525.316 737.906 523.993 746.064 514.513 746.064C506.796 746.064 503.048 740.64 503.048 733.938ZM514.513 726.442C511.47 726.442 509.971 728.47 509.442 731.292H519.187C518.79 728.47 517.555 726.442 514.513 726.442Z" fill="white"/>
<path d="M237.295 20.4048L229.138 43.9954C227.33 49.2426 224.949 51.9324 220.319 51.9324C218.114 51.9324 216.351 51.271 216.351 51.271V46.2001C216.351 46.2001 217.673 46.6411 219.217 46.6411C221.421 46.6411 222.303 45.4505 223.185 43.334L213.925 20.4048H220.539L226.139 35.5293L230.681 20.4048H237.295ZM234.207 43.334L242.453 20.4048H249.42L257.665 43.334H251.051L245.76 27.0631L240.468 43.334H234.207ZM259.418 40.2474C259.418 38.3072 261.006 36.7198 262.946 36.7198C264.886 36.7198 266.474 38.3072 266.474 40.2474C266.474 42.1875 264.886 43.7749 262.946 43.7749C261.006 43.7749 259.418 42.1875 259.418 40.2474ZM283.658 43.334V34.2946H275.06V43.334H268.887V20.4048H275.06V29.4442H283.658V20.4048H289.832V43.334H283.658ZM313.439 20.4048V43.334H307.487V39.586H307.266C307.266 39.586 305.282 43.9954 300.211 43.9954C293.817 43.9954 292.054 39.8064 292.054 34.5151V20.4048H298.227V33.1923C298.227 37.1608 299.329 38.9245 302.195 38.9245C305.502 38.9245 307.266 36.9403 307.266 32.3104V20.4048H313.439ZM315.651 43.334V20.4048H321.824V29.6647L329.982 20.4048H337.257L328.615 29.356L337.698 43.334H330.158L324.338 33.7655L321.824 36.3671V43.334H315.651ZM343.005 31.8694C343.005 36.0143 344.592 39.3655 348.517 39.3655C352.441 39.3655 354.029 36.0143 354.029 31.8694C354.029 27.7245 352.441 24.3734 348.517 24.3734C344.592 24.3734 343.005 27.7245 343.005 31.8694ZM336.832 31.8694C336.832 25.1671 340.977 19.7434 348.517 19.7434C356.057 19.7434 360.202 25.1671 360.202 31.8694C360.202 38.5718 356.057 43.9954 348.517 43.9954C340.977 43.9954 336.832 38.5718 336.832 31.8694ZM359.988 43.334L368.234 20.4048H375.201L383.447 43.334H376.832L371.541 27.0631L366.25 43.334H359.988ZM384.979 43.334V20.4048H391.152V28.7828H394.9C401.294 28.7828 404.822 31.6489 404.822 36.0584C404.822 40.4678 401.294 43.334 394.9 43.334H384.979ZM394.019 33.1923H391.152V38.9245H394.019C397.326 38.9245 398.648 38.0426 398.648 36.0584C398.648 34.0741 397.326 33.1923 394.019 33.1923ZM406.375 31.8694C406.375 25.1671 410.344 19.7434 417.84 19.7434C427.982 19.7434 428.643 28.7828 428.643 28.7828H422.47C422.47 28.7828 422.249 24.3734 417.84 24.3734C413.916 24.3734 412.549 27.7245 412.549 31.8694C412.549 36.0143 413.916 39.3655 417.84 39.3655C422.249 39.3655 422.47 34.956 422.47 34.956H428.643C428.643 34.956 427.982 43.9954 417.84 43.9954C410.344 43.9954 406.375 38.5718 406.375 31.8694ZM430.624 43.334V20.4048H436.797V29.6647L444.955 20.4048H452.23L443.588 29.356L452.671 43.334H445.131L439.31 33.7655L436.797 36.3671V43.334H430.624ZM459.495 27.46H453.322C453.675 21.5954 458.393 19.7434 463.684 19.7434C469.196 19.7434 473.606 21.7277 473.606 27.6804V43.334H467.432V38.9245H467.212C467.212 38.9245 465.801 43.9954 459.936 43.9954C455.747 43.9954 452.661 42.0552 452.661 37.8222C452.661 33.545 456.188 31.6049 459.98 30.6348C463.817 29.6647 467.432 29.356 467.432 26.7986C467.432 24.9907 466.11 23.9324 463.684 23.9324C461.039 23.9324 459.584 24.9907 459.495 27.46ZM467.432 31.7812C466.418 32.7072 464.346 33.1923 462.582 33.6332C460.598 34.1182 458.922 35.1324 458.922 37.1608C458.922 38.9245 460.157 40.0269 462.141 40.0269C466.33 40.0269 467.432 35.1765 467.432 31.7812ZM496.299 20.4048V43.334H490.126V34.956H485.716L482.056 43.334H475.133L479.807 33.8537C477.162 32.619 475.795 30.4584 475.795 27.6804C475.795 23.271 479.322 20.4048 485.716 20.4048H496.299ZM486.598 30.5466H490.126V24.8143H486.598C483.291 24.8143 481.968 25.6962 481.968 27.6804C481.968 29.6647 483.291 30.5466 486.598 30.5466ZM530.246 20.4048V24.8143C522.75 31.6489 520.546 42.893 520.546 51.271H513.931C514.372 40.9088 518.12 30.9875 523.853 25.2552H508.64V20.4048H530.246Z" fill="white"/>
<path d="M57.4304 260.098V252.932H60.8753C62.7355 252.932 63.7001 253.552 63.7001 254.861C63.7001 256.033 62.5977 256.308 62.5977 256.308V256.377C62.5977 256.377 63.9068 256.653 63.9068 258.031C63.9068 259.409 63.0111 260.098 61.082 260.098H57.4304ZM60.8753 257.066H59.3596V258.72H61.0131C61.6332 258.72 61.9777 258.444 61.9777 257.893C61.9777 257.342 61.5643 257.066 60.8753 257.066ZM59.3596 255.826H60.7375C61.4265 255.826 61.771 255.55 61.771 255.068C61.771 254.586 61.4954 254.31 60.8753 254.31H59.3596V255.826ZM64.3186 256.515C64.3186 254.42 65.545 252.726 67.9013 252.726C70.2576 252.726 71.3461 254.42 71.3461 256.515C71.3461 256.68 71.3324 256.928 71.3324 256.928H66.2615C66.3442 258.031 66.8127 258.857 67.9701 258.857C69.1414 258.857 69.3481 257.755 69.3481 257.755H71.2772C71.2772 257.755 70.8639 260.304 67.9013 260.304C65.4898 260.304 64.3186 258.609 64.3186 256.515ZM67.9013 254.172C66.9505 254.172 66.482 254.806 66.3166 255.688H69.3619C69.2379 254.806 68.852 254.172 67.9013 254.172ZM78.2332 252.932V260.098H76.3041V257.342H74.4438C72.4458 257.342 71.8946 256.859 71.8946 255.275V252.932H73.8238V255.068C73.8238 255.964 74.0993 255.964 74.9261 255.964H76.3041V252.932H78.2332ZM78.8517 256.515C78.8517 254.42 80.078 252.726 82.4343 252.726C84.7906 252.726 85.8792 254.42 85.8792 256.515C85.8792 256.68 85.8654 256.928 85.8654 256.928H80.7946C80.8773 258.031 81.3458 258.857 82.5032 258.857C83.6745 258.857 83.8812 257.755 83.8812 257.755H85.8103C85.8103 257.755 85.3969 260.304 82.4343 260.304C80.0229 260.304 78.8517 258.609 78.8517 256.515ZM82.4343 254.172C81.4836 254.172 81.0151 254.806 80.8497 255.688H83.895C83.771 254.806 83.3851 254.172 82.4343 254.172ZM86.4966 262.578V252.932H88.3569V253.897H88.4257C88.4257 253.897 89.0458 252.726 90.6305 252.726C92.6974 252.726 93.7309 254.517 93.7309 256.515C93.7309 258.513 92.6974 260.304 90.6305 260.304C89.1147 260.304 88.4946 259.34 88.4946 259.34H88.4257V262.578H86.4966ZM88.3569 256.515C88.3569 257.81 88.908 258.857 90.0793 258.857C91.2506 258.857 91.8017 257.81 91.8017 256.515C91.8017 255.22 91.2506 254.172 90.0793 254.172C88.908 254.172 88.3569 255.22 88.3569 256.515ZM101.038 252.932V260.098H99.1781V258.926H99.1092C99.1092 258.926 98.4891 260.304 96.9045 260.304C94.9064 260.304 94.3553 258.995 94.3553 257.342V252.932H96.2844V256.928C96.2844 258.169 96.6289 258.72 97.5245 258.72C98.558 258.72 99.1092 258.1 99.1092 256.653V252.932H101.038ZM106.346 260.098V257.273H103.659V260.098H101.729V252.932H103.659V255.757H106.346V252.932H108.275V260.098H106.346ZM108.969 260.098V252.932H110.898V255.826L113.447 252.932H115.721L113.02 255.73L115.859 260.098H113.503L111.684 257.107L110.898 257.92V260.098H108.969ZM117.991 255.137H116.062C116.173 253.304 117.647 252.726 119.301 252.726C121.023 252.726 122.401 253.346 122.401 255.206V260.098H120.472V258.72H120.403C120.403 258.72 119.962 260.304 118.129 260.304C116.82 260.304 115.856 259.698 115.856 258.375C115.856 257.039 116.958 256.432 118.143 256.129C119.342 255.826 120.472 255.73 120.472 254.93C120.472 254.365 120.058 254.035 119.301 254.035C118.474 254.035 118.019 254.365 117.991 255.137ZM120.472 256.487C120.155 256.777 119.507 256.928 118.956 257.066C118.336 257.218 117.812 257.535 117.812 258.169C117.812 258.72 118.198 259.064 118.818 259.064C120.127 259.064 120.472 257.548 120.472 256.487ZM126.326 256.515C126.326 254.42 127.567 252.726 129.909 252.726C133.078 252.726 133.285 255.55 133.285 255.55H131.356C131.356 255.55 131.287 254.172 129.909 254.172C128.683 254.172 128.256 255.22 128.256 256.515C128.256 257.81 128.683 258.857 129.909 258.857C131.287 258.857 131.356 257.48 131.356 257.48H133.285C133.285 257.48 133.078 260.304 129.909 260.304C127.567 260.304 126.326 258.609 126.326 256.515ZM144.38 252.932V259.271C144.38 261.338 143.277 262.785 140.797 262.785C137.49 262.785 137.421 260.304 137.421 260.304H139.35C139.35 260.304 139.419 261.338 140.797 261.338C142.023 261.338 142.451 260.649 142.451 259.409V259.064H142.382C142.382 259.064 141.762 260.029 140.246 260.029C138.179 260.029 137.146 258.237 137.146 256.377C137.146 254.517 138.179 252.726 140.246 252.726C141.831 252.726 142.451 253.897 142.451 253.897H142.52V252.932H144.38ZM142.52 256.377C142.52 255.22 141.968 254.172 140.797 254.172C139.626 254.172 139.075 255.22 139.075 256.377C139.075 257.535 139.626 258.582 140.797 258.582C141.968 258.582 142.52 257.535 142.52 256.377ZM145.073 262.578V252.932H146.933V253.897H147.002C147.002 253.897 147.622 252.726 149.207 252.726C151.274 252.726 152.307 254.517 152.307 256.515C152.307 258.513 151.274 260.304 149.207 260.304C147.691 260.304 147.071 259.34 147.071 259.34H147.002V262.578H145.073ZM146.933 256.515C146.933 257.81 147.484 258.857 148.656 258.857C149.827 258.857 150.378 257.81 150.378 256.515C150.378 255.22 149.827 254.172 148.656 254.172C147.484 254.172 146.933 255.22 146.933 256.515ZM152.863 256.515C152.863 254.42 154.089 252.726 156.445 252.726C158.802 252.726 159.89 254.42 159.89 256.515C159.89 256.68 159.877 256.928 159.877 256.928H154.806C154.888 258.031 155.357 258.857 156.514 258.857C157.686 258.857 157.892 257.755 157.892 257.755H159.821C159.821 257.755 159.408 260.304 156.445 260.304C154.034 260.304 152.863 258.609 152.863 256.515ZM156.445 254.172C155.495 254.172 155.026 254.806 154.861 255.688H157.906C157.782 254.806 157.396 254.172 156.445 254.172ZM160.439 256.515C160.439 254.42 161.679 252.726 164.022 252.726C167.191 252.726 167.398 255.55 167.398 255.55H165.468C165.468 255.55 165.399 254.172 164.022 254.172C162.795 254.172 162.368 255.22 162.368 256.515C162.368 257.81 162.795 258.857 164.022 258.857C165.399 258.857 165.468 257.48 165.468 257.48H167.398C167.398 257.48 167.191 260.304 164.022 260.304C161.679 260.304 160.439 258.609 160.439 256.515ZM167.948 256.515C167.948 254.42 169.188 252.726 171.53 252.726C174.7 252.726 174.906 255.55 174.906 255.55H172.977C172.977 255.55 172.908 254.172 171.53 254.172C170.304 254.172 169.877 255.22 169.877 256.515C169.877 257.81 170.304 258.857 171.53 258.857C172.908 258.857 172.977 257.48 172.977 257.48H174.906C174.906 257.48 174.7 260.304 171.53 260.304C169.188 260.304 167.948 258.609 167.948 256.515ZM175.594 256.515V255.964H180.279V256.515H175.594ZM181.042 260.098V252.932H182.972V255.826L185.521 252.932H187.794L185.094 255.73L187.932 260.098H185.576L183.757 257.107L182.972 257.92V260.098H181.042ZM189.591 256.515C189.591 257.81 190.087 258.857 191.313 258.857C192.539 258.857 193.036 257.81 193.036 256.515C193.036 255.22 192.539 254.172 191.313 254.172C190.087 254.172 189.591 255.22 189.591 256.515ZM187.661 256.515C187.661 254.42 188.957 252.726 191.313 252.726C193.669 252.726 194.965 254.42 194.965 256.515C194.965 258.609 193.669 260.304 191.313 260.304C188.957 260.304 187.661 258.609 187.661 256.515ZM202.754 252.932V259.271C202.754 261.338 201.652 262.785 199.172 262.785C195.865 262.785 195.796 260.304 195.796 260.304H197.725C197.725 260.304 197.794 261.338 199.172 261.338C200.398 261.338 200.825 260.649 200.825 259.409V259.064H200.756C200.756 259.064 200.136 260.029 198.621 260.029C196.554 260.029 195.52 258.237 195.52 256.377C195.52 254.517 196.554 252.726 198.621 252.726C200.205 252.726 200.825 253.897 200.825 253.897H200.894V252.932H202.754ZM200.894 256.377C200.894 255.22 200.343 254.172 199.172 254.172C198 254.172 197.449 255.22 197.449 256.377C197.449 257.535 198 258.582 199.172 258.582C200.343 258.582 200.894 257.535 200.894 256.377ZM205.308 256.515C205.308 257.81 205.804 258.857 207.03 258.857C208.257 258.857 208.753 257.81 208.753 256.515C208.753 255.22 208.257 254.172 207.03 254.172C205.804 254.172 205.308 255.22 205.308 256.515ZM203.379 256.515C203.379 254.42 204.674 252.726 207.03 252.726C209.387 252.726 210.682 254.42 210.682 256.515C210.682 258.609 209.387 260.304 207.03 260.304C204.674 260.304 203.379 258.609 203.379 256.515ZM219.987 252.932V260.098H218.196V255.068H218.127L216.543 260.098H214.751L213.167 255.068H213.098V260.098H211.306V252.932H214.2L215.647 257.893L217.094 252.932H219.987ZM220.741 259.133C220.741 258.527 221.237 258.031 221.843 258.031C222.45 258.031 222.946 258.527 222.946 259.133C222.946 259.739 222.45 260.235 221.843 260.235C221.237 260.235 220.741 259.739 220.741 259.133ZM62.0466 273.098V270.273H59.3596V273.098H57.4304V265.932H59.3596V268.757H62.0466V265.932H63.9757V273.098H62.0466ZM66.6681 268.137H64.739C64.8492 266.304 66.3236 265.726 67.9771 265.726C69.6996 265.726 71.0775 266.346 71.0775 268.206V273.098H69.1484V271.72H69.0795C69.0795 271.72 68.6386 273.304 66.8059 273.304C65.4968 273.304 64.5323 272.698 64.5323 271.375C64.5323 270.039 65.6346 269.432 66.8197 269.129C68.0185 268.826 69.1484 268.73 69.1484 267.93C69.1484 267.365 68.735 267.035 67.9771 267.035C67.1504 267.035 66.6957 267.365 66.6681 268.137ZM69.1484 269.487C68.8315 269.777 68.1838 269.928 67.6327 270.066C67.0126 270.218 66.489 270.535 66.489 271.169C66.489 271.72 66.8748 272.064 67.4949 272.064C68.8039 272.064 69.1484 270.548 69.1484 269.487ZM78.927 265.932V272.271C78.927 274.338 77.8247 275.785 75.3443 275.785C72.0373 275.785 71.9684 273.304 71.9684 273.304H73.8975C73.8975 273.304 73.9664 274.338 75.3443 274.338C76.5707 274.338 76.9979 273.649 76.9979 272.409V272.064H76.929C76.929 272.064 76.3089 273.029 74.7932 273.029C72.7262 273.029 71.6928 271.237 71.6928 269.377C71.6928 267.517 72.7262 265.726 74.7932 265.726C76.3778 265.726 76.9979 266.897 76.9979 266.897H77.0668V265.932H78.927ZM77.0668 269.377C77.0668 268.22 76.5156 267.172 75.3443 267.172C74.1731 267.172 73.6219 268.22 73.6219 269.377C73.6219 270.535 74.1731 271.582 75.3443 271.582C76.5156 271.582 77.0668 270.535 77.0668 269.377ZM79.5514 269.515C79.5514 267.42 80.7778 265.726 83.1341 265.726C85.4904 265.726 86.579 267.42 86.579 269.515C86.579 269.68 86.5652 269.928 86.5652 269.928H81.4943C81.577 271.031 82.0455 271.857 83.203 271.857C84.3742 271.857 84.5809 270.755 84.5809 270.755H86.5101C86.5101 270.755 86.0967 273.304 83.1341 273.304C80.7227 273.304 79.5514 271.609 79.5514 269.515ZM83.1341 267.172C82.1833 267.172 81.7148 267.806 81.5494 268.688H84.5947C84.4707 267.806 84.0849 267.172 83.1341 267.172ZM91.3991 273.098V269.102C91.3991 267.861 91.1511 267.31 90.3932 267.31C89.5664 267.31 89.1255 267.93 89.1255 269.377V273.098H87.1964V265.932H89.0566V267.104H89.1255C89.1255 267.104 89.6078 265.726 91.0546 265.726C92.2121 265.726 92.8322 266.277 93.1078 267.117L93.1216 267.104H93.1905C93.1905 267.104 93.8105 265.726 95.2574 265.726C97.0487 265.726 97.531 267.035 97.531 268.688V273.098H95.6019V269.102C95.6019 267.861 95.3538 267.31 94.596 267.31C93.7692 267.31 93.3282 267.93 93.3282 269.377V273.098H91.3991ZM98.2173 273.098V265.932H100.146V268.55H101.318C103.316 268.55 104.418 269.446 104.418 270.824C104.418 272.202 103.316 273.098 101.318 273.098H98.2173ZM101.042 269.928H100.146V271.72H101.042C102.076 271.72 102.489 271.444 102.489 270.824C102.489 270.204 102.076 269.928 101.042 269.928ZM108.076 273.098L110.653 265.932H112.83L115.407 273.098H113.34L111.686 268.013L110.033 273.098H108.076ZM117.815 265.932V268.757H118.766C119.014 267.035 120.157 265.726 122.224 265.726C124.581 265.726 125.738 267.42 125.738 269.515C125.738 271.609 124.581 273.304 122.224 273.304C120.157 273.304 119.014 272.009 118.766 270.273H117.815V273.098H115.886V265.932H117.815ZM120.64 269.515C120.64 270.81 120.998 271.857 122.224 271.857C123.451 271.857 123.809 270.81 123.809 269.515C123.809 268.22 123.451 267.172 122.224 267.172C120.998 267.172 120.64 268.22 120.64 269.515ZM128.284 269.722C128.284 270.879 128.78 271.857 130.007 271.857C131.233 271.857 131.729 270.879 131.729 269.722C131.729 268.564 131.233 267.586 130.007 267.586C128.78 267.586 128.284 268.564 128.284 269.722ZM130.007 273.304C128.077 273.304 126.286 272.202 126.286 268.757C126.286 264.141 128.477 263.452 130.475 263.452H133.107V265.037H130.31C128.753 265.037 128.174 265.726 127.94 267.241H128.009C128.009 267.241 128.629 266.139 130.282 266.139C132.418 266.139 133.658 267.724 133.658 269.722C133.658 271.651 132.418 273.304 130.007 273.304ZM136.141 269.515C136.141 270.81 136.637 271.857 137.864 271.857C139.09 271.857 139.586 270.81 139.586 269.515C139.586 268.22 139.09 267.172 137.864 267.172C136.637 267.172 136.141 268.22 136.141 269.515ZM134.212 269.515C134.212 267.42 135.507 265.726 137.864 265.726C140.22 265.726 141.515 267.42 141.515 269.515C141.515 271.609 140.22 273.304 137.864 273.304C135.507 273.304 134.212 271.609 134.212 269.515ZM142.829 265.243V264.692H148.134V265.243H142.829ZM148.823 265.932V273.098H146.962V271.926H146.893C146.893 271.926 146.273 273.304 144.689 273.304C142.691 273.304 142.14 271.995 142.14 270.342V265.932H144.069V269.928C144.069 271.169 144.413 271.72 145.309 271.72C146.342 271.72 146.893 271.1 146.893 269.653V265.932H148.823ZM159.232 265.932V273.098H157.302V270.48H155.924L154.781 273.098H152.617L154.078 270.135C153.251 269.749 152.824 269.074 152.824 268.206C152.824 266.828 153.926 265.932 155.924 265.932H159.232ZM156.2 269.102H157.302V267.31H156.2C155.167 267.31 154.753 267.586 154.753 268.206C154.753 268.826 155.167 269.102 156.2 269.102ZM159.916 275.578V265.932H161.776V266.897H161.845C161.845 266.897 162.465 265.726 164.05 265.726C166.116 265.726 167.15 267.517 167.15 269.515C167.15 271.513 166.116 273.304 164.05 273.304C162.534 273.304 161.914 272.34 161.914 272.34H161.845V275.578H159.916ZM161.776 269.515C161.776 270.81 162.327 271.857 163.498 271.857C164.67 271.857 165.221 270.81 165.221 269.515C165.221 268.22 164.67 267.172 163.498 267.172C162.327 267.172 161.776 268.22 161.776 269.515ZM167.774 273.098V265.932H169.703V268.826L172.253 265.932H174.526L171.825 268.73L174.664 273.098H172.308L170.489 270.107L169.703 270.92V273.098H167.774ZM181.63 265.932V273.098H179.769V271.926H179.701C179.701 271.926 179.081 273.304 177.496 273.304C175.498 273.304 174.947 271.995 174.947 270.342V265.932H176.876V269.928C176.876 271.169 177.22 271.72 178.116 271.72C179.149 271.72 179.701 271.1 179.701 269.653V265.932H181.63ZM183.01 265.243V264.692H188.315V265.243H183.01ZM189.004 265.932V273.098H187.144V271.926H187.075C187.075 271.926 186.455 273.304 184.87 273.304C182.872 273.304 182.321 271.995 182.321 270.342V265.932H184.25V269.928C184.25 271.169 184.594 271.72 185.49 271.72C186.524 271.72 187.075 271.1 187.075 269.653V265.932H189.004ZM194.934 269.722V269.17H197.952C197.87 268.041 197.429 267.172 196.312 267.172C194.934 267.172 194.866 268.55 194.866 268.55H192.936C192.936 268.55 193.143 265.726 196.312 265.726C198.655 265.726 199.895 267.42 199.895 269.515C199.895 271.609 198.655 273.304 196.312 273.304C193.143 273.304 192.936 270.48 192.936 270.48H194.866C194.866 270.48 194.934 271.857 196.312 271.857C197.47 271.857 197.925 270.92 197.966 269.722H194.934ZM199.823 273.098L202.4 265.932H204.577L207.154 273.098H205.087L203.433 268.013L201.78 273.098H199.823ZM207.079 269.515C207.079 267.42 208.306 265.726 210.662 265.726C213.018 265.726 214.107 267.42 214.107 269.515C214.107 269.68 214.093 269.928 214.093 269.928H209.022C209.105 271.031 209.573 271.857 210.731 271.857C211.902 271.857 212.109 270.755 212.109 270.755H214.038C214.038 270.755 213.625 273.304 210.662 273.304C208.251 273.304 207.079 271.609 207.079 269.515ZM210.662 267.172C209.711 267.172 209.243 267.806 209.077 268.688H212.123C211.999 267.806 211.613 267.172 210.662 267.172ZM223.405 265.932V273.098H221.614V268.068H221.545L219.96 273.098H218.169L216.585 268.068H216.516V273.098H214.724V265.932H217.618L219.065 270.893L220.512 265.932H223.405ZM224.021 269.515C224.021 267.42 225.248 265.726 227.604 265.726C229.96 265.726 231.049 267.42 231.049 269.515C231.049 269.68 231.035 269.928 231.035 269.928H225.964C226.047 271.031 226.515 271.857 227.673 271.857C228.844 271.857 229.051 270.755 229.051 270.755H230.98C230.98 270.755 230.566 273.304 227.604 273.304C225.192 273.304 224.021 271.609 224.021 269.515ZM227.604 267.172C226.653 267.172 226.185 267.806 226.019 268.688H229.064C228.94 267.806 228.555 267.172 227.604 267.172ZM236.282 273.098V270.273H233.595V273.098H231.666V265.932H233.595V268.757H236.282V265.932H238.211V273.098H236.282ZM243.108 273.098V269.102C243.108 267.861 242.86 267.31 242.103 267.31C241.276 267.31 240.835 267.93 240.835 269.377V273.098H238.906V265.932H240.766V267.104H240.835C240.835 267.104 241.317 265.726 242.764 265.726C243.921 265.726 244.542 266.277 244.817 267.117L244.831 267.104H244.9C244.9 267.104 245.52 265.726 246.967 265.726C248.758 265.726 249.24 267.035 249.24 268.688V273.098H247.311V269.102C247.311 267.861 247.063 267.31 246.305 267.31C245.479 267.31 245.038 267.93 245.038 269.377V273.098H243.108ZM64.1135 278.932V286.098H62.2533V284.926H62.1844C62.1844 284.926 61.5643 286.304 59.9796 286.304C57.9816 286.304 57.4304 284.995 57.4304 283.342V278.932H59.3596V282.928C59.3596 284.169 59.704 284.72 60.5997 284.72C61.6332 284.72 62.1844 284.1 62.1844 282.653V278.932H64.1135ZM64.8046 280.448V278.932H71.4188V280.448L69.0763 282.653C69.0763 282.653 71.6944 282.722 71.6944 285.615C71.6944 287.2 70.592 288.785 68.2495 288.785C65.5625 288.785 64.5979 287.2 64.5979 285.546H66.5271C66.5271 286.511 67.0093 287.338 68.2495 287.338C69.2003 287.338 69.7653 286.649 69.7653 285.684C69.7653 284.651 69.283 283.893 67.3538 283.893H66.8027V282.791L69.2141 280.448H64.8046ZM75.4891 286.098V278.932H77.3494V280.104H77.4183C77.4183 280.104 78.0384 278.726 79.623 278.726C81.621 278.726 82.1722 280.035 82.1722 281.688V286.098H80.2431V282.102C80.2431 280.861 79.8986 280.31 79.0029 280.31C77.9695 280.31 77.4183 280.93 77.4183 282.377V286.098H75.4891ZM82.7944 282.515C82.7944 280.42 84.0208 278.726 86.3771 278.726C88.7334 278.726 89.822 280.42 89.822 282.515C89.822 282.68 89.8082 282.928 89.8082 282.928H84.7374C84.82 284.031 85.2885 284.857 86.446 284.857C87.6173 284.857 87.824 283.755 87.824 283.755H89.7531C89.7531 283.755 89.3397 286.304 86.3771 286.304C83.9657 286.304 82.7944 284.609 82.7944 282.515ZM86.3771 280.172C85.4263 280.172 84.9578 280.806 84.7925 281.688H87.8378C87.7137 280.806 87.3279 280.172 86.3771 280.172ZM90.4394 288.578V278.932H92.2996V279.897H92.3685C92.3685 279.897 92.9886 278.726 94.5732 278.726C96.6402 278.726 97.6736 280.517 97.6736 282.515C97.6736 284.513 96.6402 286.304 94.5732 286.304C93.0575 286.304 92.4374 285.34 92.4374 285.34H92.3685V288.578H90.4394ZM92.2996 282.515C92.2996 283.81 92.8508 284.857 94.0221 284.857C95.1933 284.857 95.7445 283.81 95.7445 282.515C95.7445 281.22 95.1933 280.172 94.0221 280.172C92.8508 280.172 92.2996 281.22 92.2996 282.515ZM98.2291 282.515C98.2291 280.42 99.4555 278.726 101.812 278.726C104.168 278.726 105.257 280.42 105.257 282.515C105.257 282.68 105.243 282.928 105.243 282.928H100.172C100.255 284.031 100.723 284.857 101.881 284.857C103.052 284.857 103.259 283.755 103.259 283.755H105.188C105.188 283.755 104.774 286.304 101.812 286.304C99.4004 286.304 98.2291 284.609 98.2291 282.515ZM101.812 280.172C100.861 280.172 100.393 280.806 100.227 281.688H103.272C103.148 280.806 102.763 280.172 101.812 280.172ZM105.874 288.578V278.932H107.734V279.897H107.803C107.803 279.897 108.423 278.726 110.008 278.726C112.075 278.726 113.108 280.517 113.108 282.515C113.108 284.513 112.075 286.304 110.008 286.304C108.492 286.304 107.872 285.34 107.872 285.34H107.803V288.578H105.874ZM107.734 282.515C107.734 283.81 108.285 284.857 109.457 284.857C110.628 284.857 111.179 283.81 111.179 282.515C111.179 281.22 110.628 280.172 109.457 280.172C108.285 280.172 107.734 281.22 107.734 282.515ZM115.663 281.137H113.734C113.845 279.304 115.319 278.726 116.973 278.726C118.695 278.726 120.073 279.346 120.073 281.206V286.098H118.144V284.72H118.075C118.075 284.72 117.634 286.304 115.801 286.304C114.492 286.304 113.528 285.698 113.528 284.375C113.528 283.039 114.63 282.432 115.815 282.129C117.014 281.826 118.144 281.73 118.144 280.93C118.144 280.365 117.73 280.035 116.973 280.035C116.146 280.035 115.691 280.365 115.663 281.137ZM118.144 282.487C117.827 282.777 117.179 282.928 116.628 283.066C116.008 283.218 115.484 283.535 115.484 284.169C115.484 284.72 115.87 285.064 116.49 285.064C117.799 285.064 118.144 283.548 118.144 282.487ZM122.686 282.722C122.686 283.879 123.182 284.857 124.409 284.857C125.635 284.857 126.131 283.879 126.131 282.722C126.131 281.564 125.635 280.586 124.409 280.586C123.182 280.586 122.686 281.564 122.686 282.722ZM124.409 286.304C122.479 286.304 120.688 285.202 120.688 281.757C120.688 277.141 122.879 276.452 124.877 276.452H127.509V278.037H124.712C123.155 278.037 122.576 278.726 122.342 280.241H122.411C122.411 280.241 123.031 279.139 124.684 279.139C126.82 279.139 128.06 280.724 128.06 282.722C128.06 284.651 126.82 286.304 124.409 286.304ZM130.543 282.515C130.543 283.81 131.039 284.857 132.266 284.857C133.492 284.857 133.988 283.81 133.988 282.515C133.988 281.22 133.492 280.172 132.266 280.172C131.039 280.172 130.543 281.22 130.543 282.515ZM128.614 282.515C128.614 280.42 129.909 278.726 132.266 278.726C134.622 278.726 135.917 280.42 135.917 282.515C135.917 284.609 134.622 286.304 132.266 286.304C129.909 286.304 128.614 284.609 128.614 282.515ZM140.744 286.098V282.102C140.744 280.861 140.496 280.31 139.738 280.31C138.912 280.31 138.471 280.93 138.471 282.377V286.098H136.542V278.932H138.402V280.104H138.471C138.471 280.104 138.953 278.726 140.4 278.726C141.557 278.726 142.177 279.277 142.453 280.117L142.467 280.104H142.536C142.536 280.104 143.156 278.726 144.603 278.726C146.394 278.726 146.876 280.035 146.876 281.688V286.098H144.947V282.102C144.947 280.861 144.699 280.31 143.941 280.31C143.114 280.31 142.673 280.93 142.673 282.377V286.098H140.744ZM149.561 281.137H147.631C147.742 279.304 149.216 278.726 150.87 278.726C152.592 278.726 153.97 279.346 153.97 281.206V286.098H152.041V284.72H151.972C151.972 284.72 151.531 286.304 149.698 286.304C148.389 286.304 147.425 285.698 147.425 284.375C147.425 283.039 148.527 282.432 149.712 282.129C150.911 281.826 152.041 281.73 152.041 280.93C152.041 280.365 151.627 280.035 150.87 280.035C150.043 280.035 149.588 280.365 149.561 281.137ZM152.041 282.487C151.724 282.777 151.076 282.928 150.525 283.066C149.905 283.218 149.381 283.535 149.381 284.169C149.381 284.72 149.767 285.064 150.387 285.064C151.696 285.064 152.041 283.548 152.041 282.487ZM159.27 286.098V283.273H156.583V286.098H154.654V278.932H156.583V281.757H159.27V278.932H161.199V286.098H159.27ZM166.51 286.098V283.273H163.823V286.098H161.894V278.932H163.823V281.757H166.51V278.932H168.439V286.098H166.51ZM169.133 286.098V278.932H171.063V281.55H171.889C173.887 281.55 174.99 282.446 174.99 283.824C174.99 285.202 173.887 286.098 171.889 286.098H169.133ZM171.614 282.928H171.063V284.72H171.614C172.647 284.72 173.061 284.444 173.061 283.824C173.061 283.204 172.647 282.928 171.614 282.928ZM177.47 278.932V286.098H175.541V278.932H177.47ZM180.436 278.932L181.745 280.999L183.054 278.932H185.328L182.848 282.377L185.535 286.098H183.261L181.745 283.755L180.23 286.098H177.956L180.643 282.377L178.163 278.932H180.436ZM198.013 278.932V286.098H196.221V281.068H196.153L194.568 286.098H192.777L191.192 281.068H191.123V286.098H189.332V278.932H192.225L193.672 283.893L195.119 278.932H198.013ZM200.696 281.137H198.766C198.877 279.304 200.351 278.726 202.005 278.726C203.727 278.726 205.105 279.346 205.105 281.206V286.098H203.176V284.72H203.107C203.107 284.72 202.666 286.304 200.833 286.304C199.524 286.304 198.56 285.698 198.56 284.375C198.56 283.039 199.662 282.432 200.847 282.129C202.046 281.826 203.176 281.73 203.176 280.93C203.176 280.365 202.762 280.035 202.005 280.035C201.178 280.035 200.723 280.365 200.696 281.137ZM203.176 282.487C202.859 282.777 202.211 282.928 201.66 283.066C201.04 283.218 200.516 283.535 200.516 284.169C200.516 284.72 200.902 285.064 201.522 285.064C202.831 285.064 203.176 283.548 203.176 282.487ZM209.992 286.098V282.102C209.992 280.861 209.744 280.31 208.986 280.31C208.159 280.31 207.718 280.93 207.718 282.377V286.098H205.789V278.932H207.649V280.104H207.718C207.718 280.104 208.201 278.726 209.647 278.726C210.805 278.726 211.425 279.277 211.701 280.117L211.714 280.104H211.783C211.783 280.104 212.403 278.726 213.85 278.726C215.641 278.726 216.124 280.035 216.124 281.688V286.098H214.195V282.102C214.195 280.861 213.947 280.31 213.189 280.31C212.362 280.31 211.921 280.93 211.921 282.377V286.098H209.992ZM216.741 282.515C216.741 280.42 217.968 278.726 220.324 278.726C222.68 278.726 223.769 280.42 223.769 282.515C223.769 282.68 223.755 282.928 223.755 282.928H218.684C218.767 284.031 219.235 284.857 220.393 284.857C221.564 284.857 221.771 283.755 221.771 283.755H223.7C223.7 283.755 223.286 286.304 220.324 286.304C217.912 286.304 216.741 284.609 216.741 282.515ZM220.324 280.172C219.373 280.172 218.905 280.806 218.739 281.688H221.784C221.66 280.806 221.275 280.172 220.324 280.172ZM224.386 288.578V278.932H226.246V279.897H226.315C226.315 279.897 226.935 278.726 228.52 278.726C230.587 278.726 231.62 280.517 231.62 282.515C231.62 284.513 230.587 286.304 228.52 286.304C227.004 286.304 226.384 285.34 226.384 285.34H226.315V288.578H224.386ZM226.246 282.515C226.246 283.81 226.798 284.857 227.969 284.857C229.14 284.857 229.691 283.81 229.691 282.515C229.691 281.22 229.14 280.172 227.969 280.172C226.798 280.172 226.246 281.22 226.246 282.515ZM238.928 278.932V286.098H237.068V284.926H236.999C236.999 284.926 236.379 286.304 234.794 286.304C232.796 286.304 232.245 284.995 232.245 283.342V278.932H234.174V282.928C234.174 284.169 234.518 284.72 235.414 284.72C236.447 284.72 236.999 284.1 236.999 282.653V278.932H238.928ZM241.617 281.137H239.688C239.798 279.304 241.272 278.726 242.926 278.726C244.648 278.726 246.026 279.346 246.026 281.206V286.098H244.097V284.72H244.028C244.028 284.72 243.587 286.304 241.755 286.304C240.446 286.304 239.481 285.698 239.481 284.375C239.481 283.039 240.583 282.432 241.769 282.129C242.967 281.826 244.097 281.73 244.097 280.93C244.097 280.365 243.684 280.035 242.926 280.035C242.099 280.035 241.645 280.365 241.617 281.137ZM244.097 282.487C243.78 282.777 243.133 282.928 242.582 283.066C241.961 283.218 241.438 283.535 241.438 284.169C241.438 284.72 241.824 285.064 242.444 285.064C243.753 285.064 244.097 283.548 244.097 282.487ZM246.504 286.098L249.081 278.932H251.258L253.835 286.098H251.768L250.114 281.013L248.461 286.098H246.504ZM255.689 282.515C255.689 283.81 256.185 284.857 257.412 284.857C258.638 284.857 259.134 283.81 259.134 282.515C259.134 281.22 258.638 280.172 257.412 280.172C256.185 280.172 255.689 281.22 255.689 282.515ZM253.76 282.515C253.76 280.42 255.055 278.726 257.412 278.726C259.768 278.726 261.063 280.42 261.063 282.515C261.063 284.609 259.768 286.304 257.412 286.304C255.055 286.304 253.76 284.609 253.76 282.515ZM261.688 286.098V278.932H265.133C266.993 278.932 267.957 279.552 267.957 280.861C267.957 282.033 266.855 282.308 266.855 282.308V282.377C266.855 282.377 268.164 282.653 268.164 284.031C268.164 285.409 267.268 286.098 265.339 286.098H261.688ZM265.133 283.066H263.617V284.72H265.27C265.89 284.72 266.235 284.444 266.235 283.893C266.235 283.342 265.822 283.066 265.133 283.066ZM263.617 281.826H264.995C265.684 281.826 266.028 281.55 266.028 281.068C266.028 280.586 265.753 280.31 265.133 280.31H263.617V281.826ZM268.781 285.133C268.781 284.527 269.277 284.031 269.883 284.031C270.49 284.031 270.986 284.527 270.986 285.133C270.986 285.739 270.49 286.235 269.883 286.235C269.277 286.235 268.781 285.739 268.781 285.133ZM66.1115 291.932V299.098H64.3202V294.068H64.2513L62.6666 299.098H60.8753L59.2907 294.068H59.2218V299.098H57.4304V291.932H60.3241L61.771 296.893L63.2178 291.932H66.1115ZM73.8927 291.932L71.3434 299.304C70.7785 300.944 70.0344 301.785 68.5875 301.785C67.8986 301.785 67.3474 301.578 67.3474 301.578V299.993C67.3474 299.993 67.7608 300.131 68.243 300.131C68.932 300.131 69.2076 299.759 69.4832 299.098L66.5895 291.932H68.6564L70.4064 296.659L71.8257 291.932H73.8927ZM74.2377 293.448V291.932H80.8519V293.448L78.5093 295.653C78.5093 295.653 81.1274 295.722 81.1274 298.615C81.1274 300.2 80.0251 301.785 77.6826 301.785C74.9956 301.785 74.031 300.2 74.031 298.546H75.9601C75.9601 299.511 76.4424 300.338 77.6826 300.338C78.6333 300.338 79.1983 299.649 79.1983 298.684C79.1983 297.651 78.716 296.893 76.7869 296.893H76.2357V295.791L78.6471 293.448H74.2377ZM81.6119 299.098V291.932H83.541V294.55H84.3678C86.3658 294.55 87.4682 295.446 87.4682 296.824C87.4682 298.202 86.3658 299.098 84.3678 299.098H81.6119ZM84.0922 295.928H83.541V297.72H84.0922C85.1257 297.72 85.539 297.444 85.539 296.824C85.539 296.204 85.1257 295.928 84.0922 295.928ZM89.9485 291.932V299.098H88.0194V291.932H89.9485ZM90.6412 299.098V291.932H92.5704V294.826L95.1196 291.932H97.3932L94.6924 294.73L97.531 299.098H95.1747L93.3558 296.107L92.5704 296.92V299.098H90.6412ZM99.6636 294.137H97.7345C97.8447 292.304 99.3191 291.726 100.973 291.726C102.695 291.726 104.073 292.346 104.073 294.206V299.098H102.144V297.72H102.075C102.075 297.72 101.634 299.304 99.8014 299.304C98.4923 299.304 97.5278 298.698 97.5278 297.375C97.5278 296.039 98.6301 295.432 99.8152 295.129C101.014 294.826 102.144 294.73 102.144 293.93C102.144 293.365 101.731 293.035 100.973 293.035C100.146 293.035 99.6912 293.365 99.6636 294.137ZM102.144 295.487C101.827 295.777 101.179 295.928 100.628 296.066C100.008 296.218 99.4845 296.535 99.4845 297.169C99.4845 297.72 99.8703 298.064 100.49 298.064C101.799 298.064 102.144 296.548 102.144 295.487ZM104.826 298.133C104.826 297.527 105.322 297.031 105.928 297.031C106.535 297.031 107.031 297.527 107.031 298.133C107.031 298.739 106.535 299.235 105.928 299.235C105.322 299.235 104.826 298.739 104.826 298.133ZM111.988 299.098V295.102C111.988 293.861 111.74 293.31 110.982 293.31C110.155 293.31 109.714 293.93 109.714 295.377V299.098H107.785V291.932H109.645V293.104H109.714C109.714 293.104 110.196 291.726 111.643 291.726C112.801 291.726 113.421 292.277 113.696 293.117L113.71 293.104H113.779C113.779 293.104 114.399 291.726 115.846 291.726C117.637 291.726 118.12 293.035 118.12 294.688V299.098H116.19V295.102C116.19 293.861 115.942 293.31 115.185 293.31C114.358 293.31 113.917 293.93 113.917 295.377V299.098H111.988ZM120.804 294.137H118.875C118.985 292.304 120.459 291.726 122.113 291.726C123.835 291.726 125.213 292.346 125.213 294.206V299.098H123.284V297.72H123.215C123.215 297.72 122.774 299.304 120.942 299.304C119.633 299.304 118.668 298.698 118.668 297.375C118.668 296.039 119.77 295.432 120.955 295.129C122.154 294.826 123.284 294.73 123.284 293.93C123.284 293.365 122.871 293.035 122.113 293.035C121.286 293.035 120.831 293.365 120.804 294.137ZM123.284 295.487C122.967 295.777 122.32 295.928 121.768 296.066C121.148 296.218 120.625 296.535 120.625 297.169C120.625 297.72 121.011 298.064 121.631 298.064C122.94 298.064 123.284 296.548 123.284 295.487ZM130.514 299.098V296.273H127.827V299.098H125.897V291.932H127.827V294.757H130.514V291.932H132.443V299.098H130.514ZM140.785 296.617V300.889H140.234V296.617H140.785ZM139.82 291.932V299.098H137.96V297.926H137.891C137.891 297.926 137.271 299.304 135.686 299.304C133.688 299.304 133.137 297.995 133.137 296.342V291.932H135.066V295.928C135.066 297.169 135.411 297.72 136.306 297.72C137.34 297.72 137.891 297.1 137.891 295.653V291.932H139.82ZM141.265 299.098V291.932H143.194V294.55H144.021C146.019 294.55 147.121 295.446 147.121 296.824C147.121 298.202 146.019 299.098 144.021 299.098H141.265ZM143.745 295.928H143.194V297.72H143.745C144.779 297.72 145.192 297.444 145.192 296.824C145.192 296.204 144.779 295.928 143.745 295.928ZM149.601 291.932V299.098H147.672V291.932H149.601ZM150.363 298.133C150.363 297.527 150.859 297.031 151.465 297.031C152.072 297.031 152.568 297.527 152.568 298.133C152.568 298.739 152.072 299.235 151.465 299.235C150.859 299.235 150.363 298.739 150.363 298.133ZM153.322 299.098V291.932H155.251V294.826L157.8 291.932H160.074L157.373 294.73L160.212 299.098H157.855L156.037 296.107L155.251 296.92V299.098H153.322ZM161.87 295.515C161.87 296.81 162.366 297.857 163.593 297.857C164.819 297.857 165.315 296.81 165.315 295.515C165.315 294.22 164.819 293.172 163.593 293.172C162.366 293.172 161.87 294.22 161.87 295.515ZM159.941 295.515C159.941 293.42 161.236 291.726 163.593 291.726C165.949 291.726 167.244 293.42 167.244 295.515C167.244 297.609 165.949 299.304 163.593 299.304C161.236 299.304 159.941 297.609 159.941 295.515ZM167.868 299.098V291.932H169.798V294.826L172.347 291.932H174.62L171.92 294.73L174.758 299.098H172.402L170.583 296.107L169.798 296.92V299.098H167.868ZM179.513 299.098V295.102C179.513 293.861 179.265 293.31 178.507 293.31C177.68 293.31 177.239 293.93 177.239 295.377V299.098H175.31V291.932H177.17V293.104H177.239C177.239 293.104 177.721 291.726 179.168 291.726C180.326 291.726 180.946 292.277 181.221 293.117L181.235 293.104H181.304C181.304 293.104 181.924 291.726 183.371 291.726C185.162 291.726 185.645 293.035 185.645 294.688V299.098H183.715V295.102C183.715 293.861 183.467 293.31 182.71 293.31C181.883 293.31 181.442 293.93 181.442 295.377V299.098H179.513ZM186.262 295.515C186.262 293.42 187.488 291.726 189.845 291.726C192.201 291.726 193.29 293.42 193.29 295.515C193.29 295.68 193.276 295.928 193.276 295.928H188.205C188.288 297.031 188.756 297.857 189.914 297.857C191.085 297.857 191.292 296.755 191.292 296.755H193.221C193.221 296.755 192.807 299.304 189.845 299.304C187.433 299.304 186.262 297.609 186.262 295.515ZM189.845 293.172C188.894 293.172 188.425 293.806 188.26 294.688H191.305C191.181 293.806 190.795 293.172 189.845 293.172ZM194.596 291.243V290.692H199.901V291.243H194.596ZM200.59 291.932V299.098H198.73V297.926H198.661C198.661 297.926 198.041 299.304 196.456 299.304C194.458 299.304 193.907 297.995 193.907 296.342V291.932H195.836V295.928C195.836 297.169 196.181 297.72 197.076 297.72C198.11 297.72 198.661 297.1 198.661 295.653V291.932H200.59ZM201.074 299.098L203.651 291.932H205.828L208.405 299.098H206.338L204.685 294.013L203.031 299.098H201.074ZM215.365 291.932V299.098H213.505V297.926H213.436C213.436 297.926 212.816 299.304 211.231 299.304C209.233 299.304 208.682 297.995 208.682 296.342V291.932H210.611V295.928C210.611 297.169 210.956 297.72 211.852 297.72C212.885 297.72 213.436 297.1 213.436 295.653V291.932H215.365ZM216.125 298.133C216.125 297.527 216.621 297.031 217.228 297.031C217.834 297.031 218.33 297.527 218.33 298.133C218.33 298.739 217.834 299.235 217.228 299.235C216.621 299.235 216.125 298.739 216.125 298.133ZM57.4304 313.098V305.932H60.8753C62.7355 305.932 63.7001 306.552 63.7001 307.861C63.7001 309.033 62.5977 309.308 62.5977 309.308V309.377C62.5977 309.377 63.9068 309.653 63.9068 311.031C63.9068 312.409 63.0111 313.098 61.082 313.098H57.4304ZM60.8753 310.066H59.3596V311.72H61.0131C61.6332 311.72 61.9777 311.444 61.9777 310.893C61.9777 310.342 61.5643 310.066 60.8753 310.066ZM59.3596 308.826H60.7375C61.4265 308.826 61.771 308.55 61.771 308.068C61.771 307.586 61.4954 307.31 60.8753 307.31H59.3596V308.826ZM64.3186 309.515C64.3186 307.42 65.545 305.726 67.9013 305.726C70.2576 305.726 71.3461 307.42 71.3461 309.515C71.3461 309.68 71.3324 309.928 71.3324 309.928H66.2615C66.3442 311.031 66.8127 311.857 67.9701 311.857C69.1414 311.857 69.3481 310.755 69.3481 310.755H71.2772C71.2772 310.755 70.8639 313.304 67.9013 313.304C65.4898 313.304 64.3186 311.609 64.3186 309.515ZM67.9013 307.172C66.9505 307.172 66.482 307.806 66.3166 308.688H69.3619C69.2379 307.806 68.852 307.172 67.9013 307.172ZM71.8946 309.515C71.8946 307.42 73.1348 305.726 75.4773 305.726C78.6466 305.726 78.8533 308.55 78.8533 308.55H76.9241C76.9241 308.55 76.8553 307.172 75.4773 307.172C74.2509 307.172 73.8238 308.22 73.8238 309.515C73.8238 310.81 74.2509 311.857 75.4773 311.857C76.8553 311.857 76.9241 310.48 76.9241 310.48H78.8533C78.8533 310.48 78.6466 313.304 75.4773 313.304C73.1348 313.304 71.8946 311.609 71.8946 309.515ZM79.4034 309.515C79.4034 307.42 80.6298 305.726 82.9861 305.726C85.3424 305.726 86.4309 307.42 86.4309 309.515C86.4309 309.68 86.4172 309.928 86.4172 309.928H81.3463C81.429 311.031 81.8975 311.857 83.055 311.857C84.2262 311.857 84.4329 310.755 84.4329 310.755H86.3621C86.3621 310.755 85.9487 313.304 82.9861 313.304C80.5746 313.304 79.4034 311.609 79.4034 309.515ZM82.9861 307.172C82.0353 307.172 81.5668 307.806 81.4014 308.688H84.4467C84.3227 307.806 83.9369 307.172 82.9861 307.172ZM86.3572 313.098L88.934 305.932H91.1111L93.6879 313.098H91.621L89.9674 308.013L88.3139 313.098H86.3572ZM94.1669 313.098V305.932H96.096V308.55H97.2673C99.2653 308.55 100.368 309.446 100.368 310.824C100.368 312.202 99.2653 313.098 97.2673 313.098H94.1669ZM96.9917 309.928H96.096V311.72H96.9917C98.0251 311.72 98.4385 311.444 98.4385 310.824C98.4385 310.204 98.0251 309.928 96.9917 309.928ZM100.853 309.515C100.853 307.42 102.08 305.726 104.436 305.726C106.792 305.726 107.881 307.42 107.881 309.515C107.881 309.68 107.867 309.928 107.867 309.928H102.796C102.879 311.031 103.347 311.857 104.505 311.857C105.676 311.857 105.883 310.755 105.883 310.755H107.812C107.812 310.755 107.398 313.304 104.436 313.304C102.024 313.304 100.853 311.609 100.853 309.515ZM104.436 307.172C103.485 307.172 103.017 307.806 102.851 308.688H105.896C105.772 307.806 105.387 307.172 104.436 307.172ZM108.567 312.133C108.567 311.527 109.063 311.031 109.669 311.031C110.276 311.031 110.772 311.527 110.772 312.133C110.772 312.739 110.276 313.235 109.669 313.235C109.063 313.235 108.567 312.739 108.567 312.133ZM110.634 303.452V310.342H108.705V303.452H110.634Z" fill="white"/>
<path d="M79.1332 540.06V544.91H57.9678V542.926C57.9678 532.343 72.96 534.107 72.96 529.257C72.96 527.052 71.1962 525.95 68.5505 525.95C65.9048 525.95 64.1411 527.493 64.1411 530.359V531.02H57.9678V530.359C57.9678 524.627 62.3773 521.32 68.771 521.32C74.7237 521.32 79.1332 524.186 79.1332 529.257C79.1332 537.194 67.6686 536.532 65.0229 540.06H79.1332ZM87.0495 533.446C87.0495 537.59 88.6369 540.942 92.5613 540.942C96.4857 540.942 98.0731 537.59 98.0731 533.446C98.0731 529.301 96.4857 525.95 92.5613 525.95C88.6369 525.95 87.0495 529.301 87.0495 533.446ZM80.8763 533.446C80.8763 526.743 85.0212 521.32 92.5613 521.32C100.101 521.32 104.246 526.743 104.246 533.446C104.246 540.148 100.101 545.572 92.5613 545.572C85.0212 545.572 80.8763 540.148 80.8763 533.446ZM106.906 541.824C106.906 539.883 108.493 538.296 110.433 538.296C112.374 538.296 113.961 539.883 113.961 541.824C113.961 543.764 112.374 545.351 110.433 545.351C108.493 545.351 106.906 543.764 106.906 541.824ZM106.906 525.509C106.906 523.568 108.493 521.981 110.433 521.981C112.374 521.981 113.961 523.568 113.961 525.509C113.961 527.449 112.374 529.036 110.433 529.036C108.493 529.036 106.906 527.449 106.906 525.509ZM122.79 533.446C122.79 537.59 124.378 540.942 128.302 540.942C132.226 540.942 133.814 537.59 133.814 533.446C133.814 529.301 132.226 525.95 128.302 525.95C124.378 525.95 122.79 529.301 122.79 533.446ZM116.617 533.446C116.617 526.743 120.762 521.32 128.302 521.32C135.842 521.32 139.987 526.743 139.987 533.446C139.987 540.148 135.842 545.572 128.302 545.572C120.762 545.572 116.617 540.148 116.617 533.446ZM147.938 533.446C147.938 537.59 149.525 540.942 153.45 540.942C157.374 540.942 158.961 537.59 158.961 533.446C158.961 529.301 157.374 525.95 153.45 525.95C149.525 525.95 147.938 529.301 147.938 533.446ZM141.765 533.446C141.765 526.743 145.909 521.32 153.45 521.32C160.99 521.32 165.135 526.743 165.135 533.446C165.135 540.148 160.99 545.572 153.45 545.572C145.909 545.572 141.765 540.148 141.765 533.446Z" fill="white"/>
</g>
<defs>
<clipPath id="clip0_879_55">
<rect width="541.535" height="766.142" fill="white" transform="translate(0.589844)"/>
</clipPath>
</defs>
</svg>
