<svg width="542" height="767" viewBox="0 0 542 767" fill="none" xmlns="http://www.w3.org/2000/svg">
<g clip-path="url(#clip0_879_97)">
<rect width="541.535" height="766.142" transform="translate(0.464844)" fill="black"/>
<path d="M-327.817 547.664C-344.614 550.516 -361.355 553.704 -378.217 556.172C-425.446 563.004 -450.414 602.942 -447.877 648.135C-446.348 674.884 -436.409 698.526 -416.8 717.466C-402.867 730.9 -385.949 736.323 -366.809 735.345C-321.095 732.966 -275.341 730.828 -229.638 727.809C-222.069 727.314 -214.923 721.706 -207.22 720.546C-62.0825 698.572 83.2996 678.038 228.201 654.673C284.914 645.538 340.753 630.676 396.789 617.559C427.659 610.343 443.589 588.135 448.685 558.237C453.898 527.578 444.754 502.221 417.093 485.29C401.892 476.021 384.918 473.471 367.941 474.971C275.092 483.278 182.138 490.961 89.5129 501.452C-20.0648 513.884 -129.33 529.027 -238.752 542.666C-243.2 543.223 -248.019 540.141 -252.776 539.171C-256.924 538.295 -261.329 537.068 -265.329 537.648C-286.167 540.84 -306.915 544.56 -327.744 548.096C-327.768 547.952 -327.784 547.856 -327.809 547.712L-327.817 547.664ZM330.438 607.147C324.953 608.868 322.052 610.102 319.045 610.711C275.409 619.798 232.026 630.669 188.007 637.5C52.6215 658.46 -83.0082 677.98 -218.557 697.684C-223.037 698.346 -229.164 696.572 -232.622 693.653C-251.502 677.553 -272.893 672.247 -297.026 676.394C-314.591 679.376 -332.139 682.75 -349.818 685.06C-369.665 687.689 -386.578 676.192 -390.113 658.276C-393.283 642.224 -389.406 627.543 -379.144 614.987C-363.939 596.359 -341.407 597.619 -329.094 617.797C-323.625 626.744 -319.594 636.527 -314.748 645.876C-305.998 662.808 -291.389 663.932 -282.052 647.386C-270.692 627.336 -258.26 607.204 -251.532 585.472C-246.848 570.308 -238.577 569.003 -226.889 567.463C-148.525 557.023 -70.323 545.623 8.12389 535.958C101.467 524.457 194.95 514.363 288.376 503.933C303.4 502.271 318.637 502.153 336.976 501.113C301.611 535.36 294.384 569.57 330.438 607.147ZM376.402 510.27C405.42 507.269 424.138 523.002 422.837 550.824C422.161 565.455 414.762 577.13 403.809 586.198C385.321 601.483 357.796 597.861 341.988 578.622C328.494 562.249 331.4 541.265 350.702 525.249C358.23 518.984 367.806 515.185 376.402 510.27Z" fill="#00FF0A"/>
<path d="M29.5668 39.4495C29.5668 43.5944 31.1542 46.9456 35.0786 46.9456C39.0031 46.9456 40.5905 43.5944 40.5905 39.4495C40.5905 35.3046 39.0031 31.9534 35.0786 31.9534C31.1542 31.9534 29.5668 35.3046 29.5668 39.4495ZM23.3936 39.4495C23.3936 32.7471 27.5385 27.3235 35.0786 27.3235C42.6188 27.3235 46.7637 32.7471 46.7637 39.4495C46.7637 46.1519 42.6188 51.5755 35.0786 51.5755C27.5385 51.5755 23.3936 46.1519 23.3936 39.4495ZM49.2027 50.9141H54.9349C55.3759 52.8542 56.2578 54.8826 59.3444 54.8826C64.3271 54.8826 65.5176 49.5912 65.7381 45.1818H65.5176C65.5176 45.1818 63.5334 48.2684 58.4625 48.2684C52.9507 48.2684 48.5412 44.5204 48.5412 38.3471C48.5412 31.9534 52.7302 27.3235 59.5649 27.3235C67.9428 27.3235 71.6909 32.6148 71.6909 42.3156C71.6909 53.5597 67.0609 59.5125 59.5649 59.5125C53.8326 59.5125 49.8641 56.4259 49.2027 50.9141ZM65.2971 37.9062C65.2971 34.2904 62.916 31.9534 60.0058 31.9534C57.0956 31.9534 54.7145 33.9377 54.7145 37.9062C54.7145 41.8747 57.0956 43.8589 60.0058 43.8589C62.916 43.8589 65.2971 41.8747 65.2971 37.9062ZM73.9145 47.8274C73.9145 45.8873 75.5019 44.2999 77.4421 44.2999C79.3822 44.2999 80.9696 45.8873 80.9696 47.8274C80.9696 49.7676 79.3822 51.355 77.4421 51.355C75.5019 51.355 73.9145 49.7676 73.9145 47.8274ZM88.4743 39.4495C88.4743 43.5944 90.0617 46.9456 93.9861 46.9456C97.9105 46.9456 99.4979 43.5944 99.4979 39.4495C99.4979 35.3046 97.9105 31.9534 93.9861 31.9534C90.0617 31.9534 88.4743 35.3046 88.4743 39.4495ZM82.3011 39.4495C82.3011 32.7471 86.446 27.3235 93.9861 27.3235C101.526 27.3235 105.671 32.7471 105.671 39.4495C105.671 46.1519 101.526 51.5755 93.9861 51.5755C86.446 51.5755 82.3011 46.1519 82.3011 39.4495ZM127.973 27.9849V32.3944C120.477 39.229 118.273 50.4731 118.273 58.8511H111.658C112.099 48.4889 115.847 38.5676 121.58 32.8353H106.367V27.9849H127.973Z" fill="white"/>
<path d="M281.13 -61.3184C228.444 -4.19942 116.305 141.148 89.238 265.584C55.4049 421.13 129.564 535.653 259.258 301.052C388.951 66.4514 637.403 216.442 274.466 868.111" stroke="#DF00C9" stroke-width="92.3228"/>
<path d="M190.68 434.059L157.81 402.082L166.112 393.548L171.485 398.775L171.793 398.459C171.793 398.459 168.239 389.465 175.311 382.196C184.227 373.03 192.692 376.344 200.278 383.723L220.505 403.402L211.896 412.251L193.565 394.418C187.876 388.883 183.81 388.004 179.813 392.112C175.201 396.853 175.585 402.149 182.222 408.606L199.29 425.21L190.68 434.059Z" fill="white"/>
<path d="M207.74 382.589C196.824 374.809 192.547 362.122 201.299 349.842C210.052 337.561 222.929 338.184 233.845 345.964C234.706 346.578 235.948 347.571 235.948 347.571L217.112 373.999C223.164 377.663 229.213 378.292 233.513 372.26C237.863 366.156 232.886 360.984 232.886 360.984L240.052 350.93C240.052 350.93 251.802 362.553 240.797 377.993C231.84 390.561 218.656 390.37 207.74 382.589ZM208.84 355.216C205.308 360.171 206.871 364.968 210.853 369.105L222.165 353.234C217.108 350.605 212.372 350.261 208.84 355.216Z" fill="white"/>
<path d="M240.984 333.96C248.108 338.199 255.491 338.898 259.504 332.152C263.517 325.407 259.381 319.252 252.256 315.013C245.132 310.774 237.749 310.076 233.736 316.821C229.723 323.566 233.859 329.722 240.984 333.96ZM234.671 344.571C223.151 337.717 218.067 325.047 225.778 312.087C233.489 299.127 247.049 297.549 258.569 304.402C270.089 311.256 275.173 323.927 267.462 336.887C259.752 349.847 246.191 351.425 234.671 344.571Z" fill="white"/>
<path d="M280.255 310.302L241.895 285.173L248.418 275.214L254.689 279.322L254.93 278.953C254.93 278.953 249.728 270.801 255.285 262.317C262.292 251.621 271.234 253.261 280.086 259.06L303.692 274.524L296.927 284.851L275.534 270.837C268.894 266.488 264.735 266.399 261.594 271.194C257.97 276.727 259.357 281.852 267.103 286.927L287.02 299.974L280.255 310.302Z" fill="white"/>
<path d="M326.161 270.703L286.573 223.336L295.708 215.701L299.667 220.438L300.005 220.155C300.005 220.155 298.243 211.858 306.025 205.354C316.175 196.871 328.602 201.426 336.803 211.238C345.003 221.05 347.28 234.088 337.13 242.571C329.687 248.792 322.683 246.601 322.683 246.601L322.345 246.883L335.635 262.785L326.161 270.703ZM310.413 233.294C315.729 239.655 322.733 242.536 328.485 237.729C334.237 232.921 332.645 225.516 327.329 219.156C322.013 212.795 315.008 209.914 309.257 214.722C303.505 219.529 305.096 226.934 310.413 233.294Z" fill="white"/>
<path d="M349.662 196.09L337.956 200.016C334.895 188.671 342.664 182.159 352.698 178.794C363.149 175.289 372.772 176.247 376.558 187.535L386.512 217.217L374.807 221.143L372.003 212.782L371.584 212.922C371.584 212.922 372.134 223.435 361.013 227.164C353.07 229.828 345.983 228.112 343.291 220.085C340.571 211.975 346.027 206.053 352.6 201.802C359.258 197.523 365.918 194.638 364.291 189.789C363.142 186.361 359.96 185.195 355.362 186.737C350.345 188.42 348.259 191.352 349.662 196.09ZM367.46 199.237C366.126 201.638 362.504 203.875 359.44 205.833C355.986 208.015 353.454 211.003 354.744 214.849C355.865 218.194 358.908 219.499 362.67 218.237C370.613 215.573 369.619 205.675 367.46 199.237Z" fill="white"/>
<path d="M389.766 217.384L403.223 173.545L415.026 177.168L412.179 186.441L418.08 188.253C423.139 189.805 424.825 190.323 426.507 184.843L427.672 181.049L439.475 184.672L437.922 189.731C434.946 199.426 430.668 201.341 418.443 197.589L409.591 194.872L401.569 221.007L389.766 217.384Z" fill="white"/>
<path d="M442.986 194.901L467.424 228.379L459.589 234.099L450.75 221.99L433.298 234.729C430.093 237.068 429.805 238.917 432.144 242.122C433.704 244.259 434.84 245.068 434.84 245.068L427.361 250.527C427.361 250.527 425.349 249.266 422.229 244.993C417.29 238.226 415.691 232.296 424.238 226.056L443.47 212.017L435.151 200.621L442.986 194.901Z" fill="white"/>
<path d="M483.577 284.02L433.811 280.067C422.745 279.201 416.343 275.941 414.019 266.977C412.912 262.709 413.308 258.962 413.308 258.962L423.125 256.417C423.125 256.417 422.935 259.2 423.71 262.188C424.816 266.456 427.564 267.566 432.104 268.211L471.847 238.775L475.167 251.58L448.697 270.013L480.257 271.215L483.577 284.02Z" fill="white"/>
<path d="M369.481 745.402V722.473H375.654V727.324H378.741C381.387 727.324 382.269 727.324 382.269 724.457V722.473H388.442V725.119C388.442 730.19 386.678 731.733 380.284 731.733H375.654V745.402H369.481ZM388.854 733.938C388.854 727.235 392.778 721.812 400.318 721.812C407.858 721.812 411.342 727.235 411.342 733.938C411.342 734.467 411.298 735.261 411.298 735.261H395.071C395.335 738.788 396.835 741.434 400.539 741.434C404.287 741.434 404.948 737.906 404.948 737.906H411.121C411.121 737.906 409.798 746.064 400.318 746.064C392.602 746.064 388.854 740.64 388.854 733.938ZM400.318 726.442C397.276 726.442 395.776 728.47 395.247 731.292H404.992C404.595 728.47 403.361 726.442 400.318 726.442ZM412.882 737.906H418.834C418.834 737.906 418.834 741.875 423.685 741.875C426.992 741.875 427.874 740.331 427.874 739.009C427.874 734.158 413.323 737.906 413.323 729.087C413.323 725.119 417.071 721.812 423.244 721.812C432.063 721.812 433.386 726.883 433.386 729.087H427.433C427.433 729.087 427.433 726.001 423.244 726.001C420.819 726.001 419.496 727.235 419.496 728.646C419.496 732.615 434.047 729.749 434.047 738.347C434.047 742.757 430.299 746.064 423.685 746.064C414.645 746.064 412.882 740.552 412.882 737.906ZM434.45 722.473H455.174V727.324H447.678V738.127C447.678 740.111 448.34 740.772 450.324 740.772C451.647 740.772 452.308 740.552 452.308 740.552V745.182C452.308 745.182 451.206 745.623 448.56 745.623C444.371 745.623 441.505 744.52 441.505 739.229V727.324H434.45V722.473ZM479.647 722.473L471.489 746.064C469.682 751.311 467.3 754.001 462.67 754.001C460.466 754.001 458.702 753.339 458.702 753.339V748.268C458.702 748.268 460.025 748.709 461.568 748.709C463.773 748.709 464.655 747.519 465.537 745.402L456.277 722.473H462.891L468.491 737.598L473.033 722.473H479.647ZM498.599 740.552V745.402H481.182V722.473H487.355V740.552H498.599ZM498.788 733.938C498.788 727.235 502.713 721.812 510.253 721.812C517.793 721.812 521.277 727.235 521.277 733.938C521.277 734.467 521.232 735.261 521.232 735.261H505.006C505.27 738.788 506.769 741.434 510.473 741.434C514.221 741.434 514.883 737.906 514.883 737.906H521.056C521.056 737.906 519.733 746.064 510.253 746.064C502.536 746.064 498.788 740.64 498.788 733.938ZM510.253 726.442C507.21 726.442 505.711 728.47 505.182 731.292H514.927C514.53 728.47 513.295 726.442 510.253 726.442Z" fill="white"/>
<path d="M233.725 27.9849L225.568 51.5755C223.76 56.8227 221.379 59.5125 216.749 59.5125C214.544 59.5125 212.78 58.8511 212.78 58.8511V53.7802C212.78 53.7802 214.103 54.2211 215.646 54.2211C217.851 54.2211 218.733 53.0306 219.615 50.9141L210.355 27.9849H216.969L222.569 43.1093L227.111 27.9849H233.725ZM230.637 50.9141L238.882 27.9849H245.849L254.095 50.9141H247.481L242.19 34.6432L236.898 50.9141H230.637ZM255.848 47.8274C255.848 45.8873 257.436 44.2999 259.376 44.2999C261.316 44.2999 262.903 45.8873 262.903 47.8274C262.903 49.7676 261.316 51.355 259.376 51.355C257.436 51.355 255.848 49.7676 255.848 47.8274ZM280.088 50.9141V41.8747H271.49V50.9141H265.316V27.9849H271.49V37.0243H280.088V27.9849H286.261V50.9141H280.088ZM309.869 27.9849V50.9141H303.916V47.166H303.696C303.696 47.166 301.712 51.5755 296.641 51.5755C290.247 51.5755 288.483 47.3865 288.483 42.0952V27.9849H294.656V40.7723C294.656 44.7408 295.759 46.5046 298.625 46.5046C301.932 46.5046 303.696 44.5204 303.696 39.8904V27.9849H309.869ZM312.081 50.9141V27.9849H318.254V37.2448L326.411 27.9849H333.687L325.044 36.9361L334.128 50.9141H326.588L320.767 41.3456L318.254 43.9471V50.9141H312.081ZM339.435 39.4495C339.435 43.5944 341.022 46.9456 344.947 46.9456C348.871 46.9456 350.458 43.5944 350.458 39.4495C350.458 35.3046 348.871 31.9534 344.947 31.9534C341.022 31.9534 339.435 35.3046 339.435 39.4495ZM333.261 39.4495C333.261 32.7471 337.406 27.3235 344.947 27.3235C352.487 27.3235 356.632 32.7471 356.632 39.4495C356.632 46.1519 352.487 51.5755 344.947 51.5755C337.406 51.5755 333.261 46.1519 333.261 39.4495ZM356.418 50.9141L364.664 27.9849H371.631L379.876 50.9141H373.262L367.971 34.6432L362.679 50.9141H356.418ZM381.409 50.9141V27.9849H387.582V36.3629H391.33C397.724 36.3629 401.251 39.229 401.251 43.6385C401.251 48.0479 397.724 50.9141 391.33 50.9141H381.409ZM390.448 40.7723H387.582V46.5046H390.448C393.755 46.5046 395.078 45.6227 395.078 43.6385C395.078 41.6542 393.755 40.7723 390.448 40.7723ZM402.805 39.4495C402.805 32.7471 406.774 27.3235 414.27 27.3235C424.411 27.3235 425.073 36.3629 425.073 36.3629H418.9C418.9 36.3629 418.679 31.9534 414.27 31.9534C410.345 31.9534 408.978 35.3046 408.978 39.4495C408.978 43.5944 410.345 46.9456 414.27 46.9456C418.679 46.9456 418.9 42.5361 418.9 42.5361H425.073C425.073 42.5361 424.411 51.5755 414.27 51.5755C406.774 51.5755 402.805 46.1519 402.805 39.4495ZM427.054 50.9141V27.9849H433.227V37.2448L441.384 27.9849H448.66L440.017 36.9361L449.101 50.9141H441.561L435.74 41.3456L433.227 43.9471V50.9141H427.054ZM455.925 35.04H449.752C450.105 29.1755 454.823 27.3235 460.114 27.3235C465.626 27.3235 470.035 29.3078 470.035 35.2605V50.9141H463.862V46.5046H463.642C463.642 46.5046 462.231 51.5755 456.366 51.5755C452.177 51.5755 449.09 49.6353 449.09 45.4023C449.09 41.1251 452.618 39.1849 456.41 38.2148C460.246 37.2448 463.862 36.9361 463.862 34.3786C463.862 32.5708 462.539 31.5125 460.114 31.5125C457.468 31.5125 456.013 32.5708 455.925 35.04ZM463.862 39.3613C462.848 40.2873 460.776 40.7723 459.012 41.2133C457.027 41.6983 455.352 42.7125 455.352 44.7408C455.352 46.5046 456.587 47.607 458.571 47.607C462.76 47.607 463.862 42.7566 463.862 39.3613ZM492.729 27.9849V50.9141H486.555V42.5361H482.146L478.486 50.9141H471.563L476.237 41.4337C473.592 40.1991 472.225 38.0385 472.225 35.2605C472.225 30.8511 475.752 27.9849 482.146 27.9849H492.729ZM483.028 38.1267H486.555V32.3944H483.028C479.721 32.3944 478.398 33.2763 478.398 35.2605C478.398 37.2448 479.721 38.1267 483.028 38.1267ZM526.676 27.9849V32.3944C519.18 39.229 516.975 50.4731 516.975 58.8511H510.361C510.802 48.4889 514.55 38.5676 520.282 32.8353H505.07V27.9849H526.676Z" fill="white"/>
<path d="M22.8562 694.842V687.676H26.3011C28.1613 687.676 29.1259 688.297 29.1259 689.606C29.1259 690.777 28.0235 691.052 28.0235 691.052V691.121C28.0235 691.121 29.3326 691.397 29.3326 692.775C29.3326 694.153 28.4369 694.842 26.5078 694.842H22.8562ZM26.3011 691.81H24.7853V693.464H26.4389C27.059 693.464 27.4035 693.188 27.4035 692.637C27.4035 692.086 26.9901 691.81 26.3011 691.81ZM24.7853 690.57H26.1633C26.8523 690.57 27.1968 690.295 27.1968 689.812C27.1968 689.33 26.9212 689.054 26.3011 689.054H24.7853V690.57ZM29.7444 691.259C29.7444 689.165 30.9707 687.47 33.327 687.47C35.6833 687.47 36.7719 689.165 36.7719 691.259C36.7719 691.424 36.7581 691.673 36.7581 691.673H31.6873C31.7699 692.775 32.2385 693.602 33.3959 693.602C34.5672 693.602 34.7739 692.499 34.7739 692.499H36.703C36.703 692.499 36.2896 695.048 33.327 695.048C30.9156 695.048 29.7444 693.354 29.7444 691.259ZM33.327 688.917C32.3762 688.917 31.9077 689.55 31.7424 690.432H34.7877C34.6636 689.55 34.2778 688.917 33.327 688.917ZM43.659 687.676V694.842H41.7299V692.086H39.8696C37.8716 692.086 37.3204 691.604 37.3204 690.019V687.676H39.2495V689.812C39.2495 690.708 39.5251 690.708 40.3519 690.708H41.7299V687.676H43.659ZM44.2775 691.259C44.2775 689.165 45.5038 687.47 47.8601 687.47C50.2164 687.47 51.305 689.165 51.305 691.259C51.305 691.424 51.2912 691.673 51.2912 691.673H46.2204C46.303 692.775 46.7715 693.602 47.929 693.602C49.1003 693.602 49.307 692.499 49.307 692.499H51.2361C51.2361 692.499 50.8227 695.048 47.8601 695.048C45.4487 695.048 44.2775 693.354 44.2775 691.259ZM47.8601 688.917C46.9093 688.917 46.4408 689.55 46.2755 690.432H49.3208C49.1967 689.55 48.8109 688.917 47.8601 688.917ZM51.9224 697.322V687.676H53.7826V688.641H53.8515C53.8515 688.641 54.4716 687.47 56.0563 687.47C58.1232 687.47 59.1566 689.261 59.1566 691.259C59.1566 693.257 58.1232 695.048 56.0563 695.048C54.5405 695.048 53.9204 694.084 53.9204 694.084H53.8515V697.322H51.9224ZM53.7826 691.259C53.7826 692.554 54.3338 693.602 55.5051 693.602C56.6763 693.602 57.2275 692.554 57.2275 691.259C57.2275 689.964 56.6763 688.917 55.5051 688.917C54.3338 688.917 53.7826 689.964 53.7826 691.259ZM66.4641 687.676V694.842H64.6039V693.671H64.535C64.535 693.671 63.9149 695.048 62.3302 695.048C60.3322 695.048 59.781 693.739 59.781 692.086V687.676H61.7102V691.673C61.7102 692.913 62.0547 693.464 62.9503 693.464C63.9838 693.464 64.535 692.844 64.535 691.397V687.676H66.4641ZM71.7714 694.842V692.017H69.0844V694.842H67.1552V687.676H69.0844V690.501H71.7714V687.676H73.7005V694.842H71.7714ZM74.3949 694.842V687.676H76.324V690.57L78.8732 687.676H81.1468L78.446 690.474L81.2846 694.842H78.9283L77.1094 691.852L76.324 692.665V694.842H74.3949ZM83.4172 689.881H81.4881C81.5983 688.048 83.0727 687.47 84.7263 687.47C86.4487 687.47 87.8267 688.09 87.8267 689.95V694.842H85.8975V693.464H85.8286C85.8286 693.464 85.3877 695.048 83.555 695.048C82.246 695.048 81.2814 694.442 81.2814 693.119C81.2814 691.783 82.3838 691.176 83.5688 690.873C84.7676 690.57 85.8975 690.474 85.8975 689.674C85.8975 689.11 85.4842 688.779 84.7263 688.779C83.8995 688.779 83.4448 689.11 83.4172 689.881ZM85.8975 691.232C85.5806 691.521 84.933 691.673 84.3818 691.81C83.7617 691.962 83.2381 692.279 83.2381 692.913C83.2381 693.464 83.6239 693.808 84.244 693.808C85.5531 693.808 85.8975 692.293 85.8975 691.232ZM91.7522 691.259C91.7522 689.165 92.9924 687.47 95.3349 687.47C98.5042 687.47 98.7109 690.295 98.7109 690.295H96.7818C96.7818 690.295 96.7129 688.917 95.3349 688.917C94.1085 688.917 93.6814 689.964 93.6814 691.259C93.6814 692.554 94.1085 693.602 95.3349 693.602C96.7129 693.602 96.7818 692.224 96.7818 692.224H98.7109C98.7109 692.224 98.5042 695.048 95.3349 695.048C92.9924 695.048 91.7522 693.354 91.7522 691.259ZM109.806 687.676V694.015C109.806 696.082 108.703 697.529 106.223 697.529C102.916 697.529 102.847 695.048 102.847 695.048H104.776C104.776 695.048 104.845 696.082 106.223 696.082C107.449 696.082 107.876 695.393 107.876 694.153V693.808H107.808C107.808 693.808 107.187 694.773 105.672 694.773C103.605 694.773 102.571 692.982 102.571 691.121C102.571 689.261 103.605 687.47 105.672 687.47C107.256 687.47 107.876 688.641 107.876 688.641H107.945V687.676H109.806ZM107.945 691.121C107.945 689.964 107.394 688.917 106.223 688.917C105.052 688.917 104.5 689.964 104.5 691.121C104.5 692.279 105.052 693.326 106.223 693.326C107.394 693.326 107.945 692.279 107.945 691.121ZM110.499 697.322V687.676H112.359V688.641H112.428C112.428 688.641 113.048 687.47 114.633 687.47C116.7 687.47 117.733 689.261 117.733 691.259C117.733 693.257 116.7 695.048 114.633 695.048C113.117 695.048 112.497 694.084 112.497 694.084H112.428V697.322H110.499ZM112.359 691.259C112.359 692.554 112.91 693.602 114.082 693.602C115.253 693.602 115.804 692.554 115.804 691.259C115.804 689.964 115.253 688.917 114.082 688.917C112.91 688.917 112.359 689.964 112.359 691.259ZM118.289 691.259C118.289 689.165 119.515 687.47 121.871 687.47C124.228 687.47 125.316 689.165 125.316 691.259C125.316 691.424 125.302 691.673 125.302 691.673H120.231C120.314 692.775 120.783 693.602 121.94 693.602C123.111 693.602 123.318 692.499 123.318 692.499H125.247C125.247 692.499 124.834 695.048 121.871 695.048C119.46 695.048 118.289 693.354 118.289 691.259ZM121.871 688.917C120.92 688.917 120.452 689.55 120.287 690.432H123.332C123.208 689.55 122.822 688.917 121.871 688.917ZM125.865 691.259C125.865 689.165 127.105 687.47 129.447 687.47C132.617 687.47 132.823 690.295 132.823 690.295H130.894C130.894 690.295 130.825 688.917 129.447 688.917C128.221 688.917 127.794 689.964 127.794 691.259C127.794 692.554 128.221 693.602 129.447 693.602C130.825 693.602 130.894 692.224 130.894 692.224H132.823C132.823 692.224 132.617 695.048 129.447 695.048C127.105 695.048 125.865 693.354 125.865 691.259ZM133.373 691.259C133.373 689.165 134.614 687.47 136.956 687.47C140.125 687.47 140.332 690.295 140.332 690.295H138.403C138.403 690.295 138.334 688.917 136.956 688.917C135.73 688.917 135.303 689.964 135.303 691.259C135.303 692.554 135.73 693.602 136.956 693.602C138.334 693.602 138.403 692.224 138.403 692.224H140.332C140.332 692.224 140.125 695.048 136.956 695.048C134.614 695.048 133.373 693.354 133.373 691.259ZM141.02 691.259V690.708H145.705V691.259H141.02ZM146.468 694.842V687.676H148.397V690.57L150.947 687.676H153.22L150.519 690.474L153.358 694.842H151.002L149.183 691.852L148.397 692.665V694.842H146.468ZM155.016 691.259C155.016 692.554 155.512 693.602 156.739 693.602C157.965 693.602 158.461 692.554 158.461 691.259C158.461 689.964 157.965 688.917 156.739 688.917C155.512 688.917 155.016 689.964 155.016 691.259ZM153.087 691.259C153.087 689.165 154.383 687.47 156.739 687.47C159.095 687.47 160.39 689.165 160.39 691.259C160.39 693.354 159.095 695.048 156.739 695.048C154.383 695.048 153.087 693.354 153.087 691.259ZM168.18 687.676V694.015C168.18 696.082 167.078 697.529 164.597 697.529C161.29 697.529 161.221 695.048 161.221 695.048H163.151C163.151 695.048 163.22 696.082 164.597 696.082C165.824 696.082 166.251 695.393 166.251 694.153V693.808H166.182C166.182 693.808 165.562 694.773 164.046 694.773C161.979 694.773 160.946 692.982 160.946 691.121C160.946 689.261 161.979 687.47 164.046 687.47C165.631 687.47 166.251 688.641 166.251 688.641H166.32V687.676H168.18ZM166.32 691.121C166.32 689.964 165.769 688.917 164.597 688.917C163.426 688.917 162.875 689.964 162.875 691.121C162.875 692.279 163.426 693.326 164.597 693.326C165.769 693.326 166.32 692.279 166.32 691.121ZM170.734 691.259C170.734 692.554 171.23 693.602 172.456 693.602C173.682 693.602 174.179 692.554 174.179 691.259C174.179 689.964 173.682 688.917 172.456 688.917C171.23 688.917 170.734 689.964 170.734 691.259ZM168.805 691.259C168.805 689.165 170.1 687.47 172.456 687.47C174.812 687.47 176.108 689.165 176.108 691.259C176.108 693.354 174.812 695.048 172.456 695.048C170.1 695.048 168.805 693.354 168.805 691.259ZM185.413 687.676V694.842H183.622V689.812H183.553L181.968 694.842H180.177L178.592 689.812H178.523V694.842H176.732V687.676H179.626L181.073 692.637L182.519 687.676H185.413ZM186.167 693.877C186.167 693.271 186.663 692.775 187.269 692.775C187.875 692.775 188.371 693.271 188.371 693.877C188.371 694.484 187.875 694.98 187.269 694.98C186.663 694.98 186.167 694.484 186.167 693.877ZM27.4723 707.842V705.017H24.7853V707.842H22.8562V700.676H24.7853V703.501H27.4723V700.676H29.4015V707.842H27.4723ZM32.0939 702.881H30.1647C30.275 701.048 31.7494 700.47 33.4029 700.47C35.1254 700.47 36.5033 701.09 36.5033 702.95V707.842H34.5742V706.464H34.5053C34.5053 706.464 34.0643 708.048 32.2317 708.048C30.9226 708.048 29.958 707.442 29.958 706.119C29.958 704.783 31.0604 704.176 32.2454 703.873C33.4443 703.57 34.5742 703.474 34.5742 702.674C34.5742 702.11 34.1608 701.779 33.4029 701.779C32.5762 701.779 32.1214 702.11 32.0939 702.881ZM34.5742 704.232C34.2573 704.521 33.6096 704.673 33.0584 704.81C32.4384 704.962 31.9147 705.279 31.9147 705.913C31.9147 706.464 32.3006 706.808 32.9206 706.808C34.2297 706.808 34.5742 705.293 34.5742 704.232ZM44.3528 700.676V707.015C44.3528 709.082 43.2504 710.529 40.7701 710.529C37.463 710.529 37.3941 708.048 37.3941 708.048H39.3233C39.3233 708.048 39.3922 709.082 40.7701 709.082C41.9965 709.082 42.4237 708.393 42.4237 707.153V706.808H42.3548C42.3548 706.808 41.7347 707.773 40.2189 707.773C38.152 707.773 37.1186 705.982 37.1186 704.121C37.1186 702.261 38.152 700.47 40.2189 700.47C41.8036 700.47 42.4237 701.641 42.4237 701.641H42.4926V700.676H44.3528ZM42.4926 704.121C42.4926 702.964 41.9414 701.917 40.7701 701.917C39.5989 701.917 39.0477 702.964 39.0477 704.121C39.0477 705.279 39.5989 706.326 40.7701 706.326C41.9414 706.326 42.4926 705.279 42.4926 704.121ZM44.9772 704.259C44.9772 702.165 46.2036 700.47 48.5599 700.47C50.9162 700.47 52.0048 702.165 52.0048 704.259C52.0048 704.424 51.991 704.673 51.991 704.673H46.9201C47.0028 705.775 47.4713 706.602 48.6288 706.602C49.8 706.602 50.0067 705.499 50.0067 705.499H51.9359C51.9359 705.499 51.5225 708.048 48.5599 708.048C46.1485 708.048 44.9772 706.354 44.9772 704.259ZM48.5599 701.917C47.6091 701.917 47.1406 702.55 46.9752 703.432H50.0205C49.8965 702.55 49.5107 701.917 48.5599 701.917ZM56.8249 707.842V703.846C56.8249 702.606 56.5769 702.054 55.819 702.054C54.9922 702.054 54.5513 702.674 54.5513 704.121V707.842H52.6221V700.676H54.4824V701.848H54.5513C54.5513 701.848 55.0336 700.47 56.4804 700.47C57.6379 700.47 58.258 701.021 58.5336 701.861L58.5473 701.848H58.6162C58.6162 701.848 59.2363 700.47 60.6832 700.47C62.4745 700.47 62.9568 701.779 62.9568 703.432V707.842H61.0277V703.846C61.0277 702.606 60.7796 702.054 60.0217 702.054C59.195 702.054 58.754 702.674 58.754 704.121V707.842H56.8249ZM63.6431 707.842V700.676H65.5722V703.295H66.7435C68.7415 703.295 69.8439 704.19 69.8439 705.568C69.8439 706.946 68.7415 707.842 66.7435 707.842H63.6431ZM66.4679 704.673H65.5722V706.464H66.4679C67.5013 706.464 67.9147 706.188 67.9147 705.568C67.9147 704.948 67.5013 704.673 66.4679 704.673ZM73.5019 707.842L76.0787 700.676H78.2558L80.8326 707.842H78.7657L77.1121 702.757L75.4586 707.842H73.5019ZM83.2407 700.676V703.501H84.1915C84.4395 701.779 85.5832 700.47 87.6501 700.47C90.0064 700.47 91.1639 702.165 91.1639 704.259C91.1639 706.354 90.0064 708.048 87.6501 708.048C85.5832 708.048 84.4395 706.753 84.1915 705.017H83.2407V707.842H81.3115V700.676H83.2407ZM86.0655 704.259C86.0655 705.554 86.4237 706.602 87.6501 706.602C88.8765 706.602 89.2348 705.554 89.2348 704.259C89.2348 702.964 88.8765 701.917 87.6501 701.917C86.4237 701.917 86.0655 702.964 86.0655 704.259ZM93.7099 704.466C93.7099 705.623 94.2059 706.602 95.4323 706.602C96.6587 706.602 97.1548 705.623 97.1548 704.466C97.1548 703.308 96.6587 702.33 95.4323 702.33C94.2059 702.33 93.7099 703.308 93.7099 704.466ZM95.4323 708.048C93.5032 708.048 91.7119 706.946 91.7119 703.501C91.7119 698.885 93.9028 698.196 95.9008 698.196H98.5327V699.781H95.7355C94.1784 699.781 93.5996 700.47 93.3654 701.985H93.4343C93.4343 701.985 94.0544 700.883 95.7079 700.883C97.8437 700.883 99.0839 702.468 99.0839 704.466C99.0839 706.395 97.8437 708.048 95.4323 708.048ZM101.567 704.259C101.567 705.554 102.063 706.602 103.289 706.602C104.516 706.602 105.012 705.554 105.012 704.259C105.012 702.964 104.516 701.917 103.289 701.917C102.063 701.917 101.567 702.964 101.567 704.259ZM99.6378 704.259C99.6378 702.165 100.933 700.47 103.289 700.47C105.646 700.47 106.941 702.165 106.941 704.259C106.941 706.354 105.646 708.048 103.289 708.048C100.933 708.048 99.6378 706.354 99.6378 704.259ZM108.254 699.987V699.436H113.559V699.987H108.254ZM114.248 700.676V707.842H112.388V706.671H112.319C112.319 706.671 111.699 708.048 110.115 708.048C108.116 708.048 107.565 706.739 107.565 705.086V700.676H109.494V704.673C109.494 705.913 109.839 706.464 110.735 706.464C111.768 706.464 112.319 705.844 112.319 704.397V700.676H114.248ZM124.657 700.676V707.842H122.728V705.224H121.35L120.207 707.842H118.043L119.504 704.879C118.677 704.493 118.25 703.818 118.25 702.95C118.25 701.572 119.352 700.676 121.35 700.676H124.657ZM121.626 703.846H122.728V702.054H121.626C120.592 702.054 120.179 702.33 120.179 702.95C120.179 703.57 120.592 703.846 121.626 703.846ZM125.341 710.322V700.676H127.202V701.641H127.271C127.271 701.641 127.891 700.47 129.475 700.47C131.542 700.47 132.576 702.261 132.576 704.259C132.576 706.257 131.542 708.048 129.475 708.048C127.96 708.048 127.339 707.084 127.339 707.084H127.271V710.322H125.341ZM127.202 704.259C127.202 705.554 127.753 706.602 128.924 706.602C130.095 706.602 130.647 705.554 130.647 704.259C130.647 702.964 130.095 701.917 128.924 701.917C127.753 701.917 127.202 702.964 127.202 704.259ZM133.2 707.842V700.676H135.129V703.57L137.678 700.676H139.952L137.251 703.474L140.09 707.842H137.734L135.915 704.852L135.129 705.665V707.842H133.2ZM147.055 700.676V707.842H145.195V706.671H145.126C145.126 706.671 144.506 708.048 142.922 708.048C140.924 708.048 140.372 706.739 140.372 705.086V700.676H142.302V704.673C142.302 705.913 142.646 706.464 143.542 706.464C144.575 706.464 145.126 705.844 145.126 704.397V700.676H147.055ZM148.436 699.987V699.436H153.741V699.987H148.436ZM154.43 700.676V707.842H152.569V706.671H152.501C152.501 706.671 151.88 708.048 150.296 708.048C148.298 708.048 147.747 706.739 147.747 705.086V700.676H149.676V704.673C149.676 705.913 150.02 706.464 150.916 706.464C151.949 706.464 152.501 705.844 152.501 704.397V700.676H154.43ZM160.36 704.466V703.915H163.378C163.295 702.785 162.854 701.917 161.738 701.917C160.36 701.917 160.291 703.295 160.291 703.295H158.362C158.362 703.295 158.569 700.47 161.738 700.47C164.081 700.47 165.321 702.165 165.321 704.259C165.321 706.354 164.081 708.048 161.738 708.048C158.569 708.048 158.362 705.224 158.362 705.224H160.291C160.291 705.224 160.36 706.602 161.738 706.602C162.896 706.602 163.35 705.665 163.392 704.466H160.36ZM165.249 707.842L167.826 700.676H170.003L172.579 707.842H170.513L168.859 702.757L167.205 707.842H165.249ZM172.505 704.259C172.505 702.165 173.731 700.47 176.088 700.47C178.444 700.47 179.533 702.165 179.533 704.259C179.533 704.424 179.519 704.673 179.519 704.673H174.448C174.531 705.775 174.999 706.602 176.157 706.602C177.328 706.602 177.535 705.499 177.535 705.499H179.464C179.464 705.499 179.05 708.048 176.088 708.048C173.676 708.048 172.505 706.354 172.505 704.259ZM176.088 701.917C175.137 701.917 174.668 702.55 174.503 703.432H177.548C177.424 702.55 177.039 701.917 176.088 701.917ZM188.831 700.676V707.842H187.04V702.812H186.971L185.386 707.842H183.595L182.01 702.812H181.941V707.842H180.15V700.676H183.044L184.491 705.637L185.937 700.676H188.831ZM189.447 704.259C189.447 702.165 190.673 700.47 193.03 700.47C195.386 700.47 196.474 702.165 196.474 704.259C196.474 704.424 196.461 704.673 196.461 704.673H191.39C191.473 705.775 191.941 706.602 193.098 706.602C194.27 706.602 194.476 705.499 194.476 705.499H196.406C196.406 705.499 195.992 708.048 193.03 708.048C190.618 708.048 189.447 706.354 189.447 704.259ZM193.03 701.917C192.079 701.917 191.61 702.55 191.445 703.432H194.49C194.366 702.55 193.98 701.917 193.03 701.917ZM201.708 707.842V705.017H199.021V707.842H197.092V700.676H199.021V703.501H201.708V700.676H203.637V707.842H201.708ZM208.534 707.842V703.846C208.534 702.606 208.286 702.054 207.528 702.054C206.702 702.054 206.261 702.674 206.261 704.121V707.842H204.332V700.676H206.192V701.848H206.261C206.261 701.848 206.743 700.47 208.19 700.47C209.347 700.47 209.967 701.021 210.243 701.861L210.257 701.848H210.326C210.326 701.848 210.946 700.47 212.393 700.47C214.184 700.47 214.666 701.779 214.666 703.432V707.842H212.737V703.846C212.737 702.606 212.489 702.054 211.731 702.054C210.904 702.054 210.463 702.674 210.463 704.121V707.842H208.534ZM29.5393 713.676V720.842H27.679V719.671H27.6101C27.6101 719.671 26.9901 721.048 25.4054 721.048C23.4074 721.048 22.8562 719.739 22.8562 718.086V713.676H24.7853V717.673C24.7853 718.913 25.1298 719.464 26.0255 719.464C27.059 719.464 27.6101 718.844 27.6101 717.397V713.676H29.5393ZM30.2304 715.192V713.676H36.8446V715.192L34.5021 717.397C34.5021 717.397 37.1202 717.466 37.1202 720.36C37.1202 721.944 36.0178 723.529 33.6753 723.529C30.9883 723.529 30.0237 721.944 30.0237 720.291H31.9528C31.9528 721.255 32.4351 722.082 33.6753 722.082C34.6261 722.082 35.191 721.393 35.191 720.428C35.191 719.395 34.7088 718.637 32.7796 718.637H32.2284V717.535L34.6399 715.192H30.2304ZM40.9149 720.842V713.676H42.7752V714.848H42.8441C42.8441 714.848 43.4641 713.47 45.0488 713.47C47.0468 713.47 47.598 714.779 47.598 716.432V720.842H45.6689V716.846C45.6689 715.606 45.3244 715.054 44.4287 715.054C43.3952 715.054 42.8441 715.674 42.8441 717.121V720.842H40.9149ZM48.2202 717.259C48.2202 715.165 49.4466 713.47 51.8029 713.47C54.1592 713.47 55.2478 715.165 55.2478 717.259C55.2478 717.424 55.234 717.673 55.234 717.673H50.1631C50.2458 718.775 50.7143 719.602 51.8718 719.602C53.0431 719.602 53.2498 718.499 53.2498 718.499H55.1789C55.1789 718.499 54.7655 721.048 51.8029 721.048C49.3915 721.048 48.2202 719.354 48.2202 717.259ZM51.8029 714.917C50.8521 714.917 50.3836 715.55 50.2183 716.432H53.2635C53.1395 715.55 52.7537 714.917 51.8029 714.917ZM55.8652 723.322V713.676H57.7254V714.641H57.7943C57.7943 714.641 58.4144 713.47 59.999 713.47C62.066 713.47 63.0994 715.261 63.0994 717.259C63.0994 719.257 62.066 721.048 59.999 721.048C58.4833 721.048 57.8632 720.084 57.8632 720.084H57.7943V723.322H55.8652ZM57.7254 717.259C57.7254 718.554 58.2766 719.602 59.4478 719.602C60.6191 719.602 61.1703 718.554 61.1703 717.259C61.1703 715.964 60.6191 714.917 59.4478 714.917C58.2766 714.917 57.7254 715.964 57.7254 717.259ZM63.6549 717.259C63.6549 715.165 64.8813 713.47 67.2376 713.47C69.5939 713.47 70.6825 715.165 70.6825 717.259C70.6825 717.424 70.6687 717.673 70.6687 717.673H65.5978C65.6805 718.775 66.149 719.602 67.3065 719.602C68.4777 719.602 68.6844 718.499 68.6844 718.499H70.6136C70.6136 718.499 70.2002 721.048 67.2376 721.048C64.8262 721.048 63.6549 719.354 63.6549 717.259ZM67.2376 714.917C66.2868 714.917 65.8183 715.55 65.6529 716.432H68.6982C68.5742 715.55 68.1884 714.917 67.2376 714.917ZM71.2999 723.322V713.676H73.1601V714.641H73.229C73.229 714.641 73.8491 713.47 75.4337 713.47C77.5006 713.47 78.5341 715.261 78.5341 717.259C78.5341 719.257 77.5006 721.048 75.4337 721.048C73.918 721.048 73.2979 720.084 73.2979 720.084H73.229V723.322H71.2999ZM73.1601 717.259C73.1601 718.554 73.7113 719.602 74.8825 719.602C76.0538 719.602 76.605 718.554 76.605 717.259C76.605 715.964 76.0538 714.917 74.8825 714.917C73.7113 714.917 73.1601 715.964 73.1601 717.259ZM81.0892 715.881H79.1601C79.2703 714.048 80.7448 713.47 82.3983 713.47C84.1207 713.47 85.4987 714.09 85.4987 715.95V720.842H83.5696V719.464H83.5007C83.5007 719.464 83.0597 721.048 81.227 721.048C79.918 721.048 78.9534 720.442 78.9534 719.119C78.9534 717.783 80.0558 717.176 81.2408 716.873C82.4396 716.57 83.5696 716.474 83.5696 715.674C83.5696 715.11 83.1562 714.779 82.3983 714.779C81.5715 714.779 81.1168 715.11 81.0892 715.881ZM83.5696 717.232C83.2526 717.521 82.605 717.673 82.0538 717.81C81.4337 717.962 80.9101 718.279 80.9101 718.913C80.9101 719.464 81.2959 719.808 81.916 719.808C83.2251 719.808 83.5696 718.293 83.5696 717.232ZM88.112 717.466C88.112 718.623 88.608 719.602 89.8344 719.602C91.0608 719.602 91.5568 718.623 91.5568 717.466C91.5568 716.308 91.0608 715.33 89.8344 715.33C88.608 715.33 88.112 716.308 88.112 717.466ZM89.8344 721.048C87.9053 721.048 86.1139 719.946 86.1139 716.501C86.1139 711.885 88.3049 711.196 90.3029 711.196H92.9348V712.781H90.1375C88.5805 712.781 88.0017 713.47 87.7675 714.985H87.8364C87.8364 714.985 88.4564 713.883 90.11 713.883C92.2458 713.883 93.486 715.468 93.486 717.466C93.486 719.395 92.2458 721.048 89.8344 721.048ZM95.969 717.259C95.969 718.554 96.465 719.602 97.6914 719.602C98.9178 719.602 99.4139 718.554 99.4139 717.259C99.4139 715.964 98.9178 714.917 97.6914 714.917C96.465 714.917 95.969 715.964 95.969 717.259ZM94.0398 717.259C94.0398 715.165 95.3351 713.47 97.6914 713.47C100.048 713.47 101.343 715.165 101.343 717.259C101.343 719.354 100.048 721.048 97.6914 721.048C95.3351 721.048 94.0398 719.354 94.0398 717.259ZM106.17 720.842V716.846C106.17 715.606 105.922 715.054 105.164 715.054C104.337 715.054 103.897 715.674 103.897 717.121V720.842H101.967V713.676H103.828V714.848H103.897C103.897 714.848 104.379 713.47 105.826 713.47C106.983 713.47 107.603 714.021 107.879 714.861L107.893 714.848H107.961C107.961 714.848 108.582 713.47 110.028 713.47C111.82 713.47 112.302 714.779 112.302 716.432V720.842H110.373V716.846C110.373 715.606 110.125 715.054 109.367 715.054C108.54 715.054 108.099 715.674 108.099 717.121V720.842H106.17ZM114.986 715.881H113.057C113.167 714.048 114.642 713.47 116.295 713.47C118.018 713.47 119.396 714.09 119.396 715.95V720.842H117.467V719.464H117.398C117.398 719.464 116.957 721.048 115.124 721.048C113.815 721.048 112.851 720.442 112.851 719.119C112.851 717.783 113.953 717.176 115.138 716.873C116.337 716.57 117.467 716.474 117.467 715.674C117.467 715.11 117.053 714.779 116.295 714.779C115.469 714.779 115.014 715.11 114.986 715.881ZM117.467 717.232C117.15 717.521 116.502 717.673 115.951 717.81C115.331 717.962 114.807 718.279 114.807 718.913C114.807 719.464 115.193 719.808 115.813 719.808C117.122 719.808 117.467 718.293 117.467 717.232ZM124.696 720.842V718.017H122.009V720.842H120.08V713.676H122.009V716.501H124.696V713.676H126.625V720.842H124.696ZM131.936 720.842V718.017H129.249V720.842H127.32V713.676H129.249V716.501H131.936V713.676H133.865V720.842H131.936ZM134.559 720.842V713.676H136.488V716.295H137.315C139.313 716.295 140.415 717.19 140.415 718.568C140.415 719.946 139.313 720.842 137.315 720.842H134.559ZM137.04 717.673H136.488V719.464H137.04C138.073 719.464 138.486 719.188 138.486 718.568C138.486 717.948 138.073 717.673 137.04 717.673ZM142.896 713.676V720.842H140.967V713.676H142.896ZM145.862 713.676L147.171 715.743L148.48 713.676H150.754L148.274 717.121L150.961 720.842H148.687L147.171 718.499L145.655 720.842H143.382L146.069 717.121L143.589 713.676H145.862ZM163.439 713.676V720.842H161.647V715.812H161.578L159.994 720.842H158.202L156.618 715.812H156.549V720.842H154.757V713.676H157.651L159.098 718.637L160.545 713.676H163.439ZM166.121 715.881H164.192C164.302 714.048 165.777 713.47 167.43 713.47C169.153 713.47 170.531 714.09 170.531 715.95V720.842H168.602V719.464H168.533C168.533 719.464 168.092 721.048 166.259 721.048C164.95 721.048 163.985 720.442 163.985 719.119C163.985 717.783 165.088 717.176 166.273 716.873C167.472 716.57 168.602 716.474 168.602 715.674C168.602 715.11 168.188 714.779 167.43 714.779C166.604 714.779 166.149 715.11 166.121 715.881ZM168.602 717.232C168.285 717.521 167.637 717.673 167.086 717.81C166.466 717.962 165.942 718.279 165.942 718.913C165.942 719.464 166.328 719.808 166.948 719.808C168.257 719.808 168.602 718.293 168.602 717.232ZM175.418 720.842V716.846C175.418 715.606 175.17 715.054 174.412 715.054C173.585 715.054 173.144 715.674 173.144 717.121V720.842H171.215V713.676H173.075V714.848H173.144C173.144 714.848 173.626 713.47 175.073 713.47C176.231 713.47 176.851 714.021 177.126 714.861L177.14 714.848H177.209C177.209 714.848 177.829 713.47 179.276 713.47C181.067 713.47 181.55 714.779 181.55 716.432V720.842H179.62V716.846C179.62 715.606 179.372 715.054 178.614 715.054C177.788 715.054 177.347 715.674 177.347 717.121V720.842H175.418ZM182.167 717.259C182.167 715.165 183.393 713.47 185.75 713.47C188.106 713.47 189.194 715.165 189.194 717.259C189.194 717.424 189.181 717.673 189.181 717.673H184.11C184.193 718.775 184.661 719.602 185.818 719.602C186.99 719.602 187.196 718.499 187.196 718.499H189.126C189.126 718.499 188.712 721.048 185.75 721.048C183.338 721.048 182.167 719.354 182.167 717.259ZM185.75 714.917C184.799 714.917 184.33 715.55 184.165 716.432H187.21C187.086 715.55 186.7 714.917 185.75 714.917ZM189.812 723.322V713.676H191.672V714.641H191.741C191.741 714.641 192.361 713.47 193.946 713.47C196.013 713.47 197.046 715.261 197.046 717.259C197.046 719.257 196.013 721.048 193.946 721.048C192.43 721.048 191.81 720.084 191.81 720.084H191.741V723.322H189.812ZM191.672 717.259C191.672 718.554 192.223 719.602 193.395 719.602C194.566 719.602 195.117 718.554 195.117 717.259C195.117 715.964 194.566 714.917 193.395 714.917C192.223 714.917 191.672 715.964 191.672 717.259ZM204.354 713.676V720.842H202.493V719.671H202.424C202.424 719.671 201.804 721.048 200.22 721.048C198.222 721.048 197.67 719.739 197.67 718.086V713.676H199.6V717.673C199.6 718.913 199.944 719.464 200.84 719.464C201.873 719.464 202.424 718.844 202.424 717.397V713.676H204.354ZM207.043 715.881H205.114C205.224 714.048 206.698 713.47 208.352 713.47C210.074 713.47 211.452 714.09 211.452 715.95V720.842H209.523V719.464H209.454C209.454 719.464 209.013 721.048 207.181 721.048C205.871 721.048 204.907 720.442 204.907 719.119C204.907 717.783 206.009 717.176 207.194 716.873C208.393 716.57 209.523 716.474 209.523 715.674C209.523 715.11 209.11 714.779 208.352 714.779C207.525 714.779 207.07 715.11 207.043 715.881ZM209.523 717.232C209.206 717.521 208.558 717.673 208.007 717.81C207.387 717.962 206.864 718.279 206.864 718.913C206.864 719.464 207.249 719.808 207.87 719.808C209.179 719.808 209.523 718.293 209.523 717.232ZM211.93 720.842L214.506 713.676H216.684L219.26 720.842H217.193L215.54 715.757L213.886 720.842H211.93ZM221.115 717.259C221.115 718.554 221.611 719.602 222.838 719.602C224.064 719.602 224.56 718.554 224.56 717.259C224.56 715.964 224.064 714.917 222.838 714.917C221.611 714.917 221.115 715.964 221.115 717.259ZM219.186 717.259C219.186 715.165 220.481 713.47 222.838 713.47C225.194 713.47 226.489 715.165 226.489 717.259C226.489 719.354 225.194 721.048 222.838 721.048C220.481 721.048 219.186 719.354 219.186 717.259ZM227.113 720.842V713.676H230.558C232.419 713.676 233.383 714.297 233.383 715.606C233.383 716.777 232.281 717.052 232.281 717.052V717.121C232.281 717.121 233.59 717.397 233.59 718.775C233.59 720.153 232.694 720.842 230.765 720.842H227.113ZM230.558 717.81H229.043V719.464H230.696C231.316 719.464 231.661 719.188 231.661 718.637C231.661 718.086 231.247 717.81 230.558 717.81ZM229.043 716.57H230.421C231.11 716.57 231.454 716.295 231.454 715.812C231.454 715.33 231.178 715.054 230.558 715.054H229.043V716.57ZM234.207 719.877C234.207 719.271 234.703 718.775 235.309 718.775C235.915 718.775 236.411 719.271 236.411 719.877C236.411 720.484 235.915 720.98 235.309 720.98C234.703 720.98 234.207 720.484 234.207 719.877ZM31.5373 726.676V733.842H29.746V728.812H29.6771L28.0924 733.842H26.3011L24.7164 728.812H24.6475V733.842H22.8562V726.676H25.7499L27.1968 731.637L28.6436 726.676H31.5373ZM39.3184 726.676L36.7692 734.048C36.2043 735.688 35.4602 736.529 34.0133 736.529C33.3243 736.529 32.7732 736.322 32.7732 736.322V734.737C32.7732 734.737 33.1865 734.875 33.6688 734.875C34.3578 734.875 34.6334 734.503 34.909 733.842L32.0153 726.676H34.0822L35.8322 731.403L37.2515 726.676H39.3184ZM39.6635 728.192V726.676H46.2776V728.192L43.9351 730.397C43.9351 730.397 46.5532 730.466 46.5532 733.36C46.5532 734.944 45.4509 736.529 43.1083 736.529C40.4213 736.529 39.4568 734.944 39.4568 733.291H41.3859C41.3859 734.255 41.8682 735.082 43.1083 735.082C44.0591 735.082 44.6241 734.393 44.6241 733.428C44.6241 732.395 44.1418 731.637 42.2127 731.637H41.6615V730.535L44.0729 728.192H39.6635ZM47.0377 733.842V726.676H48.9668V729.295H49.7936C51.7916 729.295 52.894 730.19 52.894 731.568C52.894 732.946 51.7916 733.842 49.7936 733.842H47.0377ZM49.518 730.673H48.9668V732.464H49.518C50.5514 732.464 50.9648 732.188 50.9648 731.568C50.9648 730.948 50.5514 730.673 49.518 730.673ZM55.3743 726.676V733.842H53.4451V726.676H55.3743ZM56.067 733.842V726.676H57.9962V729.57L60.5454 726.676H62.819L60.1182 729.474L62.9568 733.842H60.6005L58.7816 730.852L57.9962 731.665V733.842H56.067ZM65.0894 728.881H63.1602C63.2705 727.048 64.7449 726.47 66.3984 726.47C68.1209 726.47 69.4988 727.09 69.4988 728.95V733.842H67.5697V732.464H67.5008C67.5008 732.464 67.0599 734.048 65.2272 734.048C63.9181 734.048 62.9536 733.442 62.9536 732.119C62.9536 730.783 64.0559 730.176 65.241 729.873C66.4398 729.57 67.5697 729.474 67.5697 728.674C67.5697 728.11 67.1563 727.779 66.3984 727.779C65.5717 727.779 65.1169 728.11 65.0894 728.881ZM67.5697 730.232C67.2528 730.521 66.6051 730.673 66.0539 730.81C65.4339 730.962 64.9102 731.279 64.9102 731.913C64.9102 732.464 65.2961 732.808 65.9162 732.808C67.2252 732.808 67.5697 731.293 67.5697 730.232ZM70.2519 732.877C70.2519 732.271 70.7479 731.775 71.3542 731.775C71.9605 731.775 72.4566 732.271 72.4566 732.877C72.4566 733.484 71.9605 733.98 71.3542 733.98C70.7479 733.98 70.2519 733.484 70.2519 732.877ZM77.4134 733.842V729.846C77.4134 728.606 77.1654 728.054 76.4075 728.054C75.5808 728.054 75.1398 728.674 75.1398 730.121V733.842H73.2107V726.676H75.0709V727.848H75.1398C75.1398 727.848 75.6221 726.47 77.069 726.47C78.2264 726.47 78.8465 727.021 79.1221 727.861L79.1359 727.848H79.2048C79.2048 727.848 79.8249 726.47 81.2717 726.47C83.063 726.47 83.5453 727.779 83.5453 729.432V733.842H81.6162V729.846C81.6162 728.606 81.3682 728.054 80.6103 728.054C79.7835 728.054 79.3426 728.674 79.3426 730.121V733.842H77.4134ZM86.2297 728.881H84.3005C84.4108 727.048 85.8852 726.47 87.5387 726.47C89.2611 726.47 90.6391 727.09 90.6391 728.95V733.842H88.71V732.464H88.6411C88.6411 732.464 88.2001 734.048 86.3674 734.048C85.0584 734.048 84.0938 733.442 84.0938 732.119C84.0938 730.783 85.1962 730.176 86.3812 729.873C87.58 729.57 88.71 729.474 88.71 728.674C88.71 728.11 88.2966 727.779 87.5387 727.779C86.7119 727.779 86.2572 728.11 86.2297 728.881ZM88.71 730.232C88.393 730.521 87.7454 730.673 87.1942 730.81C86.5741 730.962 86.0505 731.279 86.0505 731.913C86.0505 732.464 86.4363 732.808 87.0564 732.808C88.3655 732.808 88.71 731.293 88.71 730.232ZM95.9394 733.842V731.017H93.2524V733.842H91.3232V726.676H93.2524V729.501H95.9394V726.676H97.8685V733.842H95.9394ZM106.211 731.361V735.633H105.659V731.361H106.211ZM105.246 726.676V733.842H103.386V732.671H103.317C103.317 732.671 102.697 734.048 101.112 734.048C99.114 734.048 98.5629 732.739 98.5629 731.086V726.676H100.492V730.673C100.492 731.913 100.836 732.464 101.732 732.464C102.766 732.464 103.317 731.844 103.317 730.397V726.676H105.246ZM106.691 733.842V726.676H108.62V729.295H109.447C111.445 729.295 112.547 730.19 112.547 731.568C112.547 732.946 111.445 733.842 109.447 733.842H106.691ZM109.171 730.673H108.62V732.464H109.171C110.204 732.464 110.618 732.188 110.618 731.568C110.618 730.948 110.204 730.673 109.171 730.673ZM115.027 726.676V733.842H113.098V726.676H115.027ZM115.789 732.877C115.789 732.271 116.285 731.775 116.891 731.775C117.498 731.775 117.994 732.271 117.994 732.877C117.994 733.484 117.498 733.98 116.891 733.98C116.285 733.98 115.789 733.484 115.789 732.877ZM118.748 733.842V726.676H120.677V729.57L123.226 726.676H125.5L122.799 729.474L125.637 733.842H123.281L121.462 730.852L120.677 731.665V733.842H118.748ZM127.296 730.259C127.296 731.554 127.792 732.602 129.018 732.602C130.245 732.602 130.741 731.554 130.741 730.259C130.741 728.964 130.245 727.917 129.018 727.917C127.792 727.917 127.296 728.964 127.296 730.259ZM125.367 730.259C125.367 728.165 126.662 726.47 129.018 726.47C131.375 726.47 132.67 728.165 132.67 730.259C132.67 732.354 131.375 734.048 129.018 734.048C126.662 734.048 125.367 732.354 125.367 730.259ZM133.294 733.842V726.676H135.223V729.57L137.773 726.676H140.046L137.345 729.474L140.184 733.842H137.828L136.009 730.852L135.223 731.665V733.842H133.294ZM144.939 733.842V729.846C144.939 728.606 144.69 728.054 143.933 728.054C143.106 728.054 142.665 728.674 142.665 730.121V733.842H140.736V726.676H142.596V727.848H142.665C142.665 727.848 143.147 726.47 144.594 726.47C145.752 726.47 146.372 727.021 146.647 727.861L146.661 727.848H146.73C146.73 727.848 147.35 726.47 148.797 726.47C150.588 726.47 151.07 727.779 151.07 729.432V733.842H149.141V729.846C149.141 728.606 148.893 728.054 148.135 728.054C147.309 728.054 146.868 728.674 146.868 730.121V733.842H144.939ZM151.688 730.259C151.688 728.165 152.914 726.47 155.27 726.47C157.627 726.47 158.715 728.165 158.715 730.259C158.715 730.424 158.702 730.673 158.702 730.673H153.631C153.713 731.775 154.182 732.602 155.339 732.602C156.511 732.602 156.717 731.499 156.717 731.499H158.646C158.646 731.499 158.233 734.048 155.27 734.048C152.859 734.048 151.688 732.354 151.688 730.259ZM155.27 727.917C154.32 727.917 153.851 728.55 153.686 729.432H156.731C156.607 728.55 156.221 727.917 155.27 727.917ZM160.022 725.987V725.436H165.327V725.987H160.022ZM166.016 726.676V733.842H164.156V732.671H164.087C164.087 732.671 163.467 734.048 161.882 734.048C159.884 734.048 159.333 732.739 159.333 731.086V726.676H161.262V730.673C161.262 731.913 161.606 732.464 162.502 732.464C163.535 732.464 164.087 731.844 164.087 730.397V726.676H166.016ZM166.5 733.842L169.077 726.676H171.254L173.831 733.842H171.764L170.11 728.757L168.457 733.842H166.5ZM180.791 726.676V733.842H178.931V732.671H178.862C178.862 732.671 178.242 734.048 176.657 734.048C174.659 734.048 174.108 732.739 174.108 731.086V726.676H176.037V730.673C176.037 731.913 176.382 732.464 177.277 732.464C178.311 732.464 178.862 731.844 178.862 730.397V726.676H180.791ZM181.551 732.877C181.551 732.271 182.047 731.775 182.654 731.775C183.26 731.775 183.756 732.271 183.756 732.877C183.756 733.484 183.26 733.98 182.654 733.98C182.047 733.98 181.551 733.484 181.551 732.877ZM22.8562 747.842V740.676H26.3011C28.1613 740.676 29.1259 741.297 29.1259 742.606C29.1259 743.777 28.0235 744.052 28.0235 744.052V744.121C28.0235 744.121 29.3326 744.397 29.3326 745.775C29.3326 747.153 28.4369 747.842 26.5078 747.842H22.8562ZM26.3011 744.81H24.7853V746.464H26.4389C27.059 746.464 27.4035 746.188 27.4035 745.637C27.4035 745.086 26.9901 744.81 26.3011 744.81ZM24.7853 743.57H26.1633C26.8523 743.57 27.1968 743.295 27.1968 742.812C27.1968 742.33 26.9212 742.054 26.3011 742.054H24.7853V743.57ZM29.7444 744.259C29.7444 742.165 30.9707 740.47 33.327 740.47C35.6833 740.47 36.7719 742.165 36.7719 744.259C36.7719 744.424 36.7581 744.673 36.7581 744.673H31.6873C31.7699 745.775 32.2385 746.602 33.3959 746.602C34.5672 746.602 34.7739 745.499 34.7739 745.499H36.703C36.703 745.499 36.2896 748.048 33.327 748.048C30.9156 748.048 29.7444 746.354 29.7444 744.259ZM33.327 741.917C32.3762 741.917 31.9077 742.55 31.7424 743.432H34.7877C34.6636 742.55 34.2778 741.917 33.327 741.917ZM37.3204 744.259C37.3204 742.165 38.5606 740.47 40.9031 740.47C44.0724 740.47 44.2791 743.295 44.2791 743.295H42.3499C42.3499 743.295 42.281 741.917 40.9031 741.917C39.6767 741.917 39.2495 742.964 39.2495 744.259C39.2495 745.554 39.6767 746.602 40.9031 746.602C42.281 746.602 42.3499 745.224 42.3499 745.224H44.2791C44.2791 745.224 44.0724 748.048 40.9031 748.048C38.5606 748.048 37.3204 746.354 37.3204 744.259ZM44.8292 744.259C44.8292 742.165 46.0555 740.47 48.4118 740.47C50.7681 740.47 51.8567 742.165 51.8567 744.259C51.8567 744.424 51.8429 744.673 51.8429 744.673H46.7721C46.8548 745.775 47.3233 746.602 48.4807 746.602C49.652 746.602 49.8587 745.499 49.8587 745.499H51.7878C51.7878 745.499 51.3744 748.048 48.4118 748.048C46.0004 748.048 44.8292 746.354 44.8292 744.259ZM48.4118 741.917C47.4611 741.917 46.9926 742.55 46.8272 743.432H49.8725C49.7485 742.55 49.3626 741.917 48.4118 741.917ZM51.783 747.842L54.3598 740.676H56.5369L59.1137 747.842H57.0468L55.3932 742.757L53.7397 747.842H51.783ZM59.5926 747.842V740.676H61.5218V743.295H62.693C64.6911 743.295 65.7934 744.19 65.7934 745.568C65.7934 746.946 64.6911 747.842 62.693 747.842H59.5926ZM62.4174 744.673H61.5218V746.464H62.4174C63.4509 746.464 63.8643 746.188 63.8643 745.568C63.8643 744.948 63.4509 744.673 62.4174 744.673ZM66.2789 744.259C66.2789 742.165 67.5053 740.47 69.8616 740.47C72.2179 740.47 73.3065 742.165 73.3065 744.259C73.3065 744.424 73.2927 744.673 73.2927 744.673H68.2219C68.3045 745.775 68.773 746.602 69.9305 746.602C71.1018 746.602 71.3085 745.499 71.3085 745.499H73.2376C73.2376 745.499 72.8242 748.048 69.8616 748.048C67.4502 748.048 66.2789 746.354 66.2789 744.259ZM69.8616 741.917C68.9108 741.917 68.4423 742.55 68.277 743.432H71.3222C71.1982 742.55 70.8124 741.917 69.8616 741.917ZM73.9928 746.877C73.9928 746.271 74.4888 745.775 75.0951 745.775C75.7014 745.775 76.1975 746.271 76.1975 746.877C76.1975 747.484 75.7014 747.98 75.0951 747.98C74.4888 747.98 73.9928 747.484 73.9928 746.877ZM76.0597 738.196V745.086H74.1306V738.196H76.0597Z" fill="white"/>
<path d="M44.559 88.7785V93.6289H23.3936V91.6447C23.3936 81.062 38.3857 82.8258 38.3857 77.9754C38.3857 75.7706 36.622 74.6683 33.9763 74.6683C31.3306 74.6683 29.5668 76.2116 29.5668 79.0777V79.7391H23.3936V79.0777C23.3936 73.3454 27.8031 70.0384 34.1968 70.0384C40.1495 70.0384 44.559 72.9045 44.559 77.9754C44.559 85.9124 33.0944 85.251 30.4487 88.7785H44.559ZM57.1052 70.6998V93.6289H50.932V78.6368H45.8611V75.5502C52.2548 75.5502 53.3572 70.6998 53.3572 70.6998H57.1052ZM60.1884 90.5423C60.1884 88.6021 61.7758 87.0147 63.7159 87.0147C65.6561 87.0147 67.2435 88.6021 67.2435 90.5423C67.2435 92.4824 65.6561 94.0699 63.7159 94.0699C61.7758 94.0699 60.1884 92.4824 60.1884 90.5423ZM60.1884 74.2273C60.1884 72.2872 61.7758 70.6998 63.7159 70.6998C65.6561 70.6998 67.2435 72.2872 67.2435 74.2273C67.2435 76.1675 65.6561 77.7549 63.7159 77.7549C61.7758 77.7549 60.1884 76.1675 60.1884 74.2273ZM76.0727 82.1643C76.0727 86.3092 77.6601 89.6604 81.5846 89.6604C85.509 89.6604 87.0964 86.3092 87.0964 82.1643C87.0964 78.0195 85.509 74.6683 81.5846 74.6683C77.6601 74.6683 76.0727 78.0195 76.0727 82.1643ZM69.8995 82.1643C69.8995 75.462 74.0444 70.0384 81.5846 70.0384C89.1247 70.0384 93.2696 75.462 93.2696 82.1643C93.2696 88.8667 89.1247 94.2903 81.5846 94.2903C74.0444 94.2903 69.8995 88.8667 69.8995 82.1643ZM101.22 82.1643C101.22 86.3092 102.808 89.6604 106.732 89.6604C110.657 89.6604 112.244 86.3092 112.244 82.1643C112.244 78.0195 110.657 74.6683 106.732 74.6683C102.808 74.6683 101.22 78.0195 101.22 82.1643ZM95.0472 82.1643C95.0472 75.462 99.192 70.0384 106.732 70.0384C114.272 70.0384 118.417 75.462 118.417 82.1643C118.417 88.8667 114.272 94.2903 106.732 94.2903C99.192 94.2903 95.0472 88.8667 95.0472 82.1643Z" fill="white"/>
</g>
<defs>
<clipPath id="clip0_879_97">
<rect width="541.535" height="766.142" fill="white" transform="translate(0.464844)"/>
</clipPath>
</defs>
</svg>
