<svg width="542" height="767" viewBox="0 0 542 767" fill="none" xmlns="http://www.w3.org/2000/svg">
<g clip-path="url(#clip0_879_36)">
<rect width="541.535" height="766.142" fill="black"/>
<path d="M931.597 584.968C950.285 581.178 968.897 577.015 987.671 573.653C1040.26 564.325 1066.76 518.759 1062.31 468.297C1059.65 438.43 1047.68 412.339 1025.08 391.852C1009.01 377.321 989.891 371.859 968.516 373.636C917.466 377.928 866.362 381.953 815.346 386.961C806.897 387.785 799.104 394.312 790.528 395.885C628.961 425.643 467.069 453.8 305.816 485.108C242.702 497.349 180.771 515.966 118.556 532.639C84.2834 541.812 67.2558 567.222 62.6226 600.848C57.8849 635.329 69.018 663.368 100.564 681.32C117.899 691.146 136.977 693.392 155.914 691.109C259.478 678.504 363.183 666.592 466.42 651.552C588.55 633.736 710.234 612.898 832.147 593.737C837.103 592.955 842.603 596.231 847.959 597.146C852.63 597.978 857.602 599.193 862.055 598.401C885.25 594.087 908.327 589.186 931.5 584.487C931.532 584.647 931.554 584.754 931.586 584.914L931.597 584.968ZM193.149 541.918C199.222 539.797 202.424 538.314 205.766 537.525C254.253 525.803 302.393 512.095 351.39 502.883C502.084 474.606 653.103 447.931 804.026 421.053C809.013 420.153 815.931 421.919 819.903 425.061C841.596 442.397 865.714 447.569 892.56 442.07C912.102 438.107 931.611 433.707 951.305 430.492C973.412 426.843 992.741 439.1 997.335 459.014C1001.45 476.857 997.64 493.418 986.61 507.829C970.266 529.209 945.016 528.603 930.523 506.471C924.086 496.659 919.228 485.859 913.473 475.574C903.081 456.947 886.7 456.21 876.845 475.052C864.854 497.885 851.666 520.849 844.915 545.398C840.216 562.527 831.011 564.283 817.992 566.422C730.706 580.897 643.636 596.44 556.23 610.049C452.227 626.246 348.017 640.872 243.883 655.872C227.136 658.268 210.096 658.943 189.618 660.761C227.956 621.19 234.82 582.665 193.149 541.918ZM145.19 651.925C112.838 656.317 91.3383 639.386 91.8003 608.218C92.0346 591.827 99.895 578.504 111.823 567.969C131.959 550.212 162.877 553.281 181.246 574.238C196.925 592.072 194.424 615.648 173.403 634.253C165.206 641.529 154.63 646.12 145.19 651.925Z" fill="#00FF0A"/>
<path d="M18.2586 150.551V143.385H21.7034C23.5637 143.385 24.5282 144.006 24.5282 145.315C24.5282 146.486 23.4259 146.761 23.4259 146.761V146.83C23.4259 146.83 24.7349 147.106 24.7349 148.484C24.7349 149.862 23.8393 150.551 21.9101 150.551H18.2586ZM21.7034 147.519H20.1877V149.173H21.8412C22.4613 149.173 22.8058 148.897 22.8058 148.346C22.8058 147.795 22.3924 147.519 21.7034 147.519ZM20.1877 146.279H21.5656C22.2546 146.279 22.5991 146.004 22.5991 145.521C22.5991 145.039 22.3235 144.763 21.7034 144.763H20.1877V146.279ZM25.1467 146.968C25.1467 144.874 26.3731 143.179 28.7294 143.179C31.0857 143.179 32.1743 144.874 32.1743 146.968C32.1743 147.133 32.1605 147.381 32.1605 147.381H27.0896C27.1723 148.484 27.6408 149.311 28.7983 149.311C29.9695 149.311 30.1762 148.208 30.1762 148.208H32.1054C32.1054 148.208 31.692 150.757 28.7294 150.757C26.318 150.757 25.1467 149.063 25.1467 146.968ZM28.7294 144.626C27.7786 144.626 27.3101 145.259 27.1447 146.141H30.19C30.066 145.259 29.6802 144.626 28.7294 144.626ZM39.0613 143.385V150.551H37.1322V147.795H35.272C33.2739 147.795 32.7227 147.313 32.7227 145.728V143.385H34.6519V145.521C34.6519 146.417 34.9275 146.417 35.7542 146.417H37.1322V143.385H39.0613ZM39.6798 146.968C39.6798 144.874 40.9062 143.179 43.2625 143.179C45.6188 143.179 46.7074 144.874 46.7074 146.968C46.7074 147.133 46.6936 147.381 46.6936 147.381H41.6227C41.7054 148.484 42.1739 149.311 43.3314 149.311C44.5026 149.311 44.7093 148.208 44.7093 148.208H46.6385C46.6385 148.208 46.2251 150.757 43.2625 150.757C40.8511 150.757 39.6798 149.063 39.6798 146.968ZM43.2625 144.626C42.3117 144.626 41.8432 145.259 41.6778 146.141H44.7231C44.5991 145.259 44.2133 144.626 43.2625 144.626ZM47.3247 153.031V143.385H49.185V144.35H49.2539C49.2539 144.35 49.874 143.179 51.4586 143.179C53.5255 143.179 54.559 144.97 54.559 146.968C54.559 148.966 53.5255 150.757 51.4586 150.757C49.9428 150.757 49.3228 149.793 49.3228 149.793H49.2539V153.031H47.3247ZM49.185 146.968C49.185 148.263 49.7362 149.311 50.9074 149.311C52.0787 149.311 52.6299 148.263 52.6299 146.968C52.6299 145.673 52.0787 144.626 50.9074 144.626C49.7362 144.626 49.185 145.673 49.185 146.968ZM61.8664 143.385V150.551H60.0062V149.38H59.9373C59.9373 149.38 59.3172 150.757 57.7326 150.757C55.7346 150.757 55.1834 149.448 55.1834 147.795V143.385H57.1125V147.381C57.1125 148.622 57.457 149.173 58.3527 149.173C59.3861 149.173 59.9373 148.553 59.9373 147.106V143.385H61.8664ZM67.1737 150.551V147.726H64.4867V150.551H62.5576V143.385H64.4867V146.21H67.1737V143.385H69.1029V150.551H67.1737ZM69.7972 150.551V143.385H71.7263V146.279L74.2756 143.385H76.5492L73.8484 146.183L76.687 150.551H74.3307L72.5118 147.561L71.7263 148.374V150.551H69.7972ZM78.8196 145.59H76.8904C77.0007 143.757 78.4751 143.179 80.1286 143.179C81.8511 143.179 83.229 143.799 83.229 145.659V150.551H81.2999V149.173H81.231C81.231 149.173 80.79 150.757 78.9574 150.757C77.6483 150.757 76.6837 150.151 76.6837 148.828C76.6837 147.492 77.7861 146.885 78.9711 146.582C80.17 146.279 81.2999 146.183 81.2999 145.383C81.2999 144.818 80.8865 144.488 80.1286 144.488C79.3019 144.488 78.8471 144.818 78.8196 145.59ZM81.2999 146.941C80.983 147.23 80.3353 147.381 79.7841 147.519C79.1641 147.671 78.6404 147.988 78.6404 148.622C78.6404 149.173 79.0263 149.517 79.6463 149.517C80.9554 149.517 81.2999 148.002 81.2999 146.941ZM87.1546 146.968C87.1546 144.874 88.3947 143.179 90.7373 143.179C93.9065 143.179 94.1132 146.004 94.1132 146.004H92.1841C92.1841 146.004 92.1152 144.626 90.7373 144.626C89.5109 144.626 89.0837 145.673 89.0837 146.968C89.0837 148.263 89.5109 149.311 90.7373 149.311C92.1152 149.311 92.1841 147.933 92.1841 147.933H94.1132C94.1132 147.933 93.9065 150.757 90.7373 150.757C88.3947 150.757 87.1546 149.063 87.1546 146.968ZM105.208 143.385V149.724C105.208 151.791 104.106 153.238 101.625 153.238C98.3181 153.238 98.2492 150.757 98.2492 150.757H100.178C100.178 150.757 100.247 151.791 101.625 151.791C102.852 151.791 103.279 151.102 103.279 149.862V149.517H103.21C103.21 149.517 102.59 150.482 101.074 150.482C99.0071 150.482 97.9736 148.691 97.9736 146.83C97.9736 144.97 99.0071 143.179 101.074 143.179C102.659 143.179 103.279 144.35 103.279 144.35H103.348V143.385H105.208ZM103.348 146.83C103.348 145.673 102.796 144.626 101.625 144.626C100.454 144.626 99.9028 145.673 99.9028 146.83C99.9028 147.988 100.454 149.035 101.625 149.035C102.796 149.035 103.348 147.988 103.348 146.83ZM105.901 153.031V143.385H107.761V144.35H107.83C107.83 144.35 108.45 143.179 110.035 143.179C112.102 143.179 113.135 144.97 113.135 146.968C113.135 148.966 112.102 150.757 110.035 150.757C108.519 150.757 107.899 149.793 107.899 149.793H107.83V153.031H105.901ZM107.761 146.968C107.761 148.263 108.313 149.311 109.484 149.311C110.655 149.311 111.206 148.263 111.206 146.968C111.206 145.673 110.655 144.626 109.484 144.626C108.313 144.626 107.761 145.673 107.761 146.968ZM113.691 146.968C113.691 144.874 114.917 143.179 117.274 143.179C119.63 143.179 120.718 144.874 120.718 146.968C120.718 147.133 120.705 147.381 120.705 147.381H115.634C115.717 148.484 116.185 149.311 117.343 149.311C118.514 149.311 118.72 148.208 118.72 148.208H120.65C120.65 148.208 120.236 150.757 117.274 150.757C114.862 150.757 113.691 149.063 113.691 146.968ZM117.274 144.626C116.323 144.626 115.854 145.259 115.689 146.141H118.734C118.61 145.259 118.224 144.626 117.274 144.626ZM121.267 146.968C121.267 144.874 122.507 143.179 124.85 143.179C128.019 143.179 128.226 146.004 128.226 146.004H126.297C126.297 146.004 126.228 144.626 124.85 144.626C123.623 144.626 123.196 145.673 123.196 146.968C123.196 148.263 123.623 149.311 124.85 149.311C126.228 149.311 126.297 147.933 126.297 147.933H128.226C128.226 147.933 128.019 150.757 124.85 150.757C122.507 150.757 121.267 149.063 121.267 146.968ZM128.776 146.968C128.776 144.874 130.016 143.179 132.358 143.179C135.528 143.179 135.734 146.004 135.734 146.004H133.805C133.805 146.004 133.736 144.626 132.358 144.626C131.132 144.626 130.705 145.673 130.705 146.968C130.705 148.263 131.132 149.311 132.358 149.311C133.736 149.311 133.805 147.933 133.805 147.933H135.734C135.734 147.933 135.528 150.757 132.358 150.757C130.016 150.757 128.776 149.063 128.776 146.968ZM136.422 146.968V146.417H141.107V146.968H136.422ZM141.871 150.551V143.385H143.8V146.279L146.349 143.385H148.623L145.922 146.183L148.76 150.551H146.404L144.585 147.561L143.8 148.374V150.551H141.871ZM150.419 146.968C150.419 148.263 150.915 149.311 152.141 149.311C153.368 149.311 153.864 148.263 153.864 146.968C153.864 145.673 153.368 144.626 152.141 144.626C150.915 144.626 150.419 145.673 150.419 146.968ZM148.49 146.968C148.49 144.874 149.785 143.179 152.141 143.179C154.497 143.179 155.793 144.874 155.793 146.968C155.793 149.063 154.497 150.757 152.141 150.757C149.785 150.757 148.49 149.063 148.49 146.968ZM163.583 143.385V149.724C163.583 151.791 162.48 153.238 160 153.238C156.693 153.238 156.624 150.757 156.624 150.757H158.553C158.553 150.757 158.622 151.791 160 151.791C161.226 151.791 161.653 151.102 161.653 149.862V149.517H161.584C161.584 149.517 160.964 150.482 159.449 150.482C157.382 150.482 156.348 148.691 156.348 146.83C156.348 144.97 157.382 143.179 159.449 143.179C161.033 143.179 161.653 144.35 161.653 144.35H161.722V143.385H163.583ZM161.722 146.83C161.722 145.673 161.171 144.626 160 144.626C158.829 144.626 158.277 145.673 158.277 146.83C158.277 147.988 158.829 149.035 160 149.035C161.171 149.035 161.722 147.988 161.722 146.83ZM166.136 146.968C166.136 148.263 166.632 149.311 167.858 149.311C169.085 149.311 169.581 148.263 169.581 146.968C169.581 145.673 169.085 144.626 167.858 144.626C166.632 144.626 166.136 145.673 166.136 146.968ZM164.207 146.968C164.207 144.874 165.502 143.179 167.858 143.179C170.215 143.179 171.51 144.874 171.51 146.968C171.51 149.063 170.215 150.757 167.858 150.757C165.502 150.757 164.207 149.063 164.207 146.968ZM180.816 143.385V150.551H179.024V145.521H178.955L177.371 150.551H175.579L173.995 145.521H173.926V150.551H172.134V143.385H175.028L176.475 148.346L177.922 143.385H180.816ZM181.569 149.586C181.569 148.98 182.065 148.484 182.671 148.484C183.278 148.484 183.774 148.98 183.774 149.586C183.774 150.193 183.278 150.689 182.671 150.689C182.065 150.689 181.569 150.193 181.569 149.586ZM22.8747 163.551V160.726H20.1877V163.551H18.2586V156.385H20.1877V159.21H22.8747V156.385H24.8038V163.551H22.8747ZM27.4962 158.59H25.5671C25.6773 156.757 27.1517 156.179 28.8053 156.179C30.5277 156.179 31.9057 156.799 31.9057 158.659V163.551H29.9765V162.173H29.9076C29.9076 162.173 29.4667 163.757 27.634 163.757C26.325 163.757 25.3604 163.151 25.3604 161.828C25.3604 160.492 26.4628 159.885 27.6478 159.582C28.8466 159.279 29.9765 159.183 29.9765 158.383C29.9765 157.818 29.5631 157.488 28.8053 157.488C27.9785 157.488 27.5238 157.818 27.4962 158.59ZM29.9765 159.941C29.6596 160.23 29.012 160.381 28.4608 160.519C27.8407 160.671 27.3171 160.988 27.3171 161.622C27.3171 162.173 27.7029 162.517 28.323 162.517C29.632 162.517 29.9765 161.002 29.9765 159.941ZM39.7552 156.385V162.724C39.7552 164.791 38.6528 166.238 36.1725 166.238C32.8654 166.238 32.7965 163.757 32.7965 163.757H34.7256C34.7256 163.757 34.7945 164.791 36.1725 164.791C37.3989 164.791 37.826 164.102 37.826 162.862V162.517H37.7571C37.7571 162.517 37.137 163.482 35.6213 163.482C33.5544 163.482 32.5209 161.691 32.5209 159.83C32.5209 157.97 33.5544 156.179 35.6213 156.179C37.2059 156.179 37.826 157.35 37.826 157.35H37.8949V156.385H39.7552ZM37.8949 159.83C37.8949 158.673 37.3437 157.626 36.1725 157.626C35.0012 157.626 34.45 158.673 34.45 159.83C34.45 160.988 35.0012 162.035 36.1725 162.035C37.3437 162.035 37.8949 160.988 37.8949 159.83ZM40.3795 159.968C40.3795 157.874 41.6059 156.179 43.9622 156.179C46.3185 156.179 47.4071 157.874 47.4071 159.968C47.4071 160.133 47.3933 160.381 47.3933 160.381H42.3224C42.4051 161.484 42.8736 162.311 44.0311 162.311C45.2024 162.311 45.4091 161.208 45.4091 161.208H47.3382C47.3382 161.208 46.9248 163.757 43.9622 163.757C41.5508 163.757 40.3795 162.063 40.3795 159.968ZM43.9622 157.626C43.0114 157.626 42.5429 158.259 42.3776 159.141H45.4228C45.2988 158.259 44.913 157.626 43.9622 157.626ZM52.2272 163.551V159.555C52.2272 158.315 51.9792 157.763 51.2213 157.763C50.3946 157.763 49.9536 158.383 49.9536 159.83V163.551H48.0245V156.385H49.8847V157.557H49.9536C49.9536 157.557 50.4359 156.179 51.8828 156.179C53.0402 156.179 53.6603 156.73 53.9359 157.57L53.9497 157.557H54.0186C54.0186 157.557 54.6387 156.179 56.0855 156.179C57.8768 156.179 58.3591 157.488 58.3591 159.141V163.551H56.43V159.555C56.43 158.315 56.182 157.763 55.4241 157.763C54.5973 157.763 54.1564 158.383 54.1564 159.83V163.551H52.2272ZM59.0454 163.551V156.385H60.9745V159.004H62.1458C64.1438 159.004 65.2462 159.899 65.2462 161.277C65.2462 162.655 64.1438 163.551 62.1458 163.551H59.0454ZM61.8702 160.381H60.9745V162.173H61.8702C62.9037 162.173 63.3171 161.897 63.3171 161.277C63.3171 160.657 62.9037 160.381 61.8702 160.381ZM68.9042 163.551L71.481 156.385H73.6582L76.2349 163.551H74.168L72.5145 158.466L70.8609 163.551H68.9042ZM78.643 156.385V159.21H79.5938C79.8418 157.488 80.9855 156.179 83.0525 156.179C85.4088 156.179 86.5662 157.874 86.5662 159.968C86.5662 162.063 85.4088 163.757 83.0525 163.757C80.9855 163.757 79.8418 162.462 79.5938 160.726H78.643V163.551H76.7139V156.385H78.643ZM81.4678 159.968C81.4678 161.263 81.8261 162.311 83.0525 162.311C84.2788 162.311 84.6371 161.263 84.6371 159.968C84.6371 158.673 84.2788 157.626 83.0525 157.626C81.8261 157.626 81.4678 158.673 81.4678 159.968ZM89.1122 160.175C89.1122 161.332 89.6083 162.311 90.8347 162.311C92.061 162.311 92.5571 161.332 92.5571 160.175C92.5571 159.017 92.061 158.039 90.8347 158.039C89.6083 158.039 89.1122 159.017 89.1122 160.175ZM90.8347 163.757C88.9055 163.757 87.1142 162.655 87.1142 159.21C87.1142 154.594 89.3051 153.905 91.3032 153.905H93.9351V155.49H91.1378C89.5807 155.49 89.002 156.179 88.7677 157.694H88.8366C88.8366 157.694 89.4567 156.592 91.1103 156.592C93.2461 156.592 94.4862 158.177 94.4862 160.175C94.4862 162.104 93.2461 163.757 90.8347 163.757ZM96.9693 159.968C96.9693 161.263 97.4653 162.311 98.6917 162.311C99.9181 162.311 100.414 161.263 100.414 159.968C100.414 158.673 99.9181 157.626 98.6917 157.626C97.4653 157.626 96.9693 158.673 96.9693 159.968ZM95.0401 159.968C95.0401 157.874 96.3354 156.179 98.6917 156.179C101.048 156.179 102.343 157.874 102.343 159.968C102.343 162.063 101.048 163.757 98.6917 163.757C96.3354 163.757 95.0401 162.063 95.0401 159.968ZM103.657 155.696V155.145H108.962V155.696H103.657ZM109.651 156.385V163.551H107.79V162.38H107.722C107.722 162.38 107.102 163.757 105.517 163.757C103.519 163.757 102.968 162.448 102.968 160.795V156.385H104.897V160.381C104.897 161.622 105.241 162.173 106.137 162.173C107.17 162.173 107.722 161.553 107.722 160.106V156.385H109.651ZM120.06 156.385V163.551H118.131V160.933H116.753L115.609 163.551H113.445L114.906 160.588C114.079 160.202 113.652 159.527 113.652 158.659C113.652 157.281 114.755 156.385 116.753 156.385H120.06ZM117.028 159.555H118.131V157.763H117.028C115.995 157.763 115.581 158.039 115.581 158.659C115.581 159.279 115.995 159.555 117.028 159.555ZM120.744 166.031V156.385H122.604V157.35H122.673C122.673 157.35 123.293 156.179 124.878 156.179C126.945 156.179 127.978 157.97 127.978 159.968C127.978 161.966 126.945 163.757 124.878 163.757C123.362 163.757 122.742 162.793 122.742 162.793H122.673V166.031H120.744ZM122.604 159.968C122.604 161.263 123.155 162.311 124.326 162.311C125.498 162.311 126.049 161.263 126.049 159.968C126.049 158.673 125.498 157.626 124.326 157.626C123.155 157.626 122.604 158.673 122.604 159.968ZM128.602 163.551V156.385H130.532V159.279L133.081 156.385H135.354L132.654 159.183L135.492 163.551H133.136L131.317 160.561L130.532 161.374V163.551H128.602ZM142.458 156.385V163.551H140.598V162.38H140.529C140.529 162.38 139.909 163.757 138.324 163.757C136.326 163.757 135.775 162.448 135.775 160.795V156.385H137.704V160.381C137.704 161.622 138.048 162.173 138.944 162.173C139.978 162.173 140.529 161.553 140.529 160.106V156.385H142.458ZM143.838 155.696V155.145H149.143V155.696H143.838ZM149.832 156.385V163.551H147.972V162.38H147.903C147.903 162.38 147.283 163.757 145.698 163.757C143.7 163.757 143.149 162.448 143.149 160.795V156.385H145.078V160.381C145.078 161.622 145.423 162.173 146.318 162.173C147.352 162.173 147.903 161.553 147.903 160.106V156.385H149.832ZM155.763 160.175V159.624H158.78C158.698 158.494 158.257 157.626 157.141 157.626C155.763 157.626 155.694 159.004 155.694 159.004H153.765C153.765 159.004 153.971 156.179 157.141 156.179C159.483 156.179 160.723 157.874 160.723 159.968C160.723 162.063 159.483 163.757 157.141 163.757C153.971 163.757 153.765 160.933 153.765 160.933H155.694C155.694 160.933 155.763 162.311 157.141 162.311C158.298 162.311 158.753 161.374 158.794 160.175H155.763ZM160.651 163.551L163.228 156.385H165.405L167.982 163.551H165.915L164.261 158.466L162.608 163.551H160.651ZM167.907 159.968C167.907 157.874 169.134 156.179 171.49 156.179C173.846 156.179 174.935 157.874 174.935 159.968C174.935 160.133 174.921 160.381 174.921 160.381H169.85C169.933 161.484 170.402 162.311 171.559 162.311C172.73 162.311 172.937 161.208 172.937 161.208H174.866C174.866 161.208 174.453 163.757 171.49 163.757C169.079 163.757 167.907 162.063 167.907 159.968ZM171.49 157.626C170.539 157.626 170.071 158.259 169.905 159.141H172.951C172.827 158.259 172.441 157.626 171.49 157.626ZM184.233 156.385V163.551H182.442V158.521H182.373L180.789 163.551H178.997L177.413 158.521H177.344V163.551H175.552V156.385H178.446L179.893 161.346L181.34 156.385H184.233ZM184.849 159.968C184.849 157.874 186.076 156.179 188.432 156.179C190.788 156.179 191.877 157.874 191.877 159.968C191.877 160.133 191.863 160.381 191.863 160.381H186.792C186.875 161.484 187.343 162.311 188.501 162.311C189.672 162.311 189.879 161.208 189.879 161.208H191.808C191.808 161.208 191.395 163.757 188.432 163.757C186.021 163.757 184.849 162.063 184.849 159.968ZM188.432 157.626C187.481 157.626 187.013 158.259 186.847 159.141H189.893C189.769 158.259 189.383 157.626 188.432 157.626ZM197.11 163.551V160.726H194.423V163.551H192.494V156.385H194.423V159.21H197.11V156.385H199.039V163.551H197.11ZM203.937 163.551V159.555C203.937 158.315 203.689 157.763 202.931 157.763C202.104 157.763 201.663 158.383 201.663 159.83V163.551H199.734V156.385H201.594V157.557H201.663C201.663 157.557 202.145 156.179 203.592 156.179C204.75 156.179 205.37 156.73 205.645 157.57L205.659 157.557H205.728C205.728 157.557 206.348 156.179 207.795 156.179C209.586 156.179 210.068 157.488 210.068 159.141V163.551H208.139V159.555C208.139 158.315 207.891 157.763 207.133 157.763C206.307 157.763 205.866 158.383 205.866 159.83V163.551H203.937ZM24.9416 169.385V176.551H23.0814V175.38H23.0125C23.0125 175.38 22.3924 176.757 20.8078 176.757C18.8097 176.757 18.2586 175.448 18.2586 173.795V169.385H20.1877V173.381C20.1877 174.622 20.5322 175.173 21.4278 175.173C22.4613 175.173 23.0125 174.553 23.0125 173.106V169.385H24.9416ZM25.6328 170.901V169.385H32.2469V170.901L29.9044 173.106C29.9044 173.106 32.5225 173.175 32.5225 176.068C32.5225 177.653 31.4202 179.238 29.0776 179.238C26.3906 179.238 25.4261 177.653 25.4261 176H27.3552C27.3552 176.964 27.8375 177.791 29.0776 177.791C30.0284 177.791 30.5934 177.102 30.5934 176.137C30.5934 175.104 30.1111 174.346 28.182 174.346H27.6308V173.244L30.0422 170.901H25.6328ZM36.3173 176.551V169.385H38.1775V170.557H38.2464C38.2464 170.557 38.8665 169.179 40.4511 169.179C42.4492 169.179 43.0003 170.488 43.0003 172.141V176.551H41.0712V172.555C41.0712 171.315 40.7267 170.763 39.831 170.763C38.7976 170.763 38.2464 171.383 38.2464 172.83V176.551H36.3173ZM43.6226 172.968C43.6226 170.874 44.8489 169.179 47.2052 169.179C49.5615 169.179 50.6501 170.874 50.6501 172.968C50.6501 173.133 50.6363 173.381 50.6363 173.381H45.5655C45.6482 174.484 46.1167 175.311 47.2741 175.311C48.4454 175.311 48.6521 174.208 48.6521 174.208H50.5812C50.5812 174.208 50.1678 176.757 47.2052 176.757C44.7938 176.757 43.6226 175.063 43.6226 172.968ZM47.2052 170.626C46.2545 170.626 45.786 171.259 45.6206 172.141H48.6659C48.5419 171.259 48.156 170.626 47.2052 170.626ZM51.2675 179.031V169.385H53.1278V170.35H53.1966C53.1966 170.35 53.8167 169.179 55.4014 169.179C57.4683 169.179 58.5018 170.97 58.5018 172.968C58.5018 174.966 57.4683 176.757 55.4014 176.757C53.8856 176.757 53.2655 175.793 53.2655 175.793H53.1966V179.031H51.2675ZM53.1278 172.968C53.1278 174.263 53.6789 175.311 54.8502 175.311C56.0215 175.311 56.5726 174.263 56.5726 172.968C56.5726 171.673 56.0215 170.626 54.8502 170.626C53.6789 170.626 53.1278 171.673 53.1278 172.968ZM59.0573 172.968C59.0573 170.874 60.2836 169.179 62.6399 169.179C64.9962 169.179 66.0848 170.874 66.0848 172.968C66.0848 173.133 66.071 173.381 66.071 173.381H61.0002C61.0828 174.484 61.5513 175.311 62.7088 175.311C63.8801 175.311 64.0868 174.208 64.0868 174.208H66.0159C66.0159 174.208 65.6025 176.757 62.6399 176.757C60.2285 176.757 59.0573 175.063 59.0573 172.968ZM62.6399 170.626C61.6891 170.626 61.2206 171.259 61.0553 172.141H64.1006C63.9765 171.259 63.5907 170.626 62.6399 170.626ZM66.7022 179.031V169.385H68.5624V170.35H68.6313C68.6313 170.35 69.2514 169.179 70.8361 169.179C72.903 169.179 73.9365 170.97 73.9365 172.968C73.9365 174.966 72.903 176.757 70.8361 176.757C69.3203 176.757 68.7002 175.793 68.7002 175.793H68.6313V179.031H66.7022ZM68.5624 172.968C68.5624 174.263 69.1136 175.311 70.2849 175.311C71.4561 175.311 72.0073 174.263 72.0073 172.968C72.0073 171.673 71.4561 170.626 70.2849 170.626C69.1136 170.626 68.5624 171.673 68.5624 172.968ZM76.4916 171.59H74.5625C74.6727 169.757 76.1471 169.179 77.8006 169.179C79.5231 169.179 80.901 169.799 80.901 171.659V176.551H78.9719V175.173H78.903C78.903 175.173 78.4621 176.757 76.6294 176.757C75.3203 176.757 74.3558 176.151 74.3558 174.828C74.3558 173.492 75.4581 172.885 76.6432 172.582C77.842 172.279 78.9719 172.183 78.9719 171.383C78.9719 170.818 78.5585 170.488 77.8006 170.488C76.9739 170.488 76.5191 170.818 76.4916 171.59ZM78.9719 172.941C78.655 173.23 78.0073 173.381 77.4562 173.519C76.8361 173.671 76.3125 173.988 76.3125 174.622C76.3125 175.173 76.6983 175.517 77.3184 175.517C78.6274 175.517 78.9719 174.002 78.9719 172.941ZM83.5143 173.175C83.5143 174.332 84.0104 175.311 85.2367 175.311C86.4631 175.311 86.9592 174.332 86.9592 173.175C86.9592 172.017 86.4631 171.039 85.2367 171.039C84.0104 171.039 83.5143 172.017 83.5143 173.175ZM85.2367 176.757C83.3076 176.757 81.5163 175.655 81.5163 172.21C81.5163 167.594 83.7072 166.905 85.7052 166.905H88.3371V168.49H85.5399C83.9828 168.49 83.4041 169.179 83.1698 170.694H83.2387C83.2387 170.694 83.8588 169.592 85.5123 169.592C87.6482 169.592 88.8883 171.177 88.8883 173.175C88.8883 175.104 87.6482 176.757 85.2367 176.757ZM91.3713 172.968C91.3713 174.263 91.8674 175.311 93.0938 175.311C94.3201 175.311 94.8162 174.263 94.8162 172.968C94.8162 171.673 94.3201 170.626 93.0938 170.626C91.8674 170.626 91.3713 171.673 91.3713 172.968ZM89.4422 172.968C89.4422 170.874 90.7375 169.179 93.0938 169.179C95.4501 169.179 96.7453 170.874 96.7453 172.968C96.7453 175.063 95.4501 176.757 93.0938 176.757C90.7375 176.757 89.4422 175.063 89.4422 172.968ZM101.572 176.551V172.555C101.572 171.315 101.324 170.763 100.567 170.763C99.7398 170.763 99.2989 171.383 99.2989 172.83V176.551H97.3697V169.385H99.23V170.557H99.2989C99.2989 170.557 99.7811 169.179 101.228 169.179C102.385 169.179 103.006 169.73 103.281 170.57L103.295 170.557H103.364C103.364 170.557 103.984 169.179 105.431 169.179C107.222 169.179 107.704 170.488 107.704 172.141V176.551H105.775V172.555C105.775 171.315 105.527 170.763 104.769 170.763C103.943 170.763 103.502 171.383 103.502 172.83V176.551H101.572ZM110.389 171.59H108.46C108.57 169.757 110.044 169.179 111.698 169.179C113.42 169.179 114.798 169.799 114.798 171.659V176.551H112.869V175.173H112.8C112.8 175.173 112.359 176.757 110.526 176.757C109.217 176.757 108.253 176.151 108.253 174.828C108.253 173.492 109.355 172.885 110.54 172.582C111.739 172.279 112.869 172.183 112.869 171.383C112.869 170.818 112.456 170.488 111.698 170.488C110.871 170.488 110.416 170.818 110.389 171.59ZM112.869 172.941C112.552 173.23 111.904 173.381 111.353 173.519C110.733 173.671 110.21 173.988 110.21 174.622C110.21 175.173 110.595 175.517 111.215 175.517C112.525 175.517 112.869 174.002 112.869 172.941ZM120.098 176.551V173.726H117.411V176.551H115.482V169.385H117.411V172.21H120.098V169.385H122.028V176.551H120.098ZM127.338 176.551V173.726H124.651V176.551H122.722V169.385H124.651V172.21H127.338V169.385H129.267V176.551H127.338ZM129.962 176.551V169.385H131.891V172.004H132.717C134.715 172.004 135.818 172.899 135.818 174.277C135.818 175.655 134.715 176.551 132.717 176.551H129.962ZM132.442 173.381H131.891V175.173H132.442C133.475 175.173 133.889 174.897 133.889 174.277C133.889 173.657 133.475 173.381 132.442 173.381ZM138.298 169.385V176.551H136.369V169.385H138.298ZM141.265 169.385L142.574 171.452L143.883 169.385H146.156L143.676 172.83L146.363 176.551H144.089L142.574 174.208L141.058 176.551H138.784L141.471 172.83L138.991 169.385H141.265ZM158.841 169.385V176.551H157.05V171.521H156.981L155.396 176.551H153.605L152.02 171.521H151.951V176.551H150.16V169.385H153.054L154.5 174.346L155.947 169.385H158.841ZM161.524 171.59H159.595C159.705 169.757 161.179 169.179 162.833 169.179C164.555 169.179 165.933 169.799 165.933 171.659V176.551H164.004V175.173H163.935C163.935 175.173 163.494 176.757 161.661 176.757C160.352 176.757 159.388 176.151 159.388 174.828C159.388 173.492 160.49 172.885 161.675 172.582C162.874 172.279 164.004 172.183 164.004 171.383C164.004 170.818 163.591 170.488 162.833 170.488C162.006 170.488 161.551 170.818 161.524 171.59ZM164.004 172.941C163.687 173.23 163.039 173.381 162.488 173.519C161.868 173.671 161.345 173.988 161.345 174.622C161.345 175.173 161.73 175.517 162.35 175.517C163.659 175.517 164.004 174.002 164.004 172.941ZM170.82 176.551V172.555C170.82 171.315 170.572 170.763 169.814 170.763C168.987 170.763 168.546 171.383 168.546 172.83V176.551H166.617V169.385H168.477V170.557H168.546C168.546 170.557 169.029 169.179 170.475 169.179C171.633 169.179 172.253 169.73 172.529 170.57L172.542 170.557H172.611C172.611 170.557 173.231 169.179 174.678 169.179C176.47 169.179 176.952 170.488 176.952 172.141V176.551H175.023V172.555C175.023 171.315 174.775 170.763 174.017 170.763C173.19 170.763 172.749 171.383 172.749 172.83V176.551H170.82ZM177.569 172.968C177.569 170.874 178.796 169.179 181.152 169.179C183.508 169.179 184.597 170.874 184.597 172.968C184.597 173.133 184.583 173.381 184.583 173.381H179.512C179.595 174.484 180.063 175.311 181.221 175.311C182.392 175.311 182.599 174.208 182.599 174.208H184.528C184.528 174.208 184.115 176.757 181.152 176.757C178.741 176.757 177.569 175.063 177.569 172.968ZM181.152 170.626C180.201 170.626 179.733 171.259 179.567 172.141H182.613C182.489 171.259 182.103 170.626 181.152 170.626ZM185.214 179.031V169.385H187.074V170.35H187.143C187.143 170.35 187.763 169.179 189.348 169.179C191.415 169.179 192.448 170.97 192.448 172.968C192.448 174.966 191.415 176.757 189.348 176.757C187.832 176.757 187.212 175.793 187.212 175.793H187.143V179.031H185.214ZM187.074 172.968C187.074 174.263 187.626 175.311 188.797 175.311C189.968 175.311 190.519 174.263 190.519 172.968C190.519 171.673 189.968 170.626 188.797 170.626C187.626 170.626 187.074 171.673 187.074 172.968ZM199.756 169.385V176.551H197.896V175.38H197.827C197.827 175.38 197.207 176.757 195.622 176.757C193.624 176.757 193.073 175.448 193.073 173.795V169.385H195.002V173.381C195.002 174.622 195.346 175.173 196.242 175.173C197.276 175.173 197.827 174.553 197.827 173.106V169.385H199.756ZM202.445 171.59H200.516C200.626 169.757 202.101 169.179 203.754 169.179C205.477 169.179 206.855 169.799 206.855 171.659V176.551H204.925V175.173H204.856C204.856 175.173 204.416 176.757 202.583 176.757C201.274 176.757 200.309 176.151 200.309 174.828C200.309 173.492 201.412 172.885 202.597 172.582C203.795 172.279 204.925 172.183 204.925 171.383C204.925 170.818 204.512 170.488 203.754 170.488C202.927 170.488 202.473 170.818 202.445 171.59ZM204.925 172.941C204.608 173.23 203.961 173.381 203.41 173.519C202.79 173.671 202.266 173.988 202.266 174.622C202.266 175.173 202.652 175.517 203.272 175.517C204.581 175.517 204.925 174.002 204.925 172.941ZM207.332 176.551L209.909 169.385H212.086L214.663 176.551H212.596L210.942 171.466L209.289 176.551H207.332ZM216.517 172.968C216.517 174.263 217.013 175.311 218.24 175.311C219.466 175.311 219.962 174.263 219.962 172.968C219.962 171.673 219.466 170.626 218.24 170.626C217.013 170.626 216.517 171.673 216.517 172.968ZM214.588 172.968C214.588 170.874 215.884 169.179 218.24 169.179C220.596 169.179 221.891 170.874 221.891 172.968C221.891 175.063 220.596 176.757 218.24 176.757C215.884 176.757 214.588 175.063 214.588 172.968ZM222.516 176.551V169.385H225.961C227.821 169.385 228.785 170.006 228.785 171.315C228.785 172.486 227.683 172.761 227.683 172.761V172.83C227.683 172.83 228.992 173.106 228.992 174.484C228.992 175.862 228.097 176.551 226.167 176.551H222.516ZM225.961 173.519H224.445V175.173H226.098C226.719 175.173 227.063 174.897 227.063 174.346C227.063 173.795 226.65 173.519 225.961 173.519ZM224.445 172.279H225.823C226.512 172.279 226.856 172.004 226.856 171.521C226.856 171.039 226.581 170.763 225.961 170.763H224.445V172.279ZM229.609 175.586C229.609 174.98 230.105 174.484 230.711 174.484C231.318 174.484 231.814 174.98 231.814 175.586C231.814 176.193 231.318 176.689 230.711 176.689C230.105 176.689 229.609 176.193 229.609 175.586ZM26.9397 182.385V189.551H25.1483V184.521H25.0794L23.4948 189.551H21.7034L20.1188 184.521H20.0499V189.551H18.2586V182.385H21.1523L22.5991 187.346L24.046 182.385H26.9397ZM34.7208 182.385L32.1716 189.757C31.6066 191.397 30.8625 192.238 29.4157 192.238C28.7267 192.238 28.1755 192.031 28.1755 192.031V190.446C28.1755 190.446 28.5889 190.584 29.0712 190.584C29.7601 190.584 30.0357 190.212 30.3113 189.551L27.4176 182.385H29.4846L31.2346 187.112L32.6539 182.385H34.7208ZM35.0658 183.901V182.385H41.68V183.901L39.3375 186.106C39.3375 186.106 41.9556 186.175 41.9556 189.068C41.9556 190.653 40.8532 192.238 38.5107 192.238C35.8237 192.238 34.8591 190.653 34.8591 189H36.7882C36.7882 189.964 37.2705 190.791 38.5107 190.791C39.4615 190.791 40.0264 190.102 40.0264 189.137C40.0264 188.104 39.5442 187.346 37.615 187.346H37.0638V186.244L39.4753 183.901H35.0658ZM42.44 189.551V182.385H44.3691V185.004H45.1959C47.1939 185.004 48.2963 185.899 48.2963 187.277C48.2963 188.655 47.1939 189.551 45.1959 189.551H42.44ZM44.9203 186.381H44.3691V188.173H44.9203C45.9538 188.173 46.3672 187.897 46.3672 187.277C46.3672 186.657 45.9538 186.381 44.9203 186.381ZM50.7766 182.385V189.551H48.8475V182.385H50.7766ZM51.4694 189.551V182.385H53.3985V185.279L55.9477 182.385H58.2213L55.5205 185.183L58.3591 189.551H56.0028L54.1839 186.561L53.3985 187.374V189.551H51.4694ZM60.4917 184.59H58.5626C58.6728 182.757 60.1472 182.179 61.8008 182.179C63.5232 182.179 64.9012 182.799 64.9012 184.659V189.551H62.972V188.173H62.9031C62.9031 188.173 62.4622 189.757 60.6295 189.757C59.3205 189.757 58.3559 189.151 58.3559 187.828C58.3559 186.492 59.4583 185.885 60.6433 185.582C61.8421 185.279 62.972 185.183 62.972 184.383C62.972 183.818 62.5587 183.488 61.8008 183.488C60.974 183.488 60.5193 183.818 60.4917 184.59ZM62.972 185.941C62.6551 186.23 62.0075 186.381 61.4563 186.519C60.8362 186.671 60.3126 186.988 60.3126 187.622C60.3126 188.173 60.6984 188.517 61.3185 188.517C62.6276 188.517 62.972 187.002 62.972 185.941ZM65.6542 188.586C65.6542 187.98 66.1503 187.484 66.7566 187.484C67.3629 187.484 67.8589 187.98 67.8589 188.586C67.8589 189.193 67.3629 189.689 66.7566 189.689C66.1503 189.689 65.6542 189.193 65.6542 188.586ZM72.8158 189.551V185.555C72.8158 184.315 72.5678 183.763 71.8099 183.763C70.9831 183.763 70.5422 184.383 70.5422 185.83V189.551H68.613V182.385H70.4733V183.557H70.5422C70.5422 183.557 71.0244 182.179 72.4713 182.179C73.6288 182.179 74.2489 182.73 74.5244 183.57L74.5382 183.557H74.6071C74.6071 183.557 75.2272 182.179 76.6741 182.179C78.4654 182.179 78.9477 183.488 78.9477 185.141V189.551H77.0185V185.555C77.0185 184.315 76.7705 183.763 76.0126 183.763C75.1859 183.763 74.7449 184.383 74.7449 185.83V189.551H72.8158ZM81.632 184.59H79.7029C79.8131 182.757 81.2875 182.179 82.941 182.179C84.6635 182.179 86.0414 182.799 86.0414 184.659V189.551H84.1123V188.173H84.0434C84.0434 188.173 83.6025 189.757 81.7698 189.757C80.4607 189.757 79.4962 189.151 79.4962 187.828C79.4962 186.492 80.5985 185.885 81.7836 185.582C82.9824 185.279 84.1123 185.183 84.1123 184.383C84.1123 183.818 83.6989 183.488 82.941 183.488C82.1143 183.488 81.6596 183.818 81.632 184.59ZM84.1123 185.941C83.7954 186.23 83.1477 186.381 82.5966 186.519C81.9765 186.671 81.4529 186.988 81.4529 187.622C81.4529 188.173 81.8387 188.517 82.4588 188.517C83.7678 188.517 84.1123 187.002 84.1123 185.941ZM91.3417 189.551V186.726H88.6547V189.551H86.7256V182.385H88.6547V185.21H91.3417V182.385H93.2709V189.551H91.3417ZM101.613 187.07V191.342H101.062V187.07H101.613ZM100.648 182.385V189.551H98.788V188.38H98.7191C98.7191 188.38 98.0991 189.757 96.5144 189.757C94.5164 189.757 93.9652 188.448 93.9652 186.795V182.385H95.8943V186.381C95.8943 187.622 96.2388 188.173 97.1345 188.173C98.168 188.173 98.7191 187.553 98.7191 186.106V182.385H100.648ZM102.093 189.551V182.385H104.022V185.004H104.849C106.847 185.004 107.949 185.899 107.949 187.277C107.949 188.655 106.847 189.551 104.849 189.551H102.093ZM104.573 186.381H104.022V188.173H104.573C105.607 188.173 106.02 187.897 106.02 187.277C106.02 186.657 105.607 186.381 104.573 186.381ZM110.43 182.385V189.551H108.5V182.385H110.43ZM111.191 188.586C111.191 187.98 111.687 187.484 112.294 187.484C112.9 187.484 113.396 187.98 113.396 188.586C113.396 189.193 112.9 189.689 112.294 189.689C111.687 189.689 111.191 189.193 111.191 188.586ZM114.15 189.551V182.385H116.079V185.279L118.628 182.385H120.902L118.201 185.183L121.04 189.551H118.684L116.865 186.561L116.079 187.374V189.551H114.15ZM122.698 185.968C122.698 187.263 123.194 188.311 124.421 188.311C125.647 188.311 126.143 187.263 126.143 185.968C126.143 184.673 125.647 183.626 124.421 183.626C123.194 183.626 122.698 184.673 122.698 185.968ZM120.769 185.968C120.769 183.874 122.064 182.179 124.421 182.179C126.777 182.179 128.072 183.874 128.072 185.968C128.072 188.063 126.777 189.757 124.421 189.757C122.064 189.757 120.769 188.063 120.769 185.968ZM128.697 189.551V182.385H130.626V185.279L133.175 182.385H135.449L132.748 185.183L135.586 189.551H133.23L131.411 186.561L130.626 187.374V189.551H128.697ZM140.341 189.551V185.555C140.341 184.315 140.093 183.763 139.335 183.763C138.508 183.763 138.067 184.383 138.067 185.83V189.551H136.138V182.385H137.998V183.557H138.067C138.067 183.557 138.55 182.179 139.996 182.179C141.154 182.179 141.774 182.73 142.05 183.57L142.063 183.557H142.132C142.132 183.557 142.752 182.179 144.199 182.179C145.99 182.179 146.473 183.488 146.473 185.141V189.551H144.544V185.555C144.544 184.315 144.296 183.763 143.538 183.763C142.711 183.763 142.27 184.383 142.27 185.83V189.551H140.341ZM147.09 185.968C147.09 183.874 148.317 182.179 150.673 182.179C153.029 182.179 154.118 183.874 154.118 185.968C154.118 186.133 154.104 186.381 154.104 186.381H149.033C149.116 187.484 149.584 188.311 150.742 188.311C151.913 188.311 152.12 187.208 152.12 187.208H154.049C154.049 187.208 153.635 189.757 150.673 189.757C148.261 189.757 147.09 188.063 147.09 185.968ZM150.673 183.626C149.722 183.626 149.254 184.259 149.088 185.141H152.133C152.009 184.259 151.624 183.626 150.673 183.626ZM155.424 181.696V181.145H160.729V181.696H155.424ZM161.418 182.385V189.551H159.558V188.38H159.489C159.489 188.38 158.869 189.757 157.284 189.757C155.286 189.757 154.735 188.448 154.735 186.795V182.385H156.664V186.381C156.664 187.622 157.009 188.173 157.904 188.173C158.938 188.173 159.489 187.553 159.489 186.106V182.385H161.418ZM161.903 189.551L164.479 182.385H166.657L169.233 189.551H167.166L165.513 184.466L163.859 189.551H161.903ZM176.193 182.385V189.551H174.333V188.38H174.264C174.264 188.38 173.644 189.757 172.06 189.757C170.062 189.757 169.51 188.448 169.51 186.795V182.385H171.44V186.381C171.44 187.622 171.784 188.173 172.68 188.173C173.713 188.173 174.264 187.553 174.264 186.106V182.385H176.193ZM176.953 188.586C176.953 187.98 177.45 187.484 178.056 187.484C178.662 187.484 179.158 187.98 179.158 188.586C179.158 189.193 178.662 189.689 178.056 189.689C177.45 189.689 176.953 189.193 176.953 188.586ZM18.2586 203.551V196.385H21.7034C23.5637 196.385 24.5282 197.006 24.5282 198.315C24.5282 199.486 23.4259 199.761 23.4259 199.761V199.83C23.4259 199.83 24.7349 200.106 24.7349 201.484C24.7349 202.862 23.8393 203.551 21.9101 203.551H18.2586ZM21.7034 200.519H20.1877V202.173H21.8412C22.4613 202.173 22.8058 201.897 22.8058 201.346C22.8058 200.795 22.3924 200.519 21.7034 200.519ZM20.1877 199.279H21.5656C22.2546 199.279 22.5991 199.004 22.5991 198.521C22.5991 198.039 22.3235 197.763 21.7034 197.763H20.1877V199.279ZM25.1467 199.968C25.1467 197.874 26.3731 196.179 28.7294 196.179C31.0857 196.179 32.1743 197.874 32.1743 199.968C32.1743 200.133 32.1605 200.381 32.1605 200.381H27.0896C27.1723 201.484 27.6408 202.311 28.7983 202.311C29.9695 202.311 30.1762 201.208 30.1762 201.208H32.1054C32.1054 201.208 31.692 203.757 28.7294 203.757C26.318 203.757 25.1467 202.063 25.1467 199.968ZM28.7294 197.626C27.7786 197.626 27.3101 198.259 27.1447 199.141H30.19C30.066 198.259 29.6802 197.626 28.7294 197.626ZM32.7227 199.968C32.7227 197.874 33.9629 196.179 36.3054 196.179C39.4747 196.179 39.6814 199.004 39.6814 199.004H37.7523C37.7523 199.004 37.6834 197.626 36.3054 197.626C35.079 197.626 34.6519 198.673 34.6519 199.968C34.6519 201.263 35.079 202.311 36.3054 202.311C37.6834 202.311 37.7523 200.933 37.7523 200.933H39.6814C39.6814 200.933 39.4747 203.757 36.3054 203.757C33.9629 203.757 32.7227 202.063 32.7227 199.968ZM40.2315 199.968C40.2315 197.874 41.4579 196.179 43.8142 196.179C46.1705 196.179 47.2591 197.874 47.2591 199.968C47.2591 200.133 47.2453 200.381 47.2453 200.381H42.1744C42.2571 201.484 42.7256 202.311 43.8831 202.311C45.0543 202.311 45.261 201.208 45.261 201.208H47.1902C47.1902 201.208 46.7768 203.757 43.8142 203.757C41.4028 203.757 40.2315 202.063 40.2315 199.968ZM43.8142 197.626C42.8634 197.626 42.3949 198.259 42.2295 199.141H45.2748C45.1508 198.259 44.765 197.626 43.8142 197.626ZM47.1853 203.551L49.7621 196.385H51.9393L54.516 203.551H52.4491L50.7956 198.466L49.142 203.551H47.1853ZM54.995 203.551V196.385H56.9241V199.004H58.0954C60.0934 199.004 61.1958 199.899 61.1958 201.277C61.1958 202.655 60.0934 203.551 58.0954 203.551H54.995ZM57.8198 200.381H56.9241V202.173H57.8198C58.8533 202.173 59.2666 201.897 59.2666 201.277C59.2666 200.657 58.8533 200.381 57.8198 200.381ZM61.6813 199.968C61.6813 197.874 62.9077 196.179 65.264 196.179C67.6203 196.179 68.7088 197.874 68.7088 199.968C68.7088 200.133 68.6951 200.381 68.6951 200.381H63.6242C63.7069 201.484 64.1754 202.311 65.3329 202.311C66.5041 202.311 66.7108 201.208 66.7108 201.208H68.6399C68.6399 201.208 68.2266 203.757 65.264 203.757C62.8525 203.757 61.6813 202.063 61.6813 199.968ZM65.264 197.626C64.3132 197.626 63.8447 198.259 63.6793 199.141H66.7246C66.6006 198.259 66.2147 197.626 65.264 197.626ZM69.3951 202.586C69.3951 201.98 69.8912 201.484 70.4975 201.484C71.1038 201.484 71.5999 201.98 71.5999 202.586C71.5999 203.193 71.1038 203.689 70.4975 203.689C69.8912 203.689 69.3951 203.193 69.3951 202.586ZM71.4621 193.905V200.795H69.5329V193.905H71.4621Z" fill="white"/>
<path d="M438.19 261.712V266.562H417.024V264.578C417.024 253.996 432.017 255.759 432.017 250.909C432.017 248.704 430.253 247.602 427.607 247.602C424.961 247.602 423.198 249.145 423.198 252.011V252.673H417.024V252.011C417.024 246.279 421.434 242.972 427.828 242.972C433.78 242.972 438.19 245.838 438.19 250.909C438.19 258.846 426.725 258.185 424.08 261.712H438.19ZM450.736 243.633V266.562H444.563V251.57H439.492V248.484C445.886 248.484 446.988 243.633 446.988 243.633H450.736ZM453.378 263.476C453.378 261.536 454.966 259.948 456.906 259.948C458.846 259.948 460.433 261.536 460.433 263.476C460.433 265.416 458.846 267.003 456.906 267.003C454.966 267.003 453.378 265.416 453.378 263.476ZM467.938 255.098C467.938 259.243 469.526 262.594 473.45 262.594C477.374 262.594 478.962 259.243 478.962 255.098C478.962 250.953 477.374 247.602 473.45 247.602C469.526 247.602 467.938 250.953 467.938 255.098ZM461.765 255.098C461.765 248.396 465.91 242.972 473.45 242.972C480.99 242.972 485.135 248.396 485.135 255.098C485.135 261.8 480.99 267.224 473.45 267.224C465.91 267.224 461.765 261.8 461.765 255.098ZM509.401 243.633H503.668C503.227 241.693 502.346 239.665 499.259 239.665C494.276 239.665 493.086 244.956 492.865 249.366H493.086C493.086 249.366 495.07 246.279 500.141 246.279C505.653 246.279 510.062 250.027 510.062 256.2C510.062 262.594 505.873 267.224 499.038 267.224C491.101 267.224 486.913 261.933 486.913 252.232C486.913 240.988 491.542 235.035 499.259 235.035C504.991 235.035 508.739 238.122 509.401 243.633ZM493.306 256.641C493.306 260.257 495.687 262.594 498.598 262.594C501.508 262.594 503.889 260.61 503.889 256.641C503.889 252.673 501.508 250.688 498.598 250.688C495.687 250.688 493.306 252.673 493.306 256.641Z" fill="white"/>
<path d="M240.149 723.161L231.991 746.751C230.184 751.999 227.802 754.688 223.173 754.688C220.968 754.688 219.204 754.027 219.204 754.027V748.956C219.204 748.956 220.527 749.397 222.07 749.397C224.275 749.397 225.157 748.206 226.039 746.09L216.779 723.161H223.393L228.993 738.285L233.535 723.161H240.149ZM237.061 746.09L245.306 723.161H252.273L260.519 746.09H253.905L248.613 729.819L243.322 746.09H237.061ZM262.272 743.003C262.272 741.063 263.859 739.476 265.8 739.476C267.74 739.476 269.327 741.063 269.327 743.003C269.327 744.943 267.74 746.531 265.8 746.531C263.859 746.531 262.272 744.943 262.272 743.003ZM286.512 746.09V737.05H277.913V746.09H271.74V723.161H277.913V732.2H286.512V723.161H292.685V746.09H286.512ZM316.293 723.161V746.09H310.34V742.342H310.12C310.12 742.342 308.135 746.751 303.065 746.751C296.671 746.751 294.907 742.562 294.907 737.271V723.161H301.08V735.948C301.08 739.917 302.183 741.68 305.049 741.68C308.356 741.68 310.12 739.696 310.12 735.066V723.161H316.293ZM318.504 746.09V723.161H324.678V732.421L332.835 723.161H340.111L331.468 732.112L340.552 746.09H333.012L327.191 736.521L324.678 739.123V746.09H318.504ZM345.859 734.625C345.859 738.77 347.446 742.121 351.37 742.121C355.295 742.121 356.882 738.77 356.882 734.625C356.882 730.48 355.295 727.129 351.37 727.129C347.446 727.129 345.859 730.48 345.859 734.625ZM339.685 734.625C339.685 727.923 343.83 722.499 351.37 722.499C358.911 722.499 363.055 727.923 363.055 734.625C363.055 741.328 358.911 746.751 351.37 746.751C343.83 746.751 339.685 741.328 339.685 734.625ZM362.842 746.09L371.087 723.161H378.054L386.3 746.09H379.686L374.395 729.819L369.103 746.09H362.842ZM387.833 746.09V723.161H394.006V731.539H397.754C404.148 731.539 407.675 734.405 407.675 738.814C407.675 743.224 404.148 746.09 397.754 746.09H387.833ZM396.872 735.948H394.006V741.68H396.872C400.179 741.68 401.502 740.799 401.502 738.814C401.502 736.83 400.179 735.948 396.872 735.948ZM409.229 734.625C409.229 727.923 413.197 722.499 420.693 722.499C430.835 722.499 431.497 731.539 431.497 731.539H425.323C425.323 731.539 425.103 727.129 420.693 727.129C416.769 727.129 415.402 730.48 415.402 734.625C415.402 738.77 416.769 742.121 420.693 742.121C425.103 742.121 425.323 737.712 425.323 737.712H431.497C431.497 737.712 430.835 746.751 420.693 746.751C413.197 746.751 409.229 741.328 409.229 734.625ZM433.477 746.09V723.161H439.651V732.421L447.808 723.161H455.084L446.441 732.112L455.525 746.09H447.984L442.164 736.521L439.651 739.123V746.09H433.477ZM462.349 730.216H456.176C456.528 724.351 461.247 722.499 466.538 722.499C472.05 722.499 476.459 724.484 476.459 730.436V746.09H470.286V741.68H470.065C470.065 741.68 468.654 746.751 462.79 746.751C458.601 746.751 455.514 744.811 455.514 740.578C455.514 736.301 459.042 734.361 462.834 733.391C466.67 732.421 470.286 732.112 470.286 729.554C470.286 727.747 468.963 726.688 466.538 726.688C463.892 726.688 462.437 727.747 462.349 730.216ZM470.286 734.537C469.272 735.463 467.199 735.948 465.436 736.389C463.451 736.874 461.776 737.888 461.776 739.917C461.776 741.68 463.01 742.783 464.995 742.783C469.184 742.783 470.286 737.932 470.286 734.537ZM499.152 723.161V746.09H492.979V737.712H488.57L484.91 746.09H477.987L482.661 736.61C480.015 735.375 478.648 733.214 478.648 730.436C478.648 726.027 482.176 723.161 488.57 723.161H499.152ZM489.452 733.302H492.979V727.57H489.452C486.144 727.57 484.822 728.452 484.822 730.436C484.822 732.421 486.144 733.302 489.452 733.302ZM533.1 723.161V727.57C525.604 734.405 523.399 745.649 523.399 754.027H516.785C517.226 743.665 520.974 733.743 526.706 728.011H511.494V723.161H533.1Z" fill="white"/>
<path d="M-59.252 516.387C41.4534 548.539 258.159 582.598 319.341 461.613C395.817 310.383 95.4233 94.7334 562.549 49.6055" stroke="#1500FF" stroke-width="92.3228"/>
<path d="M233.422 557.587L215.909 515.205L226.912 510.658L229.775 517.586L230.183 517.418C230.183 517.418 230.483 507.752 239.856 503.879C251.674 498.995 258.133 505.391 262.175 515.171L272.952 541.253L261.541 545.968L251.775 522.332C248.744 514.996 245.359 512.578 240.061 514.767C233.948 517.293 232.203 522.308 235.74 530.866L244.833 552.872L233.422 557.587Z" fill="white"/>
<path d="M269.118 518.07C260.549 507.762 259.651 494.403 271.247 484.763C282.844 475.123 295.136 479.011 303.705 489.319C304.381 490.133 305.328 491.41 305.328 491.41L280.371 512.156C285.288 517.243 290.976 519.395 296.673 514.66C302.438 509.868 298.945 503.597 298.945 503.597L308.439 495.705C308.439 495.705 316.834 509.942 302.253 522.063C290.385 531.928 277.687 528.378 269.118 518.07ZM277.167 491.884C272.487 495.774 272.775 500.81 275.569 505.827L290.557 493.368C286.338 489.535 281.846 487.994 277.167 491.884Z" fill="white"/>
<path d="M313.38 474.334C320.693 478.237 328.101 478.592 331.797 471.668C335.492 464.743 331.074 458.787 323.76 454.884C316.447 450.981 309.039 450.626 305.344 457.55C301.648 464.475 306.067 470.431 313.38 474.334ZM307.567 485.227C295.741 478.915 290.074 466.495 297.174 453.191C304.275 439.886 317.747 437.68 329.573 443.991C341.399 450.303 347.066 462.723 339.966 476.027C332.866 489.332 319.393 491.538 307.567 485.227Z" fill="white"/>
<path d="M353.442 440.563L307.783 436.299L308.89 424.445L316.354 425.142L316.395 424.703C316.395 424.703 307.983 419.932 308.926 409.834C310.115 397.102 318.785 394.369 329.322 395.353L357.42 397.977L356.272 410.27L330.808 407.892C322.905 407.154 319.188 409.021 318.655 414.728C318.04 421.314 321.663 425.195 330.883 426.056L354.591 428.271L353.442 440.563Z" fill="white"/>
<path d="M369.093 360.594L308.842 374.038L306.25 362.418L312.275 361.074L312.179 360.644C312.179 360.644 303.998 358.403 301.79 348.504C298.909 335.594 308.658 326.641 321.138 323.857C333.619 321.072 346.249 325.031 349.129 337.942C351.242 347.41 346.081 352.627 346.081 352.627L346.177 353.058L366.404 348.544L369.093 360.594ZM328.628 357.425C336.719 355.62 342.492 350.717 340.86 343.401C339.228 336.085 331.918 334.102 323.827 335.907C315.736 337.712 309.963 342.615 311.595 349.931C313.228 357.247 320.538 359.23 328.628 357.425Z" fill="white"/>
<path d="M307.537 309.609L310.901 321.489C299.423 324.006 293.288 315.936 290.405 305.754C287.401 295.147 288.816 285.581 300.271 282.337L330.394 273.806L333.758 285.685L325.273 288.088L325.393 288.512C325.393 288.512 335.92 288.464 339.116 299.75C341.399 307.81 339.347 314.807 331.202 317.114C322.971 319.445 317.315 313.714 313.382 306.946C309.424 300.092 306.86 293.303 301.939 294.696C298.46 295.682 297.144 298.804 298.466 303.471C299.908 308.562 302.737 310.785 307.537 309.609ZM311.527 291.981C313.862 293.428 315.924 297.152 317.734 300.305C319.749 303.859 322.613 306.531 326.517 305.426C329.911 304.465 331.359 301.488 330.278 297.67C327.995 289.609 318.061 290.131 311.527 291.981Z" fill="white"/>
<path d="M329.339 270.887L284.77 281.682L281.863 269.683L291.291 267.399L289.838 261.399C288.592 256.257 288.177 254.542 282.606 255.892L278.749 256.826L275.843 244.827L280.985 243.581C290.842 241.194 294.672 243.895 297.683 256.323L299.862 265.323L326.433 258.887L329.339 270.887Z" fill="white"/>
<path d="M274.187 238.416L270.426 197.138L280.087 196.258L281.447 211.188L302.964 209.228C306.916 208.867 308.114 207.43 307.754 203.478C307.514 200.843 306.954 199.566 306.954 199.566L316.176 198.726C316.176 198.726 317.254 200.841 317.734 206.111C318.495 214.454 316.819 220.363 306.28 221.323L282.567 223.483L283.847 237.535L274.187 238.416Z" fill="white"/>
<path d="M281.773 141.639L323.265 169.399C332.497 175.561 336.491 181.533 334.14 190.489C333.021 194.754 330.846 197.83 330.846 197.83L321.036 195.255C321.036 195.255 322.561 192.92 323.345 189.935C324.464 185.67 322.609 183.359 318.963 180.578L269.905 186.847L273.264 174.052L305.365 170.9L278.414 154.434L281.773 141.639Z" fill="white"/>
<path d="M19.0164 49.5352V26.606H25.1897V31.4564H28.2763C30.9219 31.4564 31.8038 31.4564 31.8038 28.5903V26.606H37.9771V29.2517C37.9771 34.3226 36.2133 35.8659 29.8196 35.8659H25.1897V49.5352H19.0164ZM38.3887 38.0706C38.3887 31.3682 42.3131 25.9446 49.8533 25.9446C57.3934 25.9446 60.8769 31.3682 60.8769 38.0706C60.8769 38.5997 60.8328 39.3934 60.8328 39.3934H44.606C44.8706 42.921 46.3698 45.5667 50.0738 45.5667C53.8218 45.5667 54.4832 42.0391 54.4832 42.0391H60.6564C60.6564 42.0391 59.3336 50.1966 49.8533 50.1966C42.1367 50.1966 38.3887 44.773 38.3887 38.0706ZM49.8533 30.5745C46.8108 30.5745 45.3116 32.6029 44.7824 35.4249H54.5273C54.1304 32.6029 52.8958 30.5745 49.8533 30.5745ZM62.4168 42.0391H68.3695C68.3695 42.0391 68.3695 46.0076 73.2199 46.0076C76.527 46.0076 77.4089 44.4643 77.4089 43.1415C77.4089 38.2911 62.8577 42.0391 62.8577 33.2202C62.8577 29.2517 66.6057 25.9446 72.779 25.9446C81.5979 25.9446 82.9207 31.0155 82.9207 33.2202H76.9679C76.9679 33.2202 76.9679 30.1336 72.779 30.1336C70.3538 30.1336 69.0309 31.3682 69.0309 32.7793C69.0309 36.7478 83.5821 33.8816 83.5821 42.48C83.5821 46.8895 79.8341 50.1966 73.2199 50.1966C64.1805 50.1966 62.4168 44.6848 62.4168 42.0391ZM83.9852 26.606H104.71V31.4564H97.2135V42.2596C97.2135 44.2438 97.8749 44.9052 99.8592 44.9052C101.182 44.9052 101.843 44.6848 101.843 44.6848V49.3147C101.843 49.3147 100.741 49.7556 98.0954 49.7556C93.9064 49.7556 91.0403 48.6533 91.0403 43.3619V31.4564H83.9852V26.606ZM129.182 26.606L121.025 50.1966C119.217 55.4438 116.836 58.1336 112.206 58.1336C110.001 58.1336 108.237 57.4722 108.237 57.4722V52.4013C108.237 52.4013 109.56 52.8422 111.103 52.8422C113.308 52.8422 114.19 51.6517 115.072 49.5352L105.812 26.606H112.426L118.026 41.7304L122.568 26.606H129.182ZM148.134 44.6848V49.5352H130.717V26.606H136.89V44.6848H148.134ZM148.324 38.0706C148.324 31.3682 152.248 25.9446 159.788 25.9446C167.328 25.9446 170.812 31.3682 170.812 38.0706C170.812 38.5997 170.768 39.3934 170.768 39.3934H154.541C154.805 42.921 156.305 45.5667 160.009 45.5667C163.757 45.5667 164.418 42.0391 164.418 42.0391H170.591C170.591 42.0391 169.268 50.1966 159.788 50.1966C152.072 50.1966 148.324 44.773 148.324 38.0706ZM159.788 30.5745C156.746 30.5745 155.246 32.6029 154.717 35.4249H164.462C164.065 32.6029 162.831 30.5745 159.788 30.5745Z" fill="white"/>
<path d="M423.721 304.429V309.279H402.556V307.295C402.556 296.712 417.548 298.476 417.548 293.626C417.548 291.421 415.784 290.319 413.138 290.319C410.493 290.319 408.729 291.862 408.729 294.728V295.39H402.556V294.728C402.556 288.996 406.965 285.689 413.359 285.689C419.312 285.689 423.721 288.555 423.721 293.626C423.721 301.563 412.257 300.901 409.611 304.429H423.721ZM431.637 297.815C431.637 301.96 433.225 305.311 437.149 305.311C441.074 305.311 442.661 301.96 442.661 297.815C442.661 293.67 441.074 290.319 437.149 290.319C433.225 290.319 431.637 293.67 431.637 297.815ZM425.464 297.815C425.464 291.112 429.609 285.689 437.149 285.689C444.689 285.689 448.834 291.112 448.834 297.815C448.834 304.517 444.689 309.941 437.149 309.941C429.609 309.941 425.464 304.517 425.464 297.815ZM451.494 306.193C451.494 304.253 453.081 302.665 455.021 302.665C456.961 302.665 458.549 304.253 458.549 306.193C458.549 308.133 456.961 309.72 455.021 309.72C453.081 309.72 451.494 308.133 451.494 306.193ZM451.494 289.878C451.494 287.938 453.081 286.35 455.021 286.35C456.961 286.35 458.549 287.938 458.549 289.878C458.549 291.818 456.961 293.405 455.021 293.405C453.081 293.405 451.494 291.818 451.494 289.878ZM467.378 297.815C467.378 301.96 468.965 305.311 472.89 305.311C476.814 305.311 478.402 301.96 478.402 297.815C478.402 293.67 476.814 290.319 472.89 290.319C468.965 290.319 467.378 293.67 467.378 297.815ZM461.205 297.815C461.205 291.112 465.35 285.689 472.89 285.689C480.43 285.689 484.575 291.112 484.575 297.815C484.575 304.517 480.43 309.941 472.89 309.941C465.35 309.941 461.205 304.517 461.205 297.815ZM492.526 297.815C492.526 301.96 494.113 305.311 498.038 305.311C501.962 305.311 503.549 301.96 503.549 297.815C503.549 293.67 501.962 290.319 498.038 290.319C494.113 290.319 492.526 293.67 492.526 297.815ZM486.352 297.815C486.352 291.112 490.497 285.689 498.038 285.689C505.578 285.689 509.723 291.112 509.723 297.815C509.723 304.517 505.578 309.941 498.038 309.941C490.497 309.941 486.352 304.517 486.352 297.815Z" fill="white"/>
</g>
<defs>
<clipPath id="clip0_879_36">
<rect width="541.535" height="766.142" fill="white"/>
</clipPath>
</defs>
</svg>
