<svg width="543" height="767" viewBox="0 0 543 767" fill="none" xmlns="http://www.w3.org/2000/svg">
<g clip-path="url(#clip0_879_75)">
<rect width="541.535" height="766.142" transform="translate(0.710938)" fill="black"/>
<path d="M701.369 168.419C547.957 164.286 221.635 199.837 143.643 375.112C46.1526 594.207 508.456 512.218 624.893 649.669C718.042 759.63 342.872 1003.69 143.643 1111.97" stroke="#1500FF" stroke-width="92.3228"/>
<path d="M332.108 595.276C276.163 590.867 209.585 567.488 183.289 556.349L234.962 509.154C305.008 513.977 447.512 523.967 457.157 525.345C466.803 526.723 515.146 539.929 538.112 546.359C492.754 564.502 388.053 599.686 332.108 595.276Z" fill="#1500FF"/>
<path d="M241.523 547.664C224.725 550.516 207.985 553.704 191.122 556.172C143.894 563.004 118.926 602.942 121.463 648.135C122.992 674.884 132.931 698.526 152.539 717.466C166.473 730.9 183.391 736.323 202.531 735.345C248.244 732.966 293.998 730.828 339.702 727.809C347.271 727.314 354.416 721.706 362.12 720.546C507.257 698.572 652.639 678.038 797.541 654.673C854.253 645.538 910.093 630.676 966.129 617.559C996.998 610.343 1012.93 588.135 1018.02 558.237C1023.24 527.578 1014.09 502.221 986.433 485.29C971.232 476.021 954.258 473.471 937.28 474.971C844.432 483.278 751.478 490.961 658.853 501.452C549.275 513.884 440.01 529.027 330.588 542.666C326.14 543.223 321.321 540.141 316.564 539.171C312.416 538.295 308.011 537.068 304.011 537.648C283.173 540.84 262.425 544.56 241.596 548.096C241.572 547.952 241.555 547.856 241.531 547.712L241.523 547.664ZM899.778 607.147C894.293 608.868 891.392 610.102 888.385 610.711C844.748 619.798 801.366 630.669 757.347 637.5C621.961 658.46 486.332 677.98 350.783 697.684C346.303 698.346 340.175 696.572 336.717 693.653C317.838 677.553 296.446 672.247 272.314 676.394C254.749 679.376 237.201 682.75 219.522 685.06C199.674 687.689 182.762 676.192 179.226 658.276C176.057 642.224 179.934 627.543 190.196 614.987C205.401 596.359 227.933 597.619 240.246 617.797C245.715 626.744 249.746 636.527 254.592 645.876C263.342 662.808 277.951 663.932 287.288 647.386C298.648 627.336 311.079 607.204 317.808 585.472C322.492 570.308 330.763 569.003 342.451 567.463C420.815 557.023 499.017 545.623 577.464 535.958C670.806 524.457 764.289 514.363 857.715 503.933C872.74 502.271 887.977 502.153 906.316 501.113C870.951 535.36 863.724 569.57 899.778 607.147ZM945.742 510.27C974.759 507.269 993.478 523.002 992.177 550.824C991.501 565.455 984.102 577.13 973.149 586.198C954.66 601.483 927.136 597.861 911.328 578.622C897.834 562.249 900.739 541.265 920.042 525.249C927.57 518.984 937.146 515.185 945.742 510.27Z" fill="#00FF0A"/>
<path d="M313.961 402.508C334.246 406.707 354.615 410.5 374.803 415.163C431.313 428.311 477.253 394.123 494.366 341.819C504.464 310.848 503.664 279.677 489.833 249.556C479.994 228.178 463.232 214.554 441.123 207.197C388.299 189.675 335.535 171.862 282.44 155.069C273.648 152.282 263.076 155.472 253.839 153.379C79.7478 114.077 -93.9834 73.0373 -268.422 35.4165C-336.691 20.6801 -406.503 12.8166 -475.768 2.89061C-513.92 -2.58937 -541.783 15.5165 -560.777 47.1235C-580.24 79.5399 -581.099 112.302 -557.259 143.71C-544.143 160.93 -526.047 171.325 -506.156 177.134C-397.329 208.789 -288.657 241.196 -179.116 270.279C-49.518 304.661 80.9257 335.834 210.882 368.78C216.166 370.115 220.26 375.737 225.218 378.94C229.529 381.766 233.975 385.104 238.762 386.216C263.773 391.816 288.916 396.779 314.069 401.986C314.033 402.16 314.009 402.276 313.973 402.45L313.961 402.508ZM-405.228 44.026C-398.255 44.5024 -394.424 44.3888 -390.748 45.0288C-337.31 54.0358 -283.37 60.9104 -230.496 72.6413C-67.8981 108.778 94.3397 146.653 256.568 184.285C261.933 185.516 268.089 190.236 270.714 195.07C284.975 221.655 306.855 237.124 336.02 243.1C357.232 247.491 378.598 251.431 399.642 256.633C423.282 262.433 437.352 282.934 433.432 304.787C429.923 324.369 419.039 339.281 401.865 348.962C376.406 363.335 351.445 351.942 346.424 323.645C344.186 311.093 343.948 298.231 342.594 285.5C340.172 262.455 324.125 254.72 306.233 269.33C284.501 287.013 261.518 304.316 244.286 325.952C232.275 341.054 222.33 338.875 208.413 335.45C115.045 312.617 21.4378 290.943 -71.6799 267.194C-182.48 238.939 -292.817 209.027 -403.237 179.521C-420.988 174.759 -438.296 168.154 -459.526 161.221C-404.328 138.076 -381.013 102.528 -405.228 44.026ZM-500.128 133.415C-534.318 123.98 -548.559 97.8838 -534.782 66.9498C-527.545 50.6784 -514.002 40.729 -497.587 35.3027C-469.889 26.1682 -440.318 42.4435 -430.924 71.2235C-422.882 95.7345 -435.453 118.215 -464.397 127.817C-475.693 131.583 -488.218 131.649 -500.128 133.415Z" fill="#00FF0A"/>
<path d="M42.2153 202.737C42.2153 206.881 43.8027 210.233 47.7271 210.233C51.6515 210.233 53.2389 206.881 53.2389 202.737C53.2389 198.592 51.6515 195.241 47.7271 195.241C43.8027 195.241 42.2153 198.592 42.2153 202.737ZM36.042 202.737C36.042 196.034 40.1869 190.611 47.7271 190.611C55.2672 190.611 59.4121 196.034 59.4121 202.737C59.4121 209.439 55.2672 214.863 47.7271 214.863C40.1869 214.863 36.042 209.439 36.042 202.737ZM73.1159 214.201H60.108V209.351L73.1159 191.272H79.2891V209.351H84.5804V214.201H79.2891V222.138H73.1159V214.201ZM65.3993 209.351H73.1159V198.327L65.3993 209.351ZM86.3477 211.115C86.3477 209.174 87.9351 207.587 89.8752 207.587C91.8154 207.587 93.4028 209.174 93.4028 211.115C93.4028 213.055 91.8154 214.642 89.8752 214.642C87.9351 214.642 86.3477 213.055 86.3477 211.115ZM100.907 202.737C100.907 206.881 102.495 210.233 106.419 210.233C110.344 210.233 111.931 206.881 111.931 202.737C111.931 198.592 110.344 195.241 106.419 195.241C102.495 195.241 100.907 198.592 100.907 202.737ZM94.7342 202.737C94.7342 196.034 98.8791 190.611 106.419 190.611C113.959 190.611 118.104 196.034 118.104 202.737C118.104 209.439 113.959 214.863 106.419 214.863C98.8791 214.863 94.7342 209.439 94.7342 202.737ZM140.406 191.272V195.681C132.91 202.516 130.706 213.76 130.706 222.138H124.092C124.532 211.776 128.28 201.855 134.013 196.122H118.8V191.272H140.406Z" fill="white"/>
<path d="M236.727 723.161L228.57 746.751C226.762 751.999 224.381 754.688 219.751 754.688C217.546 754.688 215.782 754.027 215.782 754.027V748.956C215.782 748.956 217.105 749.397 218.648 749.397C220.853 749.397 221.735 748.206 222.617 746.09L213.357 723.161H219.971L225.571 738.285L230.113 723.161H236.727ZM233.639 746.09L241.884 723.161H248.851L257.097 746.09H250.483L245.191 729.819L239.9 746.09H233.639ZM258.85 743.003C258.85 741.063 260.437 739.476 262.378 739.476C264.318 739.476 265.905 741.063 265.905 743.003C265.905 744.943 264.318 746.531 262.378 746.531C260.437 746.531 258.85 744.943 258.85 743.003ZM283.09 746.09V737.05H274.492V746.09H268.318V723.161H274.492V732.2H283.09V723.161H289.263V746.09H283.09ZM312.871 723.161V746.09H306.918V742.342H306.698C306.698 742.342 304.714 746.751 299.643 746.751C293.249 746.751 291.485 742.562 291.485 737.271V723.161H297.658V735.948C297.658 739.917 298.761 741.68 301.627 741.68C304.934 741.68 306.698 739.696 306.698 735.066V723.161H312.871ZM315.083 746.09V723.161H321.256V732.421L329.413 723.161H336.689L328.046 732.112L337.13 746.09H329.59L323.769 736.521L321.256 739.123V746.09H315.083ZM342.437 734.625C342.437 738.77 344.024 742.121 347.948 742.121C351.873 742.121 353.46 738.77 353.46 734.625C353.46 730.48 351.873 727.129 347.948 727.129C344.024 727.129 342.437 730.48 342.437 734.625ZM336.263 734.625C336.263 727.923 340.408 722.499 347.948 722.499C355.489 722.499 359.634 727.923 359.634 734.625C359.634 741.328 355.489 746.751 347.948 746.751C340.408 746.751 336.263 741.328 336.263 734.625ZM359.42 746.09L367.666 723.161H374.633L382.878 746.09H376.264L370.973 729.819L365.681 746.09H359.42ZM384.411 746.09V723.161H390.584V731.539H394.332C400.726 731.539 404.253 734.405 404.253 738.814C404.253 743.224 400.726 746.09 394.332 746.09H384.411ZM393.45 735.948H390.584V741.68H393.45C396.757 741.68 398.08 740.799 398.08 738.814C398.08 736.83 396.757 735.948 393.45 735.948ZM405.807 734.625C405.807 727.923 409.776 722.499 417.272 722.499C427.413 722.499 428.075 731.539 428.075 731.539H421.901C421.901 731.539 421.681 727.129 417.272 727.129C413.347 727.129 411.98 730.48 411.98 734.625C411.98 738.77 413.347 742.121 417.272 742.121C421.681 742.121 421.901 737.712 421.901 737.712H428.075C428.075 737.712 427.413 746.751 417.272 746.751C409.776 746.751 405.807 741.328 405.807 734.625ZM430.056 746.09V723.161H436.229V732.421L444.386 723.161H451.662L443.019 732.112L452.103 746.09H444.563L438.742 736.521L436.229 739.123V746.09H430.056ZM458.927 730.216H452.754C453.107 724.351 457.825 722.499 463.116 722.499C468.628 722.499 473.037 724.484 473.037 730.436V746.09H466.864V741.68H466.644C466.644 741.68 465.233 746.751 459.368 746.751C455.179 746.751 452.092 744.811 452.092 740.578C452.092 736.301 455.62 734.361 459.412 733.391C463.248 732.421 466.864 732.112 466.864 729.554C466.864 727.747 465.541 726.688 463.116 726.688C460.47 726.688 459.015 727.747 458.927 730.216ZM466.864 734.537C465.85 735.463 463.777 735.948 462.014 736.389C460.029 736.874 458.354 737.888 458.354 739.917C458.354 741.68 459.588 742.783 461.573 742.783C465.762 742.783 466.864 737.932 466.864 734.537ZM495.73 723.161V746.09H489.557V737.712H485.148L481.488 746.09H474.565L479.239 736.61C476.593 735.375 475.227 733.214 475.227 730.436C475.227 726.027 478.754 723.161 485.148 723.161H495.73ZM486.03 733.302H489.557V727.57H486.03C482.723 727.57 481.4 728.452 481.4 730.436C481.4 732.421 482.723 733.302 486.03 733.302ZM529.678 723.161V727.57C522.182 734.405 519.977 745.649 519.977 754.027H513.363C513.804 743.665 517.552 733.743 523.284 728.011H508.072V723.161H529.678Z" fill="white"/>
<path d="M701.369 168.419C547.957 164.286 221.635 199.837 143.643 375.112C46.1526 594.207 508.456 512.218 624.893 649.669C718.042 759.63 342.872 1003.69 143.643 1111.97" stroke="#1500FF" stroke-width="92.3228"/>
<path d="M100.018 465.99L131.761 432.893L140.353 441.134L135.165 446.544L135.483 446.849C135.483 446.849 144.451 443.231 151.771 450.251C161 459.102 157.746 467.591 150.421 475.228L130.887 495.596L121.977 487.05L139.679 468.592C145.173 462.863 146.024 458.791 141.887 454.824C137.113 450.245 131.82 450.668 125.411 457.351L108.929 474.536L100.018 465.99Z" fill="white"/>
<path d="M146.448 483.923C153.166 472.323 165.394 466.87 178.444 474.428C191.494 481.986 192.086 494.864 185.368 506.464C184.838 507.38 183.966 508.709 183.966 508.709L155.882 492.444C152.804 498.814 152.747 504.896 159.158 508.609C165.644 512.365 170.325 506.923 170.325 506.923L181.009 513.111C181.009 513.111 170.543 525.903 154.135 516.401C140.78 508.666 139.73 495.522 146.448 483.923ZM173.803 482.441C168.538 479.391 163.91 481.399 160.165 485.753L177.031 495.52C179.173 490.239 179.069 485.491 173.803 482.441Z" fill="white"/>
<path d="M199.469 513.727C197.344 521.74 198.694 529.032 206.281 531.044C213.867 533.056 218.654 527.392 220.779 519.379C222.904 511.366 221.554 504.074 213.967 502.062C206.381 500.05 201.594 505.715 199.469 513.727ZM187.535 510.562C190.971 497.605 201.764 489.246 216.341 493.112C230.917 496.977 236.149 509.587 232.713 522.544C229.277 535.501 218.483 543.861 203.907 539.995C189.33 536.129 184.098 523.519 187.535 510.562Z" fill="white"/>
<path d="M230.889 545.731L241.6 501.141L253.176 503.921L251.425 511.21L251.854 511.313C251.854 511.313 257.772 503.665 267.633 506.034C280.067 509.02 281.54 517.99 279.069 528.28L272.477 555.72L260.472 552.837L266.446 527.969C268.3 520.252 266.98 516.307 261.406 514.968C254.975 513.423 250.618 516.458 248.455 525.462L242.894 548.614L230.889 545.731Z" fill="white"/>
<path d="M297.868 577.728L310.507 517.303L322.16 519.741L320.897 525.783L321.328 525.873C321.328 525.873 326.747 519.349 336.674 521.425C349.622 524.133 353.749 536.709 351.131 549.226C348.513 561.742 339.692 571.61 326.744 568.901C317.249 566.915 314.628 560.06 314.628 560.06L314.196 559.97L309.953 580.256L297.868 577.728ZM317.466 542.184C315.769 550.298 317.85 557.581 325.187 559.116C332.524 560.65 337.349 554.812 339.046 546.698C340.743 538.584 338.663 531.301 331.326 529.766C323.988 528.232 319.163 534.07 317.466 542.184Z" fill="white"/>
<path d="M368.974 543.672L356.847 541.357C359.739 529.969 369.702 528.099 380.097 530.084C390.925 532.15 398.844 537.702 396.612 549.396L390.742 580.148L378.614 577.833L380.268 569.171L379.835 569.088C379.835 569.088 375.161 578.521 363.64 576.322C355.411 574.751 350.074 569.782 351.662 561.466C353.266 553.064 360.923 550.575 368.737 550.091C376.637 549.624 383.856 550.373 384.815 545.349C385.493 541.797 383.291 539.222 378.526 538.313C373.329 537.321 370.073 538.854 368.974 543.672ZM382.946 555.138C380.607 556.577 376.354 556.752 372.723 556.957C368.643 557.166 364.971 558.53 364.211 562.515C363.549 565.98 365.561 568.608 369.459 569.352C377.689 570.923 381.673 561.808 382.946 555.138Z" fill="white"/>
<path d="M395.205 579.841L405.665 535.192L417.686 538.008L415.473 547.453L421.484 548.861C426.636 550.068 428.353 550.471 429.661 544.889L430.566 541.026L442.587 543.842L441.38 548.994C439.066 558.868 434.928 561.069 422.477 558.152L413.462 556.04L407.226 582.657L395.205 579.841Z" fill="white"/>
<path d="M444.799 544.132L484.901 554.612L482.449 563.997L467.944 560.207L462.481 581.111C461.478 584.951 462.423 586.565 466.263 587.568C468.822 588.237 470.214 588.145 470.214 588.145L467.873 597.104C467.873 597.104 465.517 597.4 460.397 596.062C452.291 593.944 447.303 590.362 449.978 580.123L455.998 557.085L442.346 553.518L444.799 544.132Z" fill="white"/>
<path d="M530.773 570.95L500.302 610.495C493.537 619.295 487.312 622.881 478.532 619.936C474.352 618.534 471.428 616.158 471.428 616.158L474.653 606.543C474.653 606.543 476.881 608.22 479.807 609.202C483.988 610.604 486.417 608.907 489.435 605.455L486.459 556.088L499.001 560.294L500.001 592.534L518.231 566.744L530.773 570.95Z" fill="white"/>
<path d="M21.7938 49.5352V26.606H27.967V31.4564H31.0536C33.6993 31.4564 34.5812 31.4564 34.5812 28.5903V26.606H40.7544V29.2517C40.7544 34.3226 38.9906 35.8659 32.5969 35.8659H27.967V49.5352H21.7938ZM41.1661 38.0706C41.1661 31.3682 45.0905 25.9446 52.6306 25.9446C60.1708 25.9446 63.6543 31.3682 63.6543 38.0706C63.6543 38.5997 63.6102 39.3934 63.6102 39.3934H47.3834C47.648 42.921 49.1472 45.5667 52.8511 45.5667C56.5991 45.5667 57.2606 42.0391 57.2606 42.0391H63.4338C63.4338 42.0391 62.1109 50.1966 52.6306 50.1966C44.9141 50.1966 41.1661 44.773 41.1661 38.0706ZM52.6306 30.5745C49.5881 30.5745 48.0889 32.6029 47.5598 35.4249H57.3046C56.9078 32.6029 55.6731 30.5745 52.6306 30.5745ZM65.1941 42.0391H71.1469C71.1469 42.0391 71.1469 46.0076 75.9973 46.0076C79.3043 46.0076 80.1862 44.4643 80.1862 43.1415C80.1862 38.2911 65.6351 42.0391 65.6351 33.2202C65.6351 29.2517 69.3831 25.9446 75.5563 25.9446C84.3752 25.9446 85.698 31.0155 85.698 33.2202H79.7453C79.7453 33.2202 79.7453 30.1336 75.5563 30.1336C73.1311 30.1336 71.8083 31.3682 71.8083 32.7793C71.8083 36.7478 86.3595 33.8816 86.3595 42.48C86.3595 46.8895 82.6114 50.1966 75.9973 50.1966C66.9579 50.1966 65.1941 44.6848 65.1941 42.0391ZM86.7625 26.606H107.487V31.4564H99.9909V42.2596C99.9909 44.2438 100.652 44.9052 102.637 44.9052C103.959 44.9052 104.621 44.6848 104.621 44.6848V49.3147C104.621 49.3147 103.518 49.7556 100.873 49.7556C96.6838 49.7556 93.8176 48.6533 93.8176 43.3619V31.4564H86.7625V26.606ZM131.959 26.606L123.802 50.1966C121.994 55.4438 119.613 58.1336 114.983 58.1336C112.778 58.1336 111.014 57.4722 111.014 57.4722V52.4013C111.014 52.4013 112.337 52.8422 113.881 52.8422C116.085 52.8422 116.967 51.6517 117.849 49.5352L108.589 26.606H115.203L120.803 41.7304L125.345 26.606H131.959ZM150.911 44.6848V49.5352H133.494V26.606H139.667V44.6848H150.911ZM151.101 38.0706C151.101 31.3682 155.025 25.9446 162.565 25.9446C170.106 25.9446 173.589 31.3682 173.589 38.0706C173.589 38.5997 173.545 39.3934 173.545 39.3934H157.318C157.583 42.921 159.082 45.5667 162.786 45.5667C166.534 45.5667 167.195 42.0391 167.195 42.0391H173.369C173.369 42.0391 172.046 50.1966 162.565 50.1966C154.849 50.1966 151.101 44.773 151.101 38.0706ZM162.565 30.5745C159.523 30.5745 158.024 32.6029 157.495 35.4249H167.239C166.843 32.6029 165.608 30.5745 162.565 30.5745Z" fill="white"/>
<path d="M316.606 432.342V425.176H320.051C321.911 425.176 322.876 425.797 322.876 427.106C322.876 428.277 321.774 428.552 321.774 428.552V428.621C321.774 428.621 323.083 428.897 323.083 430.275C323.083 431.653 322.187 432.342 320.258 432.342H316.606ZM320.051 429.31H318.535V430.964H320.189C320.809 430.964 321.153 430.688 321.153 430.137C321.153 429.586 320.74 429.31 320.051 429.31ZM318.535 428.07H319.913C320.602 428.07 320.947 427.795 320.947 427.312C320.947 426.83 320.671 426.554 320.051 426.554H318.535V428.07ZM323.494 428.759C323.494 426.665 324.721 424.97 327.077 424.97C329.433 424.97 330.522 426.665 330.522 428.759C330.522 428.924 330.508 429.173 330.508 429.173H325.437C325.52 430.275 325.988 431.102 327.146 431.102C328.317 431.102 328.524 429.999 328.524 429.999H330.453C330.453 429.999 330.04 432.548 327.077 432.548C324.666 432.548 323.494 430.854 323.494 428.759ZM327.077 426.417C326.126 426.417 325.658 427.05 325.492 427.932H328.538C328.414 427.05 328.028 426.417 327.077 426.417ZM337.409 425.176V432.342H335.48V429.586H333.62C331.622 429.586 331.07 429.104 331.07 427.519V425.176H333V427.312C333 428.208 333.275 428.208 334.102 428.208H335.48V425.176H337.409ZM338.027 428.759C338.027 426.665 339.254 424.97 341.61 424.97C343.966 424.97 345.055 426.665 345.055 428.759C345.055 428.924 345.041 429.173 345.041 429.173H339.97C340.053 430.275 340.522 431.102 341.679 431.102C342.85 431.102 343.057 429.999 343.057 429.999H344.986C344.986 429.999 344.573 432.548 341.61 432.548C339.199 432.548 338.027 430.854 338.027 428.759ZM341.61 426.417C340.659 426.417 340.191 427.05 340.025 427.932H343.071C342.947 427.05 342.561 426.417 341.61 426.417ZM345.672 434.822V425.176H347.533V426.141H347.602C347.602 426.141 348.222 424.97 349.806 424.97C351.873 424.97 352.907 426.761 352.907 428.759C352.907 430.757 351.873 432.548 349.806 432.548C348.291 432.548 347.67 431.584 347.67 431.584H347.602V434.822H345.672ZM347.533 428.759C347.533 430.054 348.084 431.102 349.255 431.102C350.426 431.102 350.978 430.054 350.978 428.759C350.978 427.464 350.426 426.417 349.255 426.417C348.084 426.417 347.533 427.464 347.533 428.759ZM360.214 425.176V432.342H358.354V431.171H358.285C358.285 431.171 357.665 432.548 356.08 432.548C354.082 432.548 353.531 431.239 353.531 429.586V425.176H355.46V429.173C355.46 430.413 355.805 430.964 356.7 430.964C357.734 430.964 358.285 430.344 358.285 428.897V425.176H360.214ZM365.521 432.342V429.517H362.834V432.342H360.905V425.176H362.834V428.001H365.521V425.176H367.451V432.342H365.521ZM368.145 432.342V425.176H370.074V428.07L372.623 425.176H374.897L372.196 427.974L375.035 432.342H372.678L370.859 429.352L370.074 430.165V432.342H368.145ZM377.167 427.381H375.238C375.348 425.548 376.823 424.97 378.476 424.97C380.199 424.97 381.577 425.59 381.577 427.45V432.342H379.648V430.964H379.579C379.579 430.964 379.138 432.548 377.305 432.548C375.996 432.548 375.031 431.942 375.031 430.619C375.031 429.283 376.134 428.676 377.319 428.373C378.518 428.07 379.648 427.974 379.648 427.174C379.648 426.61 379.234 426.279 378.476 426.279C377.65 426.279 377.195 426.61 377.167 427.381ZM379.648 428.732C379.331 429.021 378.683 429.173 378.132 429.31C377.512 429.462 376.988 429.779 376.988 430.413C376.988 430.964 377.374 431.308 377.994 431.308C379.303 431.308 379.648 429.793 379.648 428.732ZM385.502 428.759C385.502 426.665 386.742 424.97 389.085 424.97C392.254 424.97 392.461 427.795 392.461 427.795H390.532C390.532 427.795 390.463 426.417 389.085 426.417C387.859 426.417 387.431 427.464 387.431 428.759C387.431 430.054 387.859 431.102 389.085 431.102C390.463 431.102 390.532 429.724 390.532 429.724H392.461C392.461 429.724 392.254 432.548 389.085 432.548C386.742 432.548 385.502 430.854 385.502 428.759ZM403.556 425.176V431.515C403.556 433.582 402.453 435.029 399.973 435.029C396.666 435.029 396.597 432.548 396.597 432.548H398.526C398.526 432.548 398.595 433.582 399.973 433.582C401.199 433.582 401.626 432.893 401.626 431.653V431.308H401.558C401.558 431.308 400.937 432.273 399.422 432.273C397.355 432.273 396.321 430.482 396.321 428.621C396.321 426.761 397.355 424.97 399.422 424.97C401.006 424.97 401.626 426.141 401.626 426.141H401.695V425.176H403.556ZM401.695 428.621C401.695 427.464 401.144 426.417 399.973 426.417C398.802 426.417 398.25 427.464 398.25 428.621C398.25 429.779 398.802 430.826 399.973 430.826C401.144 430.826 401.695 429.779 401.695 428.621ZM404.249 434.822V425.176H406.109V426.141H406.178C406.178 426.141 406.798 424.97 408.383 424.97C410.45 424.97 411.483 426.761 411.483 428.759C411.483 430.757 410.45 432.548 408.383 432.548C406.867 432.548 406.247 431.584 406.247 431.584H406.178V434.822H404.249ZM406.109 428.759C406.109 430.054 406.66 431.102 407.832 431.102C409.003 431.102 409.554 430.054 409.554 428.759C409.554 427.464 409.003 426.417 407.832 426.417C406.66 426.417 406.109 427.464 406.109 428.759ZM412.039 428.759C412.039 426.665 413.265 424.97 415.621 424.97C417.978 424.97 419.066 426.665 419.066 428.759C419.066 428.924 419.052 429.173 419.052 429.173H413.981C414.064 430.275 414.533 431.102 415.69 431.102C416.861 431.102 417.068 429.999 417.068 429.999H418.997C418.997 429.999 418.584 432.548 415.621 432.548C413.21 432.548 412.039 430.854 412.039 428.759ZM415.621 426.417C414.67 426.417 414.202 427.05 414.037 427.932H417.082C416.958 427.05 416.572 426.417 415.621 426.417ZM419.615 428.759C419.615 426.665 420.855 424.97 423.197 424.97C426.367 424.97 426.573 427.795 426.573 427.795H424.644C424.644 427.795 424.575 426.417 423.197 426.417C421.971 426.417 421.544 427.464 421.544 428.759C421.544 430.054 421.971 431.102 423.197 431.102C424.575 431.102 424.644 429.724 424.644 429.724H426.573C426.573 429.724 426.367 432.548 423.197 432.548C420.855 432.548 419.615 430.854 419.615 428.759ZM427.123 428.759C427.123 426.665 428.364 424.97 430.706 424.97C433.875 424.97 434.082 427.795 434.082 427.795H432.153C432.153 427.795 432.084 426.417 430.706 426.417C429.48 426.417 429.053 427.464 429.053 428.759C429.053 430.054 429.48 431.102 430.706 431.102C432.084 431.102 432.153 429.724 432.153 429.724H434.082C434.082 429.724 433.875 432.548 430.706 432.548C428.364 432.548 427.123 430.854 427.123 428.759ZM434.77 428.759V428.208H439.455V428.759H434.77ZM440.218 432.342V425.176H442.147V428.07L444.697 425.176H446.97L444.269 427.974L447.108 432.342H444.752L442.933 429.352L442.147 430.165V432.342H440.218ZM448.766 428.759C448.766 430.054 449.262 431.102 450.489 431.102C451.715 431.102 452.211 430.054 452.211 428.759C452.211 427.464 451.715 426.417 450.489 426.417C449.262 426.417 448.766 427.464 448.766 428.759ZM446.837 428.759C446.837 426.665 448.133 424.97 450.489 424.97C452.845 424.97 454.14 426.665 454.14 428.759C454.14 430.854 452.845 432.548 450.489 432.548C448.133 432.548 446.837 430.854 446.837 428.759ZM461.93 425.176V431.515C461.93 433.582 460.828 435.029 458.347 435.029C455.04 435.029 454.971 432.548 454.971 432.548H456.901C456.901 432.548 456.97 433.582 458.347 433.582C459.574 433.582 460.001 432.893 460.001 431.653V431.308H459.932C459.932 431.308 459.312 432.273 457.796 432.273C455.729 432.273 454.696 430.482 454.696 428.621C454.696 426.761 455.729 424.97 457.796 424.97C459.381 424.97 460.001 426.141 460.001 426.141H460.07V425.176H461.93ZM460.07 428.621C460.07 427.464 459.519 426.417 458.347 426.417C457.176 426.417 456.625 427.464 456.625 428.621C456.625 429.779 457.176 430.826 458.347 430.826C459.519 430.826 460.07 429.779 460.07 428.621ZM464.484 428.759C464.484 430.054 464.98 431.102 466.206 431.102C467.432 431.102 467.929 430.054 467.929 428.759C467.929 427.464 467.432 426.417 466.206 426.417C464.98 426.417 464.484 427.464 464.484 428.759ZM462.555 428.759C462.555 426.665 463.85 424.97 466.206 424.97C468.562 424.97 469.858 426.665 469.858 428.759C469.858 430.854 468.562 432.548 466.206 432.548C463.85 432.548 462.555 430.854 462.555 428.759ZM479.163 425.176V432.342H477.372V427.312H477.303L475.718 432.342H473.927L472.342 427.312H472.273V432.342H470.482V425.176H473.376L474.823 430.137L476.269 425.176H479.163ZM479.917 431.377C479.917 430.771 480.413 430.275 481.019 430.275C481.625 430.275 482.121 430.771 482.121 431.377C482.121 431.984 481.625 432.48 481.019 432.48C480.413 432.48 479.917 431.984 479.917 431.377ZM321.222 445.342V442.517H318.535V445.342H316.606V438.176H318.535V441.001H321.222V438.176H323.151V445.342H321.222ZM325.844 440.381H323.915C324.025 438.548 325.499 437.97 327.153 437.97C328.875 437.97 330.253 438.59 330.253 440.45V445.342H328.324V443.964H328.255C328.255 443.964 327.814 445.548 325.982 445.548C324.673 445.548 323.708 444.942 323.708 443.619C323.708 442.283 324.81 441.676 325.995 441.373C327.194 441.07 328.324 440.974 328.324 440.174C328.324 439.61 327.911 439.279 327.153 439.279C326.326 439.279 325.871 439.61 325.844 440.381ZM328.324 441.732C328.007 442.021 327.36 442.173 326.808 442.31C326.188 442.462 325.665 442.779 325.665 443.413C325.665 443.964 326.051 444.308 326.671 444.308C327.98 444.308 328.324 442.793 328.324 441.732ZM338.103 438.176V444.515C338.103 446.582 337 448.029 334.52 448.029C331.213 448.029 331.144 445.548 331.144 445.548H333.073C333.073 445.548 333.142 446.582 334.52 446.582C335.747 446.582 336.174 445.893 336.174 444.653V444.308H336.105C336.105 444.308 335.485 445.273 333.969 445.273C331.902 445.273 330.869 443.482 330.869 441.621C330.869 439.761 331.902 437.97 333.969 437.97C335.554 437.97 336.174 439.141 336.174 439.141H336.243V438.176H338.103ZM336.243 441.621C336.243 440.464 335.691 439.417 334.52 439.417C333.349 439.417 332.798 440.464 332.798 441.621C332.798 442.779 333.349 443.826 334.52 443.826C335.691 443.826 336.243 442.779 336.243 441.621ZM338.727 441.759C338.727 439.665 339.954 437.97 342.31 437.97C344.666 437.97 345.755 439.665 345.755 441.759C345.755 441.924 345.741 442.173 345.741 442.173H340.67C340.753 443.275 341.221 444.102 342.379 444.102C343.55 444.102 343.757 442.999 343.757 442.999H345.686C345.686 442.999 345.272 445.548 342.31 445.548C339.898 445.548 338.727 443.854 338.727 441.759ZM342.31 439.417C341.359 439.417 340.891 440.05 340.725 440.932H343.77C343.646 440.05 343.261 439.417 342.31 439.417ZM350.575 445.342V441.346C350.575 440.106 350.327 439.554 349.569 439.554C348.742 439.554 348.301 440.174 348.301 441.621V445.342H346.372V438.176H348.232V439.348H348.301C348.301 439.348 348.784 437.97 350.23 437.97C351.388 437.97 352.008 438.521 352.284 439.361L352.297 439.348H352.366C352.366 439.348 352.986 437.97 354.433 437.97C356.225 437.97 356.707 439.279 356.707 440.932V445.342H354.778V441.346C354.778 440.106 354.53 439.554 353.772 439.554C352.945 439.554 352.504 440.174 352.504 441.621V445.342H350.575ZM357.393 445.342V438.176H359.322V440.795H360.493C362.491 440.795 363.594 441.69 363.594 443.068C363.594 444.446 362.491 445.342 360.493 445.342H357.393ZM360.218 442.173H359.322V443.964H360.218C361.251 443.964 361.665 443.688 361.665 443.068C361.665 442.448 361.251 442.173 360.218 442.173ZM367.252 445.342L369.829 438.176H372.006L374.583 445.342H372.516L370.862 440.257L369.209 445.342H367.252ZM376.991 438.176V441.001H377.941C378.189 439.279 379.333 437.97 381.4 437.97C383.756 437.97 384.914 439.665 384.914 441.759C384.914 443.854 383.756 445.548 381.4 445.548C379.333 445.548 378.189 444.253 377.941 442.517H376.991V445.342H375.062V438.176H376.991ZM379.815 441.759C379.815 443.054 380.174 444.102 381.4 444.102C382.627 444.102 382.985 443.054 382.985 441.759C382.985 440.464 382.627 439.417 381.4 439.417C380.174 439.417 379.815 440.464 379.815 441.759ZM387.46 441.966C387.46 443.123 387.956 444.102 389.182 444.102C390.409 444.102 390.905 443.123 390.905 441.966C390.905 440.808 390.409 439.83 389.182 439.83C387.956 439.83 387.46 440.808 387.46 441.966ZM389.182 445.548C387.253 445.548 385.462 444.446 385.462 441.001C385.462 436.385 387.653 435.696 389.651 435.696H392.283V437.281H389.485C387.928 437.281 387.35 437.97 387.115 439.485H387.184C387.184 439.485 387.804 438.383 389.458 438.383C391.594 438.383 392.834 439.968 392.834 441.966C392.834 443.895 391.594 445.548 389.182 445.548ZM395.317 441.759C395.317 443.054 395.813 444.102 397.039 444.102C398.266 444.102 398.762 443.054 398.762 441.759C398.762 440.464 398.266 439.417 397.039 439.417C395.813 439.417 395.317 440.464 395.317 441.759ZM393.388 441.759C393.388 439.665 394.683 437.97 397.039 437.97C399.396 437.97 400.691 439.665 400.691 441.759C400.691 443.854 399.396 445.548 397.039 445.548C394.683 445.548 393.388 443.854 393.388 441.759ZM402.004 437.487V436.936H407.309V437.487H402.004ZM407.998 438.176V445.342H406.138V444.171H406.069C406.069 444.171 405.449 445.548 403.865 445.548C401.866 445.548 401.315 444.239 401.315 442.586V438.176H403.244V442.173C403.244 443.413 403.589 443.964 404.485 443.964C405.518 443.964 406.069 443.344 406.069 441.897V438.176H407.998ZM418.407 438.176V445.342H416.478V442.724H415.1L413.957 445.342H411.793L413.254 442.379C412.427 441.993 412 441.318 412 440.45C412 439.072 413.102 438.176 415.1 438.176H418.407ZM415.376 441.346H416.478V439.554H415.376C414.342 439.554 413.929 439.83 413.929 440.45C413.929 441.07 414.342 441.346 415.376 441.346ZM419.091 447.822V438.176H420.952V439.141H421.021C421.021 439.141 421.641 437.97 423.225 437.97C425.292 437.97 426.326 439.761 426.326 441.759C426.326 443.757 425.292 445.548 423.225 445.548C421.71 445.548 421.089 444.584 421.089 444.584H421.021V447.822H419.091ZM420.952 441.759C420.952 443.054 421.503 444.102 422.674 444.102C423.845 444.102 424.397 443.054 424.397 441.759C424.397 440.464 423.845 439.417 422.674 439.417C421.503 439.417 420.952 440.464 420.952 441.759ZM426.95 445.342V438.176H428.879V441.07L431.428 438.176H433.702L431.001 440.974L433.84 445.342H431.484L429.665 442.352L428.879 443.165V445.342H426.95ZM440.805 438.176V445.342H438.945V444.171H438.876C438.876 444.171 438.256 445.548 436.672 445.548C434.674 445.548 434.122 444.239 434.122 442.586V438.176H436.052V442.173C436.052 443.413 436.396 443.964 437.292 443.964C438.325 443.964 438.876 443.344 438.876 441.897V438.176H440.805ZM442.186 437.487V436.936H447.491V437.487H442.186ZM448.18 438.176V445.342H446.319V444.171H446.251C446.251 444.171 445.63 445.548 444.046 445.548C442.048 445.548 441.497 444.239 441.497 442.586V438.176H443.426V442.173C443.426 443.413 443.77 443.964 444.666 443.964C445.699 443.964 446.251 443.344 446.251 441.897V438.176H448.18ZM454.11 441.966V441.415H457.128C457.045 440.285 456.604 439.417 455.488 439.417C454.11 439.417 454.041 440.795 454.041 440.795H452.112C452.112 440.795 452.319 437.97 455.488 437.97C457.831 437.97 459.071 439.665 459.071 441.759C459.071 443.854 457.831 445.548 455.488 445.548C452.319 445.548 452.112 442.724 452.112 442.724H454.041C454.041 442.724 454.11 444.102 455.488 444.102C456.646 444.102 457.1 443.165 457.142 441.966H454.11ZM458.999 445.342L461.576 438.176H463.753L466.329 445.342H464.263L462.609 440.257L460.955 445.342H458.999ZM466.255 441.759C466.255 439.665 467.481 437.97 469.838 437.97C472.194 437.97 473.283 439.665 473.283 441.759C473.283 441.924 473.269 442.173 473.269 442.173H468.198C468.281 443.275 468.749 444.102 469.907 444.102C471.078 444.102 471.285 442.999 471.285 442.999H473.214C473.214 442.999 472.8 445.548 469.838 445.548C467.426 445.548 466.255 443.854 466.255 441.759ZM469.838 439.417C468.887 439.417 468.418 440.05 468.253 440.932H471.298C471.174 440.05 470.789 439.417 469.838 439.417ZM482.581 438.176V445.342H480.79V440.312H480.721L479.136 445.342H477.345L475.76 440.312H475.691V445.342H473.9V438.176H476.794L478.241 443.137L479.687 438.176H482.581ZM483.197 441.759C483.197 439.665 484.423 437.97 486.78 437.97C489.136 437.97 490.224 439.665 490.224 441.759C490.224 441.924 490.211 442.173 490.211 442.173H485.14C485.223 443.275 485.691 444.102 486.848 444.102C488.02 444.102 488.226 442.999 488.226 442.999H490.156C490.156 442.999 489.742 445.548 486.78 445.548C484.368 445.548 483.197 443.854 483.197 441.759ZM486.78 439.417C485.829 439.417 485.36 440.05 485.195 440.932H488.24C488.116 440.05 487.73 439.417 486.78 439.417ZM495.458 445.342V442.517H492.771V445.342H490.842V438.176H492.771V441.001H495.458V438.176H497.387V445.342H495.458ZM502.284 445.342V441.346C502.284 440.106 502.036 439.554 501.278 439.554C500.452 439.554 500.011 440.174 500.011 441.621V445.342H498.082V438.176H499.942V439.348H500.011C500.011 439.348 500.493 437.97 501.94 437.97C503.097 437.97 503.717 438.521 503.993 439.361L504.007 439.348H504.076C504.076 439.348 504.696 437.97 506.143 437.97C507.934 437.97 508.416 439.279 508.416 440.932V445.342H506.487V441.346C506.487 440.106 506.239 439.554 505.481 439.554C504.654 439.554 504.213 440.174 504.213 441.621V445.342H502.284ZM323.289 451.176V458.342H321.429V457.171H321.36C321.36 457.171 320.74 458.548 319.155 458.548C317.157 458.548 316.606 457.239 316.606 455.586V451.176H318.535V455.173C318.535 456.413 318.88 456.964 319.775 456.964C320.809 456.964 321.36 456.344 321.36 454.897V451.176H323.289ZM323.98 452.692V451.176H330.595V452.692L328.252 454.897C328.252 454.897 330.87 454.966 330.87 457.86C330.87 459.444 329.768 461.029 327.425 461.029C324.738 461.029 323.774 459.444 323.774 457.791H325.703C325.703 458.755 326.185 459.582 327.425 459.582C328.376 459.582 328.941 458.893 328.941 457.928C328.941 456.895 328.459 456.137 326.53 456.137H325.978V455.035L328.39 452.692H323.98ZM334.665 458.342V451.176H336.525V452.348H336.594C336.594 452.348 337.214 450.97 338.799 450.97C340.797 450.97 341.348 452.279 341.348 453.932V458.342H339.419V454.346C339.419 453.106 339.074 452.554 338.179 452.554C337.145 452.554 336.594 453.174 336.594 454.621V458.342H334.665ZM341.97 454.759C341.97 452.665 343.197 450.97 345.553 450.97C347.909 450.97 348.998 452.665 348.998 454.759C348.998 454.924 348.984 455.173 348.984 455.173H343.913C343.996 456.275 344.464 457.102 345.622 457.102C346.793 457.102 347 455.999 347 455.999H348.929C348.929 455.999 348.516 458.548 345.553 458.548C343.141 458.548 341.97 456.854 341.97 454.759ZM345.553 452.417C344.602 452.417 344.134 453.05 343.968 453.932H347.014C346.89 453.05 346.504 452.417 345.553 452.417ZM349.615 460.822V451.176H351.475V452.141H351.544C351.544 452.141 352.164 450.97 353.749 450.97C355.816 450.97 356.849 452.761 356.849 454.759C356.849 456.757 355.816 458.548 353.749 458.548C352.233 458.548 351.613 457.584 351.613 457.584H351.544V460.822H349.615ZM351.475 454.759C351.475 456.054 352.027 457.102 353.198 457.102C354.369 457.102 354.92 456.054 354.92 454.759C354.92 453.464 354.369 452.417 353.198 452.417C352.027 452.417 351.475 453.464 351.475 454.759ZM357.405 454.759C357.405 452.665 358.631 450.97 360.988 450.97C363.344 450.97 364.432 452.665 364.432 454.759C364.432 454.924 364.419 455.173 364.419 455.173H359.348C359.43 456.275 359.899 457.102 361.056 457.102C362.228 457.102 362.434 455.999 362.434 455.999H364.364C364.364 455.999 363.95 458.548 360.988 458.548C358.576 458.548 357.405 456.854 357.405 454.759ZM360.988 452.417C360.037 452.417 359.568 453.05 359.403 453.932H362.448C362.324 453.05 361.938 452.417 360.988 452.417ZM365.05 460.822V451.176H366.91V452.141H366.979C366.979 452.141 367.599 450.97 369.184 450.97C371.251 450.97 372.284 452.761 372.284 454.759C372.284 456.757 371.251 458.548 369.184 458.548C367.668 458.548 367.048 457.584 367.048 457.584H366.979V460.822H365.05ZM366.91 454.759C366.91 456.054 367.461 457.102 368.633 457.102C369.804 457.102 370.355 456.054 370.355 454.759C370.355 453.464 369.804 452.417 368.633 452.417C367.461 452.417 366.91 453.464 366.91 454.759ZM374.839 453.381H372.91C373.02 451.548 374.495 450.97 376.148 450.97C377.871 450.97 379.249 451.59 379.249 453.45V458.342H377.32V456.964H377.251C377.251 456.964 376.81 458.548 374.977 458.548C373.668 458.548 372.703 457.942 372.703 456.619C372.703 455.283 373.806 454.676 374.991 454.373C376.19 454.07 377.32 453.974 377.32 453.174C377.32 452.61 376.906 452.279 376.148 452.279C375.322 452.279 374.867 452.61 374.839 453.381ZM377.32 454.732C377.003 455.021 376.355 455.173 375.804 455.31C375.184 455.462 374.66 455.779 374.66 456.413C374.66 456.964 375.046 457.308 375.666 457.308C376.975 457.308 377.32 455.793 377.32 454.732ZM381.862 454.966C381.862 456.123 382.358 457.102 383.584 457.102C384.811 457.102 385.307 456.123 385.307 454.966C385.307 453.808 384.811 452.83 383.584 452.83C382.358 452.83 381.862 453.808 381.862 454.966ZM383.584 458.548C381.655 458.548 379.864 457.446 379.864 454.001C379.864 449.385 382.055 448.696 384.053 448.696H386.685V450.281H383.888C382.33 450.281 381.752 450.97 381.517 452.485H381.586C381.586 452.485 382.206 451.383 383.86 451.383C385.996 451.383 387.236 452.968 387.236 454.966C387.236 456.895 385.996 458.548 383.584 458.548ZM389.719 454.759C389.719 456.054 390.215 457.102 391.441 457.102C392.668 457.102 393.164 456.054 393.164 454.759C393.164 453.464 392.668 452.417 391.441 452.417C390.215 452.417 389.719 453.464 389.719 454.759ZM387.79 454.759C387.79 452.665 389.085 450.97 391.441 450.97C393.798 450.97 395.093 452.665 395.093 454.759C395.093 456.854 393.798 458.548 391.441 458.548C389.085 458.548 387.79 456.854 387.79 454.759ZM399.92 458.342V454.346C399.92 453.106 399.672 452.554 398.914 452.554C398.087 452.554 397.647 453.174 397.647 454.621V458.342H395.717V451.176H397.578V452.348H397.647C397.647 452.348 398.129 450.97 399.576 450.97C400.733 450.97 401.353 451.521 401.629 452.361L401.643 452.348H401.711C401.711 452.348 402.332 450.97 403.778 450.97C405.57 450.97 406.052 452.279 406.052 453.932V458.342H404.123V454.346C404.123 453.106 403.875 452.554 403.117 452.554C402.29 452.554 401.849 453.174 401.849 454.621V458.342H399.92ZM408.736 453.381H406.807C406.917 451.548 408.392 450.97 410.045 450.97C411.768 450.97 413.146 451.59 413.146 453.45V458.342H411.217V456.964H411.148C411.148 456.964 410.707 458.548 408.874 458.548C407.565 458.548 406.601 457.942 406.601 456.619C406.601 455.283 407.703 454.676 408.888 454.373C410.087 454.07 411.217 453.974 411.217 453.174C411.217 452.61 410.803 452.279 410.045 452.279C409.219 452.279 408.764 452.61 408.736 453.381ZM411.217 454.732C410.9 455.021 410.252 455.173 409.701 455.31C409.081 455.462 408.557 455.779 408.557 456.413C408.557 456.964 408.943 457.308 409.563 457.308C410.872 457.308 411.217 455.793 411.217 454.732ZM418.446 458.342V455.517H415.759V458.342H413.83V451.176H415.759V454.001H418.446V451.176H420.375V458.342H418.446ZM425.686 458.342V455.517H422.999V458.342H421.07V451.176H422.999V454.001H425.686V451.176H427.615V458.342H425.686ZM428.309 458.342V451.176H430.238V453.795H431.065C433.063 453.795 434.165 454.69 434.165 456.068C434.165 457.446 433.063 458.342 431.065 458.342H428.309ZM430.79 455.173H430.238V456.964H430.79C431.823 456.964 432.236 456.688 432.236 456.068C432.236 455.448 431.823 455.173 430.79 455.173ZM436.646 451.176V458.342H434.717V451.176H436.646ZM439.612 451.176L440.921 453.243L442.23 451.176H444.504L442.024 454.621L444.711 458.342H442.437L440.921 455.999L439.405 458.342H437.132L439.819 454.621L437.339 451.176H439.612ZM457.189 451.176V458.342H455.397V453.312H455.328L453.744 458.342H451.952L450.368 453.312H450.299V458.342H448.507V451.176H451.401L452.848 456.137L454.295 451.176H457.189ZM459.871 453.381H457.942C458.052 451.548 459.527 450.97 461.18 450.97C462.903 450.97 464.281 451.59 464.281 453.45V458.342H462.352V456.964H462.283C462.283 456.964 461.842 458.548 460.009 458.548C458.7 458.548 457.735 457.942 457.735 456.619C457.735 455.283 458.838 454.676 460.023 454.373C461.222 454.07 462.352 453.974 462.352 453.174C462.352 452.61 461.938 452.279 461.18 452.279C460.354 452.279 459.899 452.61 459.871 453.381ZM462.352 454.732C462.035 455.021 461.387 455.173 460.836 455.31C460.216 455.462 459.692 455.779 459.692 456.413C459.692 456.964 460.078 457.308 460.698 457.308C462.007 457.308 462.352 455.793 462.352 454.732ZM469.168 458.342V454.346C469.168 453.106 468.92 452.554 468.162 452.554C467.335 452.554 466.894 453.174 466.894 454.621V458.342H464.965V451.176H466.825V452.348H466.894C466.894 452.348 467.376 450.97 468.823 450.97C469.981 450.97 470.601 451.521 470.876 452.361L470.89 452.348H470.959C470.959 452.348 471.579 450.97 473.026 450.97C474.817 450.97 475.3 452.279 475.3 453.932V458.342H473.37V454.346C473.37 453.106 473.122 452.554 472.364 452.554C471.538 452.554 471.097 453.174 471.097 454.621V458.342H469.168ZM475.917 454.759C475.917 452.665 477.143 450.97 479.5 450.97C481.856 450.97 482.944 452.665 482.944 454.759C482.944 454.924 482.931 455.173 482.931 455.173H477.86C477.943 456.275 478.411 457.102 479.568 457.102C480.74 457.102 480.946 455.999 480.946 455.999H482.876C482.876 455.999 482.462 458.548 479.5 458.548C477.088 458.548 475.917 456.854 475.917 454.759ZM479.5 452.417C478.549 452.417 478.08 453.05 477.915 453.932H480.96C480.836 453.05 480.45 452.417 479.5 452.417ZM483.562 460.822V451.176H485.422V452.141H485.491C485.491 452.141 486.111 450.97 487.696 450.97C489.763 450.97 490.796 452.761 490.796 454.759C490.796 456.757 489.763 458.548 487.696 458.548C486.18 458.548 485.56 457.584 485.56 457.584H485.491V460.822H483.562ZM485.422 454.759C485.422 456.054 485.973 457.102 487.145 457.102C488.316 457.102 488.867 456.054 488.867 454.759C488.867 453.464 488.316 452.417 487.145 452.417C485.973 452.417 485.422 453.464 485.422 454.759ZM498.104 451.176V458.342H496.243V457.171H496.174C496.174 457.171 495.554 458.548 493.97 458.548C491.972 458.548 491.42 457.239 491.42 455.586V451.176H493.35V455.173C493.35 456.413 493.694 456.964 494.59 456.964C495.623 456.964 496.174 456.344 496.174 454.897V451.176H498.104ZM500.793 453.381H498.864C498.974 451.548 500.448 450.97 502.102 450.97C503.824 450.97 505.202 451.59 505.202 453.45V458.342H503.273V456.964H503.204C503.204 456.964 502.763 458.548 500.931 458.548C499.621 458.548 498.657 457.942 498.657 456.619C498.657 455.283 499.759 454.676 500.944 454.373C502.143 454.07 503.273 453.974 503.273 453.174C503.273 452.61 502.86 452.279 502.102 452.279C501.275 452.279 500.82 452.61 500.793 453.381ZM503.273 454.732C502.956 455.021 502.308 455.173 501.757 455.31C501.137 455.462 500.614 455.779 500.614 456.413C500.614 456.964 500.999 457.308 501.62 457.308C502.929 457.308 503.273 455.793 503.273 454.732ZM505.68 458.342L508.256 451.176H510.434L513.01 458.342H510.943L509.29 453.257L507.636 458.342H505.68ZM514.865 454.759C514.865 456.054 515.361 457.102 516.588 457.102C517.814 457.102 518.31 456.054 518.31 454.759C518.31 453.464 517.814 452.417 516.588 452.417C515.361 452.417 514.865 453.464 514.865 454.759ZM512.936 454.759C512.936 452.665 514.231 450.97 516.588 450.97C518.944 450.97 520.239 452.665 520.239 454.759C520.239 456.854 518.944 458.548 516.588 458.548C514.231 458.548 512.936 456.854 512.936 454.759ZM520.863 458.342V451.176H524.308C526.169 451.176 527.133 451.797 527.133 453.106C527.133 454.277 526.031 454.552 526.031 454.552V454.621C526.031 454.621 527.34 454.897 527.34 456.275C527.34 457.653 526.444 458.342 524.515 458.342H520.863ZM524.308 455.31H522.793V456.964H524.446C525.066 456.964 525.411 456.688 525.411 456.137C525.411 455.586 524.997 455.31 524.308 455.31ZM522.793 454.07H524.171C524.86 454.07 525.204 453.795 525.204 453.312C525.204 452.83 524.928 452.554 524.308 452.554H522.793V454.07ZM527.957 457.377C527.957 456.771 528.453 456.275 529.059 456.275C529.665 456.275 530.161 456.771 530.161 457.377C530.161 457.984 529.665 458.48 529.059 458.48C528.453 458.48 527.957 457.984 527.957 457.377ZM325.287 464.176V471.342H323.496V466.312H323.427L321.842 471.342H320.051L318.466 466.312H318.398V471.342H316.606V464.176H319.5L320.947 469.137L322.394 464.176H325.287ZM333.068 464.176L330.519 471.548C329.954 473.188 329.21 474.029 327.763 474.029C327.074 474.029 326.523 473.822 326.523 473.822V472.237C326.523 472.237 326.937 472.375 327.419 472.375C328.108 472.375 328.383 472.003 328.659 471.342L325.765 464.176H327.832L329.582 468.903L331.002 464.176H333.068ZM333.413 465.692V464.176H340.028V465.692L337.685 467.897C337.685 467.897 340.303 467.966 340.303 470.86C340.303 472.444 339.201 474.029 336.858 474.029C334.171 474.029 333.207 472.444 333.207 470.791H335.136C335.136 471.755 335.618 472.582 336.858 472.582C337.809 472.582 338.374 471.893 338.374 470.928C338.374 469.895 337.892 469.137 335.963 469.137H335.411V468.035L337.823 465.692H333.413ZM340.788 471.342V464.176H342.717V466.795H343.544C345.542 466.795 346.644 467.69 346.644 469.068C346.644 470.446 345.542 471.342 343.544 471.342H340.788ZM343.268 468.173H342.717V469.964H343.268C344.301 469.964 344.715 469.688 344.715 469.068C344.715 468.448 344.301 468.173 343.268 468.173ZM349.124 464.176V471.342H347.195V464.176H349.124ZM349.817 471.342V464.176H351.746V467.07L354.295 464.176H356.569L353.868 466.974L356.707 471.342H354.35L352.532 468.352L351.746 469.165V471.342H349.817ZM358.839 466.381H356.91C357.02 464.548 358.495 463.97 360.148 463.97C361.871 463.97 363.249 464.59 363.249 466.45V471.342H361.32V469.964H361.251C361.251 469.964 360.81 471.548 358.977 471.548C357.668 471.548 356.704 470.942 356.704 469.619C356.704 468.283 357.806 467.676 358.991 467.373C360.19 467.07 361.32 466.974 361.32 466.174C361.32 465.61 360.906 465.279 360.148 465.279C359.322 465.279 358.867 465.61 358.839 466.381ZM361.32 467.732C361.003 468.021 360.355 468.173 359.804 468.31C359.184 468.462 358.66 468.779 358.66 469.413C358.66 469.964 359.046 470.308 359.666 470.308C360.975 470.308 361.32 468.793 361.32 467.732ZM364.002 470.377C364.002 469.771 364.498 469.275 365.104 469.275C365.711 469.275 366.207 469.771 366.207 470.377C366.207 470.984 365.711 471.48 365.104 471.48C364.498 471.48 364.002 470.984 364.002 470.377ZM371.163 471.342V467.346C371.163 466.106 370.915 465.554 370.158 465.554C369.331 465.554 368.89 466.174 368.89 467.621V471.342H366.961V464.176H368.821V465.348H368.89C368.89 465.348 369.372 463.97 370.819 463.97C371.976 463.97 372.597 464.521 372.872 465.361L372.886 465.348H372.955C372.955 465.348 373.575 463.97 375.022 463.97C376.813 463.97 377.295 465.279 377.295 466.932V471.342H375.366V467.346C375.366 466.106 375.118 465.554 374.36 465.554C373.534 465.554 373.093 466.174 373.093 467.621V471.342H371.163ZM379.98 466.381H378.051C378.161 464.548 379.635 463.97 381.289 463.97C383.011 463.97 384.389 464.59 384.389 466.45V471.342H382.46V469.964H382.391C382.391 469.964 381.95 471.548 380.117 471.548C378.808 471.548 377.844 470.942 377.844 469.619C377.844 468.283 378.946 467.676 380.131 467.373C381.33 467.07 382.46 466.974 382.46 466.174C382.46 465.61 382.047 465.279 381.289 465.279C380.462 465.279 380.007 465.61 379.98 466.381ZM382.46 467.732C382.143 468.021 381.495 468.173 380.944 468.31C380.324 468.462 379.801 468.779 379.801 469.413C379.801 469.964 380.186 470.308 380.806 470.308C382.115 470.308 382.46 468.793 382.46 467.732ZM389.689 471.342V468.517H387.002V471.342H385.073V464.176H387.002V467.001H389.689V464.176H391.619V471.342H389.689ZM399.961 468.861V473.133H399.409V468.861H399.961ZM398.996 464.176V471.342H397.136V470.171H397.067C397.067 470.171 396.447 471.548 394.862 471.548C392.864 471.548 392.313 470.239 392.313 468.586V464.176H394.242V468.173C394.242 469.413 394.586 469.964 395.482 469.964C396.516 469.964 397.067 469.344 397.067 467.897V464.176H398.996ZM400.441 471.342V464.176H402.37V466.795H403.197C405.195 466.795 406.297 467.69 406.297 469.068C406.297 470.446 405.195 471.342 403.197 471.342H400.441ZM402.921 468.173H402.37V469.964H402.921C403.954 469.964 404.368 469.688 404.368 469.068C404.368 468.448 403.954 468.173 402.921 468.173ZM408.777 464.176V471.342H406.848V464.176H408.777ZM409.539 470.377C409.539 469.771 410.035 469.275 410.641 469.275C411.248 469.275 411.744 469.771 411.744 470.377C411.744 470.984 411.248 471.48 410.641 471.48C410.035 471.48 409.539 470.984 409.539 470.377ZM412.498 471.342V464.176H414.427V467.07L416.976 464.176H419.25L416.549 466.974L419.387 471.342H417.031L415.212 468.352L414.427 469.165V471.342H412.498ZM421.046 467.759C421.046 469.054 421.542 470.102 422.768 470.102C423.995 470.102 424.491 469.054 424.491 467.759C424.491 466.464 423.995 465.417 422.768 465.417C421.542 465.417 421.046 466.464 421.046 467.759ZM419.117 467.759C419.117 465.665 420.412 463.97 422.768 463.97C425.125 463.97 426.42 465.665 426.42 467.759C426.42 469.854 425.125 471.548 422.768 471.548C420.412 471.548 419.117 469.854 419.117 467.759ZM427.044 471.342V464.176H428.973V467.07L431.523 464.176H433.796L431.095 466.974L433.934 471.342H431.578L429.759 468.352L428.973 469.165V471.342H427.044ZM438.689 471.342V467.346C438.689 466.106 438.44 465.554 437.683 465.554C436.856 465.554 436.415 466.174 436.415 467.621V471.342H434.486V464.176H436.346V465.348H436.415C436.415 465.348 436.897 463.97 438.344 463.97C439.502 463.97 440.122 464.521 440.397 465.361L440.411 465.348H440.48C440.48 465.348 441.1 463.97 442.547 463.97C444.338 463.97 444.82 465.279 444.82 466.932V471.342H442.891V467.346C442.891 466.106 442.643 465.554 441.885 465.554C441.059 465.554 440.618 466.174 440.618 467.621V471.342H438.689ZM445.438 467.759C445.438 465.665 446.664 463.97 449.02 463.97C451.377 463.97 452.465 465.665 452.465 467.759C452.465 467.924 452.452 468.173 452.452 468.173H447.381C447.463 469.275 447.932 470.102 449.089 470.102C450.261 470.102 450.467 468.999 450.467 468.999H452.396C452.396 468.999 451.983 471.548 449.02 471.548C446.609 471.548 445.438 469.854 445.438 467.759ZM449.02 465.417C448.07 465.417 447.601 466.05 447.436 466.932H450.481C450.357 466.05 449.971 465.417 449.02 465.417ZM453.772 463.487V462.936H459.077V463.487H453.772ZM459.766 464.176V471.342H457.906V470.171H457.837C457.837 470.171 457.217 471.548 455.632 471.548C453.634 471.548 453.083 470.239 453.083 468.586V464.176H455.012V468.173C455.012 469.413 455.356 469.964 456.252 469.964C457.285 469.964 457.837 469.344 457.837 467.897V464.176H459.766ZM460.25 471.342L462.827 464.176H465.004L467.581 471.342H465.514L463.86 466.257L462.207 471.342H460.25ZM474.541 464.176V471.342H472.681V470.171H472.612C472.612 470.171 471.992 471.548 470.407 471.548C468.409 471.548 467.858 470.239 467.858 468.586V464.176H469.787V468.173C469.787 469.413 470.132 469.964 471.027 469.964C472.061 469.964 472.612 469.344 472.612 467.897V464.176H474.541ZM475.301 470.377C475.301 469.771 475.797 469.275 476.404 469.275C477.01 469.275 477.506 469.771 477.506 470.377C477.506 470.984 477.01 471.48 476.404 471.48C475.797 471.48 475.301 470.984 475.301 470.377ZM316.606 485.342V478.176H320.051C321.911 478.176 322.876 478.797 322.876 480.106C322.876 481.277 321.774 481.552 321.774 481.552V481.621C321.774 481.621 323.083 481.897 323.083 483.275C323.083 484.653 322.187 485.342 320.258 485.342H316.606ZM320.051 482.31H318.535V483.964H320.189C320.809 483.964 321.153 483.688 321.153 483.137C321.153 482.586 320.74 482.31 320.051 482.31ZM318.535 481.07H319.913C320.602 481.07 320.947 480.795 320.947 480.312C320.947 479.83 320.671 479.554 320.051 479.554H318.535V481.07ZM323.494 481.759C323.494 479.665 324.721 477.97 327.077 477.97C329.433 477.97 330.522 479.665 330.522 481.759C330.522 481.924 330.508 482.173 330.508 482.173H325.437C325.52 483.275 325.988 484.102 327.146 484.102C328.317 484.102 328.524 482.999 328.524 482.999H330.453C330.453 482.999 330.04 485.548 327.077 485.548C324.666 485.548 323.494 483.854 323.494 481.759ZM327.077 479.417C326.126 479.417 325.658 480.05 325.492 480.932H328.538C328.414 480.05 328.028 479.417 327.077 479.417ZM331.07 481.759C331.07 479.665 332.311 477.97 334.653 477.97C337.822 477.97 338.029 480.795 338.029 480.795H336.1C336.1 480.795 336.031 479.417 334.653 479.417C333.427 479.417 333 480.464 333 481.759C333 483.054 333.427 484.102 334.653 484.102C336.031 484.102 336.1 482.724 336.1 482.724H338.029C338.029 482.724 337.822 485.548 334.653 485.548C332.311 485.548 331.07 483.854 331.07 481.759ZM338.579 481.759C338.579 479.665 339.806 477.97 342.162 477.97C344.518 477.97 345.607 479.665 345.607 481.759C345.607 481.924 345.593 482.173 345.593 482.173H340.522C340.605 483.275 341.073 484.102 342.231 484.102C343.402 484.102 343.609 482.999 343.609 482.999H345.538C345.538 482.999 345.124 485.548 342.162 485.548C339.75 485.548 338.579 483.854 338.579 481.759ZM342.162 479.417C341.211 479.417 340.743 480.05 340.577 480.932H343.622C343.498 480.05 343.113 479.417 342.162 479.417ZM345.533 485.342L348.11 478.176H350.287L352.864 485.342H350.797L349.143 480.257L347.49 485.342H345.533ZM353.343 485.342V478.176H355.272V480.795H356.443C358.441 480.795 359.543 481.69 359.543 483.068C359.543 484.446 358.441 485.342 356.443 485.342H353.343ZM356.167 482.173H355.272V483.964H356.167C357.201 483.964 357.614 483.688 357.614 483.068C357.614 482.448 357.201 482.173 356.167 482.173ZM360.029 481.759C360.029 479.665 361.255 477.97 363.612 477.97C365.968 477.97 367.056 479.665 367.056 481.759C367.056 481.924 367.043 482.173 367.043 482.173H361.972C362.055 483.275 362.523 484.102 363.681 484.102C364.852 484.102 365.058 482.999 365.058 482.999H366.988C366.988 482.999 366.574 485.548 363.612 485.548C361.2 485.548 360.029 483.854 360.029 481.759ZM363.612 479.417C362.661 479.417 362.192 480.05 362.027 480.932H365.072C364.948 480.05 364.562 479.417 363.612 479.417ZM367.743 484.377C367.743 483.771 368.239 483.275 368.845 483.275C369.451 483.275 369.948 483.771 369.948 484.377C369.948 484.984 369.451 485.48 368.845 485.48C368.239 485.48 367.743 484.984 367.743 484.377ZM369.81 475.696V482.586H367.881V475.696H369.81Z" fill="white"/>
<path d="M57.2074 252.068V256.918H36.042V254.934C36.042 244.351 51.0342 246.115 51.0342 241.264C51.0342 239.06 49.2704 237.957 46.6247 237.957C43.9791 237.957 42.2153 239.501 42.2153 242.367V243.028H36.042V242.367C36.042 236.635 40.4515 233.327 46.8452 233.327C52.798 233.327 57.2074 236.194 57.2074 241.264C57.2074 249.201 45.7428 248.54 43.0972 252.068H57.2074ZM69.7537 233.989V256.918H63.5804V241.926H58.5096V238.839C64.9033 238.839 66.0056 233.989 66.0056 233.989H69.7537ZM72.8368 253.831C72.8368 251.891 74.4242 250.304 76.3644 250.304C78.3045 250.304 79.8919 251.891 79.8919 253.831C79.8919 255.772 78.3045 257.359 76.3644 257.359C74.4242 257.359 72.8368 255.772 72.8368 253.831ZM72.8368 237.516C72.8368 235.576 74.4242 233.989 76.3644 233.989C78.3045 233.989 79.8919 235.576 79.8919 237.516C79.8919 239.457 78.3045 241.044 76.3644 241.044C74.4242 241.044 72.8368 239.457 72.8368 237.516ZM88.7212 245.453C88.7212 249.598 90.3086 252.949 94.233 252.949C98.1574 252.949 99.7448 249.598 99.7448 245.453C99.7448 241.309 98.1574 237.957 94.233 237.957C90.3086 237.957 88.7212 241.309 88.7212 245.453ZM82.548 245.453C82.548 238.751 86.6928 233.327 94.233 233.327C101.773 233.327 105.918 238.751 105.918 245.453C105.918 252.156 101.773 257.579 94.233 257.579C86.6928 257.579 82.548 252.156 82.548 245.453ZM113.869 245.453C113.869 249.598 115.456 252.949 119.381 252.949C123.305 252.949 124.892 249.598 124.892 245.453C124.892 241.309 123.305 237.957 119.381 237.957C115.456 237.957 113.869 241.309 113.869 245.453ZM107.696 245.453C107.696 238.751 111.84 233.327 119.381 233.327C126.921 233.327 131.066 238.751 131.066 245.453C131.066 252.156 126.921 257.579 119.381 257.579C111.84 257.579 107.696 252.156 107.696 245.453Z" fill="white"/>
</g>
<defs>
<clipPath id="clip0_879_75">
<rect width="541.535" height="766.142" fill="white" transform="translate(0.710938)"/>
</clipPath>
</defs>
</svg>
