<svg width="795" height="167" viewBox="0 0 795 167" fill="none" xmlns="http://www.w3.org/2000/svg">
<g filter="url(#filter0_d_1045_183)">
<path d="M59.616 104L38.688 46.4H54.336L62.016 67.52H64.608L56.928 46.4H72.576L93.504 104H77.856L70.176 82.88H67.68L75.36 104H59.616ZM112.796 104.672C108.188 104.672 104.38 103.84 101.372 102.176C98.4275 100.512 95.7715 97.728 93.4035 93.824C91.0355 89.92 88.4755 84.192 85.7235 76.64L84.6675 73.76C82.0435 66.656 80.5395 61.088 80.1555 57.056C79.7715 53.024 80.4755 50.144 82.2675 48.416C84.0595 46.624 87.0995 45.728 91.3875 45.728C95.3555 45.728 98.7795 46.464 101.66 47.936C104.604 49.344 107.26 51.776 109.628 55.232C112.06 58.688 114.364 63.456 116.54 69.536L117.884 73.376H102.716L98.6835 62.336C98.6195 62.016 98.3955 61.728 98.0115 61.472C97.6275 61.216 97.2755 61.088 96.9555 61.088C96.6355 61.088 96.3795 61.216 96.1875 61.472C96.0595 61.728 96.0595 62.016 96.1875 62.336L105.5 88.064C105.628 88.384 105.852 88.672 106.172 88.928C106.556 89.184 106.908 89.312 107.228 89.312C107.548 89.312 107.804 89.184 107.996 88.928C108.188 88.672 108.22 88.384 108.092 88.064L105.692 81.44H120.86L121.244 82.496C123.1 87.616 123.996 91.84 123.932 95.168C123.868 98.432 122.876 100.832 120.956 102.368C119.1 103.904 116.38 104.672 112.796 104.672ZM97.0515 79.136L93.9795 70.496H116.828L119.996 79.136H97.0515ZM147.753 104.672C143.465 104.672 139.849 103.84 136.905 102.176C133.961 100.512 131.273 97.696 128.841 93.728C126.409 89.76 123.849 84.064 121.161 76.64L120.105 73.76C117.545 66.72 116.105 61.184 115.785 57.152C115.465 53.056 116.265 50.144 118.185 48.416C120.041 46.624 123.081 45.728 127.305 45.728C131.657 45.728 135.305 46.56 138.249 48.224C141.193 49.888 143.881 52.704 146.313 56.672C148.745 60.64 151.305 66.336 153.993 73.76L155.049 76.64C157.609 83.68 159.017 89.248 159.273 93.344C159.593 97.376 158.793 100.288 156.873 102.08C155.017 103.808 151.977 104.672 147.753 104.672ZM142.665 89.312C142.985 89.312 143.241 89.184 143.433 88.928C143.625 88.672 143.657 88.384 143.529 88.064L134.121 62.336C133.993 62.016 133.737 61.728 133.353 61.472C133.033 61.216 132.713 61.088 132.393 61.088C132.073 61.088 131.817 61.216 131.625 61.472C131.497 61.728 131.497 62.016 131.625 62.336L140.937 88.064C141.065 88.384 141.289 88.672 141.609 88.928C141.993 89.184 142.345 89.312 142.665 89.312ZM167.054 104L146.125 46.4H161.773L169.454 67.52H172.046L164.366 46.4H180.014L200.942 104H185.294L177.614 82.88H175.118L182.798 104H167.054ZM219.753 104.672C215.465 104.672 211.849 103.84 208.905 102.176C205.961 100.512 203.273 97.696 200.841 93.728C198.409 89.76 195.849 84.064 193.161 76.64L192.105 73.76C189.545 66.72 188.105 61.184 187.785 57.152C187.465 53.056 188.265 50.144 190.185 48.416C192.041 46.624 195.081 45.728 199.305 45.728C203.657 45.728 207.305 46.56 210.249 48.224C213.193 49.888 215.881 52.704 218.313 56.672C220.745 60.64 223.305 66.336 225.993 73.76L227.049 76.64C229.609 83.68 231.017 89.248 231.273 93.344C231.593 97.376 230.793 100.288 228.873 102.08C227.017 103.808 223.977 104.672 219.753 104.672ZM214.665 89.312C214.985 89.312 215.241 89.184 215.433 88.928C215.625 88.672 215.657 88.384 215.529 88.064L206.121 62.336C205.993 62.016 205.737 61.728 205.353 61.472C205.033 61.216 204.713 61.088 204.393 61.088C204.073 61.088 203.817 61.216 203.625 61.472C203.497 61.728 203.497 62.016 203.625 62.336L212.937 88.064C213.065 88.384 213.289 88.672 213.609 88.928C213.993 89.184 214.345 89.312 214.665 89.312ZM239.054 104L218.125 46.4H234.734C239.214 46.4 242.894 46.944 245.774 48.032C248.718 49.12 251.118 50.816 252.974 53.12C254.83 55.424 256.494 58.56 257.966 62.528C259.758 67.328 260.174 70.88 259.214 73.184C258.254 75.488 255.95 76.64 252.302 76.64L251.15 73.472C254.798 73.472 258.03 74.624 260.846 76.928C263.662 79.232 265.902 82.656 267.566 87.2C269.742 93.152 269.838 97.44 267.854 100.064C265.934 102.688 261.902 104 255.758 104H239.054ZM251.054 91.232C251.566 91.232 251.918 91.104 252.109 90.848C252.302 90.592 252.302 90.208 252.109 89.696L249.134 81.632C248.814 80.608 248.11 80.096 247.022 80.096H246.062L250.094 91.232H251.054ZM243.566 70.496C244.078 70.496 244.398 70.368 244.526 70.112C244.718 69.792 244.718 69.408 244.526 68.96L241.549 60.704C241.358 60.192 241.07 59.808 240.686 59.552C240.302 59.296 239.885 59.168 239.438 59.168H238.478L242.606 70.496H243.566ZM295.1 104L289.916 93.728L288.284 89.312L278.492 62.336C278.428 62.016 278.204 61.728 277.82 61.472C277.436 61.216 277.084 61.088 276.764 61.088C276.444 61.088 276.188 61.216 275.996 61.472C275.868 61.728 275.868 62.016 275.996 62.336L277.916 67.616H262.747L261.595 64.544C259.355 58.592 259.003 53.984 260.539 50.72C262.075 47.392 265.628 45.728 271.196 45.728C277.212 45.728 282.076 47.264 285.788 50.336C289.564 53.408 292.7 58.368 295.196 65.216L309.308 104H295.1ZM285.212 104.672C282.14 104.672 279.292 103.328 276.668 100.64C274.044 97.888 271.58 93.312 269.276 86.912C266.908 80.448 266.14 75.872 266.972 73.184C267.868 70.496 270.236 69.152 274.076 69.152C276.828 69.152 279.068 69.728 280.796 70.88C282.588 72.032 283.9 73.824 284.732 76.256L286.556 81.344H285.404L284.828 79.808H283.868C283.356 79.808 283.004 79.968 282.812 80.288C282.684 80.544 282.716 80.896 282.908 81.344L285.596 88.736C285.66 89.056 285.884 89.344 286.268 89.6C286.652 89.856 287.004 89.984 287.324 89.984C287.644 89.984 287.868 89.856 287.996 89.6C288.188 89.344 288.22 89.056 288.092 88.736L287.996 88.448L290.204 92.192C291.548 94.496 292.156 96.608 292.028 98.528C291.964 100.384 291.292 101.888 290.012 103.04C288.796 104.128 287.196 104.672 285.212 104.672ZM305.856 88.544C304.192 84 303.968 80.608 305.184 78.368C306.4 76.064 309.248 74.912 313.728 74.912L315.264 79.232C310.656 79.232 306.944 78.08 304.128 75.776C301.312 73.408 298.88 69.44 296.832 63.872C295.296 59.584 294.624 56.192 294.816 53.696C295.008 51.136 296.128 49.28 298.176 48.128C300.16 46.976 303.264 46.4 307.488 46.4H324.384L345.312 104H329.664L322.56 84.416H321.6C321.088 84.416 320.736 84.544 320.544 84.8C320.416 85.056 320.416 85.44 320.544 85.952L327.168 104H311.424L305.856 88.544ZM316.992 71.744H317.952L313.344 59.168H312.384C311.36 59.168 311.008 59.68 311.328 60.704L314.784 70.208C315.168 71.232 315.904 71.744 316.992 71.744ZM366.179 104L345.25 46.4H361.859C366.339 46.4 370.019 46.944 372.899 48.032C375.843 49.12 378.243 50.816 380.099 53.12C381.955 55.424 383.619 58.56 385.091 62.528C386.883 67.328 387.299 70.88 386.339 73.184C385.379 75.488 383.075 76.64 379.427 76.64L378.275 73.472C381.923 73.472 385.155 74.624 387.971 76.928C390.787 79.232 393.027 82.656 394.691 87.2C396.867 93.152 396.963 97.44 394.979 100.064C393.059 102.688 389.027 104 382.883 104H366.179ZM378.179 91.232C378.691 91.232 379.043 91.104 379.234 90.848C379.427 90.592 379.427 90.208 379.234 89.696L376.259 81.632C375.939 80.608 375.235 80.096 374.147 80.096H373.187L377.219 91.232H378.179ZM370.691 70.496C371.203 70.496 371.523 70.368 371.651 70.112C371.843 69.792 371.843 69.408 371.651 68.96L368.674 60.704C368.483 60.192 368.195 59.808 367.811 59.552C367.427 59.296 367.01 59.168 366.562 59.168H365.603L369.731 70.496H370.691ZM419.921 104.672C415.313 104.672 411.505 103.84 408.497 102.176C405.553 100.512 402.897 97.728 400.529 93.824C398.161 89.92 395.601 84.192 392.849 76.64L391.793 73.76C389.168 66.656 387.664 61.088 387.28 57.056C386.896 53.024 387.6 50.144 389.392 48.416C391.184 46.624 394.225 45.728 398.513 45.728C402.481 45.728 405.905 46.464 408.785 47.936C411.729 49.344 414.385 51.776 416.753 55.232C419.185 58.688 421.489 63.456 423.665 69.536L425.009 73.376H409.841L405.809 62.336C405.745 62.016 405.521 61.728 405.137 61.472C404.753 61.216 404.401 61.088 404.081 61.088C403.761 61.088 403.505 61.216 403.312 61.472C403.185 61.728 403.185 62.016 403.312 62.336L412.625 88.064C412.753 88.384 412.977 88.672 413.297 88.928C413.681 89.184 414.033 89.312 414.353 89.312C414.673 89.312 414.929 89.184 415.121 88.928C415.313 88.672 415.345 88.384 415.217 88.064L412.817 81.44H427.985L428.369 82.496C430.225 87.616 431.121 91.84 431.057 95.168C430.993 98.432 430.001 100.832 428.081 102.368C426.225 103.904 423.505 104.672 419.921 104.672ZM404.177 79.136L401.105 70.496H423.953L427.121 79.136H404.177ZM456.222 104L435.294 46.4H450.942L471.87 104H456.222ZM444.702 85.472C440.094 85.472 436.254 84.256 433.182 81.824C430.11 79.392 427.486 75.168 425.31 69.152L417.054 46.4H432.702L440.862 68.864C440.99 69.184 441.214 69.472 441.534 69.728C441.918 69.984 442.27 70.112 442.59 70.112C442.91 70.112 443.166 69.984 443.358 69.728C443.55 69.472 443.582 69.184 443.454 68.864L443.358 68.576L451.71 72.992C453.182 77.088 453.31 80.192 452.094 82.304C450.942 84.416 448.478 85.472 444.702 85.472ZM491.171 104.672C486.563 104.672 482.755 103.84 479.747 102.176C476.803 100.512 474.147 97.728 471.779 93.824C469.411 89.92 466.851 84.192 464.099 76.64L463.043 73.76C460.418 66.656 458.914 61.088 458.53 57.056C458.146 53.024 458.85 50.144 460.642 48.416C462.434 46.624 465.475 45.728 469.763 45.728C473.731 45.728 477.155 46.464 480.035 47.936C482.979 49.344 485.635 51.776 488.003 55.232C490.435 58.688 492.739 63.456 494.915 69.536L496.259 73.376H481.091L477.059 62.336C476.995 62.016 476.771 61.728 476.387 61.472C476.003 61.216 475.651 61.088 475.331 61.088C475.011 61.088 474.755 61.216 474.562 61.472C474.435 61.728 474.435 62.016 474.562 62.336L483.875 88.064C484.003 88.384 484.227 88.672 484.547 88.928C484.931 89.184 485.283 89.312 485.603 89.312C485.923 89.312 486.179 89.184 486.371 88.928C486.563 88.672 486.595 88.384 486.467 88.064L484.067 81.44H499.235L499.619 82.496C501.475 87.616 502.371 91.84 502.307 95.168C502.243 98.432 501.251 100.832 499.331 102.368C497.475 103.904 494.755 104.672 491.171 104.672ZM475.427 79.136L472.355 70.496H495.203L498.371 79.136H475.427ZM516.624 123.2L488.688 46.4H502.896L506.64 53.696C506.32 51.2 506.64 49.248 507.6 47.84C508.624 46.432 510.192 45.728 512.304 45.728C514.8 45.728 517.04 46.496 519.024 48.032C521.072 49.568 523.216 52.32 525.456 56.288C527.696 60.256 530.192 65.92 532.944 73.28L534.384 77.12C537.136 84.416 538.832 90.08 539.472 94.112C540.176 98.08 540.016 100.832 538.992 102.368C538.032 103.904 536.304 104.672 533.808 104.672C531.696 104.672 529.744 104.064 527.952 102.848C526.16 101.632 524.4 99.616 522.672 96.8L532.272 123.2H516.624ZM520.752 88.64C521.264 88.64 521.584 88.512 521.712 88.256C521.904 87.936 521.904 87.552 521.712 87.104L512.688 62.336C512.624 62.016 512.4 61.728 512.016 61.472C511.632 61.216 511.28 61.088 510.96 61.088C510.64 61.088 510.384 61.216 510.192 61.472C510.064 61.728 510.064 62.016 510.192 62.336L519.696 88.64H520.752ZM546.366 104L525.438 46.4H540.414L546.846 77.12C546.91 77.568 547.102 77.952 547.422 78.272C547.806 78.528 548.19 78.656 548.574 78.656C548.894 78.656 549.118 78.528 549.246 78.272C549.438 78.016 549.47 77.728 549.342 77.408L542.91 46.4H559.902L580.83 104H565.95L559.614 73.28C559.55 72.832 559.326 72.48 558.942 72.224C558.622 71.904 558.27 71.744 557.886 71.744C557.566 71.744 557.31 71.872 557.118 72.128C556.99 72.32 556.958 72.608 557.022 72.992L563.55 104H546.366ZM583.116 104L562.188 46.4H577.836L585.516 67.52H588.108L580.428 46.4H596.076L617.004 104H601.356L593.676 82.88H591.18L598.86 104H583.116ZM619.304 104L598.375 46.4H614.023L621.992 68.192H622.952C623.4 68.192 623.72 68.064 623.912 67.808C624.104 67.552 624.136 67.168 624.008 66.656L616.616 46.4H635.24L641.192 74.624L656.167 104H637.544L630.152 83.552C629.96 83.04 629.672 82.656 629.288 82.4C628.904 82.144 628.456 82.016 627.944 82.016H626.984L635.048 104H619.304ZM677.037 104L671.853 93.728L670.221 89.312L660.429 62.336C660.365 62.016 660.141 61.728 659.757 61.472C659.373 61.216 659.021 61.088 658.701 61.088C658.381 61.088 658.125 61.216 657.933 61.472C657.805 61.728 657.805 62.016 657.933 62.336L659.853 67.616H644.685L643.533 64.544C641.293 58.592 640.941 53.984 642.477 50.72C644.013 47.392 647.565 45.728 653.133 45.728C659.149 45.728 664.013 47.264 667.725 50.336C671.501 53.408 674.637 58.368 677.133 65.216L691.245 104H677.037ZM667.149 104.672C664.077 104.672 661.229 103.328 658.605 100.64C655.981 97.888 653.517 93.312 651.213 86.912C648.845 80.448 648.077 75.872 648.909 73.184C649.805 70.496 652.173 69.152 656.013 69.152C658.765 69.152 661.005 69.728 662.733 70.88C664.525 72.032 665.837 73.824 666.669 76.256L668.493 81.344H667.341L666.765 79.808H665.805C665.293 79.808 664.941 79.968 664.749 80.288C664.621 80.544 664.653 80.896 664.845 81.344L667.533 88.736C667.597 89.056 667.821 89.344 668.205 89.6C668.589 89.856 668.941 89.984 669.261 89.984C669.581 89.984 669.805 89.856 669.933 89.6C670.125 89.344 670.157 89.056 670.029 88.736L669.933 88.448L672.141 92.192C673.485 94.496 674.093 96.608 673.965 98.528C673.901 100.384 673.229 101.888 671.949 103.04C670.733 104.128 669.133 104.672 667.149 104.672Z" fill="white"/>
</g>
<defs>
<filter id="filter0_d_1045_183" x="34.6875" y="45.7285" width="660.557" height="110.471" filterUnits="userSpaceOnUse" color-interpolation-filters="sRGB">
<feFlood flood-opacity="0" result="BackgroundImageFix"/>
<feColorMatrix in="SourceAlpha" type="matrix" values="0 0 0 0 0 0 0 0 0 0 0 0 0 0 0 0 0 0 127 0" result="hardAlpha"/>
<feOffset dy="29"/>
<feGaussianBlur stdDeviation="2"/>
<feComposite in2="hardAlpha" operator="out"/>
<feColorMatrix type="matrix" values="0 0 0 0 0 0 0 0 0 0 0 0 0 0 0 0 0 0 0.25 0"/>
<feBlend mode="normal" in2="BackgroundImageFix" result="effect1_dropShadow_1045_183"/>
<feBlend mode="normal" in="SourceGraphic" in2="effect1_dropShadow_1045_183" result="shape"/>
</filter>
</defs>
</svg>
